<?xml version="1.0" encoding="utf-8"?>
<!-- Generator: Adobe Illustrator 16.0.0, SVG Export Plug-In . SVG Version: 6.00 Build 0)  -->
<!DOCTYPE svg PUBLIC "-//W3C//DTD SVG 1.1//EN" "http://www.w3.org/Graphics/SVG/1.1/DTD/svg11.dtd">
<svg version="1.1" xmlns="http://www.w3.org/2000/svg" xmlns:xlink="http://www.w3.org/1999/xlink" x="0px" y="0px" width="707px"
	 height="584.099px" viewBox="0 0 707 584.099" enable-background="new 0 0 707 584.099" xml:space="preserve">
<g id="Layer_2">
	<rect y="292.123" fill="#50A947" width="707" height="291.977"/>
	
		<rect fill="#FFFFFF" stroke="#FFFFFF" stroke-width="3.0258" stroke-linejoin="round" stroke-miterlimit="10" width="707" height="291.977"/>
</g>
<g id="Layer_3">
	<g>
		<path fill="#FFFFFF" d="M221.883,483.319c0,2.298-1.865,4.159-4.167,4.159c-2.303,0-4.168-1.861-4.168-4.159
			c0-2.305,1.865-4.167,4.168-4.167C220.018,479.152,221.883,481.014,221.883,483.319z"/>
		<path fill="#FFFFFF" d="M182.657,422.273c-1.728-13.431-9.602-35.225-9.602-35.225l0.205-0.094c0,0,11.431,20.159,20.508,30.208
			c12.288,13.597,16.03,34.833,16.03,34.833s4.646,16.428,9.092,34.116c0,0,0.265,0.758,0.147,0.591
			c0.054,0.198-0.352-0.498,0.148,0.593l-0.5-1.091c-10.544-14.888-20.001-29.102-20.001-29.102S184.994,440.451,182.657,422.273z"
			/>
		<path fill="#FFFFFF" d="M189.129,500.346c-6.387,0.538-16.722,3.979-16.722,3.979l-0.048-0.107c0,0,9.537-5.262,14.268-9.585
			c6.406-5.854,16.494-7.225,16.494-7.225s7.8-1.945,16.2-3.756c0,0,0.357-0.111,0.279-0.059c0.093-0.018-0.237,0.161,0.282-0.063
			l-0.519,0.224c-7.024,4.949-13.74,9.361-13.74,9.361S197.772,499.609,189.129,500.346z"/>
		<path fill="#FFFFFF" d="M166.892,469.83c-7.11-7.137-21.734-15.207-21.734-15.207l0.079-0.201c0,0,16.066,4.596,26.134,4.553
			c13.629-0.064,25.483,10.521,25.483,10.521s10.244,6.975,20.926,14.873c0,0,0.504,0.279,0.358,0.263
			c0.121,0.095-0.439-0.063,0.358,0.267l-0.797-0.329c-13.141-1.942-25.326-4.223-25.326-4.223S176.507,479.491,166.892,469.83z"/>
		<g>
			<path fill="#FFFFFF" d="M217.75,401.158c-0.001,1.698-0.002,3.538-0.004,5.496c-0.006,10.759-0.01,25.104-0.01,39.447
				c0,14.345,0.003,28.689,0.01,39.448c0.003,5.38,0.008,9.863,0.013,13.002c0.001,0.974,0.003,1.818,0.005,2.52
				c-10.664-0.755-20.074-6.683-26.074-16.519c-6.643-10.889-7.406-24.212-1.992-34.77c3-5.851,6.685-11.135,10.585-16.729
				c4.496-6.448,9.146-13.116,12.604-20.678C214.583,408.671,216.208,404.923,217.75,401.158 M220.101,388.582
				c-0.008,0.022-0.017,0.05-0.025,0.07c-0.01-0.021-0.021-0.048-0.027-0.07v0.143c-2.771,7.681-5.875,15.258-9.275,22.684
				c-6.253,13.673-16.478,24.315-23.143,37.313c-11.882,23.17,5.052,54.717,32.418,54.756c0.007,0,0.017,0,0.027,0
				c0.008,0,0.018,0,0.025,0c-0.053,0-0.053-114.753,0-114.753V388.582L220.101,388.582z"/>
		</g>
		<g>
			<path fill="#FFFFFF" d="M220.889,496.015c0.005-4.688,0.01-11.29,0.013-18.938c0-0.599-0.454-1.1-1.05-1.158
				c-0.038-0.003-0.076-0.005-0.113-0.005c-0.55,0-1.032,0.389-1.14,0.939c-0.162,0.826-0.326,1.661-0.492,2.502
				c-2.458-16.229-4.266-30.287-4.286-30.443c-0.005-0.038-0.011-0.075-0.02-0.111c-0.042-0.183-4.12-18.409-0.321-34.961
				c0.174-0.747,0.19-1.455,0.207-2.141c0.019-0.783,0.035-1.46,0.28-2.063c3.305-8.096,5.321-19.386,6.436-27.493
				c1.085,8.896,3.299,21.618,7.604,29.808c3.386,7.407,8.004,14.03,12.471,20.436c3.753,5.381,7.633,10.945,10.669,16.867
				c5.597,10.914,4.817,24.671-2.035,35.902c-6.436,10.549-16.678,16.749-28.236,17.142
				C220.878,502.057,220.889,496.015,220.889,496.015z"/>
			<path fill="#FFFFFF" d="M220.358,389.935c1.3,7.706,3.365,16.335,6.589,22.499c3.455,7.537,8.092,14.186,12.576,20.616
				c3.902,5.596,7.588,10.882,10.589,16.733c5.413,10.557,4.649,23.878-1.993,34.767c-5.994,9.825-15.391,15.752-26.077,16.519
				c0.002-1.253,0.005-2.963,0.008-5.052c0.005-4.688,0.01-11.29,0.013-18.939c0-1.197-0.909-2.199-2.1-2.314
				c-0.076-0.008-0.152-0.012-0.227-0.012c-0.394,0-0.771,0.101-1.102,0.279c-2.131-14.361-3.644-26.123-3.662-26.267
				c-0.009-0.074-0.023-0.148-0.04-0.222c-0.041-0.18-4.057-18.164-0.323-34.436c0.202-0.866,0.221-1.67,0.238-2.38
				c0.016-0.669,0.029-1.247,0.193-1.649C217.435,404.215,219.159,396.719,220.358,389.935 M220.393,371.897
				c0,0-1.897,23.569-7.502,37.3c-0.571,1.406-0.201,2.909-0.543,4.382c-3.906,17.02,0.321,35.479,0.321,35.479
				s2.256,17.594,5.192,36.303c0,0,0.048,0.657,0.086,0.657c0.005,0,0.009-0.011,0.014-0.034c0.004,0.027,0.009,0.037,0.015,0.037
				c0.019,0,0.044-0.113,0.063-0.113c0.021,0,0.033,0.136,0.02,0.704l0.028-1.246c0.573-2.806,1.125-5.59,1.653-8.291
				c-0.007,15.298-0.018,26.402-0.032,26.402c0.008,0,0.02,0,0.023,0c0.011,0,0.02,0,0.026,0
				c27.366-0.039,44.306-31.586,32.424-54.756c-6.664-12.998-16.893-23.641-23.146-37.313c-7.001-13.32-8.416-39.507-8.416-39.507
				L220.393,371.897L220.393,371.897z"/>
		</g>
		<g>
			<g>
				<path fill="#FFFFFF" d="M292.013,450.689c-2.896,0-5.422-0.413-7.575-1.234c-2.157-0.826-3.95-1.989-5.382-3.499
					c-1.433-1.508-2.5-3.319-3.198-5.437c-0.703-2.117-1.051-4.463-1.051-7.038c0-2.528,0.373-4.845,1.12-6.945
					c0.746-2.103,1.852-3.907,3.312-5.417c1.463-1.507,3.284-2.679,5.462-3.518c2.176-0.837,4.7-1.256,7.564-1.256
					c1.948,0,3.652,0.14,5.106,0.422c1.455,0.284,2.669,0.667,3.655,1.154c0.98,0.487,1.716,1.063,2.203,1.727
					c0.489,0.659,0.734,1.373,0.734,2.135c0,0.548-0.13,1.062-0.39,1.542c-0.256,0.48-0.648,0.903-1.165,1.269
					c-0.519,0.365-1.151,0.651-1.899,0.856c-0.744,0.206-1.613,0.308-2.602,0.308c0-0.944-0.112-1.811-0.343-2.604
					c-0.23-0.793-0.584-1.47-1.063-2.035c-0.479-0.562-1.086-1-1.819-1.314c-0.732-0.311-1.59-0.467-2.58-0.467
					c-1.705,0-3.156,0.313-4.354,0.938c-1.194,0.625-2.173,1.539-2.922,2.741c-0.755,1.204-1.305,2.685-1.648,4.445
					c-0.341,1.76-0.513,3.767-0.513,6.02c0,2.254,0.179,4.254,0.537,6.001c0.357,1.744,0.938,3.21,1.736,4.396
					c0.799,1.19,1.837,2.093,3.108,2.708c1.271,0.617,2.826,0.928,4.672,0.928c0.579,0,1.159-0.023,1.737-0.071
					c0.581-0.046,1.143-0.127,1.692-0.25v-6.879c0-1.247-0.286-2.116-0.848-2.604c-0.566-0.486-1.391-0.729-2.491-0.729h-0.617
					v-2.47h14.717v2.47h-0.618c-0.47,0-0.882,0.057-1.233,0.17c-0.35,0.114-0.639,0.309-0.868,0.582
					c-0.228,0.274-0.398,0.638-0.503,1.085c-0.11,0.451-0.16,1.012-0.16,1.68v7.677c-1.827,0.843-3.672,1.468-5.531,1.887
					C296.139,450.479,294.147,450.689,292.013,450.689z"/>
				<path fill="#FFFFFF" d="M322.44,450.23h-15.628v-2.49h0.133c0.534,0,1.023-0.036,1.465-0.114
					c0.439-0.075,0.822-0.231,1.144-0.47c0.318-0.237,0.566-0.575,0.739-1.017c0.176-0.441,0.264-1.027,0.264-1.758v-13.573
					c0-0.685-0.08-1.237-0.241-1.656c-0.156-0.419-0.387-0.743-0.684-0.972c-0.299-0.229-0.651-0.378-1.063-0.444
					c-0.413-0.069-0.878-0.104-1.395-0.104h-0.136v-2.491h9.46l0.937,3.656h0.228c0.306-0.7,0.64-1.313,1.005-1.84
					c0.365-0.524,0.806-0.962,1.313-1.313c0.511-0.351,1.11-0.613,1.806-0.787c0.694-0.176,1.52-0.264,2.48-0.264
					c1.843,0,3.199,0.325,4.066,0.971c0.868,0.646,1.304,1.588,1.304,2.822c0,1.433-0.522,2.544-1.556,3.336
					c-1.035,0.792-2.5,1.188-4.387,1.188c0-0.639-0.033-1.203-0.103-1.691c-0.068-0.486-0.188-0.889-0.366-1.21
					c-0.176-0.32-0.412-0.563-0.708-0.732c-0.296-0.166-0.668-0.251-1.11-0.251c-0.546,0-1.019,0.138-1.415,0.412
					c-0.397,0.274-0.732,0.628-1.005,1.063c-0.273,0.436-0.5,0.926-0.676,1.473c-0.173,0.55-0.312,1.101-0.409,1.656
					c-0.099,0.558-0.167,1.087-0.196,1.591c-0.029,0.5-0.045,0.935-0.045,1.301v8.088c0,0.685,0.083,1.239,0.252,1.656
					c0.168,0.419,0.397,0.734,0.686,0.948c0.289,0.215,0.636,0.358,1.039,0.425c0.402,0.069,0.835,0.103,1.291,0.103h1.509V450.23z"
					/>
				<path fill="#FFFFFF" d="M342.332,450.689c-1.982,0-3.727-0.29-5.245-0.869c-1.513-0.58-2.783-1.418-3.804-2.513
					c-1.021-1.098-1.789-2.442-2.307-4.034c-0.519-1.592-0.777-3.409-0.777-5.45c0-2.192,0.258-4.12,0.777-5.781
					c0.518-1.659,1.273-3.046,2.263-4.159c0.989-1.11,2.206-1.944,3.644-2.501c1.439-0.557,3.081-0.834,4.925-0.834
					c1.688,0,3.213,0.239,4.57,0.721c1.354,0.479,2.505,1.191,3.446,2.136c0.945,0.944,1.67,2.117,2.173,3.518
					c0.504,1.402,0.756,3.031,0.756,4.89v2.401H337.42c0.043,1.569,0.216,2.916,0.515,4.042c0.296,1.129,0.71,2.06,1.232,2.79
					c0.528,0.73,1.167,1.271,1.921,1.621c0.752,0.353,1.618,0.526,2.592,0.526c0.807,0,1.551-0.094,2.24-0.287
					c0.684-0.188,1.304-0.458,1.859-0.799c0.557-0.342,1.046-0.745,1.465-1.211c0.418-0.466,0.764-0.964,1.039-1.497
					c0.838,0.457,1.257,1.219,1.257,2.284c0,0.671-0.183,1.309-0.548,1.91c-0.366,0.601-0.931,1.13-1.691,1.587
					c-0.764,0.458-1.718,0.823-2.866,1.097C345.281,450.548,343.918,450.689,342.332,450.689z M341.899,427.586
					c-1.313,0-2.35,0.647-3.121,1.942c-0.768,1.294-1.191,3.19-1.268,5.69h8.087c0-1.19-0.067-2.257-0.205-3.199
					c-0.136-0.945-0.354-1.745-0.65-2.401c-0.298-0.652-0.681-1.156-1.141-1.507C343.136,427.761,342.568,427.586,341.899,427.586z"
					/>
				<path fill="#FFFFFF" d="M366.702,450.689c-1.981,0-3.731-0.29-5.243-0.869c-1.519-0.58-2.785-1.418-3.806-2.513
					c-1.02-1.098-1.789-2.442-2.306-4.034c-0.52-1.592-0.778-3.409-0.778-5.45c0-2.192,0.259-4.12,0.778-5.781
					c0.517-1.659,1.27-3.046,2.262-4.159c0.991-1.11,2.204-1.944,3.646-2.501c1.437-0.557,3.08-0.834,4.923-0.834
					c1.691,0,3.211,0.239,4.569,0.721c1.355,0.479,2.504,1.191,3.448,2.136c0.946,0.944,1.668,2.117,2.172,3.518
					c0.503,1.402,0.755,3.031,0.755,4.89v2.401h-15.331c0.043,1.569,0.215,2.916,0.514,4.042c0.298,1.129,0.71,2.06,1.234,2.79
					c0.521,0.73,1.163,1.271,1.918,1.621c0.754,0.353,1.617,0.526,2.593,0.526c0.81,0,1.555-0.094,2.241-0.287
					c0.685-0.188,1.305-0.458,1.859-0.799c0.561-0.342,1.044-0.745,1.464-1.211c0.421-0.466,0.768-0.964,1.04-1.497
					c0.837,0.457,1.256,1.219,1.256,2.284c0,0.671-0.185,1.309-0.547,1.91c-0.367,0.601-0.93,1.13-1.692,1.587
					c-0.762,0.458-1.716,0.823-2.864,1.097C369.652,450.548,368.286,450.689,366.702,450.689z M366.267,427.586
					c-1.313,0-2.351,0.647-3.118,1.942c-0.767,1.294-1.192,3.19-1.269,5.69h8.088c0-1.19-0.065-2.257-0.205-3.199
					c-0.136-0.945-0.354-1.745-0.649-2.401c-0.299-0.652-0.679-1.156-1.142-1.507C367.505,427.761,366.937,427.586,366.267,427.586z
					"/>
				<path fill="#FFFFFF" d="M396.352,450.23v-15.4c0-1.005-0.064-1.9-0.193-2.684c-0.131-0.785-0.345-1.445-0.64-1.979
					c-0.3-0.53-0.687-0.939-1.166-1.224c-0.481-0.278-1.063-0.42-1.747-0.42c-0.777,0-1.425,0.197-1.944,0.593
					c-0.52,0.397-0.931,0.925-1.246,1.589c-0.311,0.662-0.532,1.431-0.673,2.308c-0.139,0.876-0.205,1.793-0.205,2.753v8.934
					c0,0.656,0.081,1.181,0.238,1.577c0.16,0.397,0.385,0.706,0.676,0.926c0.288,0.218,0.641,0.368,1.062,0.435
					c0.419,0.069,0.885,0.103,1.406,0.103h0.139v2.49h-14.374v-2.49h0.09c0.534,0,1.024-0.033,1.463-0.103
					c0.443-0.066,0.827-0.218,1.152-0.445c0.328-0.228,0.587-0.557,0.765-0.982c0.188-0.425,0.277-0.99,0.277-1.69v-13.848
					c0-0.655-0.08-1.18-0.242-1.577c-0.155-0.396-0.385-0.705-0.683-0.925c-0.298-0.222-0.654-0.367-1.063-0.434
					c-0.412-0.069-0.877-0.104-1.394-0.104h-0.139v-2.491h9.828l0.616,3.337h0.226c0.475-0.884,0.974-1.586,1.497-2.104
					c0.524-0.518,1.084-0.913,1.68-1.188c0.595-0.273,1.223-0.447,1.887-0.525c0.662-0.075,1.36-0.113,2.09-0.113
					c1.2,0,2.285,0.175,3.245,0.525c0.958,0.351,1.77,0.891,2.434,1.622c0.661,0.733,1.169,1.664,1.518,2.799
					c0.351,1.136,0.528,2.495,0.528,4.08v10.851c0,0.731,0.063,1.314,0.191,1.751c0.131,0.432,0.324,0.763,0.584,0.993
					c0.258,0.228,0.585,0.382,0.983,0.457c0.396,0.078,0.858,0.114,1.394,0.114h0.137v2.49H396.352z"/>
				<path fill="#FFFFFF" d="M428.742,425.393l4.573,13.803c0.38,1.128,0.655,2.08,0.818,2.866c0.169,0.785,0.308,1.466,0.413,2.044
					h0.136c0.077-0.394,0.149-0.769,0.22-1.12c0.067-0.35,0.151-0.715,0.251-1.096c0.099-0.381,0.209-0.797,0.331-1.244
					c0.12-0.451,0.274-0.965,0.457-1.545l2.057-6.83c0.121-0.397,0.226-0.823,0.311-1.28c0.084-0.456,0.121-0.815,0.121-1.075
					c0-0.79-0.254-1.371-0.764-1.735s-1.288-0.548-2.343-0.548h-0.321v-2.491h10.721v2.491h-0.595c-0.457,0-0.854,0.045-1.189,0.137
					c-0.336,0.09-0.632,0.27-0.891,0.538c-0.259,0.266-0.501,0.637-0.732,1.117c-0.229,0.481-0.466,1.104-0.709,1.865l-6.03,18.94
					h-5.051l-5.118-15.538l-5.371,15.538h-5.094l-6.007-20.13c-0.17-0.487-0.352-0.893-0.551-1.212
					c-0.201-0.32-0.425-0.57-0.687-0.752c-0.257-0.185-0.555-0.313-0.892-0.391c-0.334-0.075-0.73-0.113-1.186-0.113h-0.14v-2.491
					h13.712v2.491h-0.616c-0.943,0-1.651,0.134-2.114,0.398c-0.466,0.269-0.697,0.79-0.697,1.565c0,0.259,0.042,0.571,0.126,0.938
					c0.083,0.366,0.17,0.723,0.262,1.075l1.736,6.077c0.15,0.563,0.296,1.143,0.434,1.735c0.142,0.593,0.271,1.172,0.389,1.737
					c0.124,0.564,0.235,1.095,0.331,1.598c0.101,0.508,0.18,0.955,0.241,1.349h0.135c0.141-0.777,0.327-1.576,0.563-2.409
					c0.236-0.833,0.554-1.825,0.951-2.981l4.771-13.322H428.742z"/>
				<path fill="#FFFFFF" d="M469.817,437.594c0,4.402-1.032,7.687-3.095,9.848c-2.066,2.165-5.101,3.247-9.106,3.247
					c-1.873,0-3.56-0.272-5.049-0.812c-1.496-0.543-2.763-1.354-3.806-2.436c-1.043-1.078-1.844-2.444-2.401-4.09
					c-0.555-1.644-0.831-3.563-0.831-5.758c0-4.401,1.029-7.679,3.097-9.825c2.063-2.148,5.106-3.222,9.124-3.222
					c1.876,0,3.557,0.266,5.042,0.8c1.482,0.533,2.747,1.341,3.793,2.422c1.042,1.082,1.841,2.441,2.398,4.079
					C469.538,433.486,469.817,435.401,469.817,437.594z M452.795,437.594c0,1.66,0.088,3.124,0.261,4.387
					c0.177,1.267,0.457,2.323,0.847,3.175c0.39,0.856,0.894,1.498,1.519,1.932c0.626,0.436,1.387,0.652,2.287,0.652
					c0.899,0,1.656-0.217,2.271-0.652c0.619-0.434,1.12-1.075,1.512-1.932c0.386-0.852,0.665-1.908,0.832-3.175
					c0.167-1.263,0.251-2.727,0.251-4.387c0-1.676-0.086-3.143-0.262-4.398c-0.179-1.257-0.459-2.303-0.846-3.143
					c-0.39-0.837-0.895-1.465-1.521-1.884c-0.623-0.418-1.384-0.628-2.284-0.628c-0.898,0-1.659,0.21-2.284,0.628
					c-0.625,0.419-1.127,1.047-1.51,1.884c-0.381,0.84-0.652,1.886-0.821,3.143C452.879,434.452,452.795,435.918,452.795,437.594z"
					/>
				<path fill="#FFFFFF" d="M486.238,450.23h-15.629v-2.49h0.137c0.531,0,1.019-0.036,1.461-0.114
					c0.443-0.075,0.823-0.231,1.145-0.47c0.318-0.237,0.564-0.575,0.741-1.017s0.264-1.027,0.264-1.758v-13.573
					c0-0.685-0.081-1.237-0.24-1.656c-0.158-0.419-0.391-0.743-0.687-0.972c-0.298-0.229-0.649-0.378-1.062-0.444
					c-0.41-0.069-0.878-0.104-1.393-0.104h-0.14v-2.491h9.457l0.941,3.656h0.229c0.302-0.7,0.64-1.313,1.001-1.84
					c0.368-0.524,0.805-0.962,1.316-1.313c0.512-0.351,1.112-0.613,1.805-0.787c0.693-0.176,1.519-0.264,2.479-0.264
					c1.843,0,3.199,0.325,4.069,0.971c0.865,0.646,1.3,1.588,1.3,2.822c0,1.433-0.516,2.544-1.553,3.336
					c-1.036,0.792-2.497,1.188-4.388,1.188c0-0.639-0.032-1.203-0.103-1.691c-0.068-0.486-0.191-0.889-0.364-1.21
					c-0.178-0.32-0.411-0.563-0.707-0.732c-0.298-0.166-0.668-0.251-1.113-0.251c-0.547,0-1.018,0.138-1.414,0.412
					c-0.397,0.274-0.731,0.628-1.005,1.063c-0.272,0.436-0.499,0.926-0.675,1.473c-0.176,0.55-0.313,1.101-0.411,1.656
					c-0.101,0.558-0.165,1.087-0.193,1.591c-0.031,0.5-0.045,0.935-0.045,1.301v8.088c0,0.685,0.083,1.239,0.252,1.656
					c0.168,0.419,0.394,0.734,0.682,0.948c0.29,0.215,0.639,0.358,1.039,0.425c0.405,0.069,0.837,0.103,1.294,0.103h1.508V450.23z"
					/>
				<path fill="#FFFFFF" d="M521.576,450.23h-0.662c-1.705,0-3.14-0.034-4.296-0.114c-1.157-0.075-2.155-0.252-2.994-0.524
					c-0.835-0.275-1.561-0.689-2.17-1.247c-0.608-0.555-1.219-1.314-1.828-2.271l-4.156-6.559l-1.872,1.392v3.793
					c0,0.673,0.105,1.204,0.326,1.602c0.223,0.396,0.498,0.697,0.823,0.911c0.33,0.215,0.689,0.358,1.086,0.425
					c0.396,0.069,0.763,0.103,1.097,0.103h0.55v2.49h-14.876v-2.49h0.547c0.353,0,0.72-0.033,1.107-0.103
					c0.393-0.066,0.75-0.21,1.076-0.425c0.327-0.214,0.601-0.516,0.822-0.911c0.219-0.397,0.33-0.929,0.33-1.602v-24.698
					c0-0.626-0.111-1.123-0.33-1.498c-0.222-0.373-0.498-0.663-0.835-0.868c-0.334-0.207-0.694-0.337-1.083-0.4
					c-0.39-0.06-0.751-0.09-1.088-0.09h-0.547v-2.469h10.994v18.051c0,0.428-0.015,0.918-0.037,1.476
					c-0.023,0.554-0.051,1.085-0.08,1.588c-0.045,0.593-0.086,1.195-0.116,1.804l5.896-6.604c0.517-0.578,0.857-1.04,1.016-1.384
					c0.16-0.342,0.241-0.627,0.241-0.854c0-0.396-0.208-0.706-0.628-0.928c-0.42-0.219-1.018-0.329-1.793-0.329v-2.354h11.786v2.354
					c-1.078,0-2.142,0.316-3.185,0.948c-1.043,0.631-2.182,1.641-3.416,3.027l-2.946,3.358l6.216,9.276
					c0.822,1.234,1.653,2.15,2.491,2.743c0.837,0.593,1.629,0.891,2.375,0.891h0.158V450.23z"/>
				<path fill="#FFFFFF" d="M530.046,450.689c-1.693,0-3.136-0.141-4.332-0.413c-1.194-0.273-2.166-0.653-2.926-1.144
					c-0.751-0.484-1.298-1.063-1.642-1.736c-0.344-0.668-0.516-1.396-0.516-2.17c0-0.76,0.147-1.376,0.446-1.841
					c0.296-0.461,0.669-0.824,1.118-1.087c0.45-0.257,0.927-0.427,1.429-0.51c0.504-0.084,0.961-0.126,1.373-0.126
					c0,0.974,0.12,1.848,0.363,2.626c0.243,0.779,0.589,1.438,1.028,1.976c0.44,0.544,0.97,0.96,1.59,1.249
					c0.614,0.29,1.304,0.43,2.067,0.43c0.809,0,1.503-0.08,2.089-0.248c0.585-0.171,1.067-0.4,1.441-0.697
					c0.372-0.296,0.65-0.64,0.834-1.027c0.183-0.388,0.272-0.797,0.272-1.225c0-0.517-0.095-0.976-0.284-1.379
					c-0.193-0.408-0.508-0.786-0.949-1.146c-0.442-0.354-1.031-0.709-1.769-1.05c-0.74-0.342-1.661-0.704-2.754-1.085
					c-1.267-0.442-2.381-0.912-3.349-1.406c-0.969-0.494-1.781-1.056-2.443-1.691c-0.661-0.631-1.164-1.354-1.51-2.169
					c-0.345-0.816-0.516-1.749-0.516-2.799c0-1.248,0.239-2.339,0.719-3.268c0.484-0.93,1.165-1.704,2.05-2.319
					c0.88-0.617,1.939-1.078,3.173-1.384c1.235-0.306,2.605-0.456,4.113-0.456c1.476,0,2.734,0.125,3.774,0.376
					c1.033,0.252,1.879,0.583,2.532,0.994c0.656,0.411,1.135,0.877,1.439,1.394c0.307,0.519,0.457,1.046,0.457,1.577
					c0,1.05-0.369,1.852-1.105,2.401c-0.74,0.547-1.964,0.82-3.669,0.82c0-1.553-0.348-2.762-1.042-3.623
					c-0.691-0.858-1.717-1.289-3.072-1.289c-0.502,0-0.986,0.062-1.45,0.185c-0.466,0.12-0.869,0.303-1.211,0.548
					c-0.345,0.241-0.617,0.544-0.822,0.902c-0.206,0.357-0.311,0.779-0.311,1.267c0,0.503,0.097,0.953,0.287,1.348
					c0.19,0.397,0.527,0.774,1.007,1.132c0.479,0.357,1.128,0.72,1.952,1.085c0.822,0.366,1.872,0.77,3.154,1.212
					c1.035,0.366,1.989,0.78,2.866,1.245c0.876,0.465,1.63,0.998,2.261,1.599c0.635,0.604,1.124,1.286,1.474,2.059
					c0.352,0.769,0.527,1.646,0.527,2.639c0,1.294-0.226,2.453-0.675,3.474c-0.449,1.019-1.104,1.88-1.976,2.581
					c-0.868,0.7-1.935,1.237-3.201,1.61C533.1,450.5,531.657,450.689,530.046,450.689z"/>
			</g>
		</g>
		<g>
			<g>
				<path fill="#FFFFFF" d="M284.222,467.399c-2.109,0-3.771,0.675-4.983,2.026c-1.216,1.349-1.819,3.202-1.819,5.551
					c0,2.4,0.573,4.265,1.713,5.593c1.143,1.328,2.781,1.992,4.906,1.992c1.412,0,2.711-0.179,3.891-0.539v1.035
					c-1.112,0.39-2.5,0.585-4.167,0.585c-2.364,0-4.225-0.764-5.583-2.29c-1.36-1.528-2.04-3.661-2.04-6.4
					c0-1.712,0.326-3.222,0.973-4.525c0.649-1.306,1.583-2.312,2.798-3.022c1.215-0.706,2.631-1.064,4.246-1.064
					c1.64,0,3.109,0.307,4.408,0.922l-0.472,1.058C286.863,467.706,285.572,467.399,284.222,467.399z"/>
				<path fill="#FFFFFF" d="M300.615,477.473h-6.84l-2.347,5.94h-1.301l6.769-16.901h0.745l6.636,16.901h-1.326L300.615,477.473z
					 M294.201,476.412h6.022l-2.292-6.065c-0.193-0.477-0.422-1.137-0.693-1.981c-0.205,0.738-0.431,1.406-0.677,2.002
					L294.201,476.412z"/>
				<path fill="#FFFFFF" d="M319.722,483.414h-1.185l-9.972-14.946h-0.092c0.092,1.782,0.141,3.126,0.141,4.032v10.914h-1.132
					v-16.832h1.175l9.961,14.922h0.068c-0.068-1.382-0.104-2.696-0.104-3.939v-10.982h1.14V483.414z"/>
				<path fill="#FFFFFF" d="M337.552,483.414h-1.185l-9.97-14.946h-0.094c0.094,1.782,0.139,3.126,0.139,4.032v10.914h-1.126
					v-16.832h1.173l9.958,14.922h0.069c-0.069-1.382-0.104-2.696-0.104-3.939v-10.982h1.14V483.414z"/>
				<path fill="#FFFFFF" d="M351.249,477.473h-6.84l-2.346,5.94h-1.302l6.768-16.901h0.748l6.634,16.901h-1.33L351.249,477.473z
					 M344.834,476.412h6.021l-2.29-6.065c-0.193-0.477-0.421-1.137-0.69-1.981c-0.208,0.738-0.435,1.406-0.68,2.002L344.834,476.412
					z"/>
				<path fill="#FFFFFF" d="M358.116,466.582h4.619c2.081,0,3.606,0.354,4.58,1.059c0.974,0.706,1.465,1.773,1.465,3.199
					c0,0.977-0.302,1.788-0.896,2.438c-0.593,0.648-1.463,1.066-2.608,1.248v0.067c1.346,0.201,2.335,0.624,2.968,1.275
					c0.634,0.646,0.949,1.553,0.949,2.71c0,1.551-0.514,2.745-1.543,3.582c-1.028,0.835-2.485,1.254-4.374,1.254h-5.16V466.582z
					 M359.291,474.076H363c1.579,0,2.729-0.263,3.447-0.788c0.72-0.525,1.079-1.351,1.079-2.47c0-1.122-0.409-1.935-1.219-2.441
					c-0.808-0.506-2.017-0.759-3.618-0.759h-3.398V474.076z M359.291,475.111v7.267h3.961c3.118,0,4.674-1.268,4.674-3.8
					c0-2.312-1.641-3.467-4.926-3.467H359.291z"/>
				<path fill="#FFFFFF" d="M373.728,483.414v-16.832h1.173v16.832H373.728z"/>
				<path fill="#FFFFFF" d="M389.784,479.071c0,1.407-0.517,2.52-1.55,3.34c-1.03,0.821-2.401,1.231-4.117,1.231
					c-2.056,0-3.63-0.227-4.728-0.679v-1.174c1.212,0.515,2.757,0.771,4.637,0.771c1.38,0,2.478-0.316,3.289-0.95
					c0.81-0.632,1.213-1.464,1.213-2.491c0-0.638-0.131-1.166-0.403-1.583c-0.269-0.419-0.704-0.801-1.312-1.145
					c-0.604-0.345-1.495-0.719-2.67-1.119c-1.72-0.59-2.911-1.23-3.564-1.916c-0.656-0.688-0.985-1.603-0.985-2.745
					c0-1.26,0.493-2.286,1.479-3.08c0.986-0.794,2.255-1.192,3.806-1.192c1.581,0,3.066,0.3,4.458,0.896l-0.427,1.015
					c-1.398-0.586-2.733-0.876-4.008-0.876c-1.24,0-2.233,0.289-2.971,0.864c-0.736,0.577-1.103,1.36-1.103,2.35
					c0,0.622,0.111,1.132,0.337,1.53c0.229,0.398,0.597,0.759,1.112,1.076c0.515,0.318,1.395,0.701,2.646,1.148
					c1.313,0.45,2.298,0.889,2.961,1.315c0.659,0.425,1.141,0.91,1.443,1.452C389.632,477.651,389.784,478.305,389.784,479.071z"/>
				<path fill="#FFFFFF" d="M413.896,474.836c0,2.825-0.743,4.96-2.225,6.407c-1.479,1.445-3.658,2.17-6.525,2.17h-4.031v-16.832
					h4.551c2.683,0,4.725,0.704,6.128,2.106C413.193,470.091,413.896,472.141,413.896,474.836z M412.615,474.881
					c0-2.408-0.609-4.226-1.835-5.438c-1.226-1.219-3.021-1.825-5.394-1.825h-3.099v14.76h2.785
					C410.101,482.377,412.615,479.88,412.615,474.881z"/>
				<path fill="#FFFFFF" d="M418.588,483.414v-16.832h1.174v16.832H418.588z"/>
				<path fill="#FFFFFF" d="M434.646,479.071c0,1.407-0.519,2.52-1.553,3.34c-1.03,0.821-2.4,1.231-4.115,1.231
					c-2.055,0-3.632-0.227-4.728-0.679v-1.174c1.212,0.515,2.757,0.771,4.637,0.771c1.38,0,2.477-0.316,3.286-0.95
					c0.811-0.632,1.216-1.464,1.216-2.491c0-0.638-0.134-1.166-0.401-1.583c-0.271-0.419-0.706-0.801-1.313-1.145
					c-0.605-0.345-1.496-0.719-2.669-1.119c-1.722-0.59-2.91-1.23-3.565-1.916c-0.656-0.688-0.985-1.603-0.985-2.745
					c0-1.26,0.492-2.286,1.479-3.08c0.99-0.794,2.255-1.192,3.807-1.192c1.579,0,3.064,0.3,4.457,0.896l-0.427,1.015
					c-1.399-0.586-2.733-0.876-4.007-0.876c-1.243,0-2.233,0.289-2.97,0.864c-0.74,0.577-1.105,1.36-1.105,2.35
					c0,0.622,0.112,1.132,0.337,1.53c0.229,0.398,0.599,0.759,1.112,1.076c0.515,0.318,1.395,0.701,2.647,1.148
					c1.313,0.45,2.299,0.889,2.96,1.315c0.659,0.425,1.142,0.91,1.443,1.452C434.493,477.651,434.646,478.305,434.646,479.071z"/>
				<path fill="#FFFFFF" d="M449.158,471.417c0,1.626-0.551,2.873-1.66,3.742c-1.104,0.865-2.669,1.299-4.697,1.299h-2.599v6.955
					h-1.176v-16.832h4.123C447.155,466.582,449.158,468.193,449.158,471.417z M440.202,475.447h2.313
					c1.896,0,3.266-0.313,4.111-0.938c0.846-0.626,1.263-1.642,1.263-3.047c0-1.298-0.398-2.261-1.196-2.884
					c-0.799-0.626-2.032-0.938-3.704-0.938h-2.787V475.447z"/>
				<path fill="#FFFFFF" d="M462.845,483.414h-9.196v-16.832h9.196v1.082h-8.021v6.365h7.572v1.082h-7.572v7.221h8.021V483.414z"/>
				<path fill="#FFFFFF" d="M479.719,483.414h-1.187l-9.97-14.946h-0.092c0.092,1.782,0.14,3.126,0.14,4.032v10.914h-1.13v-16.832
					h1.175l9.959,14.922h0.068c-0.068-1.382-0.103-2.696-0.103-3.939v-10.982h1.139V483.414z"/>
				<path fill="#FFFFFF" d="M494.603,479.071c0,1.407-0.515,2.52-1.549,3.34c-1.031,0.821-2.403,1.231-4.118,1.231
					c-2.053,0-3.632-0.227-4.729-0.679v-1.174c1.211,0.515,2.761,0.771,4.64,0.771c1.38,0,2.477-0.316,3.288-0.95
					c0.808-0.632,1.212-1.464,1.212-2.491c0-0.638-0.133-1.166-0.404-1.583c-0.267-0.419-0.705-0.801-1.311-1.145
					c-0.605-0.345-1.496-0.719-2.671-1.119c-1.719-0.59-2.906-1.23-3.562-1.916c-0.658-0.688-0.983-1.603-0.983-2.745
					c0-1.26,0.491-2.286,1.478-3.08c0.985-0.794,2.253-1.192,3.804-1.192c1.581,0,3.067,0.3,4.456,0.896l-0.426,1.015
					c-1.397-0.586-2.731-0.876-4.008-0.876c-1.241,0-2.232,0.289-2.97,0.864c-0.736,0.577-1.104,1.36-1.104,2.35
					c0,0.622,0.115,1.132,0.34,1.53c0.226,0.398,0.598,0.759,1.111,1.076c0.513,0.318,1.396,0.701,2.647,1.148
					c1.312,0.45,2.299,0.889,2.961,1.315c0.658,0.425,1.139,0.91,1.441,1.452C494.45,477.651,494.603,478.305,494.603,479.071z"/>
				<path fill="#FFFFFF" d="M507.09,477.473h-6.84l-2.351,5.94h-1.297l6.767-16.901h0.749l6.632,16.901h-1.324L507.09,477.473z
					 M500.677,476.412h6.021l-2.291-6.065c-0.191-0.477-0.422-1.137-0.689-1.981c-0.207,0.738-0.434,1.406-0.679,2.002
					L500.677,476.412z"/>
				<path fill="#FFFFFF" d="M515.131,476.079v7.335h-1.172v-16.832h4.006c2.088,0,3.63,0.387,4.631,1.156
					c0.995,0.772,1.494,1.935,1.494,3.483c0,1.127-0.298,2.081-0.893,2.854c-0.594,0.774-1.499,1.334-2.709,1.669l4.568,7.669
					h-1.405l-4.339-7.335H515.131z M515.131,475.066h3.215c1.419,0,2.52-0.317,3.305-0.949c0.781-0.632,1.173-1.567,1.173-2.806
					c0-1.279-0.384-2.213-1.152-2.796c-0.766-0.582-2.018-0.875-3.752-0.875h-2.788V475.066z"/>
				<path fill="#FFFFFF" d="M532.666,475.792l4.927-9.21h1.267l-5.608,10.325v6.507h-1.205V477l-5.631-10.419h1.344L532.666,475.792
					z"/>
			</g>
		</g>
	</g>
	<g>
		<path fill="#FFFFFF" d="M221.883,191.195c0,2.299-1.865,4.16-4.167,4.16c-2.303,0-4.168-1.861-4.168-4.16
			c0-2.305,1.865-4.166,4.168-4.166C220.018,187.03,221.883,188.891,221.883,191.195z"/>
		<path fill="#50A947" d="M182.657,130.15c-1.728-13.431-9.602-35.225-9.602-35.225l0.205-0.094c0,0,11.431,20.159,20.508,30.208
			c12.288,13.598,16.03,34.833,16.03,34.833s4.646,16.429,9.092,34.116c0,0,0.265,0.759,0.147,0.592
			c0.054,0.197-0.352-0.499,0.148,0.593l-0.5-1.092c-10.544-14.888-20.001-29.102-20.001-29.102S184.994,148.328,182.657,130.15z"/>
		<path fill="#50A947" d="M189.129,208.224c-6.387,0.539-16.722,3.979-16.722,3.979l-0.048-0.107c0,0,9.537-5.262,14.268-9.585
			c6.406-5.854,16.494-7.226,16.494-7.226s7.8-1.943,16.2-3.755c0,0,0.357-0.112,0.279-0.058c0.093-0.019-0.237,0.16,0.282-0.063
			l-0.519,0.223c-7.024,4.949-13.74,9.363-13.74,9.363S197.772,207.485,189.129,208.224z"/>
		<path fill="#50A947" d="M166.892,177.707c-7.11-7.137-21.734-15.208-21.734-15.208l0.079-0.201c0,0,16.066,4.596,26.134,4.553
			c13.629-0.064,25.483,10.521,25.483,10.521s10.244,6.976,20.926,14.873c0,0,0.504,0.28,0.358,0.264
			c0.121,0.094-0.439-0.062,0.358,0.267l-0.797-0.329c-13.141-1.942-25.326-4.224-25.326-4.224S176.507,187.368,166.892,177.707z"/>
		<g>
			<path fill="#51A847" d="M217.75,109.035c-0.001,1.699-0.002,3.539-0.004,5.497c-0.006,10.758-0.01,25.103-0.01,39.448
				c0,14.344,0.003,28.689,0.01,39.447c0.003,5.38,0.008,9.863,0.013,13.001c0.001,0.974,0.003,1.818,0.005,2.52
				c-10.664-0.755-20.074-6.683-26.075-16.52c-6.642-10.889-7.405-24.212-1.991-34.769c3-5.85,6.684-11.133,10.584-16.727
				c4.496-6.449,9.146-13.117,12.604-20.679C214.583,116.55,216.208,112.801,217.75,109.035 M220.101,96.46
				c-0.008,0.022-0.017,0.05-0.025,0.071c-0.01-0.021-0.021-0.049-0.027-0.071v0.144c-2.771,7.68-5.875,15.257-9.275,22.683
				c-6.253,13.673-16.478,24.315-23.143,37.313c-11.882,23.17,5.052,54.717,32.418,54.757c0.007,0,0.017,0,0.027,0
				c0.008,0,0.018,0,0.025,0c-0.053,0-0.053-114.752,0-114.752V96.46L220.101,96.46z"/>
		</g>
		<g>
			<path fill="#50A947" d="M252.181,156.599c-6.664-12.997-16.893-23.64-23.146-37.313c-7.001-13.321-8.416-39.508-8.416-39.508
				l-0.227-0.004c0,0-1.897,23.57-7.502,37.301c-0.571,1.407-0.201,2.908-0.543,4.382c-3.906,17.019,0.321,35.479,0.321,35.479
				s2.256,17.594,5.192,36.302c0,0,0.062,0.835,0.1,0.624c0.033,0.212,0.126-0.619,0.098,0.627l0.028-1.246
				c0.573-2.807,1.125-5.59,1.653-8.292c-0.007,15.299-0.018,26.403-0.032,26.403l0,0c0.008,0,0.02,0,0.023,0
				c0.011,0,0.02,0,0.026,0l0,0C247.123,211.316,264.063,179.769,252.181,156.599z"/>
		</g>
		<path fill="#50A947" d="M292.013,158.565c-2.896,0-5.422-0.412-7.575-1.232c-2.157-0.827-3.95-1.991-5.382-3.5
			c-1.433-1.508-2.5-3.32-3.198-5.438c-0.703-2.117-1.051-4.463-1.051-7.037c0-2.528,0.373-4.844,1.12-6.945
			c0.746-2.104,1.852-3.909,3.312-5.417c1.463-1.507,3.284-2.68,5.462-3.519c2.176-0.837,4.7-1.256,7.564-1.256
			c1.948,0,3.652,0.14,5.106,0.422c1.455,0.283,2.669,0.667,3.655,1.154c0.98,0.488,1.716,1.063,2.203,1.726
			c0.489,0.661,0.734,1.373,0.734,2.136c0,0.547-0.13,1.062-0.39,1.542c-0.256,0.48-0.648,0.902-1.165,1.27
			c-0.519,0.364-1.151,0.65-1.899,0.855c-0.744,0.208-1.613,0.309-2.602,0.309c0-0.944-0.112-1.812-0.343-2.605
			c-0.23-0.791-0.584-1.468-1.063-2.033c-0.479-0.563-1.086-1.001-1.819-1.314c-0.732-0.312-1.59-0.468-2.58-0.468
			c-1.705,0-3.156,0.313-4.354,0.937c-1.194,0.625-2.173,1.54-2.922,2.742c-0.755,1.204-1.305,2.685-1.648,4.444
			c-0.341,1.76-0.513,3.768-0.513,6.021c0,2.254,0.179,4.253,0.537,5.999c0.357,1.745,0.938,3.209,1.736,4.396
			c0.799,1.19,1.837,2.093,3.108,2.709c1.271,0.618,2.826,0.928,4.672,0.928c0.579,0,1.159-0.024,1.737-0.071
			c0.581-0.046,1.143-0.127,1.692-0.25v-6.879c0-1.246-0.286-2.116-0.848-2.605c-0.566-0.485-1.391-0.728-2.491-0.728h-0.617v-2.469
			h14.717v2.469h-0.618c-0.47,0-0.882,0.056-1.233,0.169c-0.35,0.114-0.639,0.309-0.868,0.583c-0.228,0.273-0.398,0.635-0.503,1.084
			c-0.11,0.451-0.16,1.011-0.16,1.679v7.677c-1.827,0.841-3.672,1.468-5.531,1.888C296.139,158.357,294.147,158.565,292.013,158.565
			z"/>
		<path fill="#50A947" d="M322.44,158.106h-15.628v-2.489h0.133c0.534,0,1.023-0.036,1.465-0.115
			c0.439-0.076,0.822-0.231,1.144-0.47c0.318-0.237,0.566-0.575,0.739-1.017c0.176-0.441,0.264-1.026,0.264-1.757v-13.573
			c0-0.685-0.08-1.238-0.241-1.656c-0.156-0.419-0.387-0.743-0.684-0.972c-0.299-0.228-0.651-0.377-1.063-0.444
			c-0.413-0.07-0.878-0.103-1.395-0.103h-0.136v-2.491h9.46l0.937,3.656h0.228c0.306-0.7,0.64-1.314,1.005-1.841
			c0.365-0.523,0.806-0.962,1.313-1.313c0.511-0.35,1.11-0.613,1.806-0.787c0.694-0.176,1.52-0.263,2.48-0.263
			c1.843,0,3.199,0.324,4.066,0.971c0.868,0.646,1.304,1.587,1.304,2.822c0,1.431-0.522,2.543-1.556,3.335
			c-1.035,0.792-2.5,1.188-4.387,1.188c0-0.639-0.033-1.204-0.103-1.692c-0.068-0.486-0.188-0.889-0.366-1.209
			c-0.176-0.321-0.412-0.563-0.708-0.732c-0.296-0.166-0.668-0.251-1.11-0.251c-0.546,0-1.019,0.138-1.415,0.413
			c-0.397,0.273-0.732,0.627-1.005,1.062c-0.273,0.435-0.5,0.926-0.676,1.474c-0.173,0.548-0.312,1.1-0.409,1.657
			c-0.099,0.556-0.167,1.085-0.196,1.588s-0.045,0.938-0.045,1.302v8.087c0,0.685,0.083,1.239,0.252,1.656
			c0.168,0.419,0.397,0.734,0.686,0.949s0.636,0.357,1.039,0.424c0.402,0.069,0.835,0.103,1.291,0.103h1.509V158.106z"/>
		<path fill="#50A947" d="M342.332,158.565c-1.982,0-3.727-0.289-5.245-0.869c-1.513-0.58-2.783-1.418-3.804-2.513
			c-1.021-1.098-1.789-2.441-2.307-4.035c-0.519-1.59-0.777-3.408-0.777-5.449c0-2.193,0.258-4.12,0.777-5.781
			c0.518-1.66,1.273-3.047,2.263-4.159c0.989-1.112,2.206-1.945,3.644-2.502c1.439-0.555,3.081-0.833,4.925-0.833
			c1.688,0,3.213,0.24,4.57,0.72c1.354,0.479,2.505,1.192,3.446,2.136c0.945,0.945,1.67,2.118,2.173,3.519
			c0.504,1.402,0.756,3.032,0.756,4.89v2.4H337.42c0.043,1.569,0.216,2.917,0.515,4.043c0.296,1.127,0.71,2.059,1.232,2.79
			c0.528,0.73,1.167,1.271,1.921,1.621c0.752,0.353,1.618,0.526,2.592,0.526c0.807,0,1.551-0.092,2.24-0.287
			c0.684-0.189,1.304-0.458,1.859-0.799c0.557-0.342,1.046-0.744,1.465-1.21c0.418-0.466,0.764-0.964,1.039-1.497
			c0.838,0.457,1.257,1.219,1.257,2.285c0,0.671-0.183,1.308-0.548,1.91c-0.366,0.6-0.931,1.129-1.691,1.585
			c-0.764,0.459-1.718,0.824-2.866,1.098C345.281,158.427,343.918,158.565,342.332,158.565z M341.899,135.463
			c-1.313,0-2.35,0.648-3.121,1.944c-0.768,1.293-1.191,3.189-1.268,5.688h8.087c0-1.188-0.067-2.255-0.205-3.199
			c-0.136-0.944-0.354-1.744-0.65-2.399c-0.298-0.654-0.681-1.158-1.141-1.508C343.136,135.639,342.568,135.463,341.899,135.463z"/>
		<path fill="#50A947" d="M366.702,158.565c-1.981,0-3.731-0.289-5.243-0.869c-1.519-0.58-2.785-1.418-3.806-2.513
			c-1.02-1.098-1.789-2.441-2.306-4.035c-0.52-1.59-0.778-3.408-0.778-5.449c0-2.193,0.259-4.12,0.778-5.781
			c0.517-1.66,1.27-3.047,2.262-4.159c0.991-1.112,2.204-1.945,3.646-2.502c1.437-0.555,3.08-0.833,4.923-0.833
			c1.691,0,3.211,0.24,4.569,0.72c1.355,0.479,2.504,1.192,3.448,2.136c0.946,0.945,1.668,2.118,2.172,3.519
			c0.503,1.402,0.755,3.032,0.755,4.89v2.4h-15.331c0.043,1.569,0.215,2.917,0.514,4.043c0.298,1.127,0.71,2.059,1.234,2.79
			c0.521,0.73,1.163,1.271,1.918,1.621c0.754,0.353,1.617,0.526,2.593,0.526c0.81,0,1.555-0.092,2.241-0.287
			c0.685-0.189,1.305-0.458,1.859-0.799c0.561-0.342,1.044-0.744,1.464-1.21c0.421-0.466,0.768-0.964,1.04-1.497
			c0.837,0.457,1.256,1.219,1.256,2.285c0,0.671-0.185,1.308-0.547,1.91c-0.367,0.6-0.93,1.129-1.692,1.585
			c-0.762,0.459-1.716,0.824-2.864,1.098C369.652,158.427,368.286,158.565,366.702,158.565z M366.267,135.463
			c-1.313,0-2.351,0.648-3.118,1.944c-0.767,1.293-1.192,3.189-1.269,5.688h8.088c0-1.188-0.065-2.255-0.205-3.199
			c-0.136-0.944-0.354-1.744-0.649-2.399c-0.299-0.654-0.679-1.158-1.142-1.508C367.505,135.639,366.937,135.463,366.267,135.463z"
			/>
		<path fill="#50A947" d="M396.352,158.106v-15.399c0-1.005-0.064-1.899-0.193-2.683c-0.131-0.785-0.345-1.445-0.64-1.978
			c-0.3-0.533-0.687-0.94-1.166-1.223c-0.481-0.281-1.063-0.421-1.747-0.421c-0.777,0-1.425,0.197-1.944,0.592
			c-0.52,0.397-0.931,0.926-1.246,1.589c-0.311,0.662-0.532,1.431-0.673,2.308c-0.139,0.876-0.205,1.793-0.205,2.754v8.933
			c0,0.656,0.081,1.181,0.238,1.578c0.16,0.397,0.385,0.705,0.676,0.925c0.288,0.219,0.641,0.368,1.062,0.435
			c0.419,0.069,0.885,0.103,1.406,0.103h0.139v2.489h-14.374v-2.489h0.09c0.534,0,1.024-0.034,1.463-0.103
			c0.443-0.067,0.827-0.218,1.152-0.446c0.328-0.228,0.587-0.558,0.765-0.982c0.188-0.424,0.277-0.991,0.277-1.69V138.55
			c0-0.656-0.08-1.182-0.242-1.578c-0.155-0.396-0.385-0.704-0.683-0.925s-0.654-0.366-1.063-0.434
			c-0.412-0.07-0.877-0.103-1.394-0.103h-0.139v-2.491h9.828l0.616,3.335h0.226c0.475-0.883,0.974-1.584,1.497-2.102
			c0.524-0.518,1.084-0.914,1.68-1.189c0.595-0.274,1.223-0.447,1.887-0.525c0.662-0.075,1.36-0.114,2.09-0.114
			c1.2,0,2.285,0.175,3.245,0.526c0.958,0.35,1.77,0.891,2.434,1.622c0.661,0.732,1.169,1.664,1.518,2.799
			c0.351,1.135,0.528,2.496,0.528,4.079v10.85c0,0.734,0.063,1.315,0.191,1.752c0.131,0.432,0.324,0.764,0.584,0.994
			c0.258,0.227,0.585,0.38,0.983,0.456c0.396,0.079,0.858,0.115,1.394,0.115h0.137v2.489H396.352z"/>
		<path d="M428.742,133.271l4.573,13.802c0.38,1.128,0.655,2.08,0.818,2.867c0.169,0.784,0.308,1.466,0.413,2.043h0.136
			c0.077-0.393,0.149-0.768,0.22-1.119c0.067-0.35,0.151-0.716,0.251-1.097c0.099-0.38,0.209-0.795,0.331-1.245
			c0.12-0.449,0.274-0.965,0.457-1.544l2.057-6.829c0.121-0.398,0.226-0.824,0.311-1.28c0.084-0.457,0.121-0.815,0.121-1.074
			c0-0.792-0.254-1.372-0.764-1.737s-1.288-0.547-2.343-0.547h-0.321v-2.491h10.721v2.491h-0.595c-0.457,0-0.854,0.044-1.189,0.137
			c-0.336,0.089-0.632,0.271-0.891,0.536c-0.259,0.267-0.501,0.639-0.732,1.119c-0.229,0.481-0.466,1.103-0.709,1.865l-6.03,18.939
			h-5.051l-5.118-15.537l-5.371,15.537h-5.094l-6.007-20.128c-0.17-0.488-0.352-0.892-0.551-1.213
			c-0.201-0.319-0.425-0.571-0.687-0.752c-0.257-0.183-0.555-0.312-0.892-0.39c-0.334-0.074-0.73-0.113-1.186-0.113h-0.14v-2.491
			h13.712v2.491h-0.616c-0.943,0-1.651,0.134-2.114,0.4c-0.466,0.266-0.697,0.789-0.697,1.564c0,0.259,0.042,0.571,0.126,0.937
			c0.083,0.366,0.17,0.724,0.262,1.075l1.736,6.077c0.15,0.564,0.296,1.144,0.434,1.735c0.142,0.594,0.271,1.172,0.389,1.738
			c0.124,0.564,0.235,1.095,0.331,1.598c0.101,0.507,0.18,0.955,0.241,1.348h0.135c0.141-0.776,0.327-1.577,0.563-2.41
			c0.236-0.831,0.554-1.824,0.951-2.981l4.771-13.321H428.742z"/>
		<path d="M469.817,145.473c0,4.402-1.032,7.686-3.095,9.847c-2.066,2.164-5.101,3.246-9.106,3.246c-1.873,0-3.56-0.272-5.049-0.811
			c-1.496-0.542-2.763-1.354-3.806-2.435c-1.043-1.079-1.844-2.445-2.401-4.09c-0.555-1.644-0.831-3.563-0.831-5.756
			c0-4.4,1.029-7.678,3.097-9.825c2.063-2.15,5.106-3.223,9.124-3.223c1.876,0,3.557,0.267,5.042,0.799
			c1.482,0.534,2.747,1.342,3.793,2.423c1.042,1.081,1.841,2.439,2.398,4.078C469.538,141.363,469.817,143.279,469.817,145.473z
			 M452.795,145.473c0,1.659,0.088,3.123,0.261,4.386c0.177,1.267,0.457,2.323,0.847,3.175c0.39,0.854,0.894,1.497,1.519,1.931
			c0.626,0.435,1.387,0.652,2.287,0.652c0.899,0,1.656-0.217,2.271-0.652c0.619-0.434,1.12-1.077,1.512-1.931
			c0.386-0.853,0.665-1.909,0.832-3.175c0.167-1.263,0.251-2.728,0.251-4.386c0-1.676-0.086-3.142-0.262-4.398
			c-0.179-1.257-0.459-2.304-0.846-3.142c-0.39-0.838-0.895-1.467-1.521-1.885c-0.623-0.418-1.384-0.627-2.284-0.627
			c-0.898,0-1.659,0.209-2.284,0.627c-0.625,0.418-1.127,1.047-1.51,1.885c-0.381,0.838-0.652,1.885-0.821,3.142
			C452.879,142.331,452.795,143.797,452.795,145.473z"/>
		<path d="M486.238,158.106h-15.629v-2.489h0.137c0.531,0,1.019-0.036,1.461-0.115c0.443-0.076,0.823-0.231,1.145-0.47
			c0.318-0.237,0.564-0.575,0.741-1.017c0.177-0.441,0.264-1.026,0.264-1.757v-13.573c0-0.685-0.081-1.238-0.24-1.656
			c-0.158-0.419-0.391-0.743-0.687-0.972c-0.298-0.228-0.649-0.377-1.062-0.444c-0.41-0.07-0.878-0.103-1.393-0.103h-0.14v-2.491
			h9.457l0.941,3.656h0.229c0.302-0.7,0.64-1.314,1.001-1.841c0.368-0.523,0.805-0.962,1.316-1.313
			c0.512-0.35,1.112-0.613,1.805-0.787c0.693-0.176,1.519-0.263,2.479-0.263c1.843,0,3.199,0.324,4.069,0.971
			c0.865,0.646,1.3,1.587,1.3,2.822c0,1.431-0.516,2.543-1.553,3.335c-1.036,0.792-2.497,1.188-4.388,1.188
			c0-0.639-0.032-1.204-0.103-1.692c-0.068-0.486-0.191-0.889-0.364-1.209c-0.178-0.321-0.411-0.563-0.707-0.732
			c-0.298-0.166-0.668-0.251-1.113-0.251c-0.547,0-1.018,0.138-1.414,0.413c-0.397,0.273-0.731,0.627-1.005,1.062
			c-0.272,0.435-0.499,0.926-0.675,1.474c-0.176,0.548-0.313,1.1-0.411,1.657c-0.101,0.556-0.165,1.085-0.193,1.588
			c-0.031,0.502-0.045,0.938-0.045,1.302v8.087c0,0.685,0.083,1.239,0.252,1.656c0.168,0.419,0.394,0.734,0.682,0.949
			c0.29,0.214,0.639,0.357,1.039,0.424c0.405,0.069,0.837,0.103,1.294,0.103h1.508V158.106z"/>
		<path d="M521.576,158.106h-0.662c-1.705,0-3.14-0.034-4.296-0.113c-1.157-0.075-2.155-0.252-2.994-0.525
			c-0.835-0.274-1.561-0.688-2.17-1.246c-0.608-0.556-1.219-1.314-1.828-2.271l-4.156-6.558l-1.872,1.392v3.792
			c0,0.673,0.105,1.203,0.326,1.6c0.223,0.396,0.498,0.699,0.823,0.913c0.33,0.214,0.689,0.357,1.086,0.424
			c0.396,0.069,0.763,0.103,1.097,0.103h0.55v2.489h-14.876v-2.489h0.547c0.353,0,0.72-0.034,1.107-0.103
			c0.393-0.067,0.75-0.21,1.076-0.424c0.327-0.214,0.601-0.517,0.822-0.913c0.219-0.397,0.33-0.927,0.33-1.6v-24.698
			c0-0.625-0.111-1.124-0.33-1.498c-0.222-0.373-0.498-0.662-0.835-0.868c-0.334-0.207-0.694-0.338-1.083-0.4
			c-0.39-0.06-0.751-0.09-1.088-0.09h-0.547v-2.469h10.994v18.051c0,0.427-0.015,0.917-0.037,1.475
			c-0.023,0.555-0.051,1.084-0.08,1.587c-0.045,0.593-0.086,1.196-0.116,1.805l5.896-6.604c0.517-0.578,0.857-1.041,1.016-1.384
			c0.16-0.341,0.241-0.627,0.241-0.855c0-0.395-0.208-0.704-0.628-0.927c-0.42-0.219-1.018-0.331-1.793-0.331v-2.353h11.786v2.353
			c-1.078,0-2.142,0.317-3.185,0.949c-1.043,0.632-2.182,1.642-3.416,3.028l-2.946,3.358l6.216,9.276
			c0.822,1.234,1.653,2.15,2.491,2.743c0.837,0.593,1.629,0.891,2.375,0.891h0.158V158.106z"/>
		<path d="M530.046,158.565c-1.693,0-3.136-0.139-4.332-0.412c-1.194-0.274-2.166-0.654-2.926-1.143
			c-0.751-0.484-1.298-1.064-1.642-1.737c-0.344-0.667-0.516-1.396-0.516-2.169c0-0.761,0.147-1.376,0.446-1.84
			c0.296-0.461,0.669-0.826,1.118-1.086c0.45-0.258,0.927-0.428,1.429-0.511c0.504-0.084,0.961-0.125,1.373-0.125
			c0,0.974,0.12,1.849,0.363,2.625c0.243,0.778,0.589,1.438,1.028,1.976c0.44,0.543,0.97,0.959,1.59,1.249
			c0.614,0.289,1.304,0.431,2.067,0.431c0.809,0,1.503-0.083,2.089-0.248c0.585-0.172,1.067-0.402,1.441-0.698
			c0.372-0.297,0.65-0.64,0.834-1.029c0.183-0.388,0.272-0.796,0.272-1.224c0-0.517-0.095-0.976-0.284-1.38
			c-0.193-0.408-0.508-0.785-0.949-1.145c-0.442-0.357-1.031-0.709-1.769-1.05c-0.74-0.342-1.661-0.706-2.754-1.085
			c-1.267-0.443-2.381-0.913-3.349-1.406c-0.969-0.494-1.781-1.057-2.443-1.691c-0.661-0.631-1.164-1.355-1.51-2.17
			c-0.345-0.815-0.516-1.748-0.516-2.799c0-1.248,0.239-2.337,0.719-3.267c0.484-0.929,1.165-1.703,2.05-2.318
			c0.88-0.618,1.939-1.079,3.173-1.383c1.235-0.305,2.605-0.456,4.113-0.456c1.476,0,2.734,0.125,3.774,0.375
			c1.033,0.253,1.879,0.583,2.532,0.995c0.656,0.412,1.135,0.877,1.439,1.395c0.307,0.518,0.457,1.044,0.457,1.577
			c0,1.049-0.369,1.851-1.105,2.399c-0.74,0.548-1.964,0.822-3.669,0.822c0-1.554-0.348-2.762-1.042-3.623
			c-0.691-0.86-1.717-1.29-3.072-1.29c-0.502,0-0.986,0.062-1.45,0.184c-0.466,0.122-0.869,0.304-1.211,0.548
			c-0.345,0.241-0.617,0.545-0.822,0.903c-0.206,0.356-0.311,0.78-0.311,1.267c0,0.503,0.097,0.953,0.287,1.347
			c0.19,0.397,0.527,0.774,1.007,1.132c0.479,0.357,1.128,0.72,1.952,1.085c0.822,0.366,1.872,0.77,3.154,1.212
			c1.035,0.365,1.989,0.78,2.866,1.245c0.876,0.466,1.63,0.998,2.261,1.598c0.635,0.603,1.124,1.288,1.474,2.06
			c0.352,0.767,0.527,1.645,0.527,2.636c0,1.296-0.226,2.455-0.675,3.476c-0.449,1.019-1.104,1.879-1.976,2.58
			c-0.868,0.701-1.935,1.238-3.201,1.611C533.1,158.377,531.657,158.565,530.046,158.565z"/>
		<g>
			<g>
				<path d="M284.222,175.276c-2.109,0-3.771,0.675-4.983,2.026c-1.216,1.348-1.819,3.202-1.819,5.55
					c0,2.401,0.573,4.265,1.713,5.592c1.143,1.329,2.781,1.992,4.906,1.992c1.412,0,2.711-0.178,3.891-0.539v1.036
					c-1.112,0.39-2.5,0.585-4.167,0.585c-2.364,0-4.225-0.764-5.583-2.291c-1.36-1.528-2.04-3.661-2.04-6.399
					c0-1.713,0.326-3.223,0.973-4.527c0.649-1.305,1.583-2.312,2.798-3.022c1.215-0.707,2.631-1.064,4.246-1.064
					c1.64,0,3.109,0.306,4.408,0.921l-0.472,1.058C286.863,175.583,285.572,175.276,284.222,175.276z"/>
				<path d="M300.615,185.351h-6.84l-2.347,5.939h-1.301l6.769-16.9h0.745l6.636,16.9h-1.326L300.615,185.351z M294.201,184.289
					h6.022l-2.292-6.066c-0.193-0.476-0.422-1.136-0.693-1.981c-0.205,0.738-0.431,1.407-0.677,2.002L294.201,184.289z"/>
				<path d="M319.722,191.29h-1.185l-9.972-14.943h-0.092c0.092,1.78,0.141,3.124,0.141,4.03v10.913h-1.132v-16.831h1.175
					l9.961,14.921h0.068c-0.068-1.381-0.104-2.695-0.104-3.939v-10.982h1.14V191.29z"/>
				<path d="M337.552,191.29h-1.185l-9.97-14.943h-0.094c0.094,1.78,0.139,3.124,0.139,4.03v10.913h-1.126v-16.831h1.173
					l9.958,14.921h0.069c-0.069-1.381-0.104-2.695-0.104-3.939v-10.982h1.14V191.29z"/>
				<path d="M351.249,185.351h-6.84l-2.346,5.939h-1.302l6.768-16.9h0.748l6.634,16.9h-1.33L351.249,185.351z M344.834,184.289
					h6.021l-2.29-6.066c-0.193-0.476-0.421-1.136-0.69-1.981c-0.208,0.738-0.435,1.407-0.68,2.002L344.834,184.289z"/>
				<path d="M358.116,174.459h4.619c2.081,0,3.606,0.352,4.58,1.059s1.465,1.773,1.465,3.199c0,0.977-0.302,1.788-0.896,2.438
					c-0.593,0.647-1.463,1.065-2.608,1.248v0.068c1.346,0.201,2.335,0.624,2.968,1.274c0.634,0.648,0.949,1.552,0.949,2.711
					c0,1.551-0.514,2.743-1.543,3.58c-1.028,0.836-2.485,1.254-4.374,1.254h-5.16V174.459z M359.291,181.954H363
					c1.579,0,2.729-0.264,3.447-0.789c0.72-0.526,1.079-1.352,1.079-2.471c0-1.121-0.409-1.933-1.219-2.441
					c-0.808-0.506-2.017-0.759-3.618-0.759h-3.398V181.954z M359.291,182.988v7.266h3.961c3.118,0,4.674-1.267,4.674-3.798
					c0-2.311-1.641-3.468-4.926-3.468H359.291z"/>
				<path d="M373.728,191.29v-16.831h1.173v16.831H373.728z"/>
				<path d="M389.784,186.949c0,1.408-0.517,2.519-1.55,3.339c-1.03,0.821-2.401,1.232-4.117,1.232c-2.056,0-3.63-0.227-4.728-0.679
					v-1.174c1.212,0.514,2.757,0.771,4.637,0.771c1.38,0,2.478-0.316,3.289-0.949c0.81-0.632,1.213-1.464,1.213-2.493
					c0-0.638-0.131-1.165-0.403-1.583c-0.269-0.418-0.704-0.801-1.312-1.145c-0.604-0.345-1.495-0.718-2.67-1.119
					c-1.72-0.589-2.911-1.23-3.564-1.915c-0.656-0.688-0.985-1.602-0.985-2.746c0-1.259,0.493-2.286,1.479-3.081
					c0.986-0.792,2.255-1.192,3.806-1.192c1.581,0,3.066,0.3,4.458,0.897l-0.427,1.014c-1.398-0.584-2.733-0.876-4.008-0.876
					c-1.24,0-2.233,0.29-2.971,0.864c-0.736,0.578-1.103,1.36-1.103,2.35c0,0.622,0.111,1.132,0.337,1.531
					c0.229,0.398,0.597,0.759,1.112,1.076c0.515,0.318,1.395,0.702,2.646,1.147c1.313,0.451,2.298,0.891,2.961,1.317
					c0.659,0.424,1.141,0.909,1.443,1.452C389.632,185.528,389.784,186.183,389.784,186.949z"/>
				<path d="M413.896,182.713c0,2.825-0.743,4.961-2.225,6.408c-1.479,1.446-3.658,2.169-6.525,2.169h-4.031v-16.831h4.551
					c2.683,0,4.725,0.703,6.128,2.106C413.193,177.968,413.896,180.018,413.896,182.713z M412.615,182.759
					c0-2.409-0.609-4.226-1.835-5.439c-1.226-1.218-3.021-1.826-5.394-1.826h-3.099v14.76h2.785
					C410.101,190.254,412.615,187.756,412.615,182.759z"/>
				<path d="M418.588,191.29v-16.831h1.174v16.831H418.588z"/>
				<path d="M434.646,186.949c0,1.408-0.519,2.519-1.553,3.339c-1.03,0.821-2.4,1.232-4.115,1.232c-2.055,0-3.632-0.227-4.728-0.679
					v-1.174c1.212,0.514,2.757,0.771,4.637,0.771c1.38,0,2.477-0.316,3.286-0.949c0.811-0.632,1.216-1.464,1.216-2.493
					c0-0.638-0.134-1.165-0.401-1.583c-0.271-0.418-0.706-0.801-1.313-1.145c-0.605-0.345-1.496-0.718-2.669-1.119
					c-1.722-0.589-2.91-1.23-3.565-1.915c-0.656-0.688-0.985-1.602-0.985-2.746c0-1.259,0.492-2.286,1.479-3.081
					c0.99-0.792,2.255-1.192,3.807-1.192c1.579,0,3.064,0.3,4.457,0.897l-0.427,1.014c-1.399-0.584-2.733-0.876-4.007-0.876
					c-1.243,0-2.233,0.29-2.97,0.864c-0.74,0.578-1.105,1.36-1.105,2.35c0,0.622,0.112,1.132,0.337,1.531
					c0.229,0.398,0.599,0.759,1.112,1.076c0.515,0.318,1.395,0.702,2.647,1.147c1.313,0.451,2.299,0.891,2.96,1.317
					c0.659,0.424,1.142,0.909,1.443,1.452C434.493,185.528,434.646,186.183,434.646,186.949z"/>
				<path d="M449.158,179.295c0,1.625-0.551,2.872-1.66,3.741c-1.104,0.865-2.669,1.299-4.697,1.299h-2.599v6.954h-1.176v-16.831
					h4.123C447.155,174.459,449.158,176.07,449.158,179.295z M440.202,183.324h2.313c1.896,0,3.266-0.313,4.111-0.937
					c0.846-0.626,1.263-1.642,1.263-3.047c0-1.298-0.398-2.259-1.196-2.884c-0.799-0.626-2.032-0.938-3.704-0.938h-2.787V183.324z"
					/>
				<path d="M462.845,191.29h-9.196v-16.831h9.196v1.082h-8.021v6.365h7.572v1.082h-7.572v7.221h8.021V191.29z"/>
				<path d="M479.719,191.29h-1.187l-9.97-14.943h-0.092c0.092,1.78,0.14,3.124,0.14,4.03v10.913h-1.13v-16.831h1.175l9.959,14.921
					h0.068c-0.068-1.381-0.103-2.695-0.103-3.939v-10.982h1.139V191.29z"/>
				<path d="M494.603,186.949c0,1.408-0.515,2.519-1.549,3.339c-1.031,0.821-2.403,1.232-4.118,1.232
					c-2.053,0-3.632-0.227-4.729-0.679v-1.174c1.211,0.514,2.761,0.771,4.64,0.771c1.38,0,2.477-0.316,3.288-0.949
					c0.808-0.632,1.212-1.464,1.212-2.493c0-0.638-0.133-1.165-0.404-1.583c-0.267-0.418-0.705-0.801-1.311-1.145
					c-0.605-0.345-1.496-0.718-2.671-1.119c-1.719-0.589-2.906-1.23-3.562-1.915c-0.658-0.688-0.983-1.602-0.983-2.746
					c0-1.259,0.491-2.286,1.478-3.081c0.985-0.792,2.253-1.192,3.804-1.192c1.581,0,3.067,0.3,4.456,0.897l-0.426,1.014
					c-1.397-0.584-2.731-0.876-4.008-0.876c-1.241,0-2.232,0.29-2.97,0.864c-0.736,0.578-1.104,1.36-1.104,2.35
					c0,0.622,0.115,1.132,0.34,1.531c0.226,0.398,0.598,0.759,1.111,1.076c0.513,0.318,1.396,0.702,2.647,1.147
					c1.312,0.451,2.299,0.891,2.961,1.317c0.658,0.424,1.139,0.909,1.441,1.452C494.45,185.528,494.603,186.183,494.603,186.949z"/>
				<path d="M507.09,185.351h-6.84l-2.351,5.939h-1.297l6.767-16.9h0.749l6.632,16.9h-1.324L507.09,185.351z M500.677,184.289h6.021
					l-2.291-6.066c-0.191-0.476-0.422-1.136-0.689-1.981c-0.207,0.738-0.434,1.407-0.679,2.002L500.677,184.289z"/>
				<path d="M515.131,183.956v7.334h-1.172v-16.831h4.006c2.088,0,3.63,0.386,4.631,1.156c0.995,0.773,1.494,1.934,1.494,3.484
					c0,1.126-0.298,2.081-0.893,2.855c-0.594,0.774-1.499,1.333-2.709,1.668l4.568,7.668h-1.405l-4.339-7.334H515.131z
					 M515.131,182.943h3.215c1.419,0,2.52-0.317,3.305-0.949c0.781-0.631,1.173-1.568,1.173-2.807c0-1.278-0.384-2.212-1.152-2.794
					c-0.766-0.583-2.018-0.875-3.752-0.875h-2.788V182.943z"/>
				<path d="M532.666,183.669l4.927-9.21h1.267l-5.608,10.325v6.506h-1.205v-6.412l-5.631-10.419h1.344L532.666,183.669z"/>
			</g>
		</g>
	</g>
</g>
</svg>
