<?xml version="1.0" encoding="utf-8"?>
<!-- Generator: Adobe Illustrator 16.0.0, SVG Export Plug-In . SVG Version: 6.00 Build 0)  -->
<!DOCTYPE svg PUBLIC "-//W3C//DTD SVG 1.1//EN" "http://www.w3.org/Graphics/SVG/1.1/DTD/svg11.dtd">
<svg version="1.1" xmlns="http://www.w3.org/2000/svg" xmlns:xlink="http://www.w3.org/1999/xlink" x="0px" y="0px"
	 width="700.001px" height="545.033px" viewBox="-47.737 -32.652 700.001 545.033"
	 enable-background="new -47.737 -32.652 700.001 545.033" xml:space="preserve">
<g id="Layer_1">
	<rect x="-47.737" y="-32.652" fill="#FFFFFF" width="700.001" height="272.371"/>
	<g>
		<g id="XMLID_1_">
			<g id="XMLID_2_">
				<g>
					<g>
						<path fill="#533453" d="M231.407,105.471c3.472,4.863,3.72,9.44,0.755,13.649c-2.901,4.126-8.271,5.922-13.52,4.367
							c-3.805-1.133-7.507-2.654-11.33-3.674c-4.291-1.154-7.718-0.102-11.042,3.426c-10.758,11.401-22.354,21.938-35.938,29.978
							c-3.667,2.164-7.802,3.547-11.542,5.607c-1.068,0.591-1.511,2.304-2.237,3.492c1.326,0.443,2.993,1.639,3.914,1.205
							c14.082-6.557,29.105-8.178,44.347-8.851c6.899-0.295,9.939,1.686,10.656,7.222c0.507,3.951-1.317,6.623-5.278,7.193
							c-2.099,0.304-4.329,0.396-6.41,0.047c-16.911-2.873-32.052,2.735-46.936,9.624c-0.69,0.323-1.317,0.783-1.999,1.143
							c-5.931,3.122-7.46,2.966-11.743-2.063c-2.579-3.021-4.762-6.364-7.064-9.487c-7.387,2.092-14.423,4.107-21.469,6.079
							c-6.872,1.915-12.867,0-16.099-5.471c-0.646-1.078-0.617-3.297,0.091-4.292c2.92-4.117,6.963-5.801,12.231-5.924
							c5.813-0.117,11.595-1.48,17.435-3.259c-7.654-0.452-14.156-2.616-18.734-8.777c-0.617,0.102-1.096,0.093-1.492,0.249
							c-13.723,5.479-28.772-4.364-29.288-19.379c-0.056-1.776,1.06-4.826,2.22-5.147c2.091-0.57,4.678,0.294,6.963,0.911
							c1.178,0.312,2.164,1.38,4.291,2.829c-0.589-2.194-0.747-3.141-1.087-4.018c-4.789-12.453-1.584-25.466,8.612-34.069
							c16.431-13.86,35.016-16.45,55.27-10.518c11.19,3.279,21.101,8.814,30.321,16.339c-10.621,5.655-19.766,12.968-27.814,21.626
							c-2.571,2.764-5.075,5.646-7.166,8.766c-2.082,3.104-4.228,3.476-7.497,1.963c-6.273-2.901-12.701-5.479-19.084-8.143
							c-0.755-0.322-1.658-0.322-1.271-0.248c7.478,8.549,15.455,17.665,23.708,27.097c13.042-11.504,26.34-24.113,44.651-29.842
							c-2.137-9.411,1.621-18.005,5.112-26.617c1.087-2.67-0.627-3.316-2.229-4.614c-7.498-6.044-15.317-11.78-22.133-18.531
							c-7.397-7.333-11.854-16.698-14.332-26.875c-0.387-1.565-0.535-3.178-0.304-5.103c11.383,7.257,19.931,17.508,29.713,26.46
							c-7.12-11.08-16.616-20.705-21.229-33.267c0.505-0.486,1.012-0.977,1.519-1.465c5.719,4.229,11.771,8.077,17.104,12.758
							c11.291,9.892,19.193,22.251,24.186,36.38c0.947,2.68,2.201,3.848,5,4.265c7.313,1.105,13.051,4.586,17.03,11.18
							C223.579,95.202,227.667,100.231,231.407,105.471z"/>
					</g>
					<g>
						<path fill="#533453" d="M74.816,162.859c1.114,5.87,2.1,11.052,3.206,16.836C73.02,175.246,72.007,169.868,74.816,162.859z"/>
					</g>
				</g>
				<g>
					<g>
						<path fill="#533453" d="M78.729,180.939l-1.014-0.899c-5.17-4.599-6.227-10.114-3.326-17.351l0.586-1.462l0.293,1.546
							c1.115,5.868,2.101,11.053,3.206,16.837L78.729,180.939z M74.675,164.588c-1.831,5.571-0.986,10.011,2.623,13.776
							C76.402,173.675,75.575,169.32,74.675,164.588z M81.583,164.239c-1.832,5.572-0.986,10.01,2.622,13.774
							C83.31,173.326,82.483,168.972,81.583,164.239z"/>
					</g>
				</g>
			</g>
		</g>
		<g>
			<path fill="#533453" d="M264.684,106.967l-2.428,11.333c-0.162,0.757-0.244,1.269-0.244,1.538c0,1.477,1.331,2.212,3.994,2.212
				h1.834l-0.513,2.321h-17.133l0.513-2.321h0.701c1.835,0,3.107-0.322,3.818-0.971c0.711-0.647,1.192-1.554,1.445-2.726
				l5.801-27.36c0.144-0.685,0.216-1.196,0.216-1.539c0-1.475-1.322-2.213-3.967-2.213h-0.728l0.485-2.321h14.49
				c8.436,0,12.655,3.131,12.655,9.39c0,6.082-3.409,9.931-10.227,11.55l3.994,11.819c0.648,1.889,1.303,3.09,1.969,3.603
				c0.665,0.512,1.52,0.767,2.563,0.767h0.432l-0.432,2.321h-0.729c-3.167,0-5.406-0.416-6.718-1.255
				c-1.314-0.836-2.357-2.575-3.13-5.221l-3.184-10.929L264.684,106.967L264.684,106.967z M265.224,104.376h4.264
				c3.291,0,5.827-0.839,7.609-2.521c1.781-1.681,2.671-4.088,2.671-7.217c0-2.446-0.544-4.237-1.632-5.371
				c-1.089-1.134-2.955-1.699-5.6-1.699h-3.777L265.224,104.376z"/>
			<path fill="#533453" d="M291.64,94.744h10.28l-3.643,16.541c-0.738,3.346-1.106,5.565-1.106,6.665c0,2.245,0.9,3.373,2.698,3.373
				c1.89,0,3.927-1.364,6.11-4.088c2.187-2.727,3.61-5.635,4.278-8.73l2.887-13.76h5.342l-3.804,17.754
				c-0.558,2.608-0.839,4.65-0.839,6.123c0,1.872,0.611,2.807,1.836,2.807c1.043,0,2.223-0.405,3.535-1.215l0.999,1.619
				c-2.34,2.053-4.678,3.075-7.018,3.075c-1.382,0-2.504-0.492-3.357-1.48c-0.854-0.99-1.281-2.241-1.281-3.751
				c0-0.954,0.09-2.042,0.269-3.268h-0.432c-1.996,3.295-3.782,5.523-5.356,6.693c-1.573,1.17-3.35,1.753-5.329,1.753
				c-3.939,0-5.909-2.04-5.909-6.124c0-1.167,0.333-3.192,0.999-6.071l2.158-9.687c0.324-1.457,0.486-2.552,0.486-3.291
				c0-1.745-1.287-2.618-3.858-2.618h-0.432L291.64,94.744z"/>
			<path fill="#533453" d="M328.686,124.37h-5.153l4.642-22.206c0.216-1.024,0.324-1.852,0.324-2.481
				c0-1.745-1.287-2.618-3.859-2.618h-0.434l0.486-2.32h10.227l-1.482,6.961h0.54c2.985-4.966,6.34-7.448,10.063-7.448
				c3.939,0,5.909,2.042,5.909,6.125c0,1.168-0.335,3.193-0.997,6.071l-1.431,6.528c-0.485,2.212-0.729,4.147-0.729,5.803
				c0,1.763,0.647,2.644,1.942,2.644c1.062,0,2.241-0.423,3.536-1.268l0.998,1.621c-2.41,2.086-4.659,3.128-6.747,3.128
				c-1.527,0-2.746-0.494-3.654-1.482c-0.91-0.989-1.365-2.329-1.365-4.021c0-1.69,0.354-4.183,1.054-7.475l1.267-5.72
				c0.541-2.231,0.811-3.949,0.811-5.155c0-2.177-0.848-3.266-2.537-3.266c-2.053,0-4.151,1.386-6.303,4.155
				c-2.148,2.771-3.528,5.531-4.142,8.284L328.686,124.37z"/>
			<path fill="#533453" d="M381.007,106.967l-2.43,11.333c-0.161,0.757-0.243,1.269-0.243,1.538c0,1.477,1.333,2.212,3.993,2.212
				h1.837l-0.515,2.321h-17.133l0.514-2.321h0.7c1.835,0,3.108-0.322,3.819-0.971c0.709-0.647,1.192-1.554,1.443-2.726l5.802-27.36
				c0.144-0.685,0.216-1.196,0.216-1.539c0-1.475-1.321-2.213-3.967-2.213h-0.729l0.484-2.321h14.49
				c8.437,0,12.656,3.131,12.656,9.39c0,6.082-3.41,9.931-10.228,11.55l3.992,11.819c0.648,1.889,1.304,3.09,1.973,3.603
				c0.662,0.512,1.517,0.767,2.56,0.767h0.434l-0.434,2.321h-0.728c-3.167,0-5.406-0.416-6.718-1.255
				c-1.314-0.836-2.358-2.575-3.132-5.221l-3.183-10.929L381.007,106.967L381.007,106.967z M381.546,104.376h4.264
				c3.292,0,5.827-0.839,7.609-2.521c1.781-1.681,2.671-4.088,2.671-7.217c0-2.446-0.544-4.237-1.631-5.371
				c-1.089-1.134-2.953-1.699-5.598-1.699h-3.777L381.546,104.376z"/>
			<path fill="#533453" d="M424.503,116.033h-0.352c-2.645,5.919-6.089,8.875-10.333,8.875c-2.249,0-3.998-0.883-5.248-2.657
				c-1.253-1.771-1.876-4.248-1.876-7.434c0-5.072,1.58-9.776,4.734-14.111c3.16-4.336,7.065-6.504,11.726-6.504
				c2.5,0,4.66,0.666,6.475,1.997l2.429-1.402h1.782l-3.776,17.701c-0.543,2.536-0.811,4.578-0.811,6.123
				c0,1.873,0.603,2.807,1.81,2.807c1.041,0,2.373-0.477,3.99-1.43l1,1.618c-2.645,2.196-5.245,3.292-7.8,3.292
				c-2.876,0-4.315-1.525-4.315-4.588C423.938,119.154,424.124,117.723,424.503,116.033z M427.633,98.683
				c-0.846-1.331-2.239-1.998-4.184-1.998c-3.148,0-5.789,2.001-7.919,6.004c-2.13,4.002-3.196,8.119-3.196,12.345
				c0,4.265,1.16,6.395,3.479,6.395c1.839,0,3.763-1.357,5.774-4.075c2.018-2.715,3.347-5.683,3.994-8.902L427.633,98.683z"/>
			<path fill="#533453" d="M442.068,122.94l-2.483,1.592h-1.778l7.312-34.321c0.323-1.513,0.485-2.483,0.485-2.915
				c0-1.727-1.285-2.591-3.857-2.591h-0.461l0.515-2.32h10.443l-2.646,12.413c-0.379,1.781-1.045,4.218-1.997,7.312h0.269
				c2.718-5.271,6.09-7.908,10.121-7.908c2.195,0,3.911,0.846,5.154,2.537c1.242,1.692,1.861,4.173,1.861,7.448
				c0,5.127-1.582,9.862-4.75,14.205c-3.164,4.346-7.069,6.516-11.709,6.516C445.898,124.908,443.74,124.254,442.068,122.94z
				 M444.01,120.459c1.116,1.313,2.547,1.97,4.289,1.97c3.203,0,5.848-2.041,7.936-6.125c2.087-4.083,3.13-8.141,3.13-12.169
				c0-4.3-1.16-6.449-3.48-6.449c-2.018,0-3.981,1.399-5.896,4.195c-1.916,2.798-3.117,5.339-3.602,7.623L444.01,120.459z"/>
			<path fill="#533453" d="M473.127,122.94l-2.483,1.592h-1.78l7.312-34.321c0.325-1.513,0.485-2.483,0.485-2.915
				c0-1.727-1.285-2.591-3.857-2.591h-0.46l0.512-2.32h10.444l-2.643,12.412c-0.379,1.781-1.045,4.218-1.997,7.312h0.269
				c2.715-5.271,6.089-7.908,10.119-7.908c2.194,0,3.911,0.846,5.153,2.536c1.242,1.692,1.863,4.173,1.863,7.448
				c0,5.127-1.584,9.862-4.75,14.205c-3.165,4.346-7.069,6.516-11.71,6.516C476.958,124.908,474.799,124.254,473.127,122.94z
				 M475.066,120.459c1.116,1.313,2.545,1.97,4.291,1.97c3.201,0,5.846-2.041,7.933-6.125c2.088-4.083,3.13-8.141,3.13-12.169
				c0-4.3-1.16-6.449-3.481-6.449c-2.016,0-3.98,1.399-5.896,4.195c-1.914,2.798-3.116,5.339-3.601,7.623L475.066,120.459z"/>
			<path fill="#533453" d="M501.862,97.065l0.483-2.32h9.904l-3.75,17.754c-0.557,2.644-0.837,4.686-0.837,6.123
				c0,1.872,0.61,2.807,1.834,2.807c1.062,0,2.383-0.477,3.967-1.431l0.997,1.618c-2.553,2.197-5.044,3.292-7.473,3.292
				c-1.367,0-2.474-0.492-3.318-1.48c-0.846-0.99-1.268-2.241-1.268-3.751c0-1.656,0.412-4.553,1.238-8.689l2.133-10.146
				c0.125-0.593,0.189-1.08,0.189-1.455c0-1.549-1.125-2.321-3.373-2.321H501.862z M510.819,89.212
				c-2.068,0-3.102-1.009-3.102-3.022c0-1.169,0.303-2.108,0.903-2.82c0.603-0.71,1.407-1.066,2.414-1.066
				c2.068,0,3.103,1.019,3.103,3.051c0,1.259-0.309,2.217-0.931,2.874C512.587,88.884,511.792,89.212,510.819,89.212z"/>
			<path fill="#533453" d="M531.867,120.216l0.945,2.05c-2.48,1.766-4.965,2.646-7.446,2.646c-4.012,0-6.017-2.15-6.017-6.447
				c0-1.386,0.181-2.934,0.539-4.643l3.375-15.919h-4.208l0.512-2.212c3.597,0,6.412-2.581,8.443-7.745h2.538l-1.43,6.801h6.691
				l-0.674,3.156h-6.692l-3.347,15.758c-0.448,2.125-0.672,3.706-0.672,4.75c0,2.015,0.98,3.021,2.941,3.021
				C528.854,121.429,530.355,121.025,531.867,120.216z"/>
		</g>
		<g>
			<path fill="#533453" d="M258.484,177.524l-0.292,1.392h-6.233l4.403-21.03c0.195-0.928,0.292-1.511,0.292-1.747
				c0-1.047-0.772-1.571-2.315-1.571h-0.259l0.292-1.392h5.876l-0.793,4.419h0.161c1.598-3.16,3.621-4.742,6.071-4.742
				c1.349,0,2.388,0.515,3.117,1.537c0.729,1.026,1.093,2.511,1.093,4.453c0,2.968-0.926,5.782-2.776,8.442
				c-1.852,2.66-4.224,3.99-7.115,3.99c-1.263,0-2.342-0.253-3.239-0.761c-0.097,0.713-0.188,1.246-0.275,1.604l-0.453,2.021
				c-0.205,0.917-0.307,1.532-0.307,1.846c0,1.024,0.772,1.538,2.315,1.538L258.484,177.524L258.484,177.524z M257.285,168.603
				c0.713,0.787,1.587,1.183,2.624,1.183c1.846,0,3.408-1.205,4.687-3.619c1.279-2.41,1.919-4.864,1.919-7.359
				c0-2.578-0.697-3.869-2.089-3.869c-1.144,0-2.299,0.798-3.464,2.388c-1.167,1.592-1.938,3.246-2.315,4.962L257.285,168.603z"/>
			<path fill="#533453" d="M282.622,152.852c1.953,0,3.492,0.588,4.614,1.766c1.123,1.175,1.683,2.875,1.683,5.099
				c0,2.946-0.901,5.61-2.703,7.989c-1.803,2.38-4.171,3.569-7.107,3.569c-1.998,0-3.557-0.604-4.679-1.813
				c-1.124-1.206-1.684-2.887-1.684-5.035c0-2.978,0.909-5.652,2.728-8.02C277.293,154.036,279.675,152.852,282.622,152.852z
				 M279.481,169.656c1.824,0,3.279-1.083,4.363-3.245c1.085-2.164,1.627-4.563,1.627-7.196c0-3.076-1.08-4.614-3.238-4.614
				c-1.803,0-3.259,1.085-4.371,3.254c-1.111,2.169-1.667,4.583-1.667,7.236C276.195,168.135,277.29,169.656,279.481,169.656z"/>
			<path fill="#533453" d="M293.712,147.151l0.292-1.392h6.265l-3.837,18.069c-0.335,1.576-0.502,2.802-0.502,3.674
				c0,1.125,0.367,1.685,1.101,1.685c0.637,0,1.429-0.286,2.379-0.858l0.599,0.973c-1.533,1.317-3.027,1.975-4.484,1.975
				c-0.8,0-1.455-0.292-1.968-0.875c-0.512-0.584-0.768-1.339-0.768-2.268c0-1.047,0.243-2.784,0.729-5.213l2.704-12.725
				c0.141-0.661,0.21-1.156,0.21-1.49c0-1.037-0.777-1.555-2.332-1.555H293.712z"/>
			<path fill="#533453" d="M303.798,147.151l0.291-1.392h6.266l-3.837,18.069c-0.335,1.576-0.504,2.802-0.504,3.674
				c0,1.125,0.369,1.685,1.103,1.685c0.636,0,1.43-0.286,2.378-0.858l0.6,0.973c-1.533,1.317-3.027,1.975-4.483,1.975
				c-0.8,0-1.454-0.292-1.968-0.875c-0.514-0.584-0.768-1.339-0.768-2.268c0-1.047,0.243-2.784,0.729-5.213l2.703-12.725
				c0.138-0.661,0.21-1.156,0.21-1.49c0-1.037-0.776-1.555-2.331-1.555H303.798z"/>
			<path fill="#533453" d="M322.528,158.081c0-1.112-0.263-2.001-0.786-2.671c-0.521-0.671-1.254-1.004-2.194-1.004
				c-0.991,0-1.775,0.268-2.354,0.801c-0.577,0.535-0.866,1.218-0.866,2.049c0,0.733,0.272,1.36,0.824,1.878
				c0.551,0.518,1.404,1.03,2.56,1.538c2.654,1.187,3.98,2.902,3.98,5.146c0,1.631-0.625,2.948-1.877,3.951
				c-1.254,1.004-2.914,1.506-4.985,1.506c-1.674,0-3.004-0.336-3.992-1.012c-0.987-0.675-1.48-1.586-1.48-2.729
				c0-0.714,0.195-1.256,0.591-1.626c0.395-0.374,0.894-0.559,1.497-0.559c0,1.373,0.332,2.437,0.994,3.197
				c0.663,0.761,1.597,1.141,2.795,1.141c2.386,0,3.578-1.024,3.578-3.075c0-0.79-0.254-1.455-0.761-2
				c-0.509-0.545-1.373-1.098-2.591-1.66c-1.587-0.756-2.653-1.535-3.196-2.339c-0.545-0.804-0.816-1.734-0.816-2.795
				c0-1.445,0.59-2.628,1.771-3.552s2.723-1.384,4.623-1.384c1.63,0,2.902,0.302,3.813,0.907c0.911,0.604,1.369,1.348,1.369,2.233
				C325.022,157.395,324.19,158.081,322.528,158.081z"/>
		</g>
	</g>
</g>
<g id="Layer_2">
	<rect x="-47.844" y="240.01" fill="#533453" width="700" height="272.37"/>
	<g>
		<g id="XMLID_3_">
			<g id="XMLID_4_">
				<g>
					<g>
						<path fill="#FFFFFF" d="M231.301,378.119c3.472,4.863,3.721,9.44,0.756,13.649c-2.901,4.127-8.271,5.923-13.521,4.367
							c-3.804-1.133-7.507-2.654-11.329-3.674c-4.291-1.154-7.718-0.102-11.043,3.426c-10.758,11.401-22.354,21.938-35.938,29.978
							c-3.666,2.164-7.802,3.547-11.541,5.608c-1.068,0.59-1.511,2.304-2.237,3.491c1.325,0.444,2.993,1.639,3.914,1.205
							c14.082-6.557,29.105-8.178,44.347-8.851c6.899-0.295,9.939,1.686,10.656,7.222c0.507,3.951-1.317,6.623-5.277,7.194
							c-2.1,0.303-4.329,0.396-6.409,0.047c-16.912-2.874-32.053,2.734-46.937,9.624c-0.69,0.322-1.317,0.783-1.998,1.142
							c-5.932,3.122-7.461,2.966-11.744-2.063c-2.579-3.021-4.762-6.364-7.063-9.487c-7.388,2.092-14.423,4.107-21.47,6.079
							c-6.871,1.915-12.867,0-16.099-5.471c-0.646-1.078-0.617-3.297,0.091-4.291c2.92-4.117,6.963-5.802,12.23-5.924
							c5.813-0.118,11.596-1.481,17.436-3.26c-7.654-0.452-14.156-2.615-18.734-8.777c-0.617,0.102-1.096,0.093-1.491,0.25
							c-13.724,5.479-28.772-4.365-29.289-19.38c-0.056-1.776,1.06-4.826,2.22-5.146c2.091-0.571,4.679,0.293,6.963,0.911
							c1.179,0.311,2.164,1.38,4.291,2.828c-0.589-2.194-0.746-3.141-1.087-4.018c-4.789-12.453-1.584-25.466,8.611-34.068
							c16.431-13.86,35.017-16.45,55.271-10.519c11.189,3.279,21.101,8.814,30.32,16.339c-10.62,5.655-19.766,12.968-27.814,21.626
							c-2.57,2.764-5.075,5.646-7.166,8.766c-2.082,3.104-4.228,3.476-7.497,1.963c-6.272-2.901-12.701-5.479-19.083-8.143
							c-0.756-0.322-1.658-0.322-1.271-0.247c7.479,8.548,15.455,17.664,23.708,27.096c13.041-11.504,26.34-24.113,44.65-29.842
							c-2.137-9.411,1.622-18.005,5.112-26.616c1.087-2.671-0.627-3.316-2.229-4.614c-7.498-6.044-15.317-11.78-22.133-18.531
							c-7.397-7.333-11.854-16.698-14.332-26.875c-0.387-1.565-0.534-3.178-0.304-5.103c11.383,7.257,19.931,17.508,29.713,26.461
							c-7.12-11.08-16.616-20.705-21.229-33.268c0.506-0.486,1.013-0.977,1.519-1.465c5.72,4.229,11.771,8.077,17.104,12.758
							c11.291,9.892,19.193,22.251,24.187,36.381c0.946,2.68,2.201,3.848,4.999,4.265c7.313,1.104,13.052,4.586,17.031,11.18
							C223.472,367.849,227.561,372.879,231.301,378.119z"/>
					</g>
					<g>
						<path fill="#FFFFFF" d="M74.709,435.508c1.114,5.869,2.101,11.051,3.206,16.835C72.913,447.893,71.9,442.515,74.709,435.508z"
							/>
					</g>
				</g>
				<g>
					<g>
						<path fill="#FFFFFF" d="M78.622,453.587l-1.014-0.899c-5.171-4.598-6.227-10.114-3.327-17.35l0.587-1.463l0.293,1.546
							c1.115,5.869,2.101,11.053,3.206,16.837L78.622,453.587z M74.568,437.235c-1.83,5.571-0.985,10.011,2.623,13.776
							C76.296,446.322,75.469,441.968,74.568,437.235z M81.477,436.886c-1.831,5.572-0.986,10.011,2.622,13.774
							C83.203,445.974,82.377,441.62,81.477,436.886z"/>
					</g>
				</g>
			</g>
		</g>
		<g>
			<path fill="#FFFFFF" d="M264.577,379.614l-2.428,11.333c-0.162,0.757-0.244,1.269-0.244,1.538c0,1.477,1.331,2.213,3.994,2.213
				h1.835l-0.513,2.321h-17.134l0.513-2.321h0.701c1.835,0,3.107-0.323,3.818-0.971c0.711-0.648,1.192-1.555,1.444-2.726
				l5.802-27.361c0.143-0.685,0.216-1.196,0.216-1.538c0-1.475-1.322-2.214-3.967-2.214h-0.729l0.485-2.32h14.489
				c8.437,0,12.655,3.131,12.655,9.39c0,6.082-3.409,9.931-10.227,11.55l3.994,11.819c0.647,1.889,1.304,3.09,1.969,3.603
				c0.665,0.512,1.521,0.768,2.563,0.768h0.432l-0.432,2.321h-0.729c-3.166,0-5.406-0.417-6.718-1.256
				c-1.313-0.836-2.357-2.575-3.131-5.221l-3.184-10.929L264.577,379.614L264.577,379.614z M265.117,377.023h4.264
				c3.291,0,5.828-0.839,7.609-2.521c1.78-1.682,2.671-4.089,2.671-7.218c0-2.446-0.544-4.236-1.633-5.37
				c-1.089-1.135-2.955-1.699-5.6-1.699h-3.777L265.117,377.023z"/>
			<path fill="#FFFFFF" d="M291.533,367.392h10.28l-3.643,16.54c-0.738,3.346-1.106,5.566-1.106,6.665
				c0,2.246,0.899,3.373,2.698,3.373c1.89,0,3.927-1.364,6.111-4.088c2.186-2.727,3.61-5.635,4.277-8.73l2.888-13.76h5.342
				l-3.804,17.754c-0.558,2.608-0.839,4.65-0.839,6.123c0,1.873,0.61,2.807,1.836,2.807c1.043,0,2.223-0.405,3.534-1.214
				l0.999,1.618c-2.339,2.054-4.677,3.076-7.017,3.076c-1.383,0-2.504-0.493-3.357-1.481c-0.855-0.99-1.282-2.241-1.282-3.751
				c0-0.953,0.091-2.041,0.27-3.268h-0.432c-1.997,3.295-3.783,5.524-5.357,6.693c-1.573,1.17-3.35,1.754-5.328,1.754
				c-3.939,0-5.909-2.04-5.909-6.125c0-1.167,0.333-3.192,0.998-6.071l2.159-9.687c0.323-1.457,0.485-2.552,0.485-3.291
				c0-1.744-1.287-2.617-3.858-2.617h-0.432L291.533,367.392z"/>
			<path fill="#FFFFFF" d="M328.58,397.018h-5.153l4.641-22.207c0.216-1.024,0.325-1.852,0.325-2.481
				c0-1.744-1.287-2.617-3.859-2.617H324.1l0.486-2.32h10.227l-1.483,6.961h0.541c2.985-4.966,6.339-7.447,10.063-7.447
				c3.939,0,5.909,2.042,5.909,6.125c0,1.168-0.336,3.193-0.998,6.071l-1.431,6.528c-0.485,2.212-0.729,4.147-0.729,5.803
				c0,1.763,0.646,2.645,1.942,2.645c1.061,0,2.24-0.424,3.536-1.269l0.997,1.621c-2.41,2.086-4.659,3.128-6.746,3.128
				c-1.528,0-2.746-0.493-3.655-1.481c-0.909-0.99-1.364-2.33-1.364-4.021c0-1.69,0.353-4.182,1.053-7.475l1.268-5.72
				c0.54-2.231,0.81-3.949,0.81-5.155c0-2.177-0.847-3.266-2.537-3.266c-2.053,0-4.15,1.386-6.302,4.156
				c-2.148,2.771-3.528,5.531-4.143,8.284L328.58,397.018z"/>
			<path fill="#FFFFFF" d="M380.901,379.614l-2.431,11.333c-0.16,0.757-0.242,1.269-0.242,1.538c0,1.477,1.333,2.213,3.993,2.213
				h1.837l-0.515,2.321h-17.133l0.513-2.321h0.701c1.835,0,3.108-0.323,3.818-0.971c0.71-0.648,1.192-1.555,1.443-2.726
				l5.802-27.361c0.145-0.685,0.216-1.196,0.216-1.538c0-1.475-1.32-2.214-3.966-2.214h-0.729l0.484-2.32h14.491
				c8.437,0,12.655,3.131,12.655,9.39c0,6.082-3.409,9.931-10.227,11.55l3.992,11.819c0.648,1.889,1.304,3.09,1.973,3.603
				c0.661,0.512,1.517,0.768,2.56,0.768h0.434l-0.434,2.321h-0.729c-3.166,0-5.405-0.417-6.718-1.256
				c-1.313-0.836-2.357-2.575-3.131-5.221l-3.184-10.929L380.901,379.614L380.901,379.614z M381.44,377.023h4.263
				c3.292,0,5.828-0.839,7.61-2.521c1.78-1.682,2.671-4.089,2.671-7.218c0-2.446-0.544-4.236-1.632-5.37
				c-1.089-1.135-2.953-1.699-5.598-1.699h-3.776L381.44,377.023z"/>
			<path fill="#FFFFFF" d="M424.396,388.681h-0.351c-2.645,5.918-6.089,8.875-10.333,8.875c-2.249,0-3.998-0.884-5.248-2.658
				c-1.253-1.771-1.877-4.248-1.877-7.433c0-5.073,1.58-9.777,4.735-14.112c3.159-4.336,7.064-6.504,11.725-6.504
				c2.501,0,4.66,0.666,6.476,1.997l2.428-1.402h1.783l-3.777,17.7c-0.543,2.537-0.81,4.578-0.81,6.123
				c0,1.873,0.603,2.807,1.81,2.807c1.041,0,2.373-0.476,3.99-1.43l0.999,1.618c-2.645,2.196-5.245,3.292-7.799,3.292
				c-2.877,0-4.316-1.525-4.316-4.588C423.831,391.802,424.018,390.371,424.396,388.681z M427.527,371.331
				c-0.846-1.33-2.24-1.997-4.184-1.997c-3.148,0-5.789,2.001-7.92,6.004c-2.13,4.002-3.195,8.119-3.195,12.345
				c0,4.265,1.159,6.396,3.479,6.396c1.838,0,3.763-1.358,5.773-4.075c2.018-2.716,3.348-5.683,3.995-8.903L427.527,371.331z"/>
			<path fill="#FFFFFF" d="M441.963,395.588l-2.483,1.592H437.7l7.312-34.321c0.323-1.513,0.486-2.482,0.486-2.914
				c0-1.728-1.286-2.591-3.858-2.591h-0.46l0.514-2.32h10.444l-2.646,12.413c-0.378,1.78-1.045,4.218-1.996,7.312h0.268
				c2.718-5.271,6.091-7.908,10.121-7.908c2.196,0,3.912,0.847,5.155,2.537c1.241,1.691,1.86,4.173,1.86,7.447
				c0,5.127-1.581,9.862-4.749,14.205c-3.164,4.346-7.069,6.516-11.709,6.516C445.793,397.556,443.635,396.902,441.963,395.588z
				 M443.903,393.107c1.116,1.312,2.548,1.969,4.29,1.969c3.203,0,5.847-2.041,7.935-6.125c2.087-4.082,3.131-8.14,3.131-12.168
				c0-4.301-1.161-6.449-3.481-6.449c-2.018,0-3.981,1.398-5.896,4.194c-1.917,2.799-3.117,5.339-3.602,7.623L443.903,393.107z"/>
			<path fill="#FFFFFF" d="M473.021,395.588l-2.483,1.592h-1.781l7.313-34.321c0.324-1.513,0.485-2.482,0.485-2.914
				c0-1.728-1.285-2.591-3.857-2.591h-0.461l0.513-2.32h10.443l-2.643,12.412c-0.378,1.78-1.045,4.218-1.996,7.312h0.269
				c2.715-5.271,6.088-7.907,10.119-7.907c2.194,0,3.91,0.846,5.153,2.536c1.241,1.691,1.862,4.173,1.862,7.447
				c0,5.127-1.583,9.862-4.749,14.205c-3.165,4.346-7.069,6.516-11.711,6.516C476.853,397.556,474.692,396.902,473.021,395.588z
				 M474.96,393.107c1.116,1.312,2.546,1.969,4.292,1.969c3.201,0,5.846-2.041,7.933-6.125c2.088-4.082,3.129-8.14,3.129-12.168
				c0-4.301-1.159-6.449-3.48-6.449c-2.016,0-3.98,1.398-5.897,4.194c-1.913,2.799-3.116,5.339-3.601,7.623L474.96,393.107z"/>
			<path fill="#FFFFFF" d="M501.756,369.713l0.484-2.32h9.904l-3.751,17.754c-0.557,2.644-0.837,4.687-0.837,6.123
				c0,1.873,0.611,2.807,1.834,2.807c1.062,0,2.384-0.477,3.967-1.431l0.998,1.619c-2.554,2.196-5.045,3.292-7.473,3.292
				c-1.367,0-2.474-0.493-3.319-1.481c-0.845-0.99-1.268-2.241-1.268-3.751c0-1.655,0.413-4.553,1.239-8.688l2.133-10.147
				c0.125-0.593,0.188-1.079,0.188-1.455c0-1.549-1.124-2.32-3.372-2.32H501.756z M510.713,361.86c-2.068,0-3.101-1.01-3.101-3.022
				c0-1.169,0.302-2.109,0.902-2.82c0.603-0.71,1.408-1.066,2.415-1.066c2.068,0,3.103,1.019,3.103,3.052
				c0,1.259-0.309,2.217-0.931,2.873C512.481,361.531,511.687,361.86,510.713,361.86z"/>
			<path fill="#FFFFFF" d="M531.762,392.863l0.945,2.051c-2.481,1.765-4.966,2.646-7.447,2.646c-4.012,0-6.016-2.15-6.016-6.447
				c0-1.386,0.18-2.934,0.538-4.642l3.375-15.92h-4.207l0.511-2.213c3.598,0,6.412-2.581,8.444-7.744h2.537l-1.429,6.801h6.69
				l-0.674,3.156h-6.691l-3.348,15.758c-0.447,2.125-0.672,3.706-0.672,4.75c0,2.015,0.981,3.021,2.942,3.021
				C528.748,394.078,530.25,393.673,531.762,392.863z"/>
		</g>
		<g>
			<path fill="#FFFFFF" d="M258.377,450.172l-0.291,1.392h-6.233l4.404-21.03c0.194-0.928,0.291-1.51,0.291-1.747
				c0-1.047-0.772-1.571-2.315-1.571h-0.259l0.291-1.392h5.877l-0.794,4.419h0.161c1.599-3.16,3.621-4.742,6.071-4.742
				c1.349,0,2.388,0.515,3.116,1.537c0.729,1.026,1.094,2.511,1.094,4.453c0,2.968-0.927,5.782-2.776,8.442
				c-1.852,2.661-4.224,3.99-7.115,3.99c-1.264,0-2.342-0.252-3.238-0.761c-0.097,0.713-0.188,1.246-0.275,1.604l-0.453,2.021
				c-0.205,0.918-0.307,1.532-0.307,1.847c0,1.023,0.771,1.537,2.315,1.537L258.377,450.172L258.377,450.172z M257.178,441.251
				c0.713,0.788,1.587,1.183,2.624,1.183c1.846,0,3.408-1.205,4.688-3.619c1.278-2.41,1.919-4.864,1.919-7.358
				c0-2.579-0.697-3.87-2.09-3.87c-1.144,0-2.299,0.798-3.464,2.388c-1.166,1.592-1.938,3.246-2.315,4.962L257.178,441.251z"/>
			<path fill="#FFFFFF" d="M282.516,425.5c1.952,0,3.491,0.589,4.614,1.766c1.122,1.175,1.683,2.875,1.683,5.099
				c0,2.946-0.901,5.61-2.703,7.99c-1.803,2.379-4.172,3.568-7.107,3.568c-1.997,0-3.557-0.604-4.679-1.813
				c-1.123-1.205-1.684-2.887-1.684-5.034c0-2.979,0.909-5.653,2.729-8.021C277.187,426.683,279.568,425.5,282.516,425.5z
				 M279.375,442.303c1.824,0,3.278-1.083,4.363-3.245c1.085-2.164,1.627-4.562,1.627-7.196c0-3.076-1.079-4.614-3.238-4.614
				c-1.803,0-3.259,1.085-4.371,3.254c-1.111,2.17-1.667,4.583-1.667,7.236C276.089,440.782,277.183,442.303,279.375,442.303z"/>
			<path fill="#FFFFFF" d="M293.605,419.799l0.292-1.392h6.266l-3.838,18.069c-0.334,1.576-0.502,2.802-0.502,3.674
				c0,1.125,0.367,1.685,1.102,1.685c0.637,0,1.429-0.286,2.379-0.858l0.6,0.973c-1.533,1.318-3.027,1.975-4.484,1.975
				c-0.799,0-1.455-0.292-1.968-0.874c-0.512-0.584-0.767-1.339-0.767-2.268c0-1.047,0.242-2.785,0.728-5.214l2.704-12.724
				c0.141-0.661,0.211-1.157,0.211-1.491c0-1.036-0.777-1.555-2.332-1.555H293.605z"/>
			<path fill="#FFFFFF" d="M303.691,419.799l0.291-1.392h6.267l-3.838,18.069c-0.335,1.576-0.504,2.802-0.504,3.674
				c0,1.125,0.37,1.685,1.104,1.685c0.636,0,1.429-0.286,2.378-0.858l0.599,0.973c-1.532,1.318-3.027,1.975-4.483,1.975
				c-0.8,0-1.454-0.292-1.968-0.874c-0.514-0.584-0.769-1.339-0.769-2.268c0-1.047,0.243-2.785,0.729-5.214l2.703-12.724
				c0.139-0.661,0.21-1.157,0.21-1.491c0-1.036-0.775-1.555-2.331-1.555H303.691z"/>
			<path fill="#FFFFFF" d="M322.423,430.728c0-1.112-0.263-2.001-0.787-2.671c-0.521-0.67-1.253-1.004-2.194-1.004
				c-0.99,0-1.775,0.268-2.353,0.802s-0.867,1.217-0.867,2.048c0,0.734,0.272,1.36,0.825,1.878c0.551,0.518,1.404,1.03,2.559,1.538
				c2.654,1.187,3.981,2.902,3.981,5.147c0,1.631-0.626,2.947-1.877,3.95c-1.254,1.004-2.914,1.506-4.986,1.506
				c-1.673,0-3.004-0.336-3.991-1.012c-0.987-0.674-1.481-1.585-1.481-2.729c0-0.714,0.196-1.256,0.591-1.626
				c0.396-0.374,0.894-0.559,1.498-0.559c0,1.373,0.331,2.437,0.994,3.198c0.663,0.76,1.597,1.141,2.795,1.141
				c2.385,0,3.578-1.025,3.578-3.075c0-0.79-0.254-1.455-0.762-2c-0.509-0.546-1.372-1.099-2.591-1.661
				c-1.586-0.756-2.652-1.535-3.195-2.338c-0.546-0.805-0.816-1.735-0.816-2.795c0-1.446,0.59-2.629,1.771-3.553
				s2.723-1.384,4.623-1.384c1.629,0,2.902,0.302,3.812,0.907c0.911,0.604,1.37,1.348,1.37,2.234
				C324.916,430.043,324.084,430.728,322.423,430.728z"/>
		</g>
	</g>
</g>
</svg>
