<?xml version="1.0" encoding="utf-8"?>
<!-- Generator: Adobe Illustrator 16.0.0, SVG Export Plug-In . SVG Version: 6.00 Build 0)  -->
<!DOCTYPE svg PUBLIC "-//W3C//DTD SVG 1.1//EN" "http://www.w3.org/Graphics/SVG/1.1/DTD/svg11.dtd">
<svg version="1.1" id="Layer_1" xmlns="http://www.w3.org/2000/svg" xmlns:xlink="http://www.w3.org/1999/xlink" x="0px" y="0px"
	 width="328.963px" height="476.766px" viewBox="0 0 328.963 476.766" enable-background="new 0 0 328.963 476.766"
	 xml:space="preserve">
<g>
	<g>
		<polygon fill="#A06A54" points="52.241,3.922 54.787,3.969 54.787,13.784 52.241,13.831 		"/>
		<polygon fill="#A06A54" points="58.216,4.031 60.762,4.078 60.762,13.675 58.216,13.722 		"/>
		<polygon fill="#A06A54" points="64.19,4.141 66.737,4.187 66.737,13.566 64.19,13.612 		"/>
		<polygon fill="#A06A54" points="70.166,4.25 72.712,4.296 72.712,13.457 70.166,13.503 		"/>
		<polygon fill="#A06A54" points="76.14,4.359 78.687,4.406 78.687,13.347 76.14,13.394 		"/>
		<polygon fill="#A06A54" points="82.115,4.468 84.662,4.515 84.662,13.238 82.115,13.285 		"/>
		<polygon fill="#A06A54" points="88.09,4.578 90.637,4.624 90.637,13.129 88.09,13.175 		"/>
		<polygon fill="#A06A54" points="94.065,4.687 96.612,4.733 96.612,13.02 94.065,13.066 		"/>
		<polygon fill="#A06A54" points="100.04,4.796 102.586,4.843 102.586,12.91 100.04,12.957 		"/>
		<polygon fill="#A06A54" points="106.015,4.905 108.562,4.952 108.562,12.801 106.015,12.848 		"/>
		<polygon fill="#A06A54" points="111.99,5.015 114.536,5.062 114.536,12.691 111.99,12.738 		"/>
		<polygon fill="#A06A54" points="117.965,5.124 120.511,5.17 120.511,12.583 117.965,12.629 		"/>
		<polygon fill="#A06A54" points="123.939,5.233 126.486,5.28 126.486,12.473 123.939,12.52 		"/>
		<polygon fill="#A06A54" points="129.915,5.343 132.461,5.389 132.461,12.364 129.915,12.41 		"/>
		<polygon fill="#A06A54" points="135.889,5.452 138.436,5.499 138.436,12.254 135.889,12.301 		"/>
		<polygon fill="#A06A54" points="141.864,5.561 144.411,5.608 144.411,12.145 141.864,12.192 		"/>
		<polygon fill="#A06A54" points="147.839,5.67 150.386,5.717 150.386,12.036 147.839,12.083 		"/>
		<polygon fill="#A06A54" points="153.814,5.78 156.361,5.826 156.361,11.927 153.814,11.973 		"/>
		<polygon fill="#A06A54" points="159.789,5.889 162.336,5.936 162.336,11.817 159.789,11.864 		"/>
		<polygon fill="#A06A54" points="165.764,5.998 168.311,6.045 168.311,11.708 165.764,11.755 		"/>
		<polygon fill="#A06A54" points="171.738,6.107 174.285,6.154 174.285,11.599 171.738,11.646 		"/>
		<polygon fill="#A06A54" points="177.714,6.217 180.26,6.263 180.26,11.49 177.714,11.536 		"/>
		<polygon fill="#A06A54" points="183.688,6.326 186.235,6.373 186.235,11.38 183.688,11.427 		"/>
		<polygon fill="#A06A54" points="189.663,6.436 192.21,6.482 192.21,11.271 189.663,11.317 		"/>
		<polygon fill="#A06A54" points="195.639,6.544 198.185,6.591 198.185,11.162 195.639,11.208 		"/>
		<polygon fill="#A06A54" points="201.613,6.654 204.16,6.701 204.16,11.052 201.613,11.099 		"/>
		<polygon fill="#A06A54" points="207.588,6.763 210.135,6.81 210.135,10.943 207.588,10.99 		"/>
		<polygon fill="#A06A54" points="213.563,6.873 216.109,6.919 216.109,10.834 213.563,10.88 		"/>
		<polygon fill="#A06A54" points="219.538,6.982 222.085,7.028 222.085,10.725 219.538,10.771 		"/>
		<polygon fill="#A06A54" points="225.513,7.091 228.06,7.138 228.06,10.615 225.513,10.662 		"/>
		<polygon fill="#A06A54" points="231.488,7.2 234.034,7.247 234.034,10.506 231.488,10.553 		"/>
		<polygon fill="#A06A54" points="237.463,7.31 240.01,7.356 240.01,10.397 237.463,10.443 		"/>
		<polygon fill="#A06A54" points="243.438,7.419 245.984,7.465 245.984,10.288 243.438,10.334 		"/>
		<polygon fill="#A06A54" points="249.412,7.528 251.959,7.575 251.959,10.178 249.412,10.225 		"/>
		<polygon fill="#A06A54" points="255.388,7.637 257.934,7.684 257.934,10.069 255.388,10.116 		"/>
		<polygon fill="#A06A54" points="261.362,7.747 263.909,7.793 263.909,9.959 261.362,10.006 		"/>
		<polygon fill="#A06A54" points="267.337,7.856 269.884,7.902 269.884,9.851 267.337,9.897 		"/>
		<polygon fill="#A06A54" points="273.313,7.965 275.858,8.012 275.858,9.741 273.313,9.788 		"/>
		<polygon fill="#A06A54" points="279.287,8.075 281.834,8.121 281.834,9.632 279.287,9.678 		"/>
		<polygon fill="#A06A54" points="285.262,8.184 287.809,8.23 287.809,9.522 285.262,9.569 		"/>
		<polygon fill="#A06A54" points="291.236,8.293 293.783,8.34 293.783,9.413 291.236,9.46 		"/>
		<polygon fill="#A06A54" points="297.212,8.402 299.758,8.449 299.758,9.304 297.212,9.351 		"/>
		<polygon fill="#A06A54" points="303.187,8.512 305.733,8.558 305.733,9.195 303.187,9.241 		"/>
		<polygon fill="#A06A54" points="309.161,8.621 311.708,8.667 311.708,9.085 309.161,9.132 		"/>
		<polygon fill="#A06A54" points="315.137,8.73 317.683,8.777 317.683,8.976 315.137,9.023 		"/>
		<polygon fill="#A06A54" points="321.111,8.839 323.137,8.876 321.111,8.914 		"/>
	</g>
</g>
<path fill="none" stroke="#A06A54" stroke-width="9.7446" stroke-miterlimit="10" d="M56.263,9.312c0,0-73.781-13.039-34.985,117.67
	c0,0,26.084,117.739-21.278,108.133"/>
<path fill="none" stroke="#A06A54" stroke-width="9.7446" stroke-miterlimit="10" d="M56.263,464.729
	c0,0-73.781,13.037-34.985-117.671c0,0,26.084-117.738-21.278-108.131"/>
</svg>
