<?xml version="1.0" encoding="utf-8"?>
<!-- Generator: Adobe Illustrator 16.0.0, SVG Export Plug-In . SVG Version: 6.00 Build 0)  -->
<!DOCTYPE svg PUBLIC "-//W3C//DTD SVG 1.1//EN" "http://www.w3.org/Graphics/SVG/1.1/DTD/svg11.dtd">
<svg version="1.1" xmlns="http://www.w3.org/2000/svg" xmlns:xlink="http://www.w3.org/1999/xlink" x="0px" y="0px"
	 width="244.564px" height="230.609px" viewBox="0 0 244.564 230.609" enable-background="new 0 0 244.564 230.609"
	 xml:space="preserve">
<g id="original" display="none">
	<path id="tail_5_" display="inline" opacity="0.8" fill-rule="evenodd" clip-rule="evenodd" fill="#DD8E6F" d="M133.434,111.66
		c0,0-34.615-46.679-47.059-42.118c-20.687,7.582-28.571,50.174-28.571,50.174s5.714,12.539-10,16.359
		c-15.714,3.818-7.143,18.576-7.143,18.576s2.857,12.08-14.286,9.375c-17.143-2.703-23.088,41.682,18.572,40.152
		c41.66-1.528,55.328-15.352,55.328-31.936l24.979,15.094"/>
	<g id="fins_5_" display="inline">
		<path fill-rule="evenodd" clip-rule="evenodd" fill="none" stroke="#D77A56" stroke-miterlimit="10" d="M42.678,183.927
			c0,0,31.178-1.25,40.589-12.684"/>
		<path fill-rule="evenodd" clip-rule="evenodd" fill="none" stroke="#D77A56" stroke-miterlimit="10" d="M42.678,175.103
			c0,0,28.235,1.764,37.647-10.588"/>
		<path fill-rule="evenodd" clip-rule="evenodd" fill="none" stroke="#D77A56" stroke-miterlimit="10" d="M42.678,159.81
			c0,0,18.824-5.15,37.647,0"/>
		<path fill-rule="evenodd" clip-rule="evenodd" fill="none" stroke="#D77A56" stroke-miterlimit="10" d="M42.678,167.813
			c0,0,14.965-7.266,34.898-5.652"/>
		<path fill-rule="evenodd" clip-rule="evenodd" fill="none" stroke="#D77A56" stroke-miterlimit="10" d="M45.031,150.126
			c0,0,8.234-3.508,35.294,5"/>
		<path fill-rule="evenodd" clip-rule="evenodd" fill="none" stroke="#D77A56" stroke-miterlimit="10" d="M57.804,119.716
			c0,0,23.591-12.224,39.472,7.305"/>
		<path fill-rule="evenodd" clip-rule="evenodd" fill="none" stroke="#D77A56" stroke-miterlimit="10" d="M60.973,110.28
			c0,0,25.228-8.102,41.996,12.508"/>
		<path fill-rule="evenodd" clip-rule="evenodd" fill="none" stroke="#D77A56" stroke-miterlimit="10" d="M73.267,90.329
			c0,0,15.665-21.107,34.009,6.539c18.344,27.647,20.466,19.792,20.466,19.792"/>
		<path fill-rule="evenodd" clip-rule="evenodd" fill="none" stroke="#D77A56" stroke-miterlimit="10" d="M73.267,82.329
			c0,0,15.665-21.107,34.009,6.539c18.344,27.647,31.466,29.792,31.466,29.792"/>
	</g>
	<path display="inline" opacity="0.8" fill-rule="evenodd" clip-rule="evenodd" fill="#D77A56" d="M125.254,187.337
		c0,0-33.111,43.277-59.565,34.346s11.888-16.566,11.888-16.566s83.369-25.469,96.799,5.369
		c13.431,30.836,15.638-17.947,15.638-17.947L125.254,187.337z"/>
	<path id="topfin_5_" display="inline" opacity="0.8" fill-rule="evenodd" clip-rule="evenodd" fill="#D77A56" d="M133.434,111.66
		c0,0-15.456-40.528,14.656-50.867c41.923-14.395,26.285-35.629,26.285-35.629s-24.748-38.127-26.373-6.699
		c-1.627,31.429-36.246,46.252,0.088,63.111c39.295,18.232,35.428,35.083,35.428,35.083"/>
	<path display="inline" fill-rule="evenodd" clip-rule="evenodd" fill="#D77A56" d="M193.518,124.716c0,0-20-21.025-38.57-21.495
		c-18.572-0.47-34.286,21.495-34.286,21.495s-10,22.016-10,39.311c0,33.01,55.714,33.01,55.714,33.01
		c55.715-2.857,44.904-42.383,44.904-42.383L193.518,124.716z"/>
	<circle display="inline" fill-rule="evenodd" clip-rule="evenodd" fill="#E8B399" cx="117.188" cy="150.53" r="30.813"/>
	<circle display="inline" fill-rule="evenodd" clip-rule="evenodd" fill="#E8B399" cx="205.188" cy="150.53" r="30.813"/>
	
		<ellipse display="inline" fill-rule="evenodd" clip-rule="evenodd" fill="#E3EDE9" stroke="#DBEAE5" stroke-width="1.0501" stroke-miterlimit="10" cx="107.275" cy="154.659" rx="11.691" ry="16.584"/>
	
		<ellipse display="inline" fill-rule="evenodd" clip-rule="evenodd" fill="#E3EDE9" stroke="#DBEAE5" stroke-width="1.0501" stroke-miterlimit="10" cx="222.275" cy="152.659" rx="11.691" ry="16.584"/>
	
		<path display="inline" fill-rule="evenodd" clip-rule="evenodd" fill="#E3EDE9" stroke="#DBEAE5" stroke-width="1.0501" stroke-miterlimit="10" d="
		M156.295,172.243c0,0,11.742-9.969,21.742,0c10,9.967-3.662,4.021-3.662,4.021s-5.188-2.551-12.982,0
		C145.875,181.343,156.295,172.243,156.295,172.243z"/>
	
		<ellipse display="inline" fill-rule="evenodd" clip-rule="evenodd" fill="#363636" stroke="#363636" stroke-width="0.8412" stroke-miterlimit="10" cx="225.969" cy="145.601" rx="5.693" ry="8.047"/>
	
		<ellipse display="inline" fill-rule="evenodd" clip-rule="evenodd" fill="#363636" stroke="#363636" stroke-width="0.8412" stroke-miterlimit="10" cx="102.969" cy="147.601" rx="5.693" ry="8.047"/>
</g>
<g id="newFishy">
	<path id="tail_1_" opacity="0.8" fill-rule="evenodd" clip-rule="evenodd" fill="#DB8B6E" d="M131.544,111.756
		C127.513,92.324,95.335,62.929,82.32,67.7c-21.64,7.931-32.112,36.699-29.887,52.483c0,0,5.977,13.116-10.461,17.111
		c-16.436,3.994-7.471,19.432-7.471,19.432s2.989,12.636-14.943,9.806c-17.932-2.826-24.151,43.601,19.426,42.001
		c43.577-1.598,57.875-16.059,57.875-33.406l26.129,15.789"/>
	<g>
		<g>
			<path fill="#CE6B49" d="M32.572,165.523c0,0,0.641-0.542,1.857-1.359c0.625-0.38,1.361-0.884,2.266-1.355
				c0.883-0.515,1.926-1.001,3.063-1.537c0.566-0.274,1.186-0.488,1.811-0.75c0.629-0.253,1.276-0.523,1.968-0.729
				c0.686-0.222,1.391-0.449,2.111-0.682c0.729-0.204,1.484-0.371,2.247-0.564c1.518-0.429,3.138-0.61,4.765-0.908
				c1.637-0.21,3.315-0.342,4.99-0.462c1.678,0.001,3.363-0.103,5.014-0.013c1.648,0.126,3.282,0.18,4.844,0.385
				c1.554,0.264,3.061,0.495,4.479,0.758c1.406,0.325,2.719,0.703,3.937,1.014c0.607,0.165,1.188,0.324,1.741,0.474
				c0.55,0.16,1.054,0.372,1.536,0.538c0.961,0.347,1.795,0.655,2.479,0.918c1.365,0.524,2.145,0.824,2.145,0.824l-0.032,0.088
				c0,0-0.807-0.219-2.218-0.602c-0.705-0.19-1.556-0.433-2.529-0.718c-0.489-0.133-0.999-0.31-1.555-0.432
				c-0.556-0.119-1.14-0.244-1.75-0.375c-1.218-0.261-2.528-0.585-3.927-0.853c-1.413-0.192-2.894-0.441-4.43-0.674
				c-1.536-0.225-3.142-0.295-4.765-0.471c-1.625-0.132-3.286-0.072-4.944-0.119c-1.653,0.084-3.313,0.18-4.935,0.354
				c-1.61,0.26-3.219,0.405-4.727,0.798c-0.758,0.175-1.51,0.325-2.235,0.511c-0.718,0.213-1.421,0.422-2.105,0.625
				c-0.691,0.184-1.339,0.434-1.969,0.667c-0.626,0.241-1.249,0.437-1.817,0.693c-1.142,0.5-2.193,0.954-3.083,1.441
				c-0.914,0.443-1.658,0.923-2.291,1.284c-1.232,0.779-1.883,1.299-1.883,1.299L32.572,165.523z"/>
		</g>
		<g>
			<path fill="#CE6B49" d="M9.564,194.339c0,0,1.308,0.562,3.682,1.314c2.368,0.761,5.801,1.708,9.995,2.483
				c2.096,0.385,4.379,0.737,6.808,0.979c2.425,0.276,4.998,0.403,7.656,0.476c2.66,0.003,5.412-0.022,8.19-0.298
				c2.784-0.217,5.588-0.652,8.371-1.176c2.769-0.594,5.523-1.268,8.164-2.157c0.661-0.219,1.319-0.438,1.974-0.655
				c0.65-0.23,1.285-0.492,1.924-0.73c0.637-0.245,1.271-0.487,1.899-0.729c0.615-0.275,1.225-0.548,1.83-0.818
				c0.605-0.271,1.206-0.54,1.8-0.806c0.579-0.299,1.152-0.595,1.719-0.888c1.138-0.579,2.246-1.154,3.29-1.779
				c2.138-1.164,4.038-2.465,5.819-3.625c0.859-0.626,1.682-1.226,2.465-1.796c0.79-0.562,1.53-1.109,2.187-1.672
				c0.67-0.548,1.296-1.061,1.875-1.535c0.591-0.461,1.117-0.906,1.57-1.332c1.85-1.666,2.907-2.618,2.907-2.618l0.066,0.065
				c0,0-1.002,1.014-2.756,2.788c-0.849,0.921-2.033,1.872-3.323,3.042c-0.64,0.592-1.362,1.171-2.136,1.769
				c-0.769,0.603-1.57,1.248-2.428,1.891c-1.771,1.211-3.661,2.569-5.798,3.796c-0.53,0.312-1.052,0.657-1.609,0.954
				c-0.562,0.289-1.13,0.582-1.704,0.878c-0.575,0.296-1.155,0.595-1.742,0.897c-0.603,0.269-1.21,0.541-1.824,0.814
				c-0.613,0.273-1.231,0.549-1.854,0.827c-0.637,0.244-1.278,0.489-1.924,0.736c-0.647,0.242-1.291,0.509-1.954,0.728
				c-0.666,0.209-1.336,0.42-2.008,0.632c-2.687,0.858-5.482,1.497-8.288,2.052c-2.817,0.496-5.652,0.899-8.461,1.083
				c-2.805,0.244-5.577,0.236-8.253,0.2c-2.675-0.109-5.261-0.259-7.693-0.58c-2.437-0.284-4.724-0.675-6.821-1.096
				c-4.195-0.846-7.621-1.853-9.982-2.654c-2.365-0.792-3.669-1.377-3.668-1.377L9.564,194.339z"/>
		</g>
		<g>
			<g>
				<path fill="#CE6B49" d="M6.634,186.68c0,0,1.308,0.562,3.682,1.314c2.368,0.761,5.802,1.708,9.995,2.483
					c2.096,0.385,4.379,0.737,6.808,0.979c2.425,0.277,4.997,0.403,7.656,0.476c2.66,0.003,5.412-0.022,8.19-0.298
					c2.784-0.217,5.588-0.651,8.371-1.176c2.769-0.594,5.523-1.268,8.164-2.157c0.661-0.219,1.319-0.438,1.974-0.655
					c0.65-0.23,1.286-0.492,1.925-0.731c0.637-0.244,1.27-0.487,1.899-0.728c0.615-0.275,1.225-0.548,1.83-0.819
					c0.605-0.271,1.205-0.539,1.8-0.805c0.579-0.299,1.151-0.595,1.719-0.888c1.138-0.579,2.246-1.154,3.29-1.779
					c2.138-1.164,4.037-2.465,5.818-3.625c0.859-0.626,1.683-1.226,2.466-1.796c0.79-0.562,1.53-1.109,2.187-1.672
					c0.669-0.548,1.296-1.061,1.875-1.535c0.591-0.461,1.117-0.906,1.57-1.332c1.85-1.666,2.907-2.618,2.907-2.618l0.066,0.065
					c0,0-1.002,1.014-2.756,2.788c-0.849,0.921-2.033,1.872-3.323,3.042c-0.639,0.592-1.362,1.171-2.135,1.769
					c-0.769,0.603-1.57,1.248-2.428,1.891c-1.771,1.211-3.662,2.569-5.798,3.796c-0.53,0.312-1.052,0.657-1.609,0.954
					c-0.562,0.29-1.13,0.583-1.705,0.878c-0.574,0.296-1.155,0.596-1.742,0.897c-0.602,0.269-1.21,0.541-1.823,0.814
					c-0.613,0.274-1.231,0.55-1.854,0.828c-0.637,0.244-1.279,0.489-1.924,0.736c-0.647,0.242-1.29,0.508-1.954,0.727
					c-0.667,0.21-1.336,0.421-2.009,0.632c-2.687,0.858-5.482,1.497-8.288,2.052c-2.817,0.496-5.652,0.899-8.461,1.084
					c-2.805,0.243-5.577,0.235-8.253,0.199c-2.675-0.109-5.261-0.259-7.693-0.58c-2.437-0.284-4.724-0.675-6.821-1.096
					c-4.195-0.846-7.621-1.853-9.982-2.654c-2.365-0.792-3.669-1.377-3.668-1.377L6.634,186.68z"/>
			</g>
			<g>
				<path fill="#CE6B49" d="M6.736,179.817c0,0,1.308,0.562,3.682,1.314c2.368,0.761,5.802,1.708,9.995,2.483
					c2.096,0.385,4.379,0.737,6.808,0.979c2.425,0.277,4.998,0.403,7.656,0.476c2.659,0.003,5.412-0.022,8.19-0.298
					c2.784-0.217,5.588-0.651,8.371-1.176c2.769-0.594,5.523-1.268,8.164-2.157c0.661-0.219,1.319-0.438,1.974-0.655
					c0.65-0.23,1.286-0.492,1.925-0.731c0.637-0.244,1.27-0.487,1.899-0.728c0.615-0.275,1.225-0.548,1.83-0.819
					c0.605-0.271,1.205-0.539,1.8-0.805c0.579-0.299,1.152-0.595,1.719-0.888c1.138-0.579,2.246-1.154,3.29-1.779
					c2.138-1.164,4.038-2.465,5.819-3.625c0.859-0.625,1.683-1.226,2.465-1.796c0.791-0.563,1.53-1.109,2.187-1.672
					c0.669-0.548,1.296-1.061,1.875-1.535c0.591-0.461,1.117-0.906,1.57-1.332c1.85-1.666,2.907-2.618,2.907-2.618l0.066,0.065
					c0,0-1.002,1.014-2.756,2.788c-0.849,0.921-2.034,1.872-3.323,3.042c-0.64,0.592-1.362,1.171-2.135,1.769
					c-0.769,0.603-1.57,1.248-2.429,1.891c-1.771,1.211-3.661,2.569-5.798,3.796c-0.53,0.312-1.052,0.657-1.609,0.954
					c-0.562,0.29-1.13,0.583-1.704,0.878c-0.575,0.296-1.155,0.595-1.742,0.897c-0.603,0.269-1.21,0.541-1.824,0.814
					s-1.231,0.55-1.854,0.828c-0.637,0.244-1.278,0.489-1.924,0.736c-0.647,0.242-1.291,0.508-1.954,0.727
					c-0.667,0.21-1.336,0.42-2.009,0.632c-2.687,0.858-5.482,1.497-8.288,2.052c-2.817,0.496-5.652,0.899-8.461,1.083
					c-2.805,0.244-5.578,0.236-8.253,0.2c-2.675-0.109-5.261-0.258-7.694-0.58c-2.437-0.284-4.724-0.675-6.821-1.096
					c-4.195-0.846-7.621-1.853-9.982-2.654c-2.365-0.792-3.669-1.377-3.668-1.377L6.736,179.817z"/>
			</g>
			<g>
				<path fill="#CE6B49" d="M34.473,156.689c0,0,0.616-0.515,1.792-1.276c0.599-0.361,1.312-0.83,2.183-1.271
					c0.434-0.224,0.896-0.462,1.382-0.714c0.501-0.221,1.028-0.454,1.578-0.696c0.544-0.259,1.137-0.46,1.748-0.68
					c0.614-0.207,1.233-0.476,1.9-0.651c1.329-0.366,2.727-0.785,4.218-1.012c0.743-0.117,1.488-0.323,2.263-0.373
					c0.772-0.075,1.554-0.15,2.342-0.226c0.787-0.107,1.586-0.075,2.387-0.085c0.802-0.003,1.607-0.006,2.412-0.01
					c1.6,0.158,3.214,0.238,4.782,0.465c1.554,0.305,3.102,0.547,4.566,0.913c1.441,0.453,2.841,0.867,4.153,1.302
					c1.29,0.494,2.473,1.055,3.583,1.522c0.55,0.245,1.077,0.479,1.578,0.702c0.497,0.231,0.937,0.516,1.366,0.749
					c0.853,0.479,1.591,0.902,2.194,1.26c1.204,0.712,1.892,1.119,1.892,1.119l-0.047,0.081c0,0-0.727-0.332-2-0.911
					c-0.636-0.289-1.401-0.649-2.273-1.07c-0.441-0.2-0.893-0.451-1.4-0.645c-0.508-0.191-1.042-0.393-1.6-0.604
					c-1.114-0.417-2.301-0.923-3.588-1.358c-1.313-0.362-2.68-0.79-4.102-1.208c-1.431-0.381-2.943-0.635-4.46-0.986
					c-1.532-0.265-3.112-0.387-4.682-0.587c-0.791-0.014-1.582-0.028-2.37-0.042c-0.788-0.007-1.576-0.058-2.351,0.032
					c-0.778,0.058-1.549,0.115-2.311,0.172c-0.766,0.032-1.502,0.22-2.239,0.319c-1.478,0.188-2.862,0.582-4.188,0.901
					c-0.665,0.154-1.283,0.402-1.897,0.589c-0.61,0.2-1.205,0.381-1.75,0.623c-0.552,0.225-1.082,0.44-1.585,0.645
					c-0.49,0.235-0.955,0.458-1.391,0.668c-0.878,0.412-1.599,0.857-2.206,1.199c-1.192,0.723-1.818,1.216-1.818,1.216
					L34.473,156.689z"/>
			</g>
			<g>
				<path fill="#CE6B49" d="M32.518,148.212c0,0,0.68-0.5,1.958-1.233c0.642-0.359,1.424-0.795,2.35-1.237
					c0.465-0.217,0.96-0.448,1.481-0.692c0.526-0.232,1.094-0.443,1.679-0.682c1.161-0.508,2.486-0.864,3.857-1.337
					c0.703-0.178,1.425-0.36,2.163-0.546c0.37-0.092,0.743-0.185,1.121-0.279c0.383-0.066,0.77-0.133,1.16-0.2
					c0.78-0.134,1.574-0.271,2.377-0.41c0.812-0.075,1.633-0.15,2.461-0.227c1.655-0.216,3.35-0.119,5.042-0.152
					c0.848-0.042,1.688,0.095,2.529,0.147c0.841,0.071,1.679,0.142,2.509,0.212c1.646,0.252,3.256,0.583,4.82,0.866
					c1.528,0.43,2.998,0.879,4.384,1.317c0.703,0.193,1.348,0.486,1.977,0.755c0.629,0.268,1.237,0.526,1.82,0.775
					c1.164,0.501,2.239,0.941,3.119,1.482c0.898,0.501,1.678,0.943,2.313,1.316c1.27,0.743,1.996,1.167,1.996,1.167l-0.047,0.081
					c0,0-0.765-0.349-2.103-0.958c-0.668-0.304-1.473-0.683-2.391-1.125c-0.898-0.485-2.004-0.822-3.169-1.279
					c-0.584-0.223-1.193-0.455-1.823-0.696c-0.629-0.242-1.274-0.506-1.974-0.669c-1.376-0.389-2.828-0.798-4.329-1.223
					c-1.529-0.298-3.105-0.642-4.716-0.94c-0.814-0.09-1.635-0.181-2.458-0.272c-0.825-0.073-1.65-0.231-2.484-0.211
					c-1.665-0.001-3.335-0.134-4.97,0.046c-0.819,0.058-1.632,0.116-2.435,0.173c-0.796,0.12-1.583,0.239-2.356,0.356
					c-0.387,0.059-0.771,0.117-1.151,0.174c-0.375,0.085-0.746,0.17-1.113,0.253c-0.735,0.167-1.455,0.33-2.155,0.489
					c-1.369,0.431-2.696,0.748-3.86,1.22c-0.587,0.221-1.158,0.415-1.687,0.631c-0.525,0.228-1.022,0.444-1.491,0.647
					c-0.932,0.414-1.723,0.826-2.371,1.166c-1.292,0.695-1.981,1.173-1.981,1.173L32.518,148.212z"/>
			</g>
			<g>
				<path fill="#CE6B49" d="M52.412,120.142c0,0,2.521-1.368,6.635-2.574c2.052-0.604,4.499-1.161,7.171-1.434
					c1.333-0.15,2.722-0.216,4.134-0.211c1.412,0.016,2.849,0.101,4.272,0.305c0.716,0.071,1.418,0.238,2.127,0.353
					c0.699,0.159,1.397,0.32,2.082,0.507c1.363,0.396,2.685,0.867,3.916,1.435c1.226,0.575,2.378,1.207,3.406,1.9
					c0.506,0.359,1.017,0.68,1.475,1.041c0.455,0.363,0.894,0.714,1.316,1.051c0.804,0.719,1.532,1.388,2.123,2.032
					c0.584,0.65,1.126,1.184,1.494,1.694c0.761,0.99,1.196,1.556,1.196,1.556l-0.072,0.059c0,0-0.497-0.507-1.367-1.395
					c-0.42-0.455-1.005-0.934-1.622-1.531c-0.623-0.592-1.407-1.168-2.217-1.839c-0.425-0.31-0.869-0.632-1.328-0.966
					c-0.46-0.331-0.972-0.62-1.477-0.946c-1.032-0.615-2.135-1.244-3.333-1.774c-1.18-0.57-2.452-1.042-3.76-1.475
					c-0.658-0.202-1.331-0.379-2.006-0.555c-0.686-0.132-1.365-0.317-2.062-0.408c-5.566-0.932-11.289-0.156-15.38,0.917
					c-4.122,1.062-6.679,2.342-6.679,2.342L52.412,120.142z"/>
			</g>
			<g>
				<path fill="#CE6B49" d="M53.63,126.919c0,0,2.521-1.368,6.635-2.574c2.052-0.604,4.5-1.16,7.171-1.434
					c1.333-0.15,2.722-0.216,4.134-0.21c1.412,0.016,2.849,0.101,4.272,0.304c0.717,0.071,1.419,0.238,2.127,0.353
					c0.699,0.159,1.397,0.32,2.082,0.507c1.364,0.396,2.686,0.867,3.916,1.435c1.226,0.575,2.378,1.207,3.406,1.899
					c0.506,0.359,1.017,0.68,1.474,1.041c0.455,0.363,0.895,0.714,1.316,1.051c0.804,0.718,1.532,1.388,2.123,2.031
					c0.583,0.651,1.126,1.184,1.494,1.694c0.761,0.99,1.196,1.556,1.196,1.556l-0.072,0.059c0,0-0.497-0.507-1.367-1.395
					c-0.42-0.455-1.005-0.934-1.623-1.531c-0.622-0.592-1.407-1.168-2.217-1.839c-0.426-0.31-0.869-0.632-1.328-0.966
					c-0.46-0.331-0.972-0.62-1.477-0.946c-1.033-0.615-2.135-1.244-3.333-1.774c-1.18-0.57-2.451-1.042-3.759-1.475
					c-0.658-0.202-1.332-0.379-2.007-0.556c-0.685-0.132-1.365-0.317-2.062-0.408c-5.567-0.932-11.289-0.156-15.381,0.917
					c-4.122,1.062-6.679,2.342-6.679,2.342L53.63,126.919z"/>
			</g>
			<g>
				<path fill="#CE6B49" d="M53.36,110.269c0,0,3.098-1.195,8.007-1.88c1.224-0.178,2.56-0.309,3.977-0.389
					c1.417-0.084,2.916-0.08,4.465-0.016c1.547,0.088,3.147,0.226,4.754,0.506c1.614,0.243,3.224,0.651,4.822,1.098
					c1.583,0.496,3.155,1.048,4.642,1.736c0.745,0.339,1.485,0.676,2.181,1.08c0.353,0.192,0.703,0.384,1.051,0.574
					c0.336,0.211,0.669,0.42,1,0.627c0.328,0.212,0.652,0.423,0.974,0.632c0.308,0.229,0.612,0.455,0.914,0.679
					c0.609,0.439,1.193,0.886,1.719,1.372c1.102,0.912,2.033,1.892,2.919,2.765c0.813,0.943,1.595,1.773,2.184,2.594
					c0.6,0.811,1.162,1.486,1.53,2.111c0.775,1.217,1.218,1.912,1.218,1.912l-0.077,0.052c0,0-0.511-0.643-1.404-1.769
					c-0.427-0.576-1.037-1.202-1.676-1.964c-0.626-0.775-1.476-1.52-2.302-2.417c-0.904-0.822-1.851-1.746-2.962-2.594
					c-0.535-0.449-1.11-0.874-1.707-1.299c-0.296-0.215-0.595-0.433-0.897-0.652c-0.315-0.2-0.634-0.401-0.955-0.604
					c-0.319-0.207-0.64-0.416-0.964-0.626c-0.336-0.19-0.674-0.381-1.015-0.574c-0.673-0.401-1.382-0.753-2.101-1.103
					c-1.432-0.711-2.953-1.291-4.492-1.819c-1.556-0.471-3.129-0.907-4.711-1.179c-1.575-0.31-3.149-0.479-4.675-0.598
					c-3.056-0.196-5.929-0.095-8.369,0.188c-2.443,0.268-4.455,0.687-5.848,1.029c-1.395,0.342-2.169,0.615-2.169,0.615
					L53.36,110.269z"/>
			</g>
			<g>
				<path fill="#CE6B49" d="M60.302,89.412c0,0,0.906-1.022,2.771-2.497c1.862-1.453,4.724-3.401,8.626-4.672
					c1.945-0.624,4.15-1.047,6.503-1.067c2.351-0.027,4.839,0.378,7.26,1.234c2.425,0.851,4.77,2.145,6.949,3.723
					c2.193,1.57,4.156,3.488,6.014,5.481c1.852,2.009,3.469,4.21,5.097,6.312c0.809,1.06,1.61,2.111,2.403,3.149
					c0.815,1.014,1.621,2.016,2.413,3.001c0.779,0.997,1.591,1.938,2.392,2.855c0.808,0.91,1.55,1.845,2.346,2.687
					c0.784,0.852,1.547,1.681,2.286,2.482c0.772,0.767,1.519,1.508,2.236,2.22c0.749,0.675,1.467,1.321,2.15,1.937
					c0.708,0.582,1.398,1.114,2.042,1.62c1.346,0.918,2.554,1.691,3.645,2.11c1.071,0.469,2,0.609,2.616,0.551
					c0.623-0.042,0.901-0.237,0.901-0.238l0.059,0.073c0,0-0.295,0.233-0.942,0.316c-0.642,0.1-1.616,0.012-2.745-0.402
					c-1.157-0.357-2.428-1.084-3.837-1.974c-0.674-0.486-1.398-0.999-2.143-1.562c-0.715-0.597-1.477-1.215-2.247-1.889
					c-0.742-0.702-1.514-1.434-2.314-2.191c-0.764-0.792-1.554-1.609-2.366-2.451c-0.832-0.825-1.582-1.763-2.391-2.684
					c-0.805-0.925-1.623-1.874-2.408-2.879c-0.797-0.994-1.608-2.005-2.429-3.028c-0.781-1.048-1.571-2.108-2.367-3.177
					c-1.602-2.139-3.161-4.336-4.951-6.342c-1.804-1.986-3.71-3.899-5.841-5.464c-2.116-1.574-4.393-2.869-6.75-3.73
					c-2.354-0.87-4.776-1.287-7.077-1.304c-2.304-0.021-4.478,0.357-6.407,0.939c-3.872,1.186-6.751,3.071-8.627,4.485
					c-1.881,1.436-2.799,2.436-2.799,2.436L60.302,89.412z"/>
			</g>
			<g>
				<path fill="#CE6B49" d="M64.987,81.045c0,0,0.933-1.136,2.908-2.758c0.989-0.806,2.245-1.726,3.793-2.609
					c1.546-0.879,3.393-1.73,5.531-2.264c2.13-0.54,4.551-0.765,7.065-0.432c2.511,0.348,5.065,1.284,7.443,2.677
					c2.384,1.391,4.592,3.225,6.614,5.285c2.007,2.076,3.801,4.413,5.482,6.791c1.715,2.348,3.339,4.78,5.129,6.996
					c1.719,2.276,3.534,4.42,5.277,6.506c0.914,1.005,1.813,1.993,2.692,2.96c0.883,0.964,1.813,1.841,2.668,2.746
					c1.759,1.758,3.492,3.354,5.168,4.732c1.667,1.39,3.26,2.585,4.725,3.566c1.467,0.979,2.805,1.738,3.926,2.329
					c1.136,0.559,2.053,0.955,2.698,1.165c0.641,0.229,0.995,0.296,0.995,0.296l-0.015,0.092c0,0-0.368-0.047-1.025-0.242
					c-0.665-0.175-1.609-0.521-2.79-1.021c-0.58-0.27-1.224-0.569-1.911-0.921c-0.666-0.388-1.416-0.764-2.165-1.248
					c-1.513-0.943-3.19-2.067-4.902-3.44c-1.727-1.357-3.513-2.931-5.329-4.668c-0.891-0.886-1.834-1.772-2.72-2.749
					c-0.887-0.977-1.792-1.975-2.713-2.989c-1.752-2.105-3.594-4.255-5.282-6.591c-1.778-2.272-3.353-4.711-5.034-7.09
					c-1.65-2.393-3.382-4.704-5.336-6.777c-1.965-2.051-4.11-3.875-6.425-5.264c-2.309-1.393-4.789-2.325-7.232-2.708
					c-2.447-0.364-4.82-0.184-6.924,0.314c-2.112,0.491-3.951,1.302-5.496,2.148c-1.548,0.85-2.811,1.744-3.808,2.53
					c-1.991,1.583-2.936,2.697-2.936,2.697L64.987,81.045z"/>
			</g>
		</g>
	</g>
	<path opacity="0.8" fill-rule="evenodd" clip-rule="evenodd" fill="#D47A56" d="M122.988,190.917c0,0-34.636,45.268-62.308,35.926
		c-27.671-9.343,12.435-17.329,12.435-17.329s87.207-26.642,101.254,5.616c14.048,32.255,16.356-18.772,16.356-18.772
		L122.988,190.917z"/>
	<path id="topfin_1_" opacity="0.8" fill-rule="evenodd" clip-rule="evenodd" fill="#D47A56" d="M131.544,111.756
		c0,0-16.168-42.394,15.331-53.208c43.851-15.056,27.494-37.268,27.494-37.268s-25.887-39.884-27.587-7.007
		c-1.702,32.875-37.914,48.38,0.093,66.016c41.104,19.071,37.058,36.696,37.058,36.696"/>
	<path fill-rule="evenodd" clip-rule="evenodd" fill="#D47A56" d="M194.394,125.413c0,0-20.921-21.992-40.346-22.484
		c-19.427-0.491-35.865,22.484-35.865,22.484s-10.459,23.028-10.459,41.119c0,34.53,58.278,34.53,58.278,34.53
		c58.279-2.989,46.971-44.333,46.971-44.333L194.394,125.413z"/>
	<circle fill-rule="evenodd" clip-rule="evenodd" fill="#E6B197" cx="114.551" cy="152.416" r="32.231"/>
	<circle fill-rule="evenodd" clip-rule="evenodd" fill="#E6B197" cx="206.601" cy="152.416" r="32.232"/>
	
		<ellipse fill-rule="evenodd" clip-rule="evenodd" fill="#DFEAE6" stroke="#D9E7E2" stroke-width="1.0984" stroke-miterlimit="10" cx="221.678" cy="154.642" rx="12.23" ry="17.348"/>
	<g>
		
			<ellipse fill-rule="evenodd" clip-rule="evenodd" fill="#363636" stroke="#363636" stroke-width="0.8799" stroke-miterlimit="10" cx="224.61" cy="147.259" rx="5.956" ry="8.417"/>
	</g>
	<polygon opacity="0.9" fill-rule="evenodd" clip-rule="evenodd" fill="#D9E7E2" points="218.654,142.336 220.882,139.776 
		223.678,145.396 	"/>
	
		<ellipse fill-rule="evenodd" clip-rule="evenodd" fill="#DFEAE6" stroke="#D9E7E2" stroke-width="1.0984" stroke-miterlimit="10" cx="99.601" cy="154.642" rx="12.23" ry="17.348"/>
	
		<ellipse fill-rule="evenodd" clip-rule="evenodd" fill="#363636" stroke="#363636" stroke-width="0.8799" stroke-miterlimit="10" cx="96.671" cy="147.259" rx="5.956" ry="8.417"/>
	<polygon opacity="0.9" fill-rule="evenodd" clip-rule="evenodd" fill="#D9E7E2" points="90.715,142.336 92.943,139.776 
		95.739,145.396 	"/>
	<g>
		<path fill-rule="evenodd" clip-rule="evenodd" fill="#DB8D70" d="M163,184.302c0-4.755,6.767-5.135,10.83-4.573
			s17.816,6.768,5.011-7.866C166.036,157.23,163,175.523,163,175.523V184.302z"/>
		<path fill-rule="evenodd" clip-rule="evenodd" fill="#DB8D70" d="M164,184.302c0-4.755-6.774-5.135-10.837-4.573
			c-4.062,0.563-17.813,6.768-5.007-7.866C160.96,157.23,164,175.523,164,175.523V184.302z"/>
		<path fill-rule="evenodd" clip-rule="evenodd" fill="#DB8D70" d="M142.485,180.613c0,0,3.37,6.015,20.956,6.015
			s21.035-6.351,21.035-6.351l-20.958-3.906L142.485,180.613z"/>
		<path fill-rule="evenodd" clip-rule="evenodd" fill="#A36A54" d="M142.59,180.176c0,0,17.294-3.76,20.891,0.15
			c4.529-4.167,18.911-1.406,18.911-1.406S163.439,171.651,142.59,180.176z"/>
	</g>
</g>
</svg>
