<?xml version="1.0" encoding="utf-8"?>
<!-- Generator: Adobe Illustrator 16.0.0, SVG Export Plug-In . SVG Version: 6.00 Build 0)  -->
<!DOCTYPE svg PUBLIC "-//W3C//DTD SVG 1.1//EN" "http://www.w3.org/Graphics/SVG/1.1/DTD/svg11.dtd">
<svg version="1.1" xmlns="http://www.w3.org/2000/svg" xmlns:xlink="http://www.w3.org/1999/xlink" x="0px" y="0px"
	 width="20.315px" height="22.499px" viewBox="0 0 20.315 22.499" enable-background="new 0 0 20.315 22.499" xml:space="preserve">
<g id="Layer_1" display="none">
	<g display="inline">
		<g>
			<path opacity="0.3" fill-rule="evenodd" clip-rule="evenodd" fill="#B8B69B" d="M8.435,2.107H7.42L6.731,4.756L6.022,2.107H4.958
				C5.171,2.732,5.39,3.368,5.605,3.98C5.926,4.926,6.129,5.627,6.22,6.114v2.732h1.003V6.114L8.435,2.107z M11.128,7.217v-1.75
				c0-0.541-0.091-0.929-0.276-1.188c-0.254-0.342-0.611-0.512-1.063-0.512c-0.452,0-0.812,0.17-1.06,0.512
				C8.536,4.538,8.446,4.926,8.446,5.467v1.75c0,0.537,0.09,0.927,0.284,1.184c0.248,0.342,0.607,0.504,1.06,0.504
				c0.451,0,0.809-0.162,1.063-0.504C11.038,8.144,11.128,7.754,11.128,7.217z M10.223,7.389c0,0.457-0.14,0.694-0.434,0.694
				c-0.3,0-0.432-0.237-0.432-0.694V5.275c0-0.456,0.132-0.689,0.432-0.689c0.294,0,0.434,0.233,0.434,0.689V7.389z M14.494,8.847
				V3.829h-0.915v3.835c-0.202,0.273-0.387,0.419-0.568,0.419c-0.121,0-0.194-0.069-0.215-0.203
				c-0.008-0.036-0.008-0.154-0.008-0.361V3.829h-0.909v3.956c0,0.358,0.033,0.596,0.08,0.75c0.092,0.255,0.296,0.369,0.586,0.369
				c0.336,0,0.677-0.199,1.034-0.613v0.556H14.494z"/>
			<path fill-rule="evenodd" clip-rule="evenodd" fill="#B8B69B" d="M8.437,2.002H7.424L6.734,4.65l-0.71-2.648H4.96
				c0.211,0.624,0.431,1.249,0.646,1.873C5.93,4.82,6.131,5.521,6.226,6.004v2.725h0.999V6.004L8.437,2.002z M11.132,7.113V5.359
				c0-0.539-0.092-0.94-0.276-1.186C10.6,3.832,10.242,3.655,9.793,3.655c-0.452,0-0.813,0.177-1.062,0.519
				C8.54,4.419,8.449,4.82,8.449,5.359v1.754c0,0.528,0.091,0.926,0.283,1.173C8.98,8.635,9.341,8.798,9.793,8.798
				c0.448,0,0.807-0.163,1.063-0.512C11.041,8.039,11.132,7.642,11.132,7.113z M10.225,7.283c0,0.457-0.138,0.691-0.432,0.691
				c-0.3,0-0.432-0.234-0.432-0.691V5.171c0-0.458,0.132-0.692,0.432-0.692c0.294,0,0.432,0.234,0.432,0.692V7.283z M14.496,8.729
				V3.715h-0.914v3.843c-0.203,0.273-0.386,0.417-0.569,0.417c-0.119,0-0.194-0.07-0.215-0.214C12.79,7.726,12.79,7.615,12.79,7.403
				V3.715H11.88v3.963c0,0.361,0.033,0.6,0.078,0.751c0.095,0.257,0.3,0.369,0.59,0.369c0.336,0,0.679-0.197,1.033-0.612v0.543
				H14.496z"/>
		</g>
		<g>
			<path fill-rule="evenodd" clip-rule="evenodd" fill="#B8B69B" d="M17.185,11.306c-0.188-0.79-0.835-1.382-1.606-1.468
				c-1.853-0.203-3.727-0.203-5.576-0.203c-1.858,0-3.735,0-5.574,0.203c-0.777,0.086-1.423,0.678-1.609,1.468
				c-0.252,1.12-0.256,2.349-0.256,3.511c0,1.163,0,2.393,0.254,3.52c0.188,0.789,0.833,1.373,1.609,1.467
				c1.839,0.204,3.713,0.204,5.572,0.204c1.852,0,3.728,0,5.578-0.204c0.771-0.094,1.418-0.678,1.604-1.467
				c0.25-1.127,0.252-2.356,0.252-3.52C17.432,13.654,17.434,12.426,17.185,11.306z M6.802,12.313H5.726v5.724H4.729v-5.724h-1.06
				v-0.938h3.133V12.313z M9.516,18.036H8.62v-0.54c-0.353,0.406-0.695,0.602-1.028,0.602c-0.284,0-0.486-0.117-0.578-0.363
				c-0.047-0.15-0.084-0.392-0.084-0.736v-3.924h0.909v3.65c0,0.21,0,0.322,0.008,0.348c0.018,0.152,0.085,0.211,0.207,0.211
				c0.174,0,0.364-0.137,0.566-0.416v-3.793h0.896V18.036z M12.931,16.547c0,0.465-0.025,0.789-0.089,1.001
				c-0.121,0.375-0.359,0.55-0.712,0.55c-0.32,0-0.63-0.17-0.935-0.547v0.485h-0.892v-6.661h0.892v2.18
				c0.294-0.355,0.601-0.545,0.935-0.545c0.353,0,0.591,0.191,0.712,0.566c0.063,0.195,0.089,0.527,0.089,0.995V16.547z
				 M16.333,15.725H14.53V16.6c0,0.459,0.15,0.684,0.458,0.684c0.221,0,0.355-0.117,0.404-0.355
				c0.004-0.055,0.015-0.248,0.015-0.611h0.926v0.133c0,0.293-0.014,0.485-0.022,0.574c-0.035,0.203-0.098,0.379-0.205,0.546
				c-0.259,0.358-0.619,0.528-1.09,0.528c-0.478,0-0.829-0.169-1.094-0.494c-0.188-0.261-0.28-0.643-0.28-1.176v-1.732
				c0-0.531,0.081-0.924,0.266-1.172c0.269-0.344,0.623-0.514,1.081-0.514c0.453,0,0.815,0.17,1.057,0.514
				c0.196,0.248,0.288,0.641,0.288,1.172V15.725z"/>
			<path fill-rule="evenodd" clip-rule="evenodd" fill="#B8B69B" d="M11.642,13.824c-0.142,0-0.295,0.07-0.446,0.217v3.027
				c0.151,0.156,0.305,0.215,0.446,0.215c0.265,0,0.396-0.215,0.396-0.666v-2.123C12.038,14.061,11.907,13.824,11.642,13.824z"/>
			<path fill-rule="evenodd" clip-rule="evenodd" fill="#B8B69B" d="M14.978,13.824c-0.298,0-0.448,0.236-0.448,0.686v0.46h0.896
				v-0.46C15.425,14.061,15.28,13.824,14.978,13.824z"/>
		</g>
	</g>
</g>
<g id="Layer_2">
	<path fill="#F6F2F0" d="M5.229,4.047c0,1.063-0.779,1.919-2.069,1.919c-1.229,0-2.007-0.856-2.007-1.919
		c0-1.092,0.807-1.922,2.053-1.922C4.45,2.125,5.204,2.956,5.229,4.047z M1.25,19.873V7.485h3.846v12.388H1.25z M7.406,11.442
		c0-1.551-0.054-2.842-0.106-3.957h3.344l0.184,1.732h0.07c0.508-0.816,1.752-2.005,3.826-2.005c2.521,0,4.432,1.699,4.432,5.346
		v7.316h-3.854v-6.862c0-1.601-0.553-2.684-1.947-2.684c-1.061,0-1.703,0.728-1.974,1.437c-0.107,0.261-0.13,0.616-0.13,0.967v7.143
		H7.406V11.442z"/>
</g>
<g id="Layer_3" display="none">
	<path display="inline" fill-rule="evenodd" clip-rule="evenodd" fill="#B8B69B" d="M7.068,11.943v8.049h3.92V11.98h2.672
		l0.649-3.338h-3.288c0,0,0-1.574,0-2.456c0-0.336,0.179-0.788,0.724-0.788c0.849,0,1.908,0,1.908,0V1.994c0,0-1.724,0-3.563,0
		c-1.222,0-3.026,1.512-3.026,3.113c0,1.657,0,3.436,0,3.436H5.004v3.383L7.068,11.943z"/>
</g>
</svg>
