<?xml version="1.0" encoding="utf-8"?>
<!-- Generator: Adobe Illustrator 16.0.0, SVG Export Plug-In . SVG Version: 6.00 Build 0)  -->
<!DOCTYPE svg PUBLIC "-//W3C//DTD SVG 1.1//EN" "http://www.w3.org/Graphics/SVG/1.1/DTD/svg11.dtd">
<svg version="1.1" id="Layer_1" xmlns="http://www.w3.org/2000/svg" xmlns:xlink="http://www.w3.org/1999/xlink" x="0px" y="0px"
	 width="662.989px" height="125px" viewBox="0 0 662.989 125" enable-background="new 0 0 662.989 125" xml:space="preserve">
<g>
	<g>
		<path fill="#B24934" d="M567.008,112.405l-0.424-9.599c-0.177-3.437-0.25-6.979-0.071-10.025l-3.79,17.037h-5.491l-4.039-17.037
			c0.247,3.614,0.247,6.659,0.107,10.094l-0.424,9.53h-5.669l1.843-24.547h7.331l3.685,16.647l3.437-16.647h7.367l1.843,24.547
			H567.008z"/>
		<path fill="#B24934" d="M582.245,92.002v5.88h7.546v4.073h-7.546v6.269h9.246v4.18h-15.055V87.858h15.055l-0.604,4.144H582.245z"
			/>
		<path fill="#B24934" d="M614.658,100.007c0,9.883-5.951,12.398-12.221,12.398h-7.367V87.858h6.836
			C608.459,87.858,614.658,89.877,614.658,100.007z M600.879,108.189h1.912c3.507,0,5.845-1.664,5.845-8.182
			c0-6.589-2.515-7.935-5.915-7.935h-1.842V108.189z"/>
		<path fill="#B24934" d="M618.132,112.405V87.858h5.81v24.547H618.132z"/>
		<path fill="#B24934" d="M633.046,107.127l-1.239,5.278h-6.022l7.402-24.547h7.05l7.405,24.547h-6.165l-1.275-5.278H633.046z
			 M636.625,92.073l-2.585,10.839h5.17L636.625,92.073z"/>
	</g>
</g>
<path fill="#358A80" d="M451.818,24.272c0.436,0,0.705,0.217,0.815,0.652c0.109,0.435,0.164,0.993,0.164,1.676
	c0,0.372-0.032,1.116-0.094,2.233c-0.063,1.117-0.093,2.499-0.093,4.142c0,2.886,0.116,5.392,0.349,7.516
	c0.232,2.126,0.506,3.973,0.815,5.539c0.309,1.567,0.636,2.894,0.977,3.979c0.341,1.085,0.635,2.017,0.884,2.792
	c0.185,0.621,0.426,1.373,0.722,2.258c0.295,0.884,0.443,1.621,0.443,2.21c0,0.497-0.205,0.744-0.606,0.744
	c-0.342-0.03-0.746-0.255-1.211-0.674c-0.463-0.42-0.953-0.923-1.466-1.513c-0.511-0.589-1.008-1.211-1.488-1.862
	c-0.481-0.651-0.892-1.225-1.233-1.722c-1.396-1.861-2.838-3.521-4.329-4.98c-1.489-1.458-3.141-2.699-4.956-3.723
	c-1.816-1.024-3.833-1.799-6.051-2.327c-2.218-0.528-4.739-0.792-7.562-0.792c-3.229,0-6.254,0.628-9.076,1.885
	c-2.823,1.257-5.283,3.173-7.377,5.748c-2.094,2.575-3.752,5.81-4.979,9.704c-1.226,3.893-1.838,8.463-1.838,13.706
	c0,4.84,0.426,9.145,1.278,12.915c0.854,3.77,1.996,7.058,3.422,9.866c1.426,2.809,3.078,5.183,4.957,7.121
	c1.876,1.939,3.845,3.514,5.911,4.723c2.063,1.21,4.148,2.079,6.258,2.607c2.111,0.528,4.111,0.791,6.004,0.791
	c2.916,0,5.507-0.356,7.773-1.07c2.264-0.713,4.264-1.668,6.004-2.862c1.737-1.194,3.226-2.567,4.467-4.119
	c1.24-1.551,2.281-3.172,3.119-4.863c0.837-1.69,1.504-3.381,2-5.073c0.497-1.691,0.855-3.282,1.071-4.771
	c0.124-0.93,0.226-1.868,0.303-2.815c0.076-0.946,0.155-1.808,0.232-2.583c0.077-0.774,0.188-1.403,0.326-1.885
	c0.142-0.481,0.351-0.721,0.63-0.721c0.9,0,1.348,1.582,1.348,4.746c0,0.808-0.054,1.861-0.162,3.165
	c-0.11,1.304-0.344,2.763-0.7,4.375c-0.355,1.612-0.86,3.313-1.511,5.096c-0.651,1.785-1.513,3.554-2.583,5.305
	c-1.07,1.754-2.375,3.42-3.909,5.003c-1.535,1.583-3.374,2.979-5.516,4.188c-2.141,1.21-4.615,2.172-7.423,2.886
	c-2.807,0.714-5.996,1.07-9.563,1.07c-3.011,0-6.042-0.31-9.099-0.93c-3.056-0.621-5.988-1.575-8.797-2.862
	c-2.807-1.288-5.429-2.932-7.865-4.933c-2.435-2.001-4.554-4.391-6.352-7.167c-1.8-2.775-3.219-5.958-4.258-9.541
	c-1.04-3.584-1.559-7.593-1.559-12.031c0-5.306,0.558-9.959,1.675-13.962c1.118-4.003,2.622-7.461,4.515-10.378
	c1.893-2.916,4.072-5.329,6.538-7.237c2.467-1.908,5.057-3.436,7.772-4.585c2.715-1.147,5.461-1.955,8.238-2.42
	c2.775-0.465,5.405-0.698,7.887-0.698c1.861,0,3.561,0.078,5.097,0.233c1.537,0.154,2.947,0.318,4.235,0.488
	c1.287,0.171,2.467,0.334,3.537,0.489c1.07,0.156,2.054,0.233,2.956,0.233c1.583,0,2.9-0.333,3.956-1
	c1.054-0.667,1.831-1.946,2.327-3.84c0.309-1.303,0.535-2.559,0.675-3.771c0.139-1.209,0.279-2.287,0.419-3.233
	s0.318-1.707,0.535-2.281C451.012,24.559,451.353,24.272,451.818,24.272z"/>
<path fill="#358A80" d="M475.077,44.706c0.305,0,0.5,0.087,0.586,0.26c0.085,0.174,0.13,0.348,0.13,0.52
	c0,0.305-0.044,0.711-0.13,1.22c-0.086,0.51-0.196,1.188-0.326,2.033c-0.13,0.845-0.276,1.892-0.438,3.138
	c-0.165,1.247-0.33,2.759-0.505,4.537c-0.238,2.493-0.451,5.008-0.635,7.545c-0.184,2.537-0.347,5.008-0.487,7.415
	c-0.142,2.406-0.265,4.71-0.373,6.911c-0.11,2.2-0.202,4.222-0.277,6.065c-0.076,1.843-0.136,3.469-0.178,4.878
	c-0.046,1.41-0.077,2.525-0.098,3.35c0.345-1.019,0.817-2.039,1.413-3.057c0.596-1.018,1.317-1.94,2.163-2.765
	c0.846-0.824,1.821-1.489,2.926-2c1.107-0.509,2.331-0.764,3.676-0.764c0.801,0,1.647,0.104,2.535,0.309
	c0.891,0.206,1.753,0.58,2.587,1.122c0.834,0.543,1.593,1.274,2.276,2.195c0.683,0.922,1.22,2.108,1.61,3.561
	c0.347,1.41,0.565,2.792,0.65,4.146c0.085,1.356,0.131,2.813,0.131,4.375c0,1.17-0.022,2.472-0.066,3.902
	c-0.042,1.431-0.064,2.884-0.064,4.357c0,0.976,0.092,1.741,0.275,2.293c0.185,0.553,0.444,0.97,0.782,1.251
	c0.336,0.282,0.737,0.468,1.203,0.553c0.465,0.088,0.979,0.143,1.544,0.163c0.216,0.022,0.44,0.044,0.667,0.066
	c0.227,0.021,0.436,0.065,0.617,0.129c0.184,0.065,0.337,0.163,0.456,0.294c0.119,0.129,0.179,0.303,0.179,0.52
	c0,0.238-0.119,0.456-0.357,0.65c-0.239,0.196-0.672,0.293-1.301,0.293c-0.867,0-1.816-0.103-2.846-0.309
	c-1.031-0.206-2.195-0.309-3.496-0.309c-0.826,0-1.688,0.087-2.586,0.26c-0.898,0.174-1.768,0.364-2.601,0.57
	c-0.835,0.206-1.601,0.395-2.293,0.569c-0.694,0.174-1.236,0.259-1.625,0.259c-0.348,0-0.559-0.058-0.636-0.178
	c-0.076-0.119-0.113-0.233-0.113-0.342c0-0.173,0.065-0.308,0.196-0.405c0.129-0.099,0.378-0.202,0.748-0.309
	c0.433-0.152,0.816-0.293,1.154-0.424c0.334-0.13,0.644-0.281,0.927-0.455c0.326-0.195,0.635-0.515,0.928-0.959
	c0.292-0.445,0.513-1.166,0.666-2.163c0.065-0.541,0.118-1.176,0.163-1.902c0.043-0.726,0.081-1.497,0.114-2.31
	c0.031-0.813,0.059-1.653,0.081-2.52c0.021-0.867,0.031-1.735,0.031-2.603c0-1.431-0.02-2.78-0.063-4.048
	c-0.044-1.269-0.129-2.314-0.26-3.139c-0.282-1.822-0.803-3.262-1.562-4.325c-0.759-1.063-1.842-1.594-3.251-1.594
	c-0.672,0-1.274,0.13-1.806,0.39c-0.532,0.261-1.003,0.597-1.416,1.009c-0.41,0.412-0.78,0.878-1.106,1.398
	c-0.324,0.52-0.606,1.051-0.845,1.593c-0.433,0.933-0.845,2.125-1.235,3.578c-0.39,1.452-0.727,3.02-1.009,4.7
	c-0.28,1.68-0.503,3.393-0.666,5.138c-0.162,1.746-0.245,3.377-0.245,4.894c0,0.715,0.087,1.296,0.26,1.74
	c0.175,0.445,0.428,0.803,0.765,1.074c0.335,0.271,0.736,0.482,1.203,0.634c0.466,0.151,0.992,0.293,1.579,0.422
	c0.302,0.065,0.545,0.146,0.731,0.244c0.183,0.098,0.276,0.276,0.276,0.536c0,0.5-0.381,0.749-1.138,0.749
	c-0.586,0-1.297-0.07-2.131-0.212c-0.833-0.14-1.723-0.303-2.666-0.487c-0.943-0.184-1.908-0.347-2.895-0.488
	c-0.987-0.14-1.935-0.212-2.846-0.212c-1.192,0-2.256,0.055-3.188,0.164c-0.93,0.108-1.734,0.161-2.405,0.161
	c-0.933,0-1.399-0.292-1.399-0.877c0-0.239,0.095-0.428,0.276-0.57c0.186-0.141,0.429-0.21,0.732-0.21
	c0.196,0,0.422,0.01,0.683,0.032c0.26,0.022,0.521,0.032,0.781,0.032c0.779,0,1.452-0.091,2.015-0.276
	c0.565-0.184,1.047-0.503,1.45-0.959c0.399-0.455,0.742-1.067,1.022-1.838c0.283-0.768,0.521-1.739,0.716-2.911
	c0.13-0.757,0.276-1.917,0.439-3.478c0.162-1.562,0.341-3.377,0.536-5.447c0.195-2.071,0.39-4.326,0.586-6.765
	c0.194-2.438,0.384-4.921,0.569-7.447c0.184-2.525,0.364-5.019,0.537-7.479c0.173-2.46,0.318-4.753,0.438-6.878
	c0.12-2.124,0.216-4.006,0.292-5.643c0.077-1.637,0.115-2.888,0.115-3.755c0-1.279-0.115-2.293-0.342-3.042
	c-0.228-0.747-0.515-1.316-0.861-1.707c-0.346-0.39-0.732-0.639-1.155-0.748c-0.423-0.108-0.83-0.163-1.218-0.163
	c-0.393,0-0.814,0.039-1.27,0.114c-0.456,0.076-0.916,0.158-1.382,0.244c-0.467,0.087-0.922,0.168-1.365,0.244
	c-0.444,0.076-0.862,0.114-1.253,0.114c-0.346,0-0.589-0.071-0.732-0.212c-0.139-0.14-0.21-0.33-0.21-0.568
	c0-0.282,0.086-0.499,0.259-0.651c0.174-0.152,0.445-0.293,0.813-0.422c0.52-0.173,1.083-0.347,1.691-0.521
	c0.605-0.173,1.263-0.384,1.968-0.634c0.703-0.249,1.456-0.553,2.259-0.91c0.801-0.358,1.668-0.809,2.602-1.351
	c1.061-0.606,1.929-1.22,2.602-1.837c0.671-0.618,1.237-1.17,1.691-1.659c0.456-0.487,0.828-0.889,1.121-1.204
	C474.443,44.863,474.751,44.706,475.077,44.706z"/>
<path fill="#358A80" d="M492.007,55.609c-0.794-0.11-1.52-0.364-2.174-0.762c-0.657-0.397-1.202-0.933-1.633-1.605
	c-0.432-0.672-0.735-1.481-0.91-2.425c-0.177-0.943-0.179-2.027-0.01-3.252c0.186-1.331,0.555-2.609,1.109-3.834
	c0.552-1.227,1.296-2.283,2.229-3.171c0.934-0.888,2.06-1.546,3.378-1.976c1.317-0.43,2.847-0.525,4.586-0.283
	c1.438,0.199,2.685,0.564,3.739,1.094c1.053,0.53,1.956,1.169,2.704,1.919c0.751,0.751,1.362,1.585,1.837,2.505
	c0.474,0.919,0.853,1.864,1.132,2.833c0.281,0.97,0.491,1.94,0.631,2.911c0.138,0.972,0.247,1.89,0.323,2.753
	c0.042,0.488,0.083,1.177,0.122,2.069c0.042,0.894,0.079,1.921,0.113,3.086c0.035,1.165,0.07,2.412,0.104,3.741
	c0.035,1.329,0.068,2.674,0.097,4.035c0.028,1.362,0.058,2.685,0.089,3.969c0.029,1.285,0.056,2.459,0.083,3.526
	c0.028,1.065,0.048,1.976,0.064,2.733c0.014,0.758,0.034,1.281,0.062,1.568c0.035,0.683,0.087,1.381,0.152,2.09
	c0.066,0.71,0.183,1.366,0.351,1.969c0.167,0.604,0.408,1.112,0.723,1.529c0.314,0.417,0.75,0.662,1.309,0.74
	c0.322,0.044,0.611,0.008,0.868-0.109c0.259-0.118,0.474-0.295,0.649-0.534c0.177-0.238,0.318-0.514,0.428-0.827
	c0.11-0.313,0.187-0.642,0.236-0.985c0.056-0.408,0.102-0.823,0.139-1.245c0.038-0.422,0.076-0.782,0.118-1.083
	c0.045-0.323,0.126-0.595,0.245-0.82c0.117-0.225,0.307-0.32,0.564-0.283c0.235,0.033,0.405,0.193,0.508,0.48
	c0.102,0.288,0.167,0.614,0.191,0.979c0.027,0.365,0.025,0.727-0.003,1.083c-0.028,0.357-0.053,0.622-0.076,0.793
	c-0.104,0.753-0.288,1.59-0.547,2.518c-0.26,0.927-0.656,1.801-1.186,2.626c-0.512,0.847-1.259,1.499-2.241,1.954
	c-0.983,0.454-2.066,0.599-3.245,0.435c-1.032-0.143-1.896-0.416-2.595-0.82c-0.701-0.404-1.28-0.867-1.745-1.391
	c-0.463-0.524-0.837-1.069-1.119-1.633c-0.283-0.566-0.501-1.088-0.651-1.568c-0.441-1.244-0.722-2.579-0.84-4.008
	s-0.186-2.788-0.204-4.084c-0.396,0.493-0.978,1.092-1.743,1.794c-0.766,0.704-1.682,1.354-2.749,1.949
	c-1.068,0.596-2.271,1.063-3.61,1.403c-1.339,0.339-2.781,0.401-4.327,0.186c-1.718-0.239-3.149-0.683-4.296-1.336
	c-1.146-0.65-2.048-1.443-2.707-2.378c-0.659-0.934-1.094-1.979-1.305-3.137c-0.211-1.157-0.23-2.357-0.058-3.603
	c0.186-1.332,0.617-2.639,1.3-3.924c0.683-1.284,1.662-2.395,2.945-3.334c1.279-0.938,2.872-1.625,4.783-2.061
	c1.91-0.436,4.175-0.472,6.795-0.107c0.6,0.084,1.183,0.193,1.744,0.325c0.562,0.132,1.069,0.264,1.521,0.392
	c0.453,0.129,0.841,0.249,1.165,0.359c0.323,0.11,0.56,0.188,0.707,0.23c0.128-1.865,0.223-3.734,0.288-5.608
	c0.021-0.785,0.043-1.613,0.065-2.485c0.023-0.872,0.04-1.751,0.055-2.636c0.013-0.885,0.013-1.755,0-2.611
	c-0.012-0.855-0.042-1.658-0.092-2.409c-0.114-1.701-0.601-3.11-1.465-4.227c-0.863-1.115-2.066-1.781-3.613-1.995
	c-0.837-0.117-1.595-0.069-2.27,0.144c-0.673,0.213-1.266,0.524-1.771,0.936c-0.505,0.412-0.907,0.898-1.205,1.458
	c-0.297,0.562-0.485,1.131-0.565,1.711c-0.086,0.623-0.01,1.165,0.232,1.625c0.244,0.461,0.563,0.882,0.958,1.266
	c0.395,0.383,0.832,0.756,1.306,1.117c0.476,0.362,0.906,0.761,1.294,1.199c0.389,0.436,0.696,0.938,0.924,1.506
	c0.227,0.568,0.287,1.25,0.175,2.044c-0.146,1.052-0.624,1.845-1.43,2.378C493.957,55.558,493.039,55.752,492.007,55.609z
	 M501.858,63.644c-0.141-0.085-0.394-0.203-0.756-0.352c-0.363-0.148-0.794-0.307-1.296-0.476c-0.502-0.167-1.044-0.326-1.625-0.472
	c-0.583-0.147-1.163-0.26-1.743-0.34c-1.138-0.159-2.217-0.145-3.239,0.042s-1.932,0.548-2.729,1.083
	c-0.796,0.535-1.465,1.253-2.005,2.15c-0.54,0.899-0.896,1.972-1.072,3.216c-0.157,1.139-0.101,2.104,0.174,2.897
	c0.272,0.793,0.673,1.445,1.205,1.957c0.531,0.511,1.143,0.903,1.84,1.174c0.695,0.272,1.386,0.455,2.073,0.552
	c1.095,0.151,2.161,0.125,3.196-0.083c1.034-0.206,1.96-0.482,2.774-0.828c0.814-0.347,1.488-0.702,2.019-1.066
	c0.533-0.363,0.863-0.613,0.991-0.749c0.05-1.459,0.092-2.79,0.127-3.988c0.008-0.524,0.019-1.037,0.036-1.539
	c0.013-0.5,0.022-0.97,0.03-1.407c0.005-0.437,0.008-0.808,0.007-1.116C501.863,63.995,501.861,63.775,501.858,63.644z"/>
<path fill="#358A80" d="M526.787,64.313c0,0.26-0.012,0.624-0.033,1.089c-0.021,0.467-0.032,0.949-0.032,1.447
	c0,0.628,0.037,1.295,0.112,2c0.079,0.705,0.176,1.355,0.295,1.951c0.119,0.597,0.237,1.096,0.358,1.497
	c0.119,0.401,0.221,0.602,0.306,0.602c0.089,0,0.213-0.314,0.376-0.943c0.163-0.628,0.401-1.419,0.715-2.374
	c0.313-0.954,0.72-1.978,1.22-3.074c0.498-1.095,1.137-2.119,1.918-3.073c0.78-0.954,1.717-1.745,2.812-2.375
	c1.096-0.629,2.391-0.942,3.887-0.942c1.387,0,2.553,0.238,3.497,0.715c0.944,0.477,1.696,1.073,2.259,1.789
	c0.563,0.716,0.964,1.491,1.206,2.325c0.237,0.834,0.357,1.621,0.357,2.358c0,1.15-0.153,2.152-0.457,3.008
	c-0.304,0.856-0.709,1.567-1.218,2.13c-0.511,0.563-1.09,0.992-1.741,1.285c-0.65,0.292-1.311,0.439-1.984,0.439
	c-1.236,0-2.244-0.293-3.025-0.878c-0.78-0.585-1.169-1.441-1.169-2.569c0-0.606,0.081-1.127,0.243-1.561
	c0.162-0.433,0.379-0.802,0.649-1.105c0.271-0.303,0.597-0.558,0.978-0.764c0.379-0.206,0.796-0.374,1.25-0.504
	c0.931-0.282,1.566-0.628,1.902-1.041c0.338-0.412,0.505-0.889,0.505-1.431c0-0.326-0.061-0.639-0.179-0.943
	c-0.119-0.303-0.314-0.58-0.585-0.829c-0.272-0.249-0.619-0.45-1.042-0.602c-0.422-0.152-0.938-0.228-1.544-0.228
	c-1.235,0-2.321,0.288-3.253,0.862c-0.931,0.575-1.744,1.344-2.438,2.309c-0.694,0.966-1.269,2.077-1.723,3.333
	c-0.456,1.258-0.825,2.575-1.105,3.951c-0.284,1.377-0.483,2.765-0.602,4.163c-0.119,1.399-0.18,2.705-0.18,3.919
	c0,1.105,0.044,2.304,0.132,3.594c0.085,1.29,0.199,2.584,0.341,3.887c0.142,1.3,0.298,2.568,0.472,3.804
	c0.172,1.235,0.341,2.363,0.503,3.381c0.163,1.021,0.31,1.898,0.439,2.635c0.13,0.738,0.228,1.248,0.292,1.529
	c0.238,0.975,0.611,1.654,1.121,2.033c0.511,0.379,1.188,0.569,2.034,0.569c0.368,0,0.752-0.011,1.155-0.032
	c0.4-0.021,0.699-0.033,0.892-0.033c0.588,0,0.88,0.217,0.88,0.651c0,0.346-0.162,0.573-0.488,0.682
	c-0.26,0.109-0.721,0.174-1.382,0.195c-0.662,0.022-1.431,0.043-2.308,0.064c-0.88,0.022-1.827,0.056-2.845,0.098
	c-1.021,0.044-2.007,0.119-2.961,0.229c-1.062,0.129-2.092,0.308-3.088,0.536c-0.999,0.228-1.92,0.444-2.765,0.65
	c-0.845,0.207-1.594,0.386-2.244,0.538c-0.65,0.151-1.17,0.227-1.562,0.227c-0.413,0-0.694-0.085-0.846-0.26
	c-0.152-0.174-0.228-0.358-0.228-0.554c0-0.324,0.136-0.557,0.407-0.699c0.271-0.14,0.646-0.286,1.122-0.438
	c0.368-0.11,0.809-0.223,1.316-0.342c0.511-0.12,1.112-0.331,1.806-0.635c0.694-0.303,1.176-0.709,1.448-1.219
	s0.406-1.286,0.406-2.325c0-0.326-0.022-0.873-0.065-1.643c-0.043-0.769-0.103-1.686-0.178-2.749
	c-0.076-1.062-0.163-2.227-0.26-3.495c-0.098-1.269-0.201-2.57-0.308-3.904c-0.11-1.333-0.224-2.661-0.343-3.984
	c-0.121-1.321-0.233-2.564-0.341-3.724c-0.109-1.16-0.212-2.195-0.311-3.105c-0.097-0.911-0.177-1.636-0.242-2.178
	c-0.087-0.651-0.218-1.166-0.391-1.545c-0.173-0.379-0.379-0.667-0.617-0.863c-0.239-0.194-0.515-0.319-0.83-0.374
	c-0.315-0.054-0.655-0.082-1.024-0.082h-1.333c-0.109,0-0.244-0.006-0.406-0.015c-0.163-0.011-0.322-0.044-0.473-0.099
	c-0.152-0.054-0.275-0.135-0.375-0.244c-0.098-0.108-0.146-0.249-0.146-0.423c0-0.238,0.097-0.412,0.292-0.521
	c0.195-0.108,0.433-0.184,0.715-0.228c1.085-0.13,2.066-0.313,2.944-0.553c0.877-0.238,1.74-0.672,2.585-1.301
	c0.521-0.411,1.068-0.959,1.643-1.643c0.574-0.683,1.045-1.403,1.416-2.162c0.259-0.542,0.541-0.813,0.844-0.813
	c0.282,0,0.456,0.109,0.52,0.325C526.753,63.912,526.787,64.118,526.787,64.313z"/>
<g>
	<g>
		<path fill="#358A80" d="M543.767,78.355c0-0.394,0.175-0.689,0.522-0.885c0.348-0.197,0.785-0.348,1.315-0.454
			c0.528-0.106,1.112-0.197,1.747-0.272c0.636-0.076,1.24-0.189,1.814-0.34c0.757-0.212,1.452-0.666,2.087-1.361
			c0.635-0.696,0.954-1.755,0.954-3.176c0-1.482-0.069-3.047-0.206-4.695c-0.135-1.648-0.309-3.245-0.521-4.786
			c-0.212-1.543-0.461-2.979-0.75-4.31c-0.287-1.331-0.565-2.435-0.837-3.312c-0.333-1.029-0.825-1.86-1.475-2.495
			c-0.649-0.636-1.67-0.954-3.063-0.954c-0.422,0-0.824,0.016-1.202,0.046c-0.379,0.03-0.688,0.045-0.931,0.045
			c-0.574,0-0.98-0.099-1.225-0.295c-0.242-0.196-0.363-0.446-0.363-0.749c0-0.423,0.189-0.717,0.567-0.884
			c0.377-0.166,0.922-0.317,1.633-0.453c0.711-0.137,1.588-0.326,2.631-0.567c1.043-0.243,2.247-0.65,3.606-1.225
			c1.302-0.545,2.36-1.082,3.176-1.611c0.818-0.529,1.474-0.999,1.975-1.406c0.499-0.409,0.883-0.734,1.156-0.976
			c0.271-0.242,0.499-0.363,0.682-0.363c0.24,0,0.475,0.416,0.702,1.248c0.227,0.831,0.431,1.867,0.611,3.107
			c0.183,1.241,0.349,2.601,0.501,4.083c0.152,1.482,0.286,2.874,0.408,4.174c0.242-0.544,0.658-1.263,1.247-2.155
			c0.591-0.892,1.339-1.762,2.246-2.608c0.909-0.847,1.976-1.58,3.2-2.201c1.225-0.62,2.609-0.93,4.15-0.93
			c1.363,0,2.564,0.219,3.608,0.658c1.042,0.438,1.928,0.998,2.653,1.679c0.727,0.681,1.314,1.459,1.769,2.336
			c0.455,0.877,0.788,1.738,1,2.586c0.571-1.028,1.24-1.996,1.995-2.904c0.757-0.908,1.603-1.686,2.541-2.335
			c0.938-0.651,1.974-1.166,3.108-1.543c1.133-0.378,2.365-0.567,3.696-0.567c1.936,0,3.523,0.347,4.764,1.042
			c1.239,0.696,2.216,1.619,2.927,2.768c0.712,1.15,1.202,2.45,1.475,3.902c0.272,1.452,0.408,2.934,0.408,4.446
			c0,1.24-0.054,2.518-0.159,3.833c-0.105,1.316-0.212,2.609-0.317,3.879s-0.212,2.488-0.317,3.652
			c-0.105,1.164-0.159,2.216-0.159,3.153c0,0.937,0.075,1.83,0.227,2.676c0.152,0.848,0.393,1.618,0.727,2.314
			c0.363,0.818,0.808,1.452,1.339,1.906c0.53,0.454,1.026,0.824,1.495,1.112c0.47,0.287,0.87,0.551,1.203,0.794
			c0.335,0.241,0.499,0.56,0.499,0.952c0,0.272-0.12,0.491-0.362,0.658c-0.242,0.167-0.574,0.249-0.998,0.249
			c-0.545,0-1.227-0.204-2.041-0.611c-0.818-0.409-1.68-0.9-2.587-1.475c-0.909-0.575-1.831-1.157-2.767-1.748
			c-0.938-0.589-1.801-1.065-2.586-1.428c-1.242-0.605-2.368-1.067-3.381-1.384c-1.013-0.318-1.883-0.59-2.609-0.817
			c-0.726-0.228-1.283-0.438-1.679-0.635c-0.392-0.197-0.59-0.492-0.59-0.885c0-0.333,0.137-0.582,0.409-0.749
			c0.271-0.167,0.666-0.325,1.18-0.477c0.665-0.181,1.256-0.551,1.77-1.111c0.514-0.56,0.907-1.308,1.179-2.246
			c0.152-0.454,0.302-1.029,0.454-1.723c0.152-0.697,0.28-1.445,0.387-2.247c0.104-0.802,0.195-1.633,0.271-2.495
			c0.075-0.862,0.113-1.702,0.113-2.518c0-0.877-0.045-1.86-0.137-2.949c-0.09-1.088-0.309-2.11-0.656-3.062
			c-0.35-0.953-0.863-1.754-1.543-2.404c-0.682-0.65-1.611-0.976-2.791-0.976c-0.785,0-1.474,0.136-2.064,0.408
			c-0.59,0.272-1.095,0.613-1.518,1.021c-0.426,0.407-0.781,0.846-1.068,1.315c-0.287,0.469-0.521,0.915-0.704,1.338
			c-0.572,1.3-0.98,2.888-1.224,4.763c-0.242,1.875-0.362,3.72-0.362,5.535c0,1.785,0.301,3.214,0.907,4.287
			c0.604,1.074,1.422,1.853,2.451,2.336c0.239,0.091,0.469,0.219,0.679,0.385c0.212,0.167,0.318,0.372,0.318,0.613
			c0,0.636-0.469,0.953-1.408,0.953c-0.543,0-1.192-0.083-1.95-0.25c-0.755-0.167-1.586-0.348-2.493-0.545
			c-0.909-0.196-1.86-0.377-2.859-0.544c-0.999-0.166-1.997-0.249-2.995-0.249c-0.756,0-1.399,0.03-1.928,0.091
			c-0.529,0.06-1.217,0.09-2.063,0.09c-0.759,0-1.347-0.068-1.77-0.204c-0.424-0.136-0.635-0.356-0.635-0.658
			c0-0.181,0.075-0.318,0.225-0.408c0.153-0.091,0.356-0.159,0.612-0.204c0.259-0.046,0.545-0.098,0.865-0.159
			c0.316-0.06,0.641-0.166,0.975-0.318c0.665-0.272,1.208-0.741,1.631-1.405c0.426-0.666,0.75-1.46,0.978-2.383
			c0.227-0.922,0.376-1.95,0.454-3.085c0.074-1.134,0.112-2.321,0.112-3.561c0-0.877-0.038-1.86-0.112-2.949
			c-0.078-1.089-0.28-2.117-0.612-3.085c-0.334-0.969-0.839-1.778-1.521-2.428c-0.681-0.65-1.611-0.975-2.79-0.975
			c-0.694,0-1.323,0.143-1.883,0.431c-0.558,0.287-1.065,0.672-1.519,1.157c-0.455,0.483-0.839,1.02-1.157,1.61
			c-0.318,0.589-0.567,1.187-0.749,1.792c-0.182,0.605-0.408,1.739-0.681,3.402c-0.272,1.664-0.41,3.872-0.41,6.624
			c0,2.117,0.152,3.977,0.453,5.581c0.306,1.602,0.924,2.751,1.862,3.447c0.604,0.454,1.247,0.771,1.927,0.953
			c0.681,0.181,1.315,0.333,1.906,0.453c0.591,0.121,1.074,0.25,1.452,0.386c0.378,0.136,0.568,0.371,0.568,0.703
			c0,0.242-0.16,0.446-0.477,0.613c-0.317,0.166-0.901,0.249-1.747,0.249c-0.483,0-1.127-0.053-1.929-0.159
			c-0.8-0.105-1.663-0.227-2.585-0.363c-0.922-0.136-1.86-0.257-2.813-0.363c-0.953-0.105-1.823-0.159-2.609-0.159
			c-0.817,0-1.573,0.023-2.267,0.069c-0.696,0.045-1.394,0.099-2.088,0.158c-0.695,0.061-1.407,0.114-2.132,0.159
			c-0.726,0.045-1.513,0.068-2.359,0.068c-0.636,0-1.143-0.039-1.521-0.113c-0.377-0.076-0.659-0.173-0.84-0.295
			c-0.181-0.121-0.294-0.242-0.339-0.362C543.789,78.551,543.767,78.445,543.767,78.355z"/>
	</g>
</g>
<g>
	<g>
		<path fill="#B24934" d="M160.638,109.519c-0.326,0.13-0.611,0.212-0.856,0.245c-0.243,0.033-0.545,0.048-0.904,0.048
			c-0.618,0-1.326-0.113-2.124-0.34c-0.798-0.229-1.588-0.457-2.371-0.686c-2.638-0.585-5.634-1.954-8.989-4.104
			c-1.857-1.173-4.398-2.996-7.622-5.471c-2.443-1.857-3.877-2.786-4.3-2.786c-0.261,0-0.374,0.211-0.342,0.634
			c0.815,3.808,1.645,7.616,2.492,11.424c0,0.814-0.138,1.449-0.415,1.904c-0.277,0.455-0.741,0.684-1.392,0.684
			c-0.131,0-0.408-0.041-0.832-0.119c-0.423-0.079-1.026-0.134-1.808-0.164c-0.782-0.032-1.254-0.047-1.417-0.047
			c-0.423,0-0.782,0-1.075,0c-0.294,0-0.538,0-0.732,0c-1.728,0-2.981-0.148-3.763-0.44c-1.14-0.424-1.825-1.254-2.052-2.495
			c-0.391-2.119-0.717-4.801-0.978-8.045c-0.261-3.245-0.391-6.448-0.391-9.611c0-5.576,0.358-10.205,1.075-13.891
			c0.847-4.37,2.125-7.117,3.835-8.242c1.71-1.125,3.852-1.973,6.426-2.544c2.572-0.57,5.276-0.855,8.11-0.855
			c5.765,0,10.831,0.946,15.196,2.836c4.789,2.087,7.183,4.729,7.183,7.924c0,2.38-1.353,4.875-4.056,7.485
			c-3.062,2.967-7.736,5.983-14.023,9.049c0.489,0.718,0.978,1.418,1.466,2.104c2.346,1.825,3.681,2.918,4.007,3.276
			c0.065,0.097,3.371,2.266,9.918,6.504c2.215,1.435,3.323,2.594,3.323,3.474C163.228,108.116,162.364,108.867,160.638,109.519z
			 M144.124,69.163c-1.141-0.718-2.378-1.077-3.714-1.077c-1.011,0-2.028,0.245-3.054,0.734c-1.027,0.489-1.947,1.175-2.76,2.056
			c-0.978,1.11-1.662,2.604-2.052,4.48c-0.391,1.877-0.586,4.024-0.586,6.44c0,1.143,0.04,2.302,0.123,3.478
			c0.08,1.175,0.186,2.498,0.317,3.966c0.032,0.555,0.406,0.832,1.124,0.832c2.149,0,5-1.598,8.55-4.797
			c3.908-3.526,5.863-6.872,5.863-10.039c0-1.175-0.301-2.277-0.903-3.306C146.427,70.901,145.458,69.979,144.124,69.163z"/>
		<path fill="#B24934" d="M200.655,100.479c-5.068,1.206-9.47,2.736-13.206,4.593c-1.689,0.847-4.077,2.28-7.163,4.299
			c-1.885,1.238-3.297,1.857-4.239,1.857c-0.521,0-0.959-0.082-1.317-0.244c-2.046-0.75-4.077-1.5-6.09-2.25
			c-2.145-0.945-3.298-2.119-3.461-3.521c-0.163-1.402-0.284-2.854-0.365-4.355c-0.081-1.499-0.121-3.194-0.121-5.085
			c0-0.816,0-2.12,0-3.914s0-3.196,0-4.206c0-3.522-0.081-6.464-0.244-8.829c-0.164-2.362-0.424-4.85-0.782-7.459
			c-0.164-1.206,2.247-2.648,7.231-4.328c4.982-1.679,9.43-2.519,13.339-2.519c0.032,0,0.064,0,0.097,0
			c2.248,0,4.625,1.059,7.134,3.176c0.358,0.586,0.732,1.172,1.123,1.759c-4.723,0.684-8.656,1.262-11.799,1.734
			c-3.144,0.473-5.318,1.035-6.523,1.686c-0.878,0.457-1.386,2.491-1.515,6.108c-0.13,3.615-0.229,5.578-0.292,5.887
			c-0.066,0.31-0.098,0.497-0.098,0.561c0,0.424,0.21,0.636,0.635,0.636c0.488,0,1.368-0.342,2.638-1.026
			c1.856-1.043,3.728-2.084,5.619-3.127c0.391-0.163,1.156-0.667,2.297-1.514c0.847-0.618,1.661-0.929,2.442-0.929
			c1.531,0,2.826,0.432,3.885,1.296c1.057,0.863,1.848,2.059,2.37,3.59c0.163,0.521-1.179,1.246-4.021,2.174
			c-2.844,0.928-5.693,1.833-8.554,2.712c-3.347,1.107-5.378,2.085-6.092,2.931c-0.423,0.522-0.731,1.075-0.926,1.662
			c-0.196,0.585-0.292,1.189-0.292,1.808c0,0.781,0.138,1.677,0.414,2.687c0.277,1.01,0.545,1.971,0.805,2.882
			c0.098,0.294,0.292,0.44,0.585,0.44c0.584,0,1.82-0.651,3.707-1.954c3.577-2.476,5.479-3.778,5.706-3.91
			c2.472-1.563,4.503-2.524,6.099-2.882c0.486-0.129,1.071-0.228,1.755-0.293c0.683-0.065,1.333-0.098,1.95-0.098
			c1.333,0,2.292,0.131,2.878,0.391c1.364,0.619,2.552,2.036,3.56,4.251C200.083,98.264,200.361,99.373,200.655,100.479z"/>
		<path fill="#B24934" d="M239.449,109.274c-0.229,0.13-0.489,0.237-0.782,0.318c-0.293,0.082-0.571,0.122-0.83,0.122
			c-0.62-0.032-1.107-0.048-1.466-0.048c-0.488,0-1.14,0.033-1.954,0.098c-0.815,0.065-1.401,0.096-1.759,0.096
			c-0.621,0-1.198-0.072-1.735-0.219c-0.538-0.146-1.06-0.382-1.564-0.708c-0.505-0.326-0.937-0.733-1.294-1.222
			c-0.229-0.325-0.441-0.651-0.636-0.977c-0.555-0.749-1.043-1.986-1.465-3.714c-0.717-2.866-1.271-4.251-1.661-4.153
			c-0.196,0.032-0.742,0.098-1.637,0.195c-0.896,0.099-1.768,0.171-2.615,0.222c-0.846,0.048-1.782,0.104-2.81,0.168
			c-1.025,0.066-1.587,0.318-1.686,0.756c-0.097,0.44-0.374,0.92-0.83,1.44c-0.619,0.684-1.026,1.187-1.221,1.513
			c-0.327,0.553-0.636,1.285-0.929,2.197c-0.294,0.912-0.538,1.562-0.733,1.952c-0.326,0.912-0.652,1.823-0.977,2.733
			c-0.261,0.487-0.628,0.772-1.099,0.854c-0.473,0.081-0.79,0.123-0.953,0.123c-0.424,0-0.716-0.017-0.879-0.049
			c-0.554-0.164-1.092-0.31-1.612-0.44c-0.782-0.13-1.556-0.269-2.321-0.415c-0.766-0.146-1.458-0.497-2.077-1.05
			c-0.261-0.195-0.522-0.391-0.781-0.586c-0.262-0.261-0.343-0.52-0.245-0.782c-0.164-0.228-0.13-0.505,0.098-0.831
			c0.391-0.552,0.602-0.862,0.635-0.928l1.319-2.834c0.424-0.878,0.978-1.936,1.662-3.173c0.912-1.662,1.482-2.719,1.71-3.177
			c3.029-6.381,6.058-12.764,9.087-19.146c0.358-0.618,0.847-1.595,1.466-2.931c0.879-1.856,1.809-3.322,2.786-4.396
			c0.813-1.009,1.645-2.019,2.491-3.028c0.911-0.977,1.815-1.539,2.712-1.686c0.895-0.146,1.555-0.244,1.979-0.292
			c0.423-0.049,0.813-0.074,1.172-0.074c0.651,0,1.205,0.057,1.662,0.171c0.456,0.115,0.977,0.35,1.563,0.708
			c0.26,0.164,0.463,0.383,0.61,0.66c0.147,0.276,0.22,0.562,0.22,0.854c0,0.262-0.09,0.84-0.269,1.735
			c-0.181,0.896-0.269,1.506-0.269,1.832v6.255c0,1.009,0.073,1.97,0.22,2.882c0.146,0.912,0.269,1.71,0.367,2.394
			c0.227,1.661,0.471,3.095,0.733,4.301c0.163,0.717,0.504,2.15,1.025,4.298c0.359,1.532,0.667,2.705,0.929,3.519
			c0.065,0.196,0.439,1.368,1.123,3.519c0.912,2.802,1.889,5.472,2.932,8.013c0.099,0.195,0.286,0.562,0.563,1.1
			c0.276,0.538,0.415,0.921,0.415,1.148C239.839,108.883,239.709,109.112,239.449,109.274z M224.058,94.616
			c0.195-0.163,0.292-0.797,0.292-1.906c0-1.334-0.113-2.882-0.342-4.641c-0.228-1.76-0.521-3.241-0.879-4.446
			c-0.521,0.88-1.025,1.759-1.514,2.639c-2.574,5.408-4.219,8.631-4.935,9.674c0.13,0.066,0.275,0.115,0.439,0.147
			c0.913,0,2.208-0.171,3.885-0.514C222.682,95.227,223.699,94.909,224.058,94.616z"/>
		<path fill="#B24934" d="M281.567,70.034c-1.5,0.521-2.982,1.025-4.447,1.513c-3.518,0.195-7.036,0.375-10.555,0.538
			c-3.941,0.325-5.911,0.959-5.911,1.903c0,3.026,0.586,7.192,1.758,12.495c0.423,1.953,1.531,6.411,3.323,13.374
			c1.205,4.718,1.808,7.632,1.808,8.737c0,0.585-0.261,0.936-0.781,1.05c-0.521,0.115-1.874,0.448-4.056,1
			c-3.454,0.878-5.946,1.317-7.476,1.317c-1.435,0-2.541-0.244-3.323-0.732c-0.944-0.585-1.563-1.544-1.856-2.878
			c-0.457-2.115-0.775-4.343-0.954-6.685c-0.178-2.343-0.267-4.864-0.267-7.563c0-2.278,0.056-4.775,0.169-7.491
			c0.114-2.716,0.237-5.636,0.367-8.759c0-2.928-0.391-4.392-1.172-4.392c-2.737,0-4.61,0.049-5.619,0.146
			c-2.345,0.229-3.762,0.342-4.25,0.342c-0.814,0-1.45-0.366-1.907-1.099c-0.456-0.733-0.684-1.62-0.684-2.662
			c0-0.716,0.147-1.466,0.439-2.248c0.293-0.782,2.33-1.335,6.107-1.662c0.945-0.097,4.561-0.26,10.847-0.487
			c6.286-0.229,10.879-0.603,13.78-1.125c0.684-0.162,1.203-0.268,1.563-0.317c0.358-0.048,0.771-0.098,1.246-0.146
			c0.471-0.048,0.994-0.097,1.564-0.146c0.569-0.049,1.13-0.074,1.686-0.074c0.781,0,1.408,0.042,1.88,0.123
			c0.472,0.081,1.116,0.269,1.93,0.56c1.107,0.424,2.101,1.253,2.98,2.49C280.345,68.13,280.946,69.089,281.567,70.034z"/>
		<path fill="#B24934" d="M296.907,109.519c-0.033,0.391-0.114,0.603-0.245,0.635c-0.163,0.065-0.7,0.098-1.612,0.098
			c-3.193,0-6.613-0.448-10.261-1.343c-3.648-0.896-5.472-1.766-5.472-2.614c0-0.879,0.033-2.312,0.097-4.3
			c0.066-1.986,0.099-3.533,0.099-4.642c0-1.106,0-2.858,0-5.252c0-2.395,0-4.194,0-5.399c0-4.202,0.154-7.745,0.464-10.626
			c0.309-2.883,0.919-5.285,1.833-7.208c1.042-2.248,2.524-3.68,4.446-4.3c0.944-0.325,1.873-0.488,2.785-0.488
			c2.214,0,4.218,0.977,6.01,2.932c0.424,0.457,0.782,0.928,1.075,1.417c0.292,0.489,0.44,0.945,0.44,1.368
			c0,0.392-0.13,0.766-0.392,1.124c-0.912,1.304-1.562,2.851-1.954,4.642c-0.391,1.792-0.586,3.844-0.586,6.157
			c0,2.736,0.269,5.814,0.806,9.234c0.538,3.419,1.091,6.767,1.662,10.041c0.569,3.273,0.855,5.642,0.855,7.108
			c0,0.424,0,0.733,0,0.929C296.923,109.258,296.907,109.422,296.907,109.519z"/>
		<path fill="#B24934" d="M342.102,68.232c-0.164,1.14-1.173,4.121-3.03,8.94c-2.539,6.612-4.333,11.466-5.375,14.56
			c-2.085,6.223-3.419,11.418-4.006,15.587c0,0.229,0.17,0.456,0.514,0.684c0.342,0.229,0.544,0.408,0.611,0.538
			c0.226,0.457,0.342,0.863,0.342,1.222c0,0.619-0.409,1.066-1.221,1.344c-0.816,0.276-1.907,0.415-3.273,0.415
			c-1.63,0-3.487-0.147-5.572-0.439c-1.238-0.165-2.785-0.439-4.641-0.831c-3.322-0.684-6.58-4.494-9.772-11.433
			c-2.41-5.245-4.528-11.596-6.352-19.056c-1.629-6.612-2.247-10.049-1.857-10.309c0.521-0.392,1.246-0.692,2.175-0.903
			c0.927-0.212,1.93-0.318,3.004-0.318c1.14,0,2.142,0.122,3.004,0.366c0.863,0.245,1.442,0.61,1.735,1.099
			c0.521,0.881,1.318,3.486,2.394,7.818c0.945,4.006,1.889,8.013,2.833,12.018c1.076,4.562,1.89,7.476,2.443,8.747
			c1.173-2.247,2.346-4.494,3.52-6.743c1.954-5.504,3.908-11.009,5.862-16.514c2.444-6.319,4.333-9.642,5.667-9.968
			c1.63-0.423,3.354-0.635,5.181-0.635c1.758,0,3.174,0.252,4.25,0.756c1.074,0.506,1.612,1.361,1.612,2.566
			C342.118,67.938,342.102,68.102,342.102,68.232z"/>
		<path fill="#B24934" d="M380.847,100.479c-5.068,1.206-9.47,2.736-13.206,4.593c-1.69,0.847-4.077,2.28-7.162,4.299
			c-1.884,1.238-3.297,1.857-4.24,1.857c-0.52,0-0.959-0.082-1.317-0.244c-2.045-0.75-4.075-1.5-6.09-2.25
			c-2.144-0.945-3.297-2.119-3.459-3.521c-0.163-1.402-0.284-2.854-0.365-4.355c-0.083-1.499-0.124-3.194-0.124-5.085
			c0-0.816,0-2.12,0-3.914s0-3.196,0-4.206c0-3.522-0.081-6.464-0.244-8.829c-0.163-2.362-0.422-4.85-0.781-7.459
			c-0.162-1.206,2.248-2.648,7.232-4.328c4.983-1.679,9.429-2.519,13.338-2.519c0.034,0,0.065,0,0.099,0
			c2.247,0,4.624,1.059,7.132,3.176c0.36,0.586,0.734,1.172,1.125,1.759c-4.723,0.684-8.656,1.262-11.799,1.734
			c-3.144,0.473-5.317,1.035-6.522,1.686c-0.881,0.457-1.386,2.491-1.516,6.108c-0.13,3.615-0.228,5.578-0.292,5.887
			c-0.065,0.31-0.098,0.497-0.098,0.561c0,0.424,0.211,0.636,0.634,0.636c0.489,0,1.369-0.342,2.64-1.026
			c1.857-1.043,3.728-2.084,5.618-3.127c0.393-0.163,1.158-0.667,2.297-1.514c0.847-0.618,1.661-0.929,2.443-0.929
			c1.531,0,2.827,0.432,3.885,1.296c1.059,0.863,1.849,2.059,2.371,3.59c0.162,0.521-1.179,1.246-4.023,2.174
			c-2.842,0.928-5.693,1.833-8.553,2.712c-3.348,1.107-5.379,2.085-6.094,2.931c-0.422,0.522-0.731,1.075-0.925,1.662
			c-0.196,0.585-0.292,1.189-0.292,1.808c0,0.781,0.137,1.677,0.414,2.687c0.277,1.01,0.544,1.971,0.806,2.882
			c0.097,0.294,0.292,0.44,0.585,0.44c0.585,0,1.82-0.651,3.708-1.954c3.576-2.476,5.477-3.778,5.705-3.91
			c2.471-1.563,4.504-2.524,6.097-2.882c0.487-0.129,1.073-0.228,1.756-0.293c0.682-0.065,1.332-0.098,1.952-0.098
			c1.333,0,2.292,0.131,2.877,0.391c1.366,0.619,2.552,2.036,3.562,4.251C380.277,98.264,380.554,99.373,380.847,100.479z"/>
	</g>
</g>
<path fill="#B24934" d="M-0.01,94.786c-0.016,0.172,0.16,12.764,0.134,12.591l44.456-0.224c10.408-0.592,21.236,0.181,30.176,3.842
	c15.206,6.226,26.258,11.024,32.489-0.226c2.802-5.059,2.415-10.564,9.846-14.867c3.919-2.271-2.204-4.876-5.772-4.811
	c-3.711,0.069-4.847,2.582-6.162,4.611c-3.304,5.099-8.359,9.913-11.741,10.056c-3.014,0.127-7.744-0.703-11.507-3.256
	c-4.874-3.303-4.874-3.303-7.326-7.839c-5.063-9.361,1.382-24.301,8.792-26.082c17.784-4.273,18.436,7.538,18.46,4.592
	c-0.025,3.081,3.417,7.519,6.6,9.198c5.367,2.832,9.919-2.243,7.608-4.887c-2.717-3.108-3.397-5.69-5.128-10.282
	c-2.1-5.569-4.812-9.451-19.938-9.314c-4.667,0.331-4.667,0.331-2.08-3.696c4.716-6.161,7.083-12.94,9.284-19.847
	c1.701-5.336,1.557-6.953,2.005-10.301c0.586-4.381-0.005-8.719-1.074-12.433c-0.387-1.347-1.529-3.089-2.438-4.287
	C95.108,5.26,92.901,5.567,90.48,6.72c-2.606,1.24-1.683,5.171-1.144,7.012c0.986,3.37,0.912,6.958,0.648,10.378
	c-0.909,11.853-11.402,27.895-11.164,27.436c-1,1.92-1.892,4.043-3.267,5.831c-0.808,1.051-2.135,2.938-3.947,3.254
	c-1.871,0.327,1.782-5.979,2.149-6.814c6.54-14.882-2.852-32.576-2.852-32.576c-0.861-2.661-2.114-5.528-4.561-7.605
	c-1.323-1.123-2.93-1.524-4.826-1.049c-2.824,0.708-2.534,2.913-2.31,4.828c0.284,2.43,2.274,4.491,2.999,6.916
	c0,0,8.29,14.007,0.643,31.702c-3.579,8.281-2.49,2.306-2.803-0.899C58.168,35.951,47.461,26.79,44.828,25.448
	c-1.746-0.889-2.962-1.144-4.396,0.035c-2.166,1.783-0.28,4.572,1.16,5.993c0.965,0.953,11.518,13.729,11.016,30.72
	c-0.137,4.622,1.361,8.127,1.205,12.196c-0.612,15.75-6.524,18.942-7.543,19.405c-3.021,1.371-6.896,0.889-8.715,1.209
	C35.87,95.304-0.111,95.927-0.01,94.786z"/>
</svg>
