<?xml version="1.0" encoding="utf-8"?>
<!-- Generator: Adobe Illustrator 16.0.0, SVG Export Plug-In . SVG Version: 6.00 Build 0)  -->
<!DOCTYPE svg PUBLIC "-//W3C//DTD SVG 1.1//EN" "http://www.w3.org/Graphics/SVG/1.1/DTD/svg11.dtd">
<svg version="1.1" xmlns="http://www.w3.org/2000/svg" xmlns:xlink="http://www.w3.org/1999/xlink" x="0px" y="0px"
	 width="169.704px" height="81.704px" viewBox="0 0 169.704 81.704" enable-background="new 0 0 169.704 81.704"
	 xml:space="preserve">
<g id="Layer_1" display="none">
	<g display="inline">
		<polygon fill="#D97A56" points="74.306,70.477 69.896,70.477 41.307,36.997 68.72,5.574 74.306,5.574 		"/>
		<polygon fill="#75B8A4" points="9.278,5.555 68.72,5.555 9.278,69.046 		"/>
		<polygon fill="#D2704C" points="8.724,70.553 74.298,70.553 39.736,38.662 		"/>
		<polygon fill="#DB8D70" points="8.724,70.553 74.298,70.553 39.736,38.662 		"/>
		<g>
			<path fill="#A36A54" d="M7.755,70.545V5.564h4.068v59.051L67.218,5.564h5.523l-29.815,31.76l31.355,33.221h-5.604L40.248,40.249
				L11.823,70.545H7.755z"/>
		</g>
		<g>
			<path fill="#A36A54" d="M110.646,23.507c2.027,3.181,4.242,6.3,6.55,9.325l-0.093,0.686c-2.09,0.468-4.148,0.811-6.238,0.998
				l-0.686-0.374c-1.778-3.057-3.524-6.113-5.208-9.263l-0.063,2.713l0.25,6.55h-6.269l0.312-5.926l-0.312-14.253h6.363
				l-0.218,8.421l3.867-6.238l1.061-2.183h6.612L110.646,23.507z"/>
			<path fill="#A36A54" d="M136.254,32.676l-0.093,0.686c-2.027,0.624-4.117,1.029-6.269,1.154l-0.593-0.499
				c-0.904-1.934-1.84-3.898-2.682-5.895h-2.09l0.218,6.02h-6.269l0.312-5.926l-0.312-14.253l9.575-0.031
				c4.522,0,7.08,2.214,7.08,6.238c0,2.37-1.248,4.522-3.369,6.02C133.167,28.372,134.664,30.555,136.254,32.676z M125.837,18.267
				l-1.123,0.093l-0.125,5.208l2.277,0.125c1.185-0.53,1.684-1.403,1.684-2.9C128.55,19.109,127.739,18.36,125.837,18.267z"/>
			<path fill="#A36A54" d="M144.427,34.142h-6.269l0.312-5.926l-0.312-14.253h6.363l-0.343,13.629L144.427,34.142z"/>
			<path fill="#A36A54" d="M161.862,14.68l-0.998,5.084l-0.873,0.374c-1.778-1.092-3.618-1.747-4.647-1.747
				c-0.998,0-1.559,0.437-1.559,1.029c0,2.339,8.452,2.308,8.452,8.296c0,3.774-3.275,6.799-8.515,6.799
				c-2.121,0-4.367-0.405-6.674-1.185l0.904-5.427l0.624-0.375c2.027,1.56,4.46,2.371,5.801,2.371c1.279,0,1.653-0.53,1.653-1.029
				c0-2.495-8.39-2.246-8.39-8.358c0-3.961,3.4-6.924,8.359-6.924C157.651,13.588,159.71,13.869,161.862,14.68z"/>
			<path fill="#A36A54" d="M178.3,18.953l-4.117-0.187h-0.375l-0.156,8.826l0.25,6.55h-6.238l0.312-5.926l-0.156-9.45h-0.405
				l-4.148,0.187l-0.374-0.437l0.343-4.554H178.3l0.343,0.437L178.3,18.953z"/>
			<path fill="#A36A54" d="M195.299,29.588l-0.374,4.554h-14.223l0.312-5.926l-0.312-14.253h14.472l0.343,0.437l-0.405,4.554
				l-4.959-0.187h-3.212l-0.063,2.838h3.087l3.244-0.093l0.343,0.437l-0.375,4.554l-3.618-0.094h-2.807l-0.031,1.185l0.063,1.747
				h2.994l5.177-0.187L195.299,29.588z"/>
			<path fill="#A36A54" d="M209.429,34.142h-12.008l0.312-5.926l-0.312-14.253h6.363l-0.343,13.629l0.063,1.435h5.957l0.344,0.437
				L209.429,34.142z"/>
			<path fill="#A36A54" d="M223.526,34.142h-12.008l0.313-5.926l-0.313-14.253h6.363l-0.344,13.629l0.063,1.435h5.957l0.344,0.437
				L223.526,34.142z"/>
			<path fill="#A36A54" d="M240.37,29.588l-0.375,4.554h-14.223l0.313-5.926l-0.313-14.253h14.473l0.343,0.437l-0.405,4.554
				l-4.959-0.187h-3.213l-0.063,2.838h3.088l3.244-0.093l0.343,0.437l-0.374,4.554l-3.618-0.094h-2.808l-0.031,1.185l0.063,1.747
				h2.994l5.178-0.187L240.37,29.588z"/>
			<path fill="#A36A54" d="M263.638,34.142l-0.156-6.113l-0.344-5.083h-0.373l-3.244,9.294h-4.709l-2.684-9.294h-0.373l-0.438,4.491
				l-0.312,6.706h-5.208l1.965-20.179h7.204l0.593,2.869l1.777,7.33h0.375l1.965-7.111l0.717-3.087h7.111l1.621,20.179H263.638z"/>
			<path fill="#A36A54" d="M283.038,34.142l-0.561-3.337l-0.031-0.093l-3.057-0.063l-2.558,0.125l-0.53,3.368h-6.113l6.113-20.179
				h7.548l5.521,20.179H283.038z M280.138,19.545h-0.374l-1.747,6.612l1.747,0.031l1.747-0.031L280.138,19.545z"/>
			<path fill="#A36A54" d="M305.091,14.462l-1.061,4.959l-0.404,0.25c-1.092-0.593-2.652-0.967-3.837-0.967
				c-2.495,0-3.587,1.341-3.587,4.803c0,4.023,1.248,5.801,3.992,5.801c1.123,0,2.713-0.25,3.836-0.655l0.5,0.312l-0.5,4.928
				c-1.465,0.468-2.963,0.593-4.335,0.593c-6.769,0-10.104-3.618-10.104-10.261c0-6.706,3.773-10.604,10.447-10.604
				C301.909,13.62,303.595,13.932,305.091,14.462z"/>
			<path fill="#A36A54" d="M320.468,14.68l-0.998,5.084l-0.873,0.374c-1.777-1.092-3.617-1.747-4.646-1.747
				c-0.998,0-1.56,0.437-1.56,1.029c0,2.339,8.452,2.308,8.452,8.296c0,3.774-3.275,6.799-8.515,6.799
				c-2.12,0-4.366-0.405-6.675-1.185l0.904-5.427l0.625-0.375c2.027,1.56,4.459,2.371,5.801,2.371c1.278,0,1.652-0.53,1.652-1.029
				c0-2.495-8.39-2.246-8.39-8.358c0-3.961,3.399-6.924,8.358-6.924C316.258,13.588,318.316,13.869,320.468,14.68z"/>
			<path fill="#A36A54" d="M337.499,34.142l-1.902-7.298h-0.375l-1.746,7.298h-6.643l-4.741-20.179h6.051l0.312,3.119l1.965,10.792
				h0.375l2.339-9.201l-1.061-4.709h6.3l0.438,3.743l2.12,10.167h0.374l2.465-10.417l0.561-3.493h5.739l-5.957,20.179H337.499z"/>
			<path fill="#A36A54" d="M366.538,29.588l-0.375,4.554H351.94l0.313-5.926l-0.313-14.253h14.473l0.343,0.437l-0.405,4.554
				l-4.959-0.187h-3.213l-0.063,2.838h3.088l3.244-0.093l0.343,0.437l-0.374,4.554l-3.618-0.094h-2.808l-0.031,1.185l0.063,1.747
				h2.994l5.178-0.187L366.538,29.588z"/>
			<path fill="#A36A54" d="M383.411,29.588l-0.373,4.554h-14.223l0.312-5.926l-0.312-14.253h14.471l0.344,0.437l-0.405,4.554
				l-4.959-0.187h-3.212l-0.063,2.838h3.087l3.243-0.093l0.344,0.437l-0.375,4.554l-3.617-0.094h-2.807l-0.031,1.185l0.063,1.747
				h2.994l5.177-0.187L383.411,29.588z"/>
			<path fill="#A36A54" d="M403.997,34.142h-6.799l-5.677-10.792h-0.374l-0.031,3.493l0.25,7.298h-5.678l0.313-5.926l-0.313-14.253
				h6.8l5.677,10.792h0.374l-0.187-10.573l5.738-0.343l-0.344,13.723L403.997,34.142z"/>
		</g>
		<g>
			<path fill="#A36A54" d="M98.912,67.767V56.129h0.608c0.203,0,0.32,0.098,0.351,0.292l0.105,1.685
				c0.226-0.32,0.468-0.612,0.725-0.877c0.257-0.266,0.532-0.494,0.825-0.686c0.292-0.19,0.604-0.338,0.936-0.443
				s0.68-0.158,1.047-0.158c0.85,0,1.528,0.248,2.035,0.742c0.507,0.496,0.85,1.184,1.029,2.064c0.14-0.482,0.337-0.9,0.59-1.251
				s0.543-0.642,0.87-0.872c0.327-0.229,0.683-0.4,1.068-0.514s0.78-0.17,1.186-0.17c0.576,0,1.094,0.096,1.553,0.286
				c0.459,0.191,0.851,0.474,1.173,0.849c0.323,0.374,0.57,0.834,0.742,1.38s0.257,1.169,0.257,1.872v7.438h-1.111v-7.438
				c0-1.139-0.246-2.007-0.737-2.604c-0.491-0.596-1.193-0.895-2.105-0.895c-0.406,0-0.793,0.074-1.164,0.223
				c-0.37,0.148-0.698,0.368-0.982,0.66c-0.285,0.293-0.511,0.657-0.678,1.094c-0.168,0.438-0.251,0.943-0.251,1.521v7.438h-1.111
				v-7.438c0-1.131-0.226-1.996-0.678-2.598c-0.453-0.6-1.111-0.9-1.977-0.9c-0.631,0-1.216,0.189-1.754,0.567
				s-1.018,0.903-1.439,1.573v8.796H98.912z"/>
			<path fill="#A36A54" d="M118.34,56.129v7.438c0,1.092,0.25,1.948,0.751,2.567c0.5,0.62,1.264,0.93,2.289,0.93
				c0.759,0,1.467-0.193,2.124-0.578c0.657-0.387,1.248-0.922,1.772-1.609v-8.748h1.111v11.638h-0.613
				c-0.215,0-0.327-0.101-0.335-0.304l-0.105-1.731c-0.539,0.671-1.162,1.208-1.869,1.614c-0.707,0.405-1.493,0.607-2.36,0.607
				c-0.648,0-1.214-0.101-1.699-0.304c-0.484-0.202-0.886-0.495-1.206-0.877c-0.32-0.382-0.563-0.843-0.726-1.38
				c-0.164-0.539-0.246-1.146-0.246-1.825v-7.438H118.34z"/>
			<path fill="#A36A54" d="M131.616,50.749v17.019h-1.111V50.749H131.616z"/>
			<path fill="#A36A54" d="M138.903,67.954c-0.788,0-1.4-0.218-1.836-0.654c-0.437-0.437-0.655-1.111-0.655-2.023v-7.954h-1.672
				c-0.086,0-0.156-0.023-0.211-0.07c-0.055-0.046-0.082-0.112-0.082-0.198V56.62l1.988-0.141l0.278-4.164
				c0.008-0.069,0.037-0.132,0.086-0.187c0.05-0.054,0.118-0.081,0.203-0.081h0.521v4.443h3.661v0.831h-3.661v7.896
				c0,0.32,0.041,0.595,0.123,0.824c0.082,0.23,0.195,0.42,0.339,0.567c0.144,0.148,0.314,0.257,0.509,0.327
				s0.405,0.105,0.632,0.105c0.281,0,0.522-0.041,0.725-0.123c0.203-0.081,0.378-0.171,0.526-0.269
				c0.148-0.097,0.269-0.187,0.362-0.269c0.094-0.082,0.168-0.123,0.223-0.123c0.062,0,0.125,0.039,0.187,0.117l0.304,0.49
				c-0.296,0.328-0.673,0.592-1.129,0.79C139.868,67.855,139.394,67.954,138.903,67.954z"/>
			<path fill="#A36A54" d="M146.002,52.117c0,0.141-0.029,0.271-0.087,0.392c-0.059,0.121-0.135,0.229-0.229,0.322
				c-0.093,0.094-0.203,0.168-0.327,0.223c-0.125,0.055-0.257,0.081-0.398,0.081c-0.14,0-0.273-0.026-0.397-0.081
				c-0.125-0.055-0.234-0.129-0.328-0.223s-0.168-0.201-0.222-0.322c-0.055-0.121-0.082-0.251-0.082-0.392
				c0-0.14,0.027-0.274,0.082-0.403c0.054-0.129,0.128-0.24,0.222-0.334s0.203-0.167,0.328-0.222
				c0.125-0.055,0.257-0.082,0.397-0.082c0.141,0,0.273,0.027,0.398,0.082c0.125,0.055,0.234,0.128,0.327,0.222
				c0.094,0.094,0.17,0.205,0.229,0.334C145.973,51.842,146.002,51.977,146.002,52.117z M145.511,56.129v11.638h-1.111V56.129
				H145.511z"/>
			<path fill="#A36A54" d="M149.628,67.767V56.129h0.608c0.203,0,0.32,0.098,0.351,0.292l0.105,1.685
				c0.226-0.32,0.468-0.612,0.725-0.877c0.257-0.266,0.532-0.494,0.825-0.686c0.292-0.19,0.604-0.338,0.936-0.443
				s0.68-0.158,1.047-0.158c0.85,0,1.528,0.248,2.035,0.742c0.507,0.496,0.85,1.184,1.029,2.064c0.14-0.482,0.337-0.9,0.59-1.251
				s0.543-0.642,0.87-0.872c0.327-0.229,0.683-0.4,1.068-0.514s0.78-0.17,1.186-0.17c0.576,0,1.094,0.096,1.553,0.286
				c0.459,0.191,0.851,0.474,1.173,0.849c0.323,0.374,0.57,0.834,0.742,1.38s0.257,1.169,0.257,1.872v7.438h-1.111v-7.438
				c0-1.139-0.246-2.007-0.737-2.604c-0.491-0.596-1.193-0.895-2.105-0.895c-0.406,0-0.793,0.074-1.164,0.223
				c-0.37,0.148-0.698,0.368-0.982,0.66c-0.285,0.293-0.511,0.657-0.678,1.094c-0.168,0.438-0.251,0.943-0.251,1.521v7.438h-1.111
				v-7.438c0-1.131-0.226-1.996-0.678-2.598c-0.453-0.6-1.111-0.9-1.977-0.9c-0.631,0-1.216,0.189-1.754,0.567
				s-1.018,0.903-1.439,1.573v8.796H149.628z"/>
			<path fill="#A36A54" d="M172.624,55.942c0.655,0,1.261,0.113,1.819,0.339c0.557,0.227,1.041,0.556,1.45,0.988
				c0.41,0.433,0.729,0.966,0.959,1.597c0.229,0.632,0.345,1.357,0.345,2.176c0,0.172-0.025,0.289-0.076,0.352
				c-0.051,0.063-0.131,0.093-0.24,0.093h-8.398v0.222c0,0.874,0.101,1.643,0.304,2.305c0.203,0.663,0.491,1.219,0.865,1.667
				c0.375,0.448,0.827,0.786,1.357,1.012c0.53,0.227,1.123,0.339,1.778,0.339c0.585,0,1.092-0.064,1.521-0.192
				c0.429-0.129,0.79-0.272,1.082-0.433s0.524-0.305,0.696-0.434c0.172-0.129,0.296-0.192,0.375-0.192
				c0.101,0,0.179,0.039,0.234,0.116l0.304,0.375c-0.187,0.234-0.435,0.452-0.743,0.654c-0.308,0.203-0.651,0.377-1.029,0.521
				c-0.378,0.145-0.784,0.259-1.217,0.345c-0.433,0.085-0.867,0.128-1.304,0.128c-0.795,0-1.521-0.138-2.176-0.414
				c-0.655-0.277-1.217-0.681-1.686-1.211c-0.469-0.53-0.832-1.18-1.088-1.947c-0.256-0.769-0.384-1.647-0.384-2.639
				c0-0.834,0.119-1.604,0.357-2.31c0.238-0.706,0.581-1.313,1.029-1.825c0.448-0.51,0.998-0.91,1.649-1.198
				C171.058,56.086,171.797,55.942,172.624,55.942z M172.641,56.772c-0.6,0-1.137,0.094-1.612,0.281s-0.886,0.455-1.232,0.807
				c-0.347,0.352-0.627,0.771-0.841,1.264c-0.214,0.49-0.356,1.041-0.426,1.648h7.661c0-0.623-0.085-1.183-0.257-1.678
				c-0.171-0.496-0.413-0.914-0.724-1.258c-0.312-0.343-0.685-0.605-1.121-0.789C173.652,56.864,173.17,56.772,172.641,56.772z"/>
			<path fill="#A36A54" d="M188.444,67.767c-0.192,0-0.304-0.101-0.335-0.304l-0.117-1.837c-0.516,0.702-1.119,1.26-1.81,1.673
				c-0.691,0.413-1.466,0.619-2.325,0.619c-1.429,0-2.543-0.494-3.344-1.484c-0.8-0.99-1.2-2.477-1.2-4.457
				c0-0.85,0.111-1.643,0.334-2.381c0.222-0.736,0.55-1.375,0.984-1.918c0.433-0.541,0.964-0.969,1.593-1.28
				s1.353-0.468,2.173-0.468c0.788,0,1.472,0.146,2.049,0.438c0.578,0.292,1.078,0.72,1.5,1.28v-6.9h1.111v17.019H188.444z
				 M184.173,67.018c0.773,0,1.472-0.198,2.097-0.596c0.625-0.398,1.183-0.951,1.675-1.661V58.62
				c-0.453-0.662-0.951-1.13-1.494-1.402c-0.543-0.273-1.158-0.41-1.845-0.41c-0.688,0-1.289,0.125-1.804,0.375
				c-0.516,0.249-0.947,0.602-1.294,1.059c-0.348,0.455-0.609,1.002-0.785,1.637c-0.176,0.636-0.263,1.336-0.263,2.1
				c0,1.731,0.32,3.004,0.96,3.819S182.979,67.018,184.173,67.018z"/>
			<path fill="#A36A54" d="M194.893,52.117c0,0.141-0.029,0.271-0.087,0.392c-0.059,0.121-0.135,0.229-0.229,0.322
				c-0.093,0.094-0.203,0.168-0.327,0.223c-0.125,0.055-0.257,0.081-0.398,0.081c-0.14,0-0.273-0.026-0.397-0.081
				c-0.125-0.055-0.234-0.129-0.328-0.223s-0.168-0.201-0.222-0.322c-0.055-0.121-0.082-0.251-0.082-0.392
				c0-0.14,0.027-0.274,0.082-0.403c0.054-0.129,0.128-0.24,0.222-0.334s0.203-0.167,0.328-0.222
				c0.125-0.055,0.257-0.082,0.397-0.082c0.141,0,0.273,0.027,0.398,0.082c0.125,0.055,0.234,0.128,0.327,0.222
				c0.094,0.094,0.17,0.205,0.229,0.334C194.864,51.842,194.893,51.977,194.893,52.117z M194.402,56.129v11.638h-1.111V56.129
				H194.402z"/>
			<path fill="#A36A54" d="M205.946,67.767c-0.234,0-0.378-0.108-0.433-0.327l-0.164-1.486c-0.32,0.313-0.637,0.594-0.953,0.843
				s-0.646,0.46-0.988,0.632c-0.343,0.172-0.713,0.302-1.111,0.392c-0.397,0.089-0.834,0.134-1.31,0.134
				c-0.397,0-0.784-0.058-1.158-0.175c-0.375-0.117-0.706-0.296-0.995-0.538s-0.521-0.552-0.696-0.93
				c-0.175-0.379-0.263-0.832-0.263-1.363c0-0.49,0.141-0.947,0.421-1.368c0.28-0.421,0.719-0.788,1.315-1.1
				c0.597-0.312,1.365-0.562,2.305-0.749c0.939-0.187,2.068-0.296,3.386-0.327v-1.216c0-1.076-0.232-1.904-0.696-2.486
				c-0.464-0.58-1.152-0.871-2.064-0.871c-0.562,0-1.039,0.078-1.433,0.234c-0.394,0.156-0.728,0.327-1,0.514
				c-0.273,0.188-0.496,0.359-0.667,0.516s-0.316,0.233-0.433,0.233c-0.156,0-0.273-0.069-0.351-0.21l-0.199-0.34
				c0.608-0.607,1.248-1.068,1.918-1.38c0.67-0.312,1.431-0.468,2.281-0.468c0.624,0,1.169,0.1,1.637,0.298
				c0.468,0.199,0.856,0.483,1.164,0.854c0.308,0.37,0.54,0.818,0.696,1.345c0.156,0.526,0.234,1.113,0.234,1.761v7.579H205.946z
				 M201.268,67.147c0.452,0,0.868-0.049,1.246-0.146c0.378-0.098,0.729-0.233,1.053-0.408c0.324-0.176,0.626-0.385,0.907-0.627
				c0.281-0.241,0.557-0.502,0.831-0.783v-3.029c-1.107,0.031-2.061,0.115-2.86,0.252c-0.8,0.136-1.458,0.32-1.977,0.555
				s-0.9,0.514-1.146,0.836c-0.246,0.324-0.369,0.693-0.369,1.105c0,0.391,0.064,0.728,0.193,1.012
				c0.129,0.285,0.298,0.52,0.509,0.702c0.211,0.184,0.457,0.317,0.737,0.403C200.671,67.104,200.963,67.147,201.268,67.147z"/>
			<path fill="#A36A54" d="M222.668,67.767c-0.192,0-0.304-0.101-0.335-0.304l-0.117-1.837c-0.516,0.702-1.119,1.26-1.81,1.673
				c-0.691,0.413-1.466,0.619-2.325,0.619c-1.429,0-2.543-0.494-3.344-1.484s-1.2-2.477-1.2-4.457c0-0.85,0.111-1.643,0.334-2.381
				c0.222-0.736,0.55-1.375,0.983-1.918c0.434-0.541,0.965-0.969,1.594-1.28c0.628-0.312,1.353-0.468,2.172-0.468
				c0.789,0,1.473,0.146,2.05,0.438c0.578,0.292,1.077,0.72,1.499,1.28v-6.9h1.111v17.019H222.668z M218.397,67.018
				c0.773,0,1.472-0.198,2.097-0.596c0.624-0.398,1.183-0.951,1.675-1.661V58.62c-0.453-0.662-0.951-1.13-1.493-1.402
				c-0.543-0.273-1.158-0.41-1.845-0.41c-0.688,0-1.289,0.125-1.805,0.375c-0.516,0.249-0.947,0.602-1.295,1.059
				c-0.348,0.455-0.609,1.002-0.785,1.637c-0.176,0.636-0.263,1.336-0.263,2.1c0,1.731,0.319,3.004,0.96,3.819
				S217.202,67.018,218.397,67.018z"/>
			<path fill="#A36A54" d="M231.573,55.942c0.654,0,1.262,0.113,1.818,0.339c0.558,0.227,1.041,0.556,1.451,0.988
				c0.409,0.433,0.729,0.966,0.959,1.597c0.229,0.632,0.345,1.357,0.345,2.176c0,0.172-0.025,0.289-0.075,0.352
				c-0.051,0.063-0.131,0.093-0.24,0.093h-8.398v0.222c0,0.874,0.102,1.643,0.305,2.305c0.202,0.663,0.49,1.219,0.865,1.667
				c0.374,0.448,0.826,0.786,1.356,1.012c0.53,0.227,1.123,0.339,1.778,0.339c0.584,0,1.092-0.064,1.52-0.192
				c0.43-0.129,0.79-0.272,1.082-0.433c0.293-0.16,0.525-0.305,0.696-0.434c0.172-0.129,0.296-0.192,0.374-0.192
				c0.102,0,0.18,0.039,0.234,0.116l0.305,0.375c-0.188,0.234-0.436,0.452-0.743,0.654c-0.308,0.203-0.651,0.377-1.029,0.521
				s-0.784,0.259-1.217,0.345c-0.433,0.085-0.867,0.128-1.304,0.128c-0.795,0-1.521-0.138-2.176-0.414
				c-0.655-0.277-1.217-0.681-1.686-1.211c-0.47-0.53-0.832-1.18-1.088-1.947c-0.257-0.769-0.385-1.647-0.385-2.639
				c0-0.834,0.119-1.604,0.357-2.31c0.237-0.706,0.58-1.313,1.029-1.825c0.447-0.51,0.998-0.91,1.648-1.198
				C230.008,56.086,230.747,55.942,231.573,55.942z M231.591,56.772c-0.6,0-1.137,0.094-1.612,0.281s-0.886,0.455-1.231,0.807
				c-0.348,0.352-0.627,0.771-0.842,1.264c-0.214,0.49-0.355,1.041-0.426,1.648h7.661c0-0.623-0.085-1.183-0.257-1.678
				c-0.172-0.496-0.412-0.914-0.725-1.258c-0.311-0.343-0.685-0.605-1.121-0.789C232.603,56.864,232.12,56.772,231.591,56.772z"/>
			<path fill="#A36A54" d="M245.55,57.579c-0.055,0.109-0.14,0.164-0.257,0.164c-0.086,0-0.196-0.049-0.333-0.146
				c-0.137-0.097-0.316-0.206-0.539-0.327c-0.222-0.12-0.494-0.229-0.818-0.327c-0.323-0.098-0.719-0.146-1.188-0.146
				c-0.42,0-0.805,0.061-1.151,0.182c-0.347,0.12-0.644,0.281-0.89,0.483c-0.245,0.202-0.437,0.438-0.572,0.706
				c-0.137,0.268-0.205,0.55-0.205,0.846c0,0.365,0.094,0.669,0.281,0.91c0.187,0.24,0.432,0.447,0.736,0.617
				c0.305,0.172,0.649,0.319,1.035,0.443c0.387,0.125,0.781,0.25,1.188,0.375c0.405,0.124,0.801,0.263,1.188,0.414
				c0.385,0.152,0.73,0.342,1.035,0.568c0.304,0.226,0.549,0.502,0.736,0.83c0.188,0.327,0.281,0.725,0.281,1.193
				c0,0.506-0.092,0.979-0.275,1.415s-0.448,0.815-0.795,1.134c-0.348,0.32-0.774,0.574-1.281,0.761
				c-0.507,0.188-1.084,0.28-1.73,0.28c-0.819,0-1.525-0.13-2.117-0.391c-0.594-0.262-1.123-0.604-1.592-1.023l0.27-0.398
				c0.039-0.063,0.082-0.109,0.129-0.141s0.113-0.047,0.199-0.047c0.101,0,0.226,0.063,0.373,0.188
				c0.148,0.125,0.342,0.26,0.58,0.404c0.237,0.144,0.533,0.278,0.889,0.402c0.354,0.125,0.793,0.188,1.316,0.188
				c0.49,0,0.924-0.068,1.298-0.205c0.374-0.136,0.687-0.321,0.936-0.555c0.249-0.234,0.438-0.51,0.567-0.824
				c0.129-0.316,0.193-0.65,0.193-1.001c0-0.39-0.094-0.714-0.281-0.971s-0.433-0.476-0.736-0.655
				c-0.305-0.18-0.65-0.331-1.035-0.456c-0.387-0.124-0.784-0.249-1.193-0.374c-0.41-0.125-0.807-0.262-1.193-0.41
				c-0.386-0.147-0.73-0.334-1.035-0.561s-0.55-0.501-0.736-0.824c-0.188-0.324-0.281-0.728-0.281-1.211
				c0-0.414,0.09-0.811,0.27-1.193c0.179-0.382,0.434-0.717,0.766-1.006s0.734-0.519,1.211-0.689
				c0.475-0.172,1.01-0.258,1.602-0.258c0.71,0,1.34,0.103,1.89,0.309c0.55,0.205,1.055,0.52,1.515,0.943L245.55,57.579z"/>
			<path fill="#A36A54" d="M251.13,52.117c0,0.141-0.029,0.271-0.088,0.392s-0.135,0.229-0.229,0.322s-0.203,0.168-0.327,0.223
				c-0.125,0.055-0.257,0.081-0.397,0.081s-0.273-0.026-0.398-0.081s-0.233-0.129-0.327-0.223s-0.168-0.201-0.222-0.322
				c-0.055-0.121-0.082-0.251-0.082-0.392c0-0.14,0.027-0.274,0.082-0.403c0.054-0.129,0.128-0.24,0.222-0.334
				s0.202-0.167,0.327-0.222s0.258-0.082,0.398-0.082s0.272,0.027,0.397,0.082c0.124,0.055,0.233,0.128,0.327,0.222
				s0.17,0.205,0.229,0.334S251.13,51.977,251.13,52.117z M250.638,56.129v11.638h-1.111V56.129H250.638z"/>
			<path fill="#A36A54" d="M258.592,55.93c0.507,0,0.977,0.063,1.409,0.188c0.434,0.124,0.82,0.3,1.164,0.525h2.982v0.387
				c0,0.195-0.109,0.3-0.327,0.315l-1.767,0.129c0.219,0.296,0.387,0.63,0.504,1c0.116,0.37,0.175,0.767,0.175,1.187
				c0,0.563-0.102,1.07-0.304,1.527c-0.203,0.456-0.486,0.846-0.849,1.17c-0.362,0.323-0.798,0.574-1.304,0.754
				c-0.508,0.18-1.068,0.27-1.685,0.27c-0.671,0-1.278-0.102-1.825-0.305c-0.327,0.188-0.584,0.409-0.771,0.666
				c-0.188,0.258-0.281,0.508-0.281,0.75c0,0.334,0.117,0.592,0.352,0.771s0.544,0.31,0.93,0.392
				c0.387,0.082,0.826,0.135,1.322,0.158c0.494,0.022,0.998,0.048,1.508,0.075c0.512,0.027,1.014,0.076,1.51,0.146
				c0.494,0.07,0.936,0.193,1.321,0.369s0.696,0.421,0.931,0.736c0.233,0.316,0.35,0.734,0.35,1.258c0,0.483-0.12,0.947-0.361,1.392
				c-0.242,0.444-0.592,0.839-1.047,1.182c-0.457,0.343-1.008,0.618-1.656,0.824c-0.646,0.206-1.372,0.31-2.175,0.31
				c-0.819,0-1.536-0.084-2.152-0.251s-1.133-0.394-1.55-0.679c-0.418-0.284-0.73-0.613-0.941-0.988
				c-0.211-0.374-0.316-0.771-0.316-1.193c0-0.615,0.203-1.146,0.608-1.59c0.405-0.445,0.963-0.787,1.673-1.029
				c-0.391-0.133-0.7-0.324-0.93-0.573c-0.23-0.249-0.346-0.597-0.346-1.041c0-0.164,0.031-0.335,0.094-0.515
				s0.156-0.357,0.281-0.532c0.125-0.176,0.274-0.341,0.45-0.497c0.175-0.156,0.38-0.297,0.614-0.422
				c-0.555-0.319-0.984-0.744-1.293-1.274s-0.462-1.149-0.462-1.86c0-0.561,0.1-1.07,0.298-1.525
				c0.199-0.457,0.48-0.849,0.843-1.176c0.362-0.328,0.801-0.581,1.315-0.76C257.399,56.02,257.968,55.93,258.592,55.93z
				 M262.907,68.551c0-0.367-0.095-0.661-0.286-0.884c-0.19-0.222-0.446-0.396-0.767-0.521c-0.319-0.125-0.688-0.213-1.104-0.264
				c-0.417-0.05-0.854-0.087-1.31-0.11c-0.457-0.023-0.915-0.047-1.375-0.07c-0.461-0.023-0.889-0.07-1.287-0.14
				c-0.296,0.116-0.57,0.251-0.824,0.402c-0.254,0.152-0.47,0.324-0.648,0.516c-0.18,0.191-0.32,0.4-0.422,0.631
				s-0.152,0.482-0.152,0.755c0,0.343,0.088,0.661,0.264,0.953s0.433,0.546,0.771,0.761c0.34,0.214,0.755,0.384,1.246,0.508
				c0.491,0.125,1.057,0.188,1.695,0.188c0.594,0,1.145-0.066,1.656-0.199c0.51-0.132,0.955-0.319,1.333-0.561
				c0.378-0.242,0.675-0.531,0.89-0.865C262.801,69.315,262.907,68.948,262.907,68.551z M258.592,62.621
				c0.499,0,0.943-0.072,1.333-0.216c0.391-0.145,0.718-0.346,0.982-0.604c0.266-0.257,0.467-0.564,0.604-0.924
				c0.136-0.358,0.204-0.756,0.204-1.193c0-0.436-0.07-0.836-0.21-1.198c-0.141-0.362-0.346-0.673-0.615-0.931
				c-0.269-0.257-0.596-0.455-0.982-0.596c-0.386-0.141-0.824-0.211-1.315-0.211s-0.933,0.07-1.321,0.211
				c-0.391,0.141-0.72,0.339-0.988,0.596c-0.27,0.258-0.475,0.568-0.615,0.931c-0.14,0.362-0.21,0.763-0.21,1.198
				c0,0.438,0.07,0.835,0.21,1.193c0.141,0.359,0.346,0.667,0.615,0.924c0.269,0.258,0.598,0.459,0.988,0.604
				C257.659,62.548,258.101,62.621,258.592,62.621z"/>
			<path fill="#A36A54" d="M266.558,67.767V56.129h0.607c0.203,0,0.32,0.098,0.352,0.292l0.105,1.755
				c0.529-0.671,1.147-1.211,1.854-1.621c0.705-0.408,1.491-0.613,2.356-0.613c0.64,0,1.203,0.102,1.69,0.304
				c0.487,0.203,0.891,0.495,1.211,0.878c0.319,0.382,0.561,0.842,0.725,1.38s0.246,1.146,0.246,1.825v7.438h-1.111v-7.438
				c0-1.092-0.25-1.948-0.748-2.568c-0.5-0.619-1.264-0.93-2.293-0.93c-0.765,0-1.475,0.197-2.129,0.591
				c-0.655,0.394-1.24,0.934-1.755,1.62v8.726H266.558z"/>
			<path fill="#A36A54" d="M283.599,55.942c0.655,0,1.262,0.113,1.819,0.339c0.558,0.227,1.041,0.556,1.45,0.988
				c0.41,0.433,0.729,0.966,0.959,1.597c0.23,0.632,0.346,1.357,0.346,2.176c0,0.172-0.025,0.289-0.076,0.352
				s-0.131,0.093-0.24,0.093h-8.398v0.222c0,0.874,0.102,1.643,0.305,2.305c0.203,0.663,0.491,1.219,0.865,1.667
				c0.375,0.448,0.826,0.786,1.357,1.012c0.529,0.227,1.123,0.339,1.777,0.339c0.585,0,1.092-0.064,1.521-0.192
				c0.429-0.129,0.79-0.272,1.082-0.433s0.524-0.305,0.696-0.434s0.296-0.192,0.374-0.192c0.101,0,0.179,0.039,0.233,0.116
				l0.305,0.375c-0.188,0.234-0.435,0.452-0.742,0.654c-0.309,0.203-0.652,0.377-1.029,0.521c-0.379,0.145-0.784,0.259-1.217,0.345
				c-0.434,0.085-0.867,0.128-1.305,0.128c-0.795,0-1.521-0.138-2.176-0.414c-0.654-0.277-1.217-0.681-1.686-1.211
				s-0.832-1.18-1.088-1.947c-0.256-0.769-0.385-1.647-0.385-2.639c0-0.834,0.119-1.604,0.357-2.31s0.58-1.313,1.029-1.825
				c0.448-0.51,0.998-0.91,1.648-1.198C282.034,56.086,282.772,55.942,283.599,55.942z M283.616,56.772
				c-0.6,0-1.137,0.094-1.611,0.281c-0.476,0.188-0.887,0.455-1.232,0.807c-0.347,0.352-0.627,0.771-0.842,1.264
				c-0.213,0.49-0.355,1.041-0.426,1.648h7.662c0-0.623-0.086-1.183-0.258-1.678c-0.171-0.496-0.412-0.914-0.724-1.258
				c-0.312-0.343-0.685-0.605-1.121-0.789S284.146,56.772,283.616,56.772z"/>
			<path fill="#A36A54" d="M291.167,67.767V56.129h0.584c0.133,0,0.229,0.027,0.287,0.081c0.059,0.055,0.092,0.148,0.1,0.28
				l0.094,2.457c0.373-0.943,0.873-1.682,1.496-2.217c0.624-0.533,1.393-0.801,2.305-0.801c0.352,0,0.674,0.037,0.971,0.111
				s0.577,0.181,0.842,0.321l-0.151,0.772c-0.023,0.125-0.102,0.187-0.234,0.187c-0.046,0-0.112-0.016-0.198-0.047
				c-0.086-0.03-0.193-0.065-0.322-0.104s-0.286-0.074-0.474-0.105c-0.187-0.031-0.401-0.047-0.644-0.047
				c-0.881,0-1.604,0.273-2.17,0.818c-0.564,0.546-1.023,1.334-1.374,2.363v7.567H291.167z"/>
			<path fill="#A36A54" d="M299.623,68.293c-0.063,0.156-0.156,0.271-0.28,0.346c-0.125,0.073-0.254,0.11-0.387,0.11H298.5
				l7.275-17.568c0.117-0.288,0.327-0.433,0.632-0.433h0.479L299.623,68.293z"/>
			<path fill="#A36A54" d="M315.784,67.767c-0.193,0-0.305-0.101-0.336-0.304l-0.117-1.837c-0.516,0.702-1.118,1.26-1.809,1.673
				c-0.691,0.413-1.467,0.619-2.325,0.619c-1.429,0-2.544-0.494-3.345-1.484c-0.8-0.99-1.199-2.477-1.199-4.457
				c0-0.85,0.111-1.643,0.334-2.381c0.222-0.736,0.55-1.375,0.983-1.918c0.433-0.541,0.964-0.969,1.593-1.28
				s1.354-0.468,2.173-0.468c0.788,0,1.472,0.146,2.05,0.438s1.077,0.72,1.499,1.28v-6.9h1.111v17.019H315.784z M311.513,67.018
				c0.773,0,1.473-0.198,2.098-0.596c0.624-0.398,1.183-0.951,1.675-1.661V58.62c-0.453-0.662-0.951-1.13-1.493-1.402
				c-0.543-0.273-1.158-0.41-1.846-0.41s-1.289,0.125-1.805,0.375c-0.516,0.249-0.946,0.602-1.294,1.059
				c-0.348,0.455-0.609,1.002-0.785,1.637c-0.176,0.636-0.263,1.336-0.263,2.1c0,1.731,0.319,3.004,0.96,3.819
				S310.317,67.018,311.513,67.018z"/>
			<path fill="#A36A54" d="M324.688,55.942c0.655,0,1.262,0.113,1.819,0.339c0.558,0.227,1.041,0.556,1.45,0.988
				c0.41,0.433,0.729,0.966,0.959,1.597c0.23,0.632,0.346,1.357,0.346,2.176c0,0.172-0.025,0.289-0.076,0.352
				s-0.131,0.093-0.24,0.093h-8.398v0.222c0,0.874,0.102,1.643,0.305,2.305c0.203,0.663,0.491,1.219,0.865,1.667
				c0.375,0.448,0.826,0.786,1.357,1.012c0.529,0.227,1.123,0.339,1.777,0.339c0.585,0,1.092-0.064,1.521-0.192
				c0.429-0.129,0.79-0.272,1.082-0.433s0.524-0.305,0.696-0.434s0.296-0.192,0.374-0.192c0.101,0,0.179,0.039,0.233,0.116
				l0.305,0.375c-0.188,0.234-0.435,0.452-0.742,0.654c-0.309,0.203-0.652,0.377-1.029,0.521c-0.379,0.145-0.784,0.259-1.217,0.345
				c-0.434,0.085-0.867,0.128-1.305,0.128c-0.795,0-1.521-0.138-2.176-0.414c-0.654-0.277-1.217-0.681-1.686-1.211
				s-0.832-1.18-1.088-1.947c-0.256-0.769-0.385-1.647-0.385-2.639c0-0.834,0.119-1.604,0.357-2.31s0.58-1.313,1.029-1.825
				c0.448-0.51,0.998-0.91,1.648-1.198C323.124,56.086,323.862,55.942,324.688,55.942z M324.706,56.772
				c-0.6,0-1.137,0.094-1.611,0.281c-0.476,0.188-0.887,0.455-1.232,0.807c-0.347,0.352-0.627,0.771-0.842,1.264
				c-0.213,0.49-0.355,1.041-0.426,1.648h7.662c0-0.623-0.086-1.183-0.258-1.678c-0.171-0.496-0.412-0.914-0.724-1.258
				c-0.312-0.343-0.685-0.605-1.121-0.789S325.235,56.772,324.706,56.772z"/>
			<path fill="#A36A54" d="M336.339,67.767h-0.982l-4.913-11.638h0.877c0.109,0,0.197,0.029,0.263,0.087
				c0.066,0.059,0.115,0.123,0.146,0.193l3.837,9.182c0.078,0.18,0.136,0.351,0.175,0.515s0.078,0.328,0.117,0.492
				c0.039-0.164,0.08-0.33,0.123-0.498s0.1-0.337,0.17-0.509l3.859-9.182c0.039-0.086,0.092-0.153,0.158-0.204
				s0.146-0.076,0.24-0.076h0.842L336.339,67.767z"/>
			<path fill="#A36A54" d="M347.614,55.942c0.654,0,1.262,0.113,1.818,0.339c0.558,0.227,1.041,0.556,1.451,0.988
				c0.409,0.433,0.729,0.966,0.959,1.597c0.229,0.632,0.345,1.357,0.345,2.176c0,0.172-0.025,0.289-0.075,0.352
				c-0.051,0.063-0.131,0.093-0.24,0.093h-8.398v0.222c0,0.874,0.102,1.643,0.305,2.305c0.202,0.663,0.49,1.219,0.865,1.667
				c0.374,0.448,0.826,0.786,1.356,1.012c0.53,0.227,1.123,0.339,1.778,0.339c0.584,0,1.092-0.064,1.52-0.192
				c0.43-0.129,0.79-0.272,1.082-0.433c0.293-0.16,0.525-0.305,0.696-0.434c0.172-0.129,0.296-0.192,0.374-0.192
				c0.102,0,0.18,0.039,0.234,0.116l0.305,0.375c-0.188,0.234-0.436,0.452-0.743,0.654c-0.308,0.203-0.651,0.377-1.029,0.521
				s-0.784,0.259-1.217,0.345c-0.433,0.085-0.867,0.128-1.304,0.128c-0.795,0-1.521-0.138-2.176-0.414
				c-0.655-0.277-1.217-0.681-1.686-1.211c-0.47-0.53-0.832-1.18-1.088-1.947c-0.257-0.769-0.385-1.647-0.385-2.639
				c0-0.834,0.119-1.604,0.357-2.31c0.237-0.706,0.58-1.313,1.029-1.825c0.447-0.51,0.998-0.91,1.648-1.198
				C346.049,56.086,346.788,55.942,347.614,55.942z M347.632,56.772c-0.6,0-1.137,0.094-1.612,0.281s-0.886,0.455-1.231,0.807
				c-0.348,0.352-0.627,0.771-0.842,1.264c-0.214,0.49-0.355,1.041-0.426,1.648h7.661c0-0.623-0.085-1.183-0.257-1.678
				c-0.172-0.496-0.412-0.914-0.725-1.258c-0.311-0.343-0.685-0.605-1.121-0.789C348.644,56.864,348.161,56.772,347.632,56.772z"/>
			<path fill="#A36A54" d="M356.62,50.749v17.019h-1.111V50.749H356.62z"/>
			<path fill="#A36A54" d="M365.171,55.942c0.834,0,1.58,0.143,2.239,0.427s1.214,0.688,1.667,1.21
				c0.452,0.523,0.797,1.152,1.035,1.89s0.356,1.562,0.356,2.474s-0.118,1.735-0.356,2.469c-0.238,0.732-0.583,1.36-1.035,1.883
				c-0.453,0.522-1.008,0.924-1.667,1.205c-0.659,0.28-1.405,0.42-2.239,0.42c-0.835,0-1.582-0.14-2.24-0.42
				c-0.659-0.281-1.217-0.683-1.673-1.205s-0.804-1.15-1.041-1.883c-0.238-0.733-0.356-1.557-0.356-2.469s0.118-1.736,0.356-2.474
				c0.237-0.737,0.585-1.366,1.041-1.89c0.456-0.521,1.014-0.926,1.673-1.21C363.589,56.084,364.336,55.942,365.171,55.942z
				 M365.171,67.042c0.693,0,1.299-0.119,1.818-0.356c0.519-0.237,0.951-0.579,1.299-1.023c0.346-0.444,0.605-0.98,0.777-1.608
				c0.172-0.627,0.258-1.331,0.258-2.111c0-0.771-0.086-1.474-0.258-2.105c-0.172-0.631-0.432-1.172-0.777-1.619
				c-0.348-0.449-0.78-0.794-1.299-1.035c-0.52-0.242-1.125-0.363-1.818-0.363c-0.695,0-1.301,0.121-1.819,0.363
				c-0.519,0.241-0.952,0.586-1.298,1.035c-0.348,0.447-0.609,0.988-0.784,1.619c-0.176,0.632-0.263,1.334-0.263,2.105
				c0,0.78,0.087,1.484,0.263,2.111c0.175,0.628,0.437,1.164,0.784,1.608c0.346,0.444,0.779,0.786,1.298,1.023
				S364.476,67.042,365.171,67.042z"/>
			<path fill="#A36A54" d="M373.394,71.884V56.129h0.607c0.102,0,0.184,0.021,0.246,0.064s0.098,0.118,0.105,0.228l0.105,1.802
				c0.514-0.703,1.116-1.26,1.807-1.674c0.689-0.412,1.464-0.619,2.322-0.619c1.434,0,2.549,0.495,3.345,1.485
				s1.192,2.476,1.192,4.456c0,0.851-0.11,1.644-0.332,2.381c-0.223,0.736-0.549,1.376-0.978,1.918s-0.957,0.969-1.585,1.281
				c-0.627,0.312-1.351,0.467-2.17,0.467c-0.795,0-1.481-0.144-2.059-0.432c-0.576-0.289-1.076-0.718-1.497-1.287v5.685H373.394z
				 M378.271,56.831c-0.771,0-1.473,0.201-2.1,0.603c-0.628,0.401-1.184,0.961-1.667,1.679v6.105
				c0.444,0.67,0.938,1.143,1.479,1.415c0.543,0.273,1.16,0.409,1.854,0.409c0.687,0,1.286-0.124,1.802-0.374
				c0.514-0.249,0.945-0.603,1.292-1.059s0.608-1.002,0.784-1.638c0.175-0.635,0.263-1.335,0.263-2.1
				c0-1.73-0.317-3.004-0.954-3.818C380.39,57.239,379.472,56.831,378.271,56.831z"/>
			<path fill="#A36A54" d="M390.294,55.942c0.655,0,1.262,0.113,1.819,0.339c0.558,0.227,1.041,0.556,1.45,0.988
				c0.41,0.433,0.729,0.966,0.959,1.597c0.23,0.632,0.346,1.357,0.346,2.176c0,0.172-0.025,0.289-0.076,0.352
				s-0.131,0.093-0.24,0.093h-8.398v0.222c0,0.874,0.102,1.643,0.305,2.305c0.203,0.663,0.491,1.219,0.865,1.667
				c0.375,0.448,0.826,0.786,1.357,1.012c0.529,0.227,1.123,0.339,1.777,0.339c0.585,0,1.092-0.064,1.521-0.192
				c0.429-0.129,0.79-0.272,1.082-0.433s0.524-0.305,0.696-0.434s0.296-0.192,0.374-0.192c0.101,0,0.179,0.039,0.233,0.116
				l0.305,0.375c-0.188,0.234-0.435,0.452-0.742,0.654c-0.309,0.203-0.652,0.377-1.029,0.521c-0.379,0.145-0.784,0.259-1.217,0.345
				c-0.434,0.085-0.867,0.128-1.305,0.128c-0.795,0-1.521-0.138-2.176-0.414c-0.654-0.277-1.217-0.681-1.686-1.211
				s-0.832-1.18-1.088-1.947c-0.256-0.769-0.385-1.647-0.385-2.639c0-0.834,0.119-1.604,0.357-2.31s0.58-1.313,1.029-1.825
				c0.448-0.51,0.998-0.91,1.648-1.198C388.729,56.086,389.468,55.942,390.294,55.942z M390.312,56.772
				c-0.6,0-1.137,0.094-1.611,0.281c-0.476,0.188-0.887,0.455-1.232,0.807c-0.347,0.352-0.627,0.771-0.842,1.264
				c-0.213,0.49-0.355,1.041-0.426,1.648h7.662c0-0.623-0.086-1.183-0.258-1.678c-0.171-0.496-0.412-0.914-0.724-1.258
				c-0.312-0.343-0.685-0.605-1.121-0.789S390.841,56.772,390.312,56.772z"/>
			<path fill="#A36A54" d="M397.862,67.767V56.129h0.584c0.133,0,0.229,0.027,0.287,0.081c0.059,0.055,0.092,0.148,0.1,0.28
				l0.094,2.457c0.373-0.943,0.873-1.682,1.496-2.217c0.624-0.533,1.393-0.801,2.305-0.801c0.352,0,0.674,0.037,0.971,0.111
				s0.577,0.181,0.842,0.321l-0.151,0.772c-0.023,0.125-0.102,0.187-0.234,0.187c-0.046,0-0.112-0.016-0.198-0.047
				c-0.086-0.03-0.193-0.065-0.322-0.104s-0.286-0.074-0.474-0.105c-0.187-0.031-0.401-0.047-0.644-0.047
				c-0.881,0-1.604,0.273-2.17,0.818c-0.564,0.546-1.023,1.334-1.374,2.363v7.567H397.862z"/>
		</g>
	</g>
</g>
<g id="Layer_2">
	<g>
		<path fill="#A26B55" d="M21.471,46.719c0-1.396,0.289-2.898,0.865-4.508c0.577-1.608,1.336-3.27,2.277-4.985
			s2.019-3.451,3.233-5.21c1.214-1.759,2.452-3.486,3.711-5.185c1.259-1.698,2.497-3.335,3.711-4.912
			c1.214-1.577,2.292-3.025,3.233-4.344c0.941-1.319,1.7-2.494,2.277-3.524c0.576-1.03,0.865-1.85,0.865-2.457
			c0-0.636-0.144-1.167-0.432-1.592c-0.288-0.424-0.636-0.75-1.045-0.977c-0.41-0.228-0.849-0.387-1.318-0.478
			c-0.469-0.091-0.902-0.137-1.296-0.137c-1.577,0-3.305,0.357-5.184,1.07c-1.88,0.714-3.774,1.678-5.684,2.892
			c-1.91,1.214-3.759,2.626-5.547,4.235c-1.788,1.609-3.379,3.302-4.774,5.078c-1.395,1.776-2.508,3.59-3.342,5.442
			c-0.833,1.852-1.25,3.628-1.25,5.328c0,1.882,0.44,3.392,1.321,4.531c0.881,1.138,2.034,1.708,3.461,1.708
			c1.124,0,2.012-0.176,2.664-0.531c0.654-0.354,1.154-0.746,1.503-1.177s0.593-0.823,0.729-1.177
			c0.137-0.353,0.251-0.53,0.342-0.53c0.364,0,0.577,0.253,0.638,0.758c0.06,0.506-0.114,1.073-0.524,1.7
			c-0.41,0.628-1.1,1.196-2.072,1.701c-0.971,0.506-2.322,0.759-4.053,0.759c-1.7,0-3.168-0.265-4.403-0.796
			c-1.234-0.531-2.25-1.208-3.046-2.027c-0.795-0.819-1.391-1.73-1.791-2.732c-0.396-1.001-0.596-1.973-0.596-2.914
			c0-2.064,0.433-4.128,1.298-6.193c0.865-2.064,2.049-4.022,3.552-5.874s3.264-3.575,5.283-5.168
			c2.019-1.594,4.183-2.975,6.489-4.144c2.307-1.169,4.706-2.087,7.195-2.755c2.489-0.668,4.948-1.002,7.377-1.002
			c1.458,0,2.702,0.205,3.735,0.615c1.031,0.41,1.867,0.987,2.504,1.73c0.638,0.745,1.1,1.64,1.389,2.687
			c0.289,1.047,0.433,2.225,0.433,3.53c0,0.728-0.144,1.526-0.433,2.39c-0.289,0.866-0.661,1.77-1.116,2.71
			c-0.455,0.941-0.972,1.89-1.548,2.846c-0.577,0.957-1.169,1.875-1.776,2.755c-1.427,2.095-3.036,4.235-4.828,6.42
			c0.212,0.122,0.471,0.228,0.774,0.319c0.243,0.061,0.524,0.122,0.843,0.182c0.318,0.061,0.661,0.091,1.024,0.091
			c1.275,0,2.679-0.289,4.212-0.865c1.533-0.577,3.074-1.344,4.622-2.3c1.549-0.956,3.044-2.057,4.486-3.301
			s2.725-2.528,3.849-3.849c1.122-1.32,2.026-2.633,2.709-3.938c0.683-1.305,1.025-2.52,1.025-3.643
			c0-0.941-0.129-1.655-0.387-2.141c-0.258-0.485-0.578-0.819-0.957-1.001c-0.38-0.182-0.79-0.273-1.229-0.273
			c-0.44,0-0.85,0.03-1.229,0.091c-0.38,0.061-0.698,0.091-0.956,0.091c-0.258,0-0.388-0.106-0.388-0.319
			c0-0.182,0.099-0.326,0.296-0.433c0.197-0.105,0.433-0.196,0.706-0.272c0.273-0.076,0.562-0.129,0.865-0.16
			c0.303-0.03,0.546-0.045,0.728-0.045c0.698,0,1.473,0.152,2.323,0.456c0.849,0.303,1.639,0.797,2.368,1.48
			c0.728,0.683,1.335,1.579,1.822,2.687c0.485,1.109,0.728,2.467,0.728,4.076c0,1.336-0.471,2.68-1.411,4.03
			c-0.941,1.351-2.171,2.642-3.689,3.871c-1.518,1.229-3.249,2.375-5.191,3.438c-1.943,1.063-3.924,1.989-5.943,2.778
			c-2.019,0.79-3.977,1.404-5.875,1.844c-1.897,0.441-3.574,0.661-5.032,0.661c3.855,6.193,7.878,11.703,12.068,16.53
			c1.791,2.064,3.703,4.091,5.738,6.079c2.033,1.988,4.144,3.757,6.329,5.305c2.186,1.548,4.417,2.793,6.694,3.734
			c2.277,0.94,4.538,1.412,6.785,1.412c1.943,0,3.408-0.296,4.394-0.888c0.986-0.593,1.677-1.284,2.072-2.072
			c0.395-0.79,0.592-1.563,0.592-2.323c0-0.759,0-1.32,0-1.685c0-0.273,0.106-0.455,0.318-0.547
			c0.212-0.091,0.448-0.061,0.706,0.092c0.257,0.151,0.493,0.432,0.706,0.842c0.212,0.41,0.319,0.979,0.319,1.708
			c0,0.486-0.039,1.101-0.114,1.845c-0.077,0.744-0.236,1.532-0.479,2.368c-0.243,0.835-0.592,1.669-1.047,2.505
			c-0.456,0.835-1.056,1.586-1.799,2.254c-0.744,0.667-1.655,1.207-2.732,1.616c-1.078,0.41-2.36,0.615-3.848,0.615
			c-2.521,0-5.025-0.555-7.514-1.664c-2.489-1.109-4.911-2.568-7.263-4.375c-2.353-1.809-4.615-3.875-6.785-6.199
			c-2.171-2.326-4.197-4.703-6.079-7.133c-4.433-5.683-8.638-12.155-12.614-19.417c-1.396,1.882-2.626,3.703-3.689,5.464
			c-0.455,0.76-0.904,1.541-1.343,2.345c-0.44,0.805-0.827,1.594-1.161,2.368c-0.334,0.774-0.607,1.518-0.819,2.231
			c-0.213,0.714-0.319,1.343-0.319,1.89c0,0.456,0.052,0.842,0.159,1.162c0.106,0.319,0.189,0.585,0.251,0.796
			c0.06,0.213,0.06,0.365,0,0.456c-0.062,0.091-0.274,0.137-0.638,0.137s-0.782-0.145-1.252-0.433
			c-0.471-0.289-0.911-0.713-1.32-1.275c-0.41-0.561-0.751-1.244-1.024-2.049C21.607,48.715,21.471,47.782,21.471,46.719z"/>
	</g>
	<g>
		<path fill="#A26B55" d="M91.258,72.331c0.015,0.058,0.029,0.114,0.043,0.167c0.048-0.106,0.107-0.218,0.175-0.334l4.644-7.249
			c0.049-0.059,0.091-0.096,0.127-0.113c0.036-0.018,0.088-0.026,0.156-0.026h0.502L95.64,75.075h-0.633l1.085-8.799
			c0.009-0.054,0.019-0.113,0.029-0.179c0.01-0.065,0.022-0.132,0.036-0.2l-4.585,7.198c-0.078,0.122-0.177,0.182-0.298,0.182
			h-0.117c-0.131,0-0.216-0.06-0.255-0.182l-2.926-7.22c0,0.146-0.008,0.277-0.022,0.393l-1.077,8.808h-0.633l1.267-10.299h0.495
			c0.068,0,0.119,0.008,0.152,0.026c0.034,0.017,0.07,0.054,0.109,0.113l2.94,7.249C91.227,72.217,91.243,72.272,91.258,72.331z"/>
		<path fill="#A26B55" d="M105.815,75.075h-0.561c-0.068,0-0.121-0.019-0.16-0.055c-0.038-0.036-0.065-0.081-0.08-0.135
			l-0.735-3.014h-4.614l-1.478,3.014c-0.025,0.054-0.063,0.099-0.117,0.135c-0.054,0.036-0.112,0.055-0.175,0.055h-0.553
			l5.139-10.299h0.721L105.815,75.075z M99.927,71.341h4.222l-1.273-5.241c-0.02-0.087-0.04-0.184-0.059-0.288
			c-0.02-0.104-0.039-0.214-0.059-0.331c-0.048,0.117-0.096,0.228-0.142,0.334c-0.046,0.107-0.088,0.204-0.127,0.291L99.927,71.341z
			"/>
		<path fill="#A26B55" d="M111.201,74.573c0.355,0,0.672-0.03,0.954-0.091c0.282-0.061,0.531-0.135,0.75-0.226
			c0.218-0.089,0.406-0.186,0.563-0.291c0.158-0.104,0.292-0.201,0.404-0.291c0.112-0.089,0.202-0.165,0.27-0.226
			c0.068-0.061,0.121-0.091,0.16-0.091c0.044,0,0.075,0.014,0.095,0.043l0.262,0.306c-0.446,0.451-0.959,0.811-1.539,1.08
			c-0.581,0.27-1.258,0.405-2.035,0.405c-0.592,0-1.126-0.107-1.604-0.32c-0.478-0.214-0.886-0.517-1.223-0.911
			c-0.338-0.392-0.597-0.863-0.779-1.412s-0.272-1.157-0.272-1.828c0-0.897,0.137-1.718,0.411-2.463
			c0.274-0.746,0.65-1.384,1.128-1.918c0.478-0.534,1.041-0.947,1.688-1.241c0.648-0.294,1.348-0.441,2.101-0.441
			c0.354,0,0.672,0.029,0.953,0.084c0.281,0.056,0.54,0.137,0.775,0.244s0.451,0.24,0.648,0.401c0.196,0.16,0.387,0.342,0.571,0.545
			l-0.233,0.291c-0.053,0.058-0.116,0.087-0.189,0.087c-0.044,0-0.093-0.024-0.149-0.076c-0.056-0.051-0.126-0.114-0.211-0.189
			c-0.085-0.075-0.189-0.158-0.313-0.248c-0.124-0.09-0.274-0.172-0.451-0.248c-0.177-0.076-0.385-0.138-0.622-0.189
			c-0.238-0.051-0.512-0.077-0.823-0.077c-0.64,0-1.237,0.126-1.791,0.378c-0.552,0.253-1.033,0.612-1.44,1.078
			c-0.408,0.465-0.728,1.031-0.961,1.696c-0.233,0.665-0.35,1.41-0.35,2.234c0,0.602,0.081,1.144,0.24,1.627
			c0.161,0.483,0.383,0.893,0.67,1.229c0.286,0.338,0.628,0.596,1.026,0.775C110.281,74.483,110.721,74.573,111.201,74.573z"/>
		<path fill="#A26B55" d="M122.199,66.021c-0.054,0.083-0.117,0.124-0.189,0.124c-0.058,0-0.128-0.046-0.211-0.138
			c-0.083-0.093-0.195-0.194-0.338-0.302c-0.144-0.109-0.329-0.21-0.554-0.303c-0.225-0.092-0.508-0.138-0.848-0.138
			c-0.369,0-0.698,0.06-0.987,0.179c-0.288,0.119-0.533,0.281-0.735,0.488c-0.201,0.206-0.355,0.446-0.462,0.72
			c-0.106,0.274-0.16,0.567-0.16,0.877c0,0.296,0.061,0.545,0.182,0.746c0.122,0.201,0.281,0.374,0.477,0.518
			c0.196,0.142,0.42,0.266,0.669,0.371c0.25,0.104,0.507,0.207,0.771,0.306c0.265,0.1,0.521,0.209,0.771,0.328
			s0.474,0.264,0.67,0.433c0.196,0.17,0.355,0.375,0.477,0.619c0.121,0.243,0.182,0.541,0.182,0.895c0,0.466-0.08,0.909-0.24,1.329
			c-0.16,0.42-0.39,0.786-0.688,1.099c-0.298,0.313-0.661,0.562-1.088,0.747c-0.427,0.184-0.905,0.277-1.434,0.277
			c-0.622,0-1.146-0.121-1.572-0.361c-0.427-0.24-0.786-0.569-1.078-0.986l0.24-0.313c0.068-0.068,0.136-0.103,0.204-0.103
			c0.044,0,0.093,0.029,0.149,0.087s0.124,0.13,0.204,0.215c0.081,0.085,0.175,0.177,0.285,0.276c0.109,0.1,0.241,0.192,0.396,0.277
			c0.155,0.085,0.336,0.157,0.542,0.215c0.207,0.058,0.445,0.087,0.717,0.087c0.407,0,0.776-0.069,1.106-0.208
			s0.612-0.329,0.844-0.571c0.233-0.243,0.411-0.528,0.535-0.855c0.124-0.328,0.186-0.681,0.186-1.059
			c0-0.301-0.061-0.553-0.182-0.753c-0.122-0.202-0.281-0.373-0.477-0.513s-0.42-0.26-0.67-0.357
			c-0.25-0.096-0.505-0.194-0.768-0.291c-0.262-0.098-0.52-0.204-0.771-0.321c-0.253-0.116-0.477-0.261-0.673-0.433
			c-0.196-0.172-0.354-0.383-0.473-0.633c-0.119-0.25-0.178-0.557-0.178-0.92c0-0.394,0.07-0.772,0.211-1.136
			c0.141-0.365,0.343-0.686,0.608-0.965c0.264-0.279,0.588-0.501,0.972-0.666c0.383-0.165,0.82-0.248,1.31-0.248
			c0.495,0,0.929,0.091,1.303,0.273c0.373,0.182,0.696,0.448,0.968,0.797L122.199,66.021z"/>
		<path fill="#A26B55" d="M123.931,64.776h0.561c0.146,0,0.223,0.063,0.233,0.189l1.368,8.56c0.01,0.092,0.018,0.187,0.025,0.284
			c0.007,0.096,0.016,0.199,0.026,0.306c0.068-0.219,0.138-0.415,0.21-0.589l3.72-8.56c0.024-0.053,0.061-0.098,0.109-0.135
			c0.048-0.036,0.106-0.054,0.174-0.054h0.16c0.126,0,0.207,0.063,0.24,0.189l1.608,8.56c0.015,0.087,0.028,0.18,0.041,0.28
			c0.012,0.1,0.023,0.203,0.033,0.31c0.029-0.107,0.059-0.209,0.091-0.306c0.031-0.097,0.064-0.192,0.098-0.284l3.464-8.56
			c0.015-0.053,0.051-0.098,0.11-0.135c0.058-0.036,0.121-0.054,0.188-0.054h0.553l-4.243,10.299h-0.648l-1.688-8.975
			c-0.01-0.053-0.019-0.112-0.026-0.175c-0.007-0.063-0.013-0.127-0.019-0.196c-0.023,0.068-0.047,0.133-0.069,0.196
			c-0.022,0.063-0.044,0.122-0.069,0.175l-3.895,8.975h-0.641L123.931,64.776z"/>
		<path fill="#A26B55" d="M144.405,65.373h-4.957l-0.517,4.193h4.127l-0.08,0.582h-4.12l-0.531,4.331h4.978l-0.08,0.597h-5.699
			l1.267-10.299h5.691L144.405,65.373z"/>
		<path fill="#A26B55" d="M152.325,65.373h-4.957l-0.517,4.193h4.126l-0.08,0.582h-4.12l-0.531,4.331h4.979l-0.08,0.597h-5.7
			l1.267-10.299h5.692L152.325,65.373z"/>
		<path fill="#A26B55" d="M155.134,64.802c0.029,0.017,0.063,0.054,0.103,0.113l4.993,8.967c0.004-0.068,0.008-0.132,0.011-0.193
			c0.002-0.06,0.009-0.117,0.018-0.171l1.077-8.741h0.633l-1.266,10.299h-0.335c-0.063,0-0.113-0.014-0.153-0.04
			c-0.039-0.027-0.077-0.067-0.116-0.12l-5-8.967l-0.022,0.328l-1.077,8.799h-0.633l1.267-10.299h0.356
			C155.056,64.776,155.105,64.784,155.134,64.802z"/>
	</g>
	<g>
		<path fill="#A26B55" d="M74.314,44.226c0.128-0.205,0.289-0.339,0.48-0.404c0.193-0.063,0.352-0.058,0.48,0.02
			c0.128,0.077,0.198,0.218,0.211,0.422c0.013,0.206-0.083,0.461-0.289,0.769c-0.128,0.206-0.448,0.66-0.96,1.365
			c-0.513,0.705-1.141,1.524-1.883,2.459c-0.744,0.936-1.563,1.921-2.46,2.959c-0.897,1.038-1.793,1.992-2.69,2.863
			c-0.896,0.871-1.755,1.589-2.575,2.152c-0.82,0.564-1.524,0.846-2.114,0.846c-0.744,0-1.345-0.142-1.807-0.423
			c-0.461-0.281-0.82-0.64-1.076-1.076c-0.256-0.436-0.436-0.928-0.538-1.479c-0.103-0.551-0.154-1.082-0.154-1.595
			c0-0.539,0.173-1.185,0.519-1.941c0.346-0.756,0.768-1.563,1.268-2.421c0.5-0.858,1.025-1.749,1.576-2.671
			c0.551-0.923,1.031-1.832,1.441-2.729c-0.563,0.23-1.288,0.467-2.171,0.71s-1.851,0.365-2.901,0.365
			c-0.282,0-0.596-0.051-0.941-0.154c-0.346-0.102-0.673-0.327-0.98-0.672c-0.307-0.346-0.563-0.839-0.769-1.479
			c-0.206-0.641-0.308-1.499-0.308-2.575c0-1.486,0.25-2.863,0.75-4.132c0.5-1.268,1.12-2.356,1.864-3.267
			c0.743-0.909,1.531-1.62,2.364-2.133c0.832-0.513,1.582-0.769,2.248-0.769c0.717,0,1.332,0.218,1.845,0.653
			c0.513,0.436,0.769,1.051,0.769,1.844c0,0.385-0.077,0.833-0.23,1.345c-0.154,0.513-0.359,1.045-0.615,1.596
			c-0.256,0.55-0.545,1.121-0.865,1.71c-0.321,0.589-0.647,1.153-0.98,1.691c-0.795,1.281-1.678,2.613-2.652,3.997
			c0.948-0.486,1.831-0.948,2.652-1.384c0.691-0.358,1.364-0.704,2.017-1.038c0.653-0.333,1.083-0.563,1.288-0.692
			c0.256-0.153,0.513-0.313,0.769-0.481c0.256-0.166,0.538-0.121,0.846,0.135c0.153,0.129,0.428,0.353,0.826,0.673
			c0.396,0.321,0.75,0.699,1.057,1.134c0.308,0.436,0.506,0.91,0.596,1.422c0.09,0.513-0.083,1.013-0.519,1.5
			c-0.052,0.051-0.09,0.096-0.116,0.134c-0.025,0.038-0.064,0.083-0.115,0.134c-0.333,0.436-0.782,1.038-1.346,1.807
			c-0.564,0.768-1.153,1.601-1.768,2.498s-1.205,1.8-1.769,2.709c-0.563,0.91-1.005,1.743-1.326,2.499s-0.474,1.371-0.46,1.845
			c0.012,0.474,0.301,0.711,0.865,0.711v0.039c0.281,0,0.838-0.358,1.671-1.076c0.832-0.717,1.768-1.634,2.806-2.748
			c1.037-1.115,2.114-2.351,3.228-3.709C72.488,46.826,73.468,45.507,74.314,44.226z M58.595,39.383
			c0,0.359,0.032,0.667,0.096,0.922c0.063,0.256,0.147,0.475,0.25,0.654c0.102,0.205,0.23,0.384,0.384,0.538
			c0.538-1.024,1.076-2.005,1.614-2.94c0.538-0.935,0.987-1.761,1.346-2.479c0.358-0.716,0.589-1.287,0.692-1.71
			c0.102-0.423-0.013-0.634-0.346-0.634c-0.333,0-0.73,0.205-1.191,0.615c-0.461,0.41-0.903,0.91-1.326,1.499
			c-0.423,0.59-0.782,1.211-1.076,1.865C58.742,38.365,58.595,38.922,58.595,39.383z"/>
		<path fill="#A26B55" d="M85.575,44.072c0.154-0.205,0.32-0.333,0.5-0.385c0.179-0.051,0.339-0.039,0.48,0.039
			c0.141,0.077,0.217,0.218,0.23,0.423c0.013,0.205-0.083,0.461-0.289,0.769c-0.128,0.205-0.455,0.66-0.98,1.364
			c-0.525,0.705-1.159,1.525-1.902,2.46c-0.743,0.936-1.563,1.928-2.459,2.978c-0.897,1.051-1.793,2.012-2.69,2.883
			c-0.897,0.871-1.755,1.589-2.576,2.152c-0.82,0.564-1.524,0.845-2.113,0.845c-0.743,0-1.345-0.173-1.806-0.519
			c-0.461-0.346-0.82-0.781-1.077-1.307c-0.256-0.525-0.423-1.095-0.499-1.71c-0.077-0.616-0.09-1.179-0.039-1.691
			c0.051-0.692,0.307-1.493,0.768-2.402c0.461-0.909,1-1.889,1.615-2.94s1.249-2.146,1.902-3.287c0.653-1.14,1.21-2.287,1.672-3.439
			c0.077-0.179,0.127-0.371,0.154-0.577c0.025-0.205,0.063-0.39,0.115-0.557c0.051-0.167,0.128-0.301,0.23-0.403
			c0.102-0.102,0.269-0.154,0.5-0.154c0.231,0,0.5,0.096,0.807,0.289c0.308,0.192,0.589,0.475,0.846,0.846
			c0.256,0.371,0.461,0.839,0.615,1.403c0.153,0.564,0.192,1.217,0.115,1.96c-0.052,0.513-0.294,1.172-0.73,1.979
			c-0.436,0.807-0.942,1.672-1.518,2.595c-0.577,0.922-1.16,1.851-1.749,2.786c-0.59,0.936-1.051,1.787-1.383,2.556
			c-0.333,0.769-0.48,1.39-0.442,1.864c0.039,0.474,0.391,0.711,1.057,0.711c0.282,0,0.839-0.358,1.672-1.076
			c0.833-0.717,1.768-1.633,2.806-2.748c1.037-1.115,2.114-2.351,3.228-3.709C83.749,46.711,84.729,45.378,85.575,44.072z
			 M81.693,37.5c-0.23,0-0.48-0.096-0.749-0.288c-0.27-0.192-0.519-0.48-0.75-0.865c-0.23-0.384-0.417-0.851-0.557-1.402
			c-0.141-0.551-0.173-1.173-0.096-1.865c0.051-0.691,0.192-1.28,0.423-1.768c0.23-0.487,0.486-0.871,0.769-1.153
			c0.282-0.281,0.576-0.486,0.884-0.615c0.307-0.128,0.576-0.193,0.807-0.193c0.23,0,0.544,0.071,0.941,0.211
			c0.397,0.141,0.788,0.327,1.172,0.558c0.385,0.231,0.711,0.494,0.98,0.788c0.27,0.295,0.391,0.609,0.366,0.942
			c-0.026,0.333-0.116,0.609-0.27,0.826c-0.154,0.218-0.346,0.442-0.576,0.673c-0.231,0.23-0.487,0.506-0.769,0.826
			c-0.282,0.321-0.577,0.737-0.884,1.25c-0.308,0.513-0.539,0.91-0.692,1.191c-0.154,0.282-0.282,0.487-0.384,0.615
			c-0.103,0.128-0.192,0.205-0.269,0.23C81.962,37.487,81.847,37.5,81.693,37.5z"/>
		<path fill="#A26B55" d="M100.217,43.995c0.154-0.205,0.32-0.339,0.5-0.403c0.179-0.063,0.339-0.058,0.48,0.019
			c0.14,0.077,0.218,0.218,0.23,0.423c0.013,0.206-0.083,0.461-0.289,0.769c-0.153,0.257-0.417,0.641-0.788,1.153
			c-0.372,0.513-0.884,1.057-1.537,1.634c-0.653,0.577-1.493,1.133-2.518,1.672c-1.025,0.538-2.268,0.948-3.728,1.229v0.269
			c-0.026,1.436-0.244,2.601-0.653,3.498S91,55.851,90.398,56.351c-0.603,0.5-1.23,0.845-1.884,1.037
			c-0.653,0.192-1.237,0.289-1.749,0.289c-0.23,0-0.551-0.058-0.961-0.174c-0.41-0.115-0.826-0.301-1.249-0.557
			c-0.423-0.255-0.788-0.602-1.095-1.037C83.154,55.473,83,54.948,83,54.333c0-0.41,0.083-0.782,0.25-1.114
			c0.166-0.333,0.391-0.647,0.672-0.941s0.602-0.551,0.961-0.769c0.358-0.218,0.729-0.416,1.114-0.596
			c0.871-0.409,1.87-0.743,2.998-0.999c0.127-0.871,0.23-1.781,0.307-2.729c0.051-0.82,0.077-1.723,0.077-2.709
			c0-0.986-0.09-1.966-0.27-2.94c-0.025-0.051-0.038-0.102-0.038-0.154v-0.384c-0.384,0.64-0.82,1.333-1.306,2.075
			c-0.488,0.743-0.987,1.473-1.499,2.19c-0.18,0.257-0.365,0.404-0.557,0.442c-0.192,0.039-0.346,0.013-0.461-0.077
			c-0.115-0.089-0.18-0.23-0.192-0.423c-0.013-0.192,0.058-0.403,0.211-0.634c0.333-0.486,0.711-1.05,1.134-1.69
			c0.423-0.64,0.838-1.307,1.249-1.999c0.409-0.692,0.788-1.383,1.134-2.075c0.345-0.692,0.595-1.32,0.749-1.884
			c0.051-0.23,0.128-0.505,0.23-0.826c0.103-0.32,0.211-0.615,0.327-0.884c0.116-0.269,0.25-0.467,0.404-0.596
			c0.154-0.128,0.32-0.128,0.5,0c0.231,0.179,0.538,0.417,0.922,0.711c0.384,0.294,0.762,0.64,1.134,1.037
			c0.371,0.397,0.692,0.839,0.961,1.326s0.403,0.999,0.403,1.537c0,0.513-0.09,0.955-0.269,1.326
			c-0.18,0.372-0.378,0.865-0.595,1.479c-0.219,0.615-0.423,1.467-0.615,2.556c-0.192,1.089-0.314,2.62-0.365,4.593
			c1.665-0.358,3.113-0.948,4.343-1.768C98.142,46.595,99.244,45.455,100.217,43.995z M84.268,54.563
			c0,0.436,0.186,0.744,0.557,0.923c0.371,0.179,0.807,0.167,1.307-0.039c0.5-0.205,1.019-0.634,1.557-1.287s0.96-1.607,1.268-2.863
			c-0.897,0.257-1.679,0.538-2.344,0.846c-0.59,0.282-1.128,0.622-1.615,1.018C84.511,53.558,84.268,54.026,84.268,54.563z"/>
		<path fill="#A26B55" d="M121.701,35.54c0.102,0.358,0.102,0.622,0,0.787c-0.103,0.167-0.219,0.276-0.346,0.327
			c-0.179,0.077-0.384,0.103-0.615,0.077c0-0.282-0.148-0.615-0.442-0.999c-0.295-0.385-0.73-0.755-1.307-1.115
			c-0.576-0.358-1.274-0.659-2.094-0.903c-0.82-0.243-1.768-0.365-2.844-0.365c-0.41,0-0.813,0-1.21,0
			c-0.397,0-0.788,0.013-1.172,0.039c-0.794,1.435-1.678,2.978-2.651,4.631c-0.974,1.652-1.948,3.305-2.921,4.958
			c-0.974,1.652-1.896,3.241-2.767,4.765c-0.872,1.525-1.582,2.876-2.133,4.055c-0.551,1.178-0.896,2.12-1.037,2.824
			c-0.142,0.705,0.019,1.057,0.48,1.057c0.282,0,0.851-0.359,1.71-1.076c0.858-0.717,1.826-1.634,2.901-2.748
			c1.077-1.115,2.184-2.345,3.325-3.689c1.14-1.345,2.133-2.658,2.979-3.939c0.128-0.205,0.289-0.339,0.48-0.404
			c0.192-0.063,0.352-0.058,0.48,0.02c0.127,0.077,0.198,0.218,0.211,0.422c0.013,0.206-0.083,0.461-0.288,0.769
			c-0.129,0.206-0.456,0.66-0.98,1.365c-0.525,0.705-1.172,1.524-1.94,2.459c-0.769,0.936-1.615,1.921-2.537,2.959
			c-0.922,1.038-1.839,1.992-2.748,2.863c-0.91,0.871-1.781,1.589-2.614,2.152c-0.833,0.564-1.544,0.846-2.133,0.846
			c-0.718,0-1.293-0.148-1.729-0.443c-0.436-0.294-0.775-0.659-1.018-1.095c-0.244-0.436-0.404-0.917-0.481-1.441
			c-0.076-0.525-0.115-1.019-0.115-1.479c0-0.436,0.14-1.044,0.423-1.825c0.281-0.782,0.666-1.679,1.153-2.691
			c0.486-1.011,1.057-2.119,1.71-3.324c0.653-1.204,1.339-2.453,2.056-3.747s1.454-2.613,2.21-3.959
			c0.755-1.345,1.493-2.658,2.21-3.939c-0.667,0.052-1.358,0.077-2.076,0.077c-0.717,0-1.459,0-2.229,0
			c-1.076,0-1.986-0.097-2.729-0.289c-0.743-0.192-1.364-0.442-1.864-0.749c-0.5-0.308-0.891-0.653-1.173-1.038
			c-0.282-0.384-0.5-0.768-0.653-1.152c-0.23-0.666-0.237-1.076-0.019-1.23c0.217-0.153,0.493-0.089,0.827,0.193
			c0.563,0.461,1.319,0.878,2.268,1.249c0.947,0.372,2.088,0.558,3.42,0.558c1.153,0,2.223-0.032,3.209-0.096
			c0.986-0.063,1.812-0.135,2.479-0.212c0.973-1.818,1.762-3.42,2.363-4.804s0.904-2.396,0.904-3.036
			c0-0.281,0.192-0.409,0.576-0.384c0.384,0.026,0.813,0.212,1.287,0.557c0.474,0.346,0.903,0.846,1.288,1.499
			s0.577,1.467,0.577,2.441c0,0.333-0.115,0.807-0.346,1.421c-0.231,0.615-0.564,1.333-0.999,2.152h1.114
			c1.204,0,2.248,0.148,3.132,0.442c0.884,0.295,1.634,0.667,2.249,1.114c0.615,0.449,1.096,0.948,1.441,1.499
			C121.297,34.496,121.547,35.027,121.701,35.54z"/>
		<path fill="#A26B55" d="M125.274,44.264c0.154-0.205,0.32-0.339,0.5-0.403c0.179-0.064,0.34-0.058,0.48,0.019
			c0.14,0.077,0.218,0.218,0.231,0.423c0.012,0.206-0.083,0.46-0.289,0.769c-0.128,0.206-0.475,0.66-1.038,1.364
			c-0.564,0.706-1.268,1.525-2.114,2.459c-0.846,0.936-1.781,1.922-2.806,2.96c-1.025,1.038-2.069,1.985-3.131,2.844
			c-1.064,0.859-2.102,1.57-3.114,2.133c-1.012,0.564-1.928,0.846-2.748,0.846c-0.692-0.052-1.307-0.256-1.845-0.616
			c-0.46-0.307-0.883-0.774-1.268-1.403c-0.384-0.627-0.576-1.543-0.576-2.748c0-1.153,0.23-2.312,0.692-3.478
			c0.461-1.166,1.057-2.28,1.787-3.344c0.73-1.063,1.543-2.056,2.44-2.978c0.897-0.922,1.774-1.729,2.633-2.421
			c0.858-0.692,1.659-1.23,2.402-1.614c0.743-0.385,1.332-0.577,1.768-0.577c0.256,0,0.538,0.058,0.845,0.173
			c0.307,0.115,0.595,0.327,0.865,0.634c0.269,0.308,0.5,0.744,0.692,1.307s0.288,1.307,0.288,2.229
			c0,0.615-0.205,1.288-0.615,2.018c-0.41,0.73-0.936,1.461-1.576,2.191c-0.641,0.73-1.352,1.441-2.133,2.133
			c-0.782,0.692-1.55,1.307-2.306,1.845s-1.447,0.967-2.075,1.288c-0.628,0.321-1.109,0.48-1.442,0.48
			c-0.23,0.487-0.384,0.922-0.461,1.306c-0.051,0.334-0.019,0.628,0.096,0.884c0.116,0.256,0.429,0.384,0.942,0.384
			c0.64,0,1.511-0.339,2.613-1.019c1.102-0.679,2.273-1.55,3.517-2.613c1.242-1.063,2.465-2.254,3.67-3.574
			C123.404,46.845,124.43,45.545,125.274,44.264z M118.896,43.264c-0.154,0-0.372,0.116-0.654,0.346
			c-0.282,0.231-0.583,0.538-0.903,0.922c-0.321,0.385-0.667,0.82-1.038,1.307c-0.372,0.486-0.736,0.974-1.095,1.46
			c-0.845,1.204-1.755,2.549-2.729,4.035c1.307-0.769,2.434-1.621,3.382-2.556c0.948-0.935,1.704-1.813,2.268-2.633
			c0.563-0.82,0.909-1.505,1.038-2.056C119.292,43.54,119.202,43.264,118.896,43.264z"/>
		<path fill="#A26B55" d="M124.775,57.677c-0.718,0-1.294-0.161-1.729-0.481c-0.436-0.32-0.775-0.711-1.019-1.172
			c-0.244-0.461-0.403-0.966-0.48-1.518c-0.077-0.55-0.115-1.057-0.115-1.518c0-0.538,0.198-1.307,0.596-2.306
			c0.397-1,0.922-2.139,1.576-3.42c0.654-1.281,1.396-2.671,2.229-4.17c0.833-1.499,1.685-3.017,2.556-4.554
			c0.871-1.537,1.723-3.055,2.556-4.554c0.832-1.499,1.576-2.889,2.229-4.17c0.653-1.281,1.178-2.414,1.576-3.401
			c0.397-0.986,0.596-1.736,0.596-2.249c0-0.282,0.19-0.41,0.57-0.385c0.38,0.026,0.799,0.211,1.255,0.558
			c0.456,0.346,0.874,0.846,1.255,1.499c0.38,0.653,0.57,1.467,0.57,2.44c0,0.487-0.235,1.25-0.703,2.287
			c-0.469,1.038-1.084,2.243-1.845,3.612c-0.761,1.371-1.615,2.858-2.563,4.459c-0.948,1.602-1.89,3.196-2.825,4.784
			c-0.935,1.589-1.819,3.12-2.651,4.593c-0.833,1.473-1.512,2.78-2.037,3.92c-0.526,1.14-0.846,2.05-0.961,2.729
			c-0.115,0.679,0.057,1.019,0.519,1.019c0.282,0,0.846-0.371,1.691-1.115c0.846-0.743,1.807-1.684,2.883-2.825
			c1.076-1.14,2.183-2.395,3.323-3.766c1.14-1.371,2.127-2.696,2.965-3.978c0.126-0.205,0.285-0.339,0.475-0.403
			c0.19-0.063,0.349-0.058,0.476,0.019s0.196,0.218,0.209,0.423c0.013,0.206-0.082,0.461-0.285,0.769
			c-0.126,0.205-0.45,0.667-0.97,1.383c-0.52,0.718-1.163,1.551-1.929,2.498c-0.768,0.949-1.611,1.955-2.534,3.017
			c-0.923,1.064-1.839,2.037-2.748,2.921c-0.91,0.884-1.774,1.615-2.594,2.191C126.068,57.388,125.364,57.677,124.775,57.677z"/>
		<path fill="#A26B55" d="M135.997,57.677c-0.718,0-1.293-0.161-1.729-0.481c-0.436-0.32-0.775-0.711-1.019-1.172
			s-0.403-0.966-0.48-1.518c-0.076-0.55-0.115-1.057-0.115-1.518c0-0.538,0.198-1.307,0.595-2.306c0.397-1,0.923-2.139,1.576-3.42
			c0.653-1.281,1.396-2.671,2.229-4.17c0.833-1.499,1.685-3.017,2.556-4.554c0.87-1.537,1.722-3.055,2.555-4.554
			c0.833-1.499,1.576-2.889,2.229-4.17c0.653-1.281,1.178-2.414,1.575-3.401c0.397-0.986,0.596-1.736,0.596-2.249
			c0-0.282,0.189-0.41,0.57-0.385c0.38,0.026,0.799,0.211,1.255,0.558s0.875,0.846,1.255,1.499c0.38,0.653,0.57,1.467,0.57,2.44
			c0,0.487-0.235,1.25-0.704,2.287c-0.469,1.038-1.084,2.243-1.845,3.612c-0.761,1.371-1.615,2.858-2.563,4.459
			c-0.948,1.602-1.89,3.196-2.825,4.784c-0.936,1.589-1.819,3.12-2.651,4.593c-0.833,1.473-1.512,2.78-2.037,3.92
			c-0.525,1.14-0.846,2.05-0.961,2.729c-0.115,0.679,0.058,1.019,0.519,1.019c0.281,0,0.845-0.371,1.691-1.115
			c0.846-0.743,1.807-1.684,2.882-2.825c1.076-1.14,2.184-2.395,3.323-3.766c1.14-1.371,2.127-2.696,2.964-3.978
			c0.126-0.205,0.285-0.339,0.475-0.403c0.19-0.063,0.349-0.058,0.476,0.019s0.197,0.218,0.209,0.423
			c0.013,0.206-0.082,0.461-0.285,0.769c-0.126,0.205-0.45,0.667-0.969,1.383c-0.521,0.718-1.164,1.551-1.93,2.498
			c-0.767,0.949-1.611,1.955-2.534,3.017c-0.922,1.064-1.839,2.037-2.748,2.921c-0.91,0.884-1.774,1.615-2.594,2.191
			C137.29,57.388,136.586,57.677,135.997,57.677z"/>
		<path fill="#A26B55" d="M161.4,44.264c0.153-0.205,0.32-0.339,0.5-0.403c0.179-0.064,0.339-0.058,0.48,0.019
			c0.141,0.077,0.218,0.218,0.231,0.423c0.013,0.206-0.083,0.46-0.288,0.769c-0.129,0.206-0.475,0.66-1.038,1.364
			c-0.564,0.706-1.269,1.525-2.114,2.459c-0.846,0.936-1.781,1.922-2.806,2.96c-1.025,1.038-2.069,1.985-3.132,2.844
			c-1.064,0.859-2.101,1.57-3.113,2.133c-1.012,0.564-1.928,0.846-2.748,0.846c-0.692-0.052-1.307-0.256-1.845-0.616
			c-0.461-0.307-0.884-0.774-1.268-1.403c-0.384-0.627-0.576-1.543-0.576-2.748c0-1.153,0.23-2.312,0.691-3.478
			s1.057-2.28,1.788-3.344c0.73-1.063,1.543-2.056,2.44-2.978c0.896-0.922,1.773-1.729,2.632-2.421
			c0.858-0.692,1.659-1.23,2.402-1.614c0.743-0.385,1.332-0.577,1.768-0.577c0.256,0,0.538,0.058,0.846,0.173
			c0.307,0.115,0.595,0.327,0.864,0.634c0.269,0.308,0.5,0.744,0.692,1.307c0.192,0.563,0.288,1.307,0.288,2.229
			c0,0.615-0.205,1.288-0.615,2.018c-0.41,0.73-0.936,1.461-1.576,2.191c-0.641,0.73-1.352,1.441-2.133,2.133
			c-0.782,0.692-1.55,1.307-2.306,1.845c-0.756,0.538-1.448,0.967-2.076,1.288c-0.628,0.321-1.108,0.48-1.441,0.48
			c-0.231,0.487-0.384,0.922-0.461,1.306c-0.051,0.334-0.019,0.628,0.097,0.884c0.115,0.256,0.429,0.384,0.942,0.384
			c0.64,0,1.511-0.339,2.613-1.019c1.101-0.679,2.273-1.55,3.517-2.613c1.243-1.063,2.466-2.254,3.67-3.574
			C159.53,46.845,160.555,45.545,161.4,44.264z M155.021,43.264c-0.154,0-0.372,0.116-0.653,0.346
			c-0.282,0.231-0.583,0.538-0.903,0.922c-0.32,0.385-0.667,0.82-1.038,1.307c-0.371,0.486-0.737,0.974-1.095,1.46
			c-0.845,1.204-1.755,2.549-2.728,4.035c1.306-0.769,2.434-1.621,3.382-2.556c0.947-0.935,1.704-1.813,2.268-2.633
			c0.563-0.82,0.909-1.505,1.038-2.056C155.417,43.54,155.328,43.264,155.021,43.264z"/>
	</g>
</g>
</svg>
