<?xml version="1.0" encoding="utf-8"?>
<!-- Generator: Adobe Illustrator 16.0.0, SVG Export Plug-In . SVG Version: 6.00 Build 0)  -->
<!DOCTYPE svg PUBLIC "-//W3C//DTD SVG 1.1//EN" "http://www.w3.org/Graphics/SVG/1.1/DTD/svg11.dtd">
<svg version="1.1" id="Layer_1" xmlns="http://www.w3.org/2000/svg" xmlns:xlink="http://www.w3.org/1999/xlink" x="0px" y="0px"
	 width="1472.7px" height="621.697px" viewBox="0 0 1472.7 621.697" enable-background="new 0 0 1472.7 621.697"
	 xml:space="preserve">
<g id="Layer_2" display="none">
	<rect x="530" y="308" display="inline" fill="#EEEEEE" width="500" height="375"/>
</g>
<rect x="536.701" y="-0.3" fill="#E0E0E0" width="936" height="622"/>
<rect fill="#D5D5D5" width="537" height="622"/>
<g>
	<rect x="1047" y="-111" fill="#CD7F48" width="63" height="64"/>
	<path fill="#263344" d="M1072.711-111H1047v47.128V-47h24v-15h39v-49H1072.711z M1092-80h-21v-13h21V-80z"/>
	<text transform="matrix(1 0 0 1 1119.0801 -84.0752)" fill="#263344" font-family="'OpenSans-Extrabold'" font-size="35.3503">presentey</text>
	<text transform="matrix(1 0 0 1 1119.0801 -50.0303)" fill="#263344" font-family="'Muli'" font-size="29.7264">engineering</text>
</g>
<g>
	<path fill="#263344" d="M87.264,290.182c0,1.775-0.523,3.145-1.569,4.112c-1.047,0.967-2.533,1.451-4.46,1.451H80.03v5.269h-4.291
		v-15.882h5.496c2.007,0,3.513,0.438,4.52,1.314C86.761,287.322,87.264,288.567,87.264,290.182z M80.029,292.247h0.782
		c0.645,0,1.156-0.181,1.537-0.543c0.38-0.362,0.57-0.862,0.57-1.499c0-1.072-0.595-1.608-1.782-1.608h-1.106V292.247z"/>
	<path fill="#263344" d="M93.648,295.234v5.779h-4.291v-15.882h5.203c4.316,0,6.475,1.564,6.475,4.693
		c0,1.84-0.898,3.263-2.694,4.27l4.628,6.92h-4.866l-3.368-5.779L93.648,295.234L93.648,295.234z M93.648,292.007h0.804
		c1.499,0,2.249-0.663,2.249-1.988c0-1.094-0.735-1.641-2.206-1.641h-0.847V292.007z"/>
	<path fill="#263344" d="M113.949,301.013h-9.429v-15.882h9.429v3.444h-5.138v2.499h4.758v3.444h-4.758v2.998h5.138V301.013z"/>
	<path fill="#263344" d="M127.268,296.19c0,0.985-0.25,1.859-0.749,2.624c-0.5,0.764-1.221,1.358-2.162,1.781
		c-0.941,0.424-2.046,0.636-3.313,0.636c-1.058,0-1.944-0.074-2.661-0.223c-0.717-0.149-1.463-0.407-2.238-0.777v-3.824
		c0.818,0.42,1.669,0.748,2.553,0.983c0.884,0.235,1.695,0.353,2.434,0.353c0.638,0,1.104-0.11,1.401-0.331
		c0.297-0.221,0.445-0.505,0.445-0.853c0-0.217-0.06-0.407-0.179-0.57c-0.12-0.163-0.312-0.328-0.576-0.494
		c-0.264-0.166-0.969-0.507-2.113-1.021c-1.035-0.471-1.813-0.927-2.33-1.369c-0.519-0.441-0.901-0.949-1.151-1.521
		c-0.25-0.572-0.375-1.249-0.375-2.031c0-1.463,0.532-2.604,1.598-3.422c1.064-0.818,2.527-1.228,4.389-1.228
		c1.644,0,3.32,0.38,5.029,1.141l-1.314,3.313c-1.484-0.681-2.767-1.021-3.846-1.021c-0.558,0-0.963,0.098-1.217,0.293
		c-0.253,0.195-0.38,0.438-0.38,0.728c0,0.311,0.161,0.59,0.483,0.836c0.322,0.246,1.196,0.695,2.624,1.347
		c1.368,0.616,2.319,1.277,2.852,1.983C127.005,294.229,127.268,295.118,127.268,296.19z"/>
	<path fill="#263344" d="M139.125,301.013h-9.429v-15.882h9.429v3.444h-5.138v2.499h4.758v3.444h-4.758v2.998h5.138V301.013z"/>
	<path fill="#263344" d="M157.07,301.013h-5.627l-5.801-11.189h-0.098c0.137,1.76,0.206,3.104,0.206,4.03v7.159h-3.802v-15.882
		h5.604l5.779,11.037h0.064c-0.101-1.601-0.151-2.886-0.151-3.856v-7.181h3.823v15.882H157.07z"/>
	<path fill="#263344" d="M167.208,301.013h-4.291V288.64h-3.879v-3.509h12.037v3.509h-3.867V301.013z"/>
	<path fill="#263344" d="M182.461,301.013h-9.429v-15.882h9.429v3.444h-5.138v2.499h4.758v3.444h-4.758v2.998h5.138V301.013z"/>
	<path fill="#263344" d="M191.211,291.019l2.738-5.888h4.649l-5.226,9.679v6.203h-4.323v-6.073l-5.226-9.81h4.671L191.211,291.019z"
		/>
</g>
<g>
	<path fill="#263344" d="M75.851,322.931V309.75h7.894v1.458H77.58v4.146h5.82v1.467h-5.821v4.652h6.428v1.458H75.851z"/>
	<path fill="#263344" d="M86.395,322.931V309.75h1.837l6.355,9.271l0.978,1.538v-10.81h1.647v13.181h-1.847l-6.192-8.926
		l-1.158-1.811v10.736H86.395z"/>
	<path fill="#263344" d="M106.541,323.13c-1.418,0-2.632-0.272-3.64-0.819c-1.008-0.546-1.764-1.31-2.268-2.291
		c-0.504-0.979-0.756-2.135-0.756-3.462c0-1.352,0.285-2.562,0.855-3.63c0.57-1.067,1.375-1.903,2.413-2.508
		c1.038-0.603,2.221-0.905,3.549-0.905c1.707,0,3.153,0.441,4.336,1.322l-0.697,1.204c-1.044-0.712-2.245-1.068-3.603-1.068
		c-1.002,0-1.89,0.239-2.662,0.715c-0.772,0.478-1.365,1.134-1.778,1.97c-0.414,0.836-0.62,1.778-0.62,2.829
		c0,1.582,0.422,2.841,1.267,3.779c0.846,0.938,2.07,1.408,3.676,1.408c1.093,0,2.052-0.157,2.879-0.471v-3.73h-3.331v-1.476h5.051
		v6.174C109.813,322.811,108.255,323.13,106.541,323.13z"/>
	<path fill="#263344" d="M114.47,322.931V309.75h1.729v13.181H114.47z"/>
	<path fill="#263344" d="M119.58,322.931V309.75h1.837l6.355,9.271l0.978,1.538v-10.81h1.647v13.181h-1.847l-6.192-8.926
		l-1.158-1.811v10.736H119.58z"/>
	<path fill="#263344" d="M133.82,322.931V309.75h7.894v1.458h-6.165v4.146h5.821v1.467h-5.821v4.652h6.428v1.458H133.82z"/>
	<path fill="#263344" d="M144.364,322.931V309.75h7.894v1.458h-6.165v4.146h5.821v1.467h-5.821v4.652h6.428v1.458H144.364z"/>
	<path fill="#263344" d="M154.907,322.931V309.75h4.218c0.544,0,1.029,0.029,1.458,0.086s0.84,0.164,1.235,0.321
		c0.396,0.157,0.723,0.364,0.982,0.62c0.259,0.256,0.467,0.593,0.62,1.009c0.154,0.417,0.231,0.905,0.231,1.466
		c0,0.827-0.212,1.518-0.634,2.073c-0.423,0.556-1.065,0.923-1.929,1.104c0.495,0.157,0.886,0.431,1.173,0.819
		c0.286,0.389,0.577,0.955,0.873,1.697l1.548,3.982h-1.847l-1.448-3.875c-0.205-0.555-0.394-0.963-0.564-1.222
		c-0.173-0.259-0.397-0.451-0.675-0.575c-0.277-0.124-0.661-0.186-1.149-0.186h-2.363v5.856h-1.728V322.931z M156.627,315.616h2.453
		c0.875,0,1.554-0.173,2.037-0.521c0.482-0.347,0.724-0.928,0.724-1.743c0-0.332-0.034-0.619-0.104-0.863
		c-0.069-0.245-0.169-0.448-0.299-0.611s-0.302-0.294-0.516-0.394c-0.215-0.101-0.455-0.171-0.72-0.214
		c-0.266-0.042-0.58-0.063-0.942-0.063c-0.012,0-0.021,0-0.031,0s-0.02,0-0.031,0c-0.013,0-0.024,0-0.036,0h-2.535V315.616z"/>
	<path fill="#263344" d="M167.033,322.931V309.75h1.729v13.181H167.033z"/>
	<path fill="#263344" d="M172.144,322.931V309.75h1.837l6.355,9.271l0.978,1.538v-10.81h1.647v13.181h-1.847l-6.192-8.926
		l-1.158-1.811v10.736H172.144z"/>
	<path fill="#263344" d="M192.29,323.13c-1.418,0-2.632-0.272-3.64-0.819c-1.008-0.546-1.764-1.31-2.268-2.291
		c-0.504-0.979-0.756-2.135-0.756-3.462c0-1.352,0.285-2.562,0.855-3.63c0.57-1.067,1.375-1.903,2.413-2.508
		c1.038-0.603,2.221-0.905,3.549-0.905c1.707,0,3.153,0.441,4.336,1.322l-0.697,1.204c-1.044-0.712-2.245-1.068-3.603-1.068
		c-1.002,0-1.89,0.239-2.662,0.715c-0.772,0.478-1.365,1.134-1.778,1.97c-0.414,0.836-0.62,1.778-0.62,2.829
		c0,1.582,0.422,2.841,1.267,3.779c0.846,0.938,2.07,1.408,3.676,1.408c1.093,0,2.052-0.157,2.879-0.471v-3.73h-3.331v-1.476h5.051
		v6.174C195.562,322.811,194.004,323.13,192.29,323.13z"/>
</g>
<rect x="75" y="155" fill="#CD7F48" width="121" height="117"/>
<path fill="#263344" d="M123.946,155H75v88.823V272h46v-26h75v-91H123.946z M161,214h-40v-27h40V214z"/>
<g>
	<path fill="#263344" d="M329.092,289.792c0,1.761-0.52,3.121-1.558,4.08c-1.039,0.959-2.514,1.439-4.426,1.439h-1.196v5.228h-4.258
		v-15.76h5.454c1.991,0,3.485,0.435,4.484,1.304C328.592,286.953,329.092,288.189,329.092,289.792z M321.912,291.839h0.776
		c0.64,0,1.147-0.179,1.525-0.539c0.377-0.359,0.565-0.855,0.565-1.487c0-1.063-0.589-1.595-1.768-1.595h-1.1v3.621H321.912z"/>
	<path fill="#263344" d="M335.648,294.804v5.735h-4.258v-15.76h5.163c4.283,0,6.425,1.552,6.425,4.657
		c0,1.826-0.891,3.238-2.673,4.236l4.592,6.867h-4.829l-3.342-5.735H335.648z M335.648,291.603h0.798c1.487,0,2.23-0.658,2.23-1.973
		c0-1.085-0.729-1.628-2.188-1.628h-0.841V291.603z"/>
	<path fill="#263344" d="M356.015,300.539h-9.356v-15.76h9.356v3.417h-5.099v2.479h4.722v3.417h-4.722v2.975h5.099V300.539z"/>
	<path fill="#263344" d="M369.628,295.752c0,0.978-0.248,1.845-0.744,2.604c-0.496,0.758-1.211,1.347-2.146,1.768
		c-0.935,0.42-2.03,0.631-3.287,0.631c-1.05,0-1.93-0.074-2.642-0.221c-0.711-0.147-1.451-0.404-2.221-0.771v-3.794
		c0.813,0.417,1.657,0.742,2.533,0.975c0.877,0.234,1.682,0.351,2.415,0.351c0.632,0,1.096-0.109,1.391-0.329
		c0.295-0.22,0.441-0.501,0.441-0.846c0-0.216-0.059-0.404-0.178-0.566c-0.118-0.162-0.309-0.325-0.571-0.491
		c-0.262-0.165-0.961-0.503-2.097-1.013c-1.027-0.467-1.798-0.92-2.312-1.358c-0.515-0.438-0.895-0.941-1.143-1.509
		s-0.372-1.24-0.372-2.016c0-1.451,0.528-2.583,1.584-3.396c1.057-0.812,2.509-1.218,4.354-1.218c1.631,0,3.295,0.377,4.991,1.132
		l-1.305,3.288c-1.475-0.675-2.745-1.013-3.816-1.013c-0.553,0-0.955,0.097-1.207,0.291s-0.377,0.435-0.377,0.722
		c0,0.309,0.159,0.586,0.479,0.83c0.319,0.244,1.188,0.69,2.604,1.336c1.358,0.611,2.301,1.267,2.829,1.967
		C369.36,293.806,369.628,294.689,369.628,295.752z"/>
	<path fill="#263344" d="M381.614,300.539h-9.356v-15.76h9.356v3.417h-5.099v2.479h4.722v3.417h-4.722v2.975h5.099V300.539z"/>
	<path fill="#263344" d="M399.645,300.539h-5.584l-5.756-11.103h-0.097c0.136,1.747,0.204,3.08,0.204,4v7.104h-3.772v-15.76h5.563
		l5.734,10.952H396c-0.101-1.588-0.15-2.864-0.15-3.827v-7.125h3.794V300.539z"/>
	<path fill="#263344" d="M410.118,300.539h-4.258v-12.278h-3.85v-3.482h11.943v3.482h-3.837L410.118,300.539L410.118,300.539z"/>
	<path fill="#263344" d="M425.631,300.539h-9.355v-15.76h9.355v3.417h-5.099v2.479h4.722v3.417h-4.722v2.975h5.099V300.539
		L425.631,300.539z"/>
	<path fill="#263344" d="M434.688,290.622l2.718-5.843h4.612l-5.185,9.604v6.155h-4.291v-6.026l-5.185-9.734h4.635L434.688,290.622z
		"/>
</g>
<g>
	<path fill="#263344" d="M317.784,321.8v-13.198h7.904v1.459h-6.173v4.152h5.828v1.468h-5.828v4.659h6.436v1.459L317.784,321.8
		L317.784,321.8z"/>
	<path fill="#263344" d="M328.527,321.8v-13.198h1.84l6.363,9.282l0.979,1.541v-10.823h1.649V321.8h-1.849l-6.2-8.938l-1.16-1.813
		v10.75L328.527,321.8L328.527,321.8z"/>
	<path fill="#263344" d="M348.886,322c-1.42,0-2.635-0.273-3.644-0.82c-1.01-0.547-1.767-1.311-2.271-2.293
		c-0.505-0.981-0.758-2.138-0.758-3.467c0-1.354,0.286-2.564,0.857-3.635c0.57-1.069,1.376-1.906,2.415-2.511
		c1.04-0.604,2.225-0.906,3.554-0.906c1.71,0,3.157,0.44,4.342,1.323l-0.698,1.205c-1.045-0.713-2.248-1.068-3.607-1.068
		c-1.003,0-1.892,0.239-2.665,0.716c-0.773,0.478-1.367,1.135-1.781,1.972s-0.621,1.781-0.621,2.833c0,1.583,0.423,2.846,1.27,3.785
		c0.846,0.939,2.072,1.41,3.68,1.41c1.094,0,2.055-0.157,2.883-0.472v-3.734h-3.336v-1.478h5.059v6.182
		C352.161,321.68,350.603,322,348.886,322z"/>
	<path fill="#263344" d="M357.011,321.8v-13.198h1.73V321.8H357.011z"/>
	<path fill="#263344" d="M362.313,321.8v-13.198h1.84l6.363,9.282l0.979,1.541v-10.823h1.649V321.8h-1.849l-6.2-8.938l-1.16-1.813
		v10.75L362.313,321.8L362.313,321.8z"/>
	<path fill="#263344" d="M376.757,321.8v-13.198h7.904v1.459h-6.173v4.152h5.828v1.468h-5.828v4.659h6.436v1.459L376.757,321.8
		L376.757,321.8z"/>
	<path fill="#263344" d="M387.5,321.8v-13.198h7.904v1.459h-6.173v4.152h5.828v1.468h-5.828v4.659h6.436v1.459L387.5,321.8
		L387.5,321.8z"/>
	<path fill="#263344" d="M398.243,321.8v-13.198h4.224c0.544,0,1.03,0.029,1.46,0.086c0.429,0.058,0.843,0.166,1.237,0.322
		c0.395,0.157,0.724,0.364,0.982,0.621c0.261,0.257,0.468,0.594,0.621,1.011c0.154,0.417,0.232,0.906,0.232,1.469
		c0,0.827-0.212,1.52-0.635,2.075c-0.423,0.557-1.066,0.926-1.932,1.106c0.495,0.157,0.888,0.431,1.175,0.82
		c0.286,0.389,0.577,0.956,0.874,1.7l1.551,3.987h-1.851l-1.45-3.88c-0.204-0.556-0.395-0.963-0.565-1.224
		c-0.172-0.261-0.397-0.452-0.676-0.576c-0.277-0.124-0.661-0.187-1.15-0.187h-2.366v5.865L398.243,321.8L398.243,321.8z
		 M399.966,314.476h2.456c0.876,0,1.557-0.174,2.04-0.521c0.483-0.348,0.726-0.929,0.726-1.745c0-0.333-0.035-0.621-0.104-0.866
		s-0.169-0.449-0.299-0.611c-0.13-0.163-0.302-0.295-0.518-0.396c-0.215-0.1-0.454-0.17-0.721-0.213
		c-0.266-0.042-0.58-0.063-0.942-0.063c-0.013,0-0.021,0-0.031,0s-0.021,0-0.031,0c-0.013,0-0.024,0-0.036,0h-2.538L399.966,314.476
		L399.966,314.476z"/>
	<path fill="#263344" d="M410.571,321.8v-13.198h1.729V321.8H410.571z"/>
	<path fill="#263344" d="M415.873,321.8v-13.198h1.84l6.363,9.282l0.979,1.541v-10.823h1.649V321.8h-1.849l-6.2-8.938l-1.16-1.813
		v10.75L415.873,321.8L415.873,321.8z"/>
	<path fill="#263344" d="M436.23,322c-1.42,0-2.635-0.273-3.644-0.82c-1.01-0.547-1.767-1.311-2.271-2.293
		c-0.506-0.981-0.759-2.138-0.759-3.467c0-1.354,0.286-2.564,0.857-3.635c0.57-1.069,1.376-1.906,2.415-2.511
		c1.04-0.604,2.225-0.906,3.554-0.906c1.71,0,3.157,0.44,4.342,1.323l-0.697,1.205c-1.046-0.713-2.248-1.068-3.607-1.068
		c-1.003,0-1.892,0.239-2.665,0.716c-0.773,0.478-1.367,1.135-1.781,1.972s-0.621,1.781-0.621,2.833
		c0,1.583,0.424,2.846,1.271,3.785c0.846,0.939,2.072,1.41,3.68,1.41c1.095,0,2.056-0.157,2.884-0.472v-3.734h-3.337v-1.478h5.06
		v6.182C439.507,321.68,437.948,322,436.23,322z"/>
</g>
<rect x="347" y="175" fill="#CD7F48" width="96" height="96"/>
<path fill="#263344" d="M350.778,157H312v72.918V253h35v-22h63v-74H350.778z M380,206h-33v-21h33V206z"/>
<rect x="408" y="191" fill="#263344" width="35" height="23"/>
<rect x="408" y="230" fill="#263344" width="35" height="21"/>
<g>
	<path fill="#1C2838" d="M92.862,507.988h-1.661v5.221h-3.344v-13.842h5.084c3.029,0,5.415,1.096,5.415,4.262
		C98.356,506.836,95.756,507.988,92.862,507.988z M92.667,502.064h-1.466v3.266h1.407c1.252,0,2.405-0.371,2.405-1.682
		C95.014,502.318,93.86,502.064,92.667,502.064z"/>
	<path fill="#1C2838" d="M107.782,513.209l-2.991-5.494h-1.135v5.494h-3.284v-13.842h5.279c2.659,0,5.299,1.018,5.299,4.184
		c0,1.857-1.096,3.188-2.875,3.734l3.617,5.924H107.782z M105.417,502.064h-1.779v3.227h1.584c1.074,0,2.424-0.273,2.424-1.682
		C107.646,502.318,106.414,502.064,105.417,502.064z"/>
	<path fill="#1C2838" d="M113.338,513.209v-13.842h9.307v2.834h-6.081v2.602h5.749v2.678h-5.749v2.873h6.433v2.855H113.338z"/>
	<path fill="#1C2838" d="M132.519,502.965c-0.567-0.723-1.603-1.19-2.463-1.19s-1.937,0.29-1.937,1.387
		c0,0.92,0.822,1.211,2.133,1.623c1.875,0.604,4.3,1.405,4.3,4.164c0,3.186-2.562,4.612-5.298,4.612
		c-1.975,0-3.969-0.723-5.181-1.993l2.188-2.229c0.665,0.84,1.897,1.467,2.992,1.467c1.016,0,1.916-0.391,1.916-1.506
		c0-1.057-1.056-1.389-2.875-1.975c-1.759-0.566-3.537-1.467-3.537-3.969c0-3.068,2.775-4.341,5.356-4.341
		c1.563,0,3.322,0.586,4.535,1.701L132.519,502.965z"/>
	<path fill="#1C2838" d="M136.764,513.209v-13.842h9.307v2.834h-6.081v2.602h5.748v2.678h-5.748v2.873h6.433v2.855H136.764z"/>
	<path fill="#1C2838" d="M157.432,513.209l-5.573-9.053H151.8l0.079,9.053h-3.246v-13.842h3.813l5.553,9.033h0.059l-0.079-9.033
		h3.246v13.842H157.432z"/>
	<path fill="#1C2838" d="M170.006,502.223v10.986h-3.344v-10.986h-3.909v-2.854h11.162v2.854H170.006z"/>
	<path fill="#1C2838" d="M175.441,513.209v-13.842h9.307v2.834h-6.08v2.602h5.748v2.678h-5.748v2.873h6.433v2.855H175.441z"/>
	<path fill="#1C2838" d="M194.037,507.344v5.865h-3.343v-5.865l-5.2-7.977h4.047l2.952,5.121l2.952-5.121h3.909L194.037,507.344z"/>
</g>
<g>
	<path fill="#1C2838" d="M88.009,531.08v-11.375h6.813v1.258H89.5v3.576h5.023v1.268H89.5v4.015h5.548v1.26L88.009,531.08
		L88.009,531.08z"/>
	<path fill="#1C2838" d="M97.526,531.08v-11.375h1.585l5.485,7.998l0.844,1.328v-9.326h1.422v11.375h-1.594l-5.344-7.703l-1-1.563
		v9.266H97.526z"/>
	<path fill="#1C2838" d="M115.139,531.25c-1.225,0-2.271-0.234-3.142-0.705c-0.869-0.473-1.522-1.131-1.956-1.977
		c-0.436-0.849-0.652-1.845-0.652-2.988c0-1.168,0.246-2.211,0.737-3.133c0.493-0.922,1.188-1.644,2.082-2.164
		c0.896-0.521,1.918-0.781,3.063-0.781c1.475,0,2.722,0.381,3.742,1.141l-0.601,1.039c-0.902-0.614-1.938-0.922-3.109-0.922
		c-0.865,0-1.632,0.205-2.298,0.615c-0.667,0.412-1.178,0.979-1.534,1.699c-0.357,0.723-0.535,1.537-0.535,2.44
		c0,1.367,0.364,2.453,1.093,3.265c0.729,0.811,1.787,1.215,3.173,1.215c0.942,0,1.77-0.137,2.484-0.406v-3.219h-2.876v-1.273h4.359
		v5.326C117.961,530.975,116.617,531.25,115.139,531.25z"/>
	<path fill="#1C2838" d="M122.289,531.08v-11.375h1.492v11.375H122.289z"/>
	<path fill="#1C2838" d="M126.979,531.08v-11.375h1.586l5.484,7.998l0.844,1.328v-9.326h1.422v11.375h-1.594l-5.344-7.703
		l-0.999-1.563v9.266H126.979z"/>
	<path fill="#1C2838" d="M139.574,531.08v-11.375h6.813v1.258h-5.321v3.576h5.023v1.268h-5.023v4.015h5.547v1.26L139.574,531.08
		L139.574,531.08z"/>
	<path fill="#1C2838" d="M149.092,531.08v-11.375h6.813v1.258h-5.32v3.576h5.023v1.268h-5.023v4.015h5.547v1.26L149.092,531.08
		L149.092,531.08z"/>
	<path fill="#1C2838" d="M158.608,531.08v-11.375h3.642c0.469,0,0.887,0.025,1.258,0.074c0.37,0.049,0.726,0.143,1.066,0.276
		c0.34,0.134,0.624,0.313,0.847,0.535c0.226,0.221,0.403,0.512,0.536,0.871s0.199,0.781,0.199,1.266c0,0.714-0.182,1.31-0.547,1.789
		c-0.364,0.479-0.92,0.795-1.664,0.953c0.428,0.135,0.765,0.371,1.012,0.707s0.498,0.822,0.755,1.465l1.335,3.438h-1.594
		l-1.25-3.344c-0.178-0.48-0.34-0.832-0.488-1.056c-0.148-0.225-0.342-0.391-0.582-0.496c-0.239-0.106-0.57-0.159-0.992-0.159
		h-2.039v5.055H158.608L158.608,531.08z M160.094,524.768h2.118c0.754,0,1.34-0.149,1.758-0.45c0.416-0.298,0.624-0.8,0.624-1.502
		c0-0.287-0.03-0.535-0.09-0.746s-0.146-0.388-0.258-0.527c-0.112-0.14-0.261-0.254-0.445-0.342
		c-0.185-0.084-0.393-0.146-0.621-0.183c-0.228-0.036-0.499-0.055-0.813-0.055c-0.011,0-0.021,0-0.027,0s-0.018,0-0.026,0
		c-0.012,0-0.021,0-0.032,0h-2.188V524.768z"/>
	<path fill="#1C2838" d="M169.487,531.08v-11.375h1.492v11.375H169.487z"/>
	<path fill="#1C2838" d="M174.177,531.08v-11.375h1.586l5.484,7.998l0.844,1.328v-9.326h1.422v11.375h-1.594l-5.344-7.703
		l-0.999-1.563v9.266H174.177z"/>
	<path fill="#1C2838" d="M191.788,531.25c-1.224,0-2.271-0.234-3.142-0.705c-0.868-0.473-1.521-1.131-1.956-1.977
		c-0.435-0.849-0.652-1.845-0.652-2.988c0-1.168,0.245-2.211,0.738-3.133c0.492-0.922,1.187-1.644,2.082-2.164
		c0.896-0.521,1.917-0.781,3.063-0.781c1.474,0,2.722,0.381,3.741,1.141l-0.601,1.039c-0.901-0.614-1.937-0.922-3.109-0.922
		c-0.864,0-1.63,0.205-2.297,0.615c-0.666,0.412-1.178,0.979-1.534,1.699c-0.357,0.723-0.536,1.537-0.536,2.44
		c0,1.367,0.364,2.453,1.094,3.265c0.73,0.811,1.786,1.215,3.172,1.215c0.942,0,1.771-0.137,2.484-0.406v-3.219h-2.876v-1.273h4.36
		v5.326C194.61,530.975,193.267,531.25,191.788,531.25z"/>
</g>
<rect x="138" y="398" fill="#354459" width="37" height="87"/>
<g>
	<rect x="137" y="398" fill="#1C2838" width="75" height="6"/>
</g>
<g>
	<rect x="143" y="421" fill="#1C2838" width="69" height="5"/>
</g>
<g>
	<rect x="75" y="479" fill="#1C2838" width="137" height="6"/>
</g>
<g>
	<path fill="#1C2838" d="M118.495,425.91v53.795h20.734v4.874H75.4v-4.874h20.354V361.317H75.4v-4.873h66.026
		c14.906,0,26.133,3.313,33.682,9.938c7.549,6.625,11.322,14.778,11.322,24.461c0,9.938-3.807,18.268-11.417,24.987
		c-7.613,6.721-20.273,10.08-37.981,10.08H118.495L118.495,425.91z M118.495,361.317v59.623h12.325
		c6.434,0,11.785-0.539,16.053-1.624c4.268-1.081,7.946-3.948,11.036-8.6c3.089-4.648,4.634-11.849,4.634-21.595
		c0-8.601-1.354-14.921-4.061-18.967c-2.708-4.044-5.908-6.528-9.603-7.453c-3.695-0.923-8.282-1.386-13.759-1.386L118.495,361.317
		L118.495,361.317z"/>
</g>
<g>
	<path fill="#1C2838" d="M336.944,507.988h-1.661v5.221h-3.344v-13.842h5.084c3.029,0,5.416,1.096,5.416,4.262
		C342.439,506.836,339.838,507.988,336.944,507.988z M336.749,502.064h-1.466v3.266h1.407c1.252,0,2.405-0.371,2.405-1.682
		C339.096,502.318,337.942,502.064,336.749,502.064z"/>
	<path fill="#1C2838" d="M351.864,513.209l-2.991-5.494h-1.135v5.494h-3.284v-13.842h5.279c2.659,0,5.299,1.018,5.299,4.184
		c0,1.857-1.096,3.188-2.875,3.734l3.617,5.924H351.864z M349.5,502.064h-1.78v3.227h1.584c1.074,0,2.424-0.273,2.424-1.682
		C351.728,502.318,350.496,502.064,349.5,502.064z"/>
	<path fill="#1C2838" d="M357.42,513.209v-13.842h9.307v2.834h-6.081v2.602h5.749v2.678h-5.749v2.873h6.433v2.855H357.42z"/>
	<path fill="#1C2838" d="M376.602,502.965c-0.568-0.723-1.604-1.19-2.464-1.19c-0.859,0-1.937,0.29-1.937,1.387
		c0,0.92,0.822,1.211,2.133,1.623c1.875,0.604,4.3,1.405,4.3,4.164c0,3.186-2.562,4.612-5.298,4.612
		c-1.975,0-3.969-0.723-5.181-1.993l2.188-2.229c0.665,0.84,1.897,1.467,2.992,1.467c1.016,0,1.916-0.391,1.916-1.506
		c0-1.057-1.056-1.389-2.875-1.975c-1.759-0.566-3.537-1.467-3.537-3.969c0-3.068,2.775-4.341,5.356-4.341
		c1.563,0,3.322,0.586,4.535,1.701L376.602,502.965z"/>
	<path fill="#1C2838" d="M380.846,513.209v-13.842h9.308v2.834h-6.081v2.602h5.748v2.678h-5.748v2.873h6.433v2.855H380.846z"/>
	<path fill="#1C2838" d="M401.514,513.209l-5.573-9.053h-0.059l0.079,9.053h-3.246v-13.842h3.813l5.553,9.033h0.059l-0.077-9.033
		h3.244v13.842H401.514z"/>
	<path fill="#1C2838" d="M414.088,502.223v10.986h-3.344v-10.986h-3.909v-2.854h11.162v2.854H414.088z"/>
	<path fill="#1C2838" d="M419.523,513.209v-13.842h9.307v2.834h-6.08v2.602h5.748v2.678h-5.748v2.873h6.434v2.855H419.523z"/>
	<path fill="#1C2838" d="M438.119,507.344v5.865h-3.342v-5.865l-5.201-7.977h4.047l2.952,5.121l2.952-5.121h3.908L438.119,507.344z"
		/>
</g>
<g>
	<path fill="#1C2838" d="M332.091,531.08v-11.375h6.813v1.258h-5.321v3.576h5.023v1.268h-5.023v4.015h5.548v1.26L332.091,531.08
		L332.091,531.08z"/>
	<path fill="#1C2838" d="M341.608,531.08v-11.375h1.585l5.485,7.998l0.844,1.328v-9.326h1.422v11.375h-1.594l-5.344-7.703l-1-1.563
		v9.266H341.608z"/>
	<path fill="#1C2838" d="M359.221,531.25c-1.225,0-2.271-0.234-3.142-0.705c-0.868-0.473-1.522-1.131-1.956-1.977
		c-0.436-0.849-0.652-1.845-0.652-2.988c0-1.168,0.246-2.211,0.738-3.133s1.187-1.644,2.082-2.164
		c0.895-0.521,1.917-0.781,3.062-0.781c1.475,0,2.722,0.381,3.742,1.141l-0.601,1.039c-0.902-0.614-1.938-0.922-3.109-0.922
		c-0.865,0-1.631,0.205-2.298,0.615c-0.667,0.412-1.178,0.979-1.534,1.699c-0.357,0.723-0.535,1.537-0.535,2.44
		c0,1.367,0.364,2.453,1.093,3.265c0.729,0.811,1.787,1.215,3.173,1.215c0.942,0,1.77-0.137,2.484-0.406v-3.219h-2.876v-1.273h4.359
		v5.326C362.043,530.975,360.699,531.25,359.221,531.25z"/>
	<path fill="#1C2838" d="M366.371,531.08v-11.375h1.492v11.375H366.371z"/>
	<path fill="#1C2838" d="M371.061,531.08v-11.375h1.586l5.484,7.998l0.844,1.328v-9.326h1.422v11.375h-1.594l-5.344-7.703
		l-0.999-1.563v9.266H371.061z"/>
	<path fill="#1C2838" d="M383.656,531.08v-11.375h6.813v1.258h-5.32v3.576h5.022v1.268h-5.022v4.015h5.547v1.26L383.656,531.08
		L383.656,531.08z"/>
	<path fill="#1C2838" d="M393.174,531.08v-11.375h6.813v1.258h-5.32v3.576h5.022v1.268h-5.022v4.015h5.547v1.26L393.174,531.08
		L393.174,531.08z"/>
	<path fill="#1C2838" d="M402.689,531.08v-11.375h3.643c0.469,0,0.887,0.025,1.258,0.074c0.37,0.049,0.727,0.143,1.066,0.276
		c0.342,0.136,0.624,0.313,0.848,0.535c0.225,0.221,0.402,0.512,0.535,0.871s0.199,0.781,0.199,1.266
		c0,0.714-0.183,1.31-0.547,1.789s-0.92,0.795-1.664,0.953c0.428,0.135,0.765,0.371,1.012,0.707s0.498,0.822,0.755,1.465
		l1.335,3.438h-1.594l-1.25-3.344c-0.178-0.48-0.34-0.832-0.488-1.056c-0.148-0.225-0.342-0.391-0.582-0.496
		c-0.239-0.106-0.57-0.159-0.992-0.159h-2.039v5.055H402.689L402.689,531.08z M404.176,524.768h2.118c0.754,0,1.34-0.149,1.757-0.45
		c0.417-0.298,0.625-0.8,0.625-1.502c0-0.287-0.029-0.535-0.09-0.746c-0.06-0.211-0.146-0.388-0.258-0.527
		c-0.112-0.14-0.261-0.254-0.445-0.342c-0.185-0.084-0.393-0.146-0.621-0.183c-0.228-0.036-0.499-0.055-0.813-0.055
		c-0.012,0-0.021,0-0.027,0s-0.018,0-0.025,0c-0.013,0-0.021,0-0.032,0h-2.188V524.768z"/>
	<path fill="#1C2838" d="M413.569,531.08v-11.375h1.491v11.375H413.569z"/>
	<path fill="#1C2838" d="M418.259,531.08v-11.375h1.586l5.484,7.998l0.844,1.328v-9.326h1.422v11.375h-1.594l-5.344-7.703
		l-0.999-1.563v9.266H418.259z"/>
	<path fill="#1C2838" d="M435.87,531.25c-1.224,0-2.271-0.234-3.142-0.705c-0.868-0.473-1.521-1.131-1.957-1.977
		c-0.435-0.849-0.651-1.845-0.651-2.988c0-1.168,0.245-2.211,0.738-3.133c0.491-0.922,1.187-1.644,2.081-2.164
		c0.896-0.521,1.918-0.781,3.063-0.781c1.473,0,2.721,0.381,3.74,1.141l-0.602,1.039c-0.9-0.614-1.937-0.922-3.108-0.922
		c-0.864,0-1.63,0.205-2.297,0.615c-0.666,0.412-1.179,0.979-1.534,1.699c-0.357,0.723-0.536,1.537-0.536,2.44
		c0,1.367,0.364,2.453,1.094,3.265c0.73,0.811,1.786,1.215,3.172,1.215c0.942,0,1.771-0.137,2.484-0.406v-3.219h-2.876v-1.273h4.36
		v5.326C438.693,530.975,437.349,531.25,435.87,531.25z"/>
</g>
<rect x="382" y="398" fill="#CD7F48" width="37" height="87"/>
<g>
	<rect x="381" y="398" fill="#1C2838" width="74" height="6"/>
</g>
<g>
	<rect x="388" y="421" fill="#1C2838" width="68" height="5"/>
</g>
<g>
	<rect x="319" y="479" fill="#1C2838" width="137" height="6"/>
</g>
<g>
	<path fill="#1C2838" d="M362.577,425.91v53.795h20.734v4.874h-63.829v-4.874h20.354V361.317h-20.354v-4.873h66.026
		c14.906,0,26.133,3.313,33.682,9.938c7.55,6.625,11.322,14.778,11.322,24.461c0,9.938-3.807,18.268-11.417,24.987
		c-7.612,6.721-20.273,10.08-37.981,10.08H362.577L362.577,425.91z M362.577,361.317v59.623h12.325
		c6.434,0,11.785-0.539,16.053-1.624c4.268-1.081,7.946-3.948,11.036-8.6c3.089-4.648,4.634-11.849,4.634-21.595
		c0-8.601-1.354-14.921-4.061-18.967c-2.709-4.044-5.908-6.528-9.603-7.453c-3.696-0.923-8.283-1.386-13.76-1.386L362.577,361.317
		L362.577,361.317z"/>
</g>
<linearGradient id="SVGID_1_" gradientUnits="userSpaceOnUse" x1="-498.001" y1="1071.501" x2="-879.001" y2="1071.501" gradientTransform="matrix(1 0 0 -1 954 1149.5)">
	<stop  offset="0" style="stop-color:#7BA3D6"/>
	<stop  offset="0.0967" style="stop-color:#769CCD;stop-opacity:0.9033"/>
	<stop  offset="0.2566" style="stop-color:#6789B4;stop-opacity:0.7434"/>
	<stop  offset="0.4601" style="stop-color:#506A8B;stop-opacity:0.5399"/>
	<stop  offset="0.6992" style="stop-color:#2F3E52;stop-opacity:0.3008"/>
	<stop  offset="0.9654" style="stop-color:#06080A;stop-opacity:0.0346"/>
	<stop  offset="1" style="stop-color:#000000;stop-opacity:0"/>
</linearGradient>
<rect x="75" y="40" opacity="0.3" fill="url(#SVGID_1_)" enable-background="new    " width="381" height="76"/>
<g>
	<path fill="#1C2838" d="M82.156,92.571V65.555h15.029v1.596H84.16v10.817h12.302v1.596H84.123v11.411h13.619v1.596H82.156z"/>
	<path fill="#1C2838" d="M104.422,92.571V64.442h1.818v28.129H104.422z"/>
	<path fill="#1C2838" d="M113.606,67.596v-2.041h1.818v2.041H113.606z M113.606,92.571V73.534h1.818v19.037H113.606z"/>
	<path fill="#1C2838" d="M122.958,92.571V76.243l-0.111-2.709h1.651l0.186,3.822c0.643-1.41,1.57-2.48,2.783-3.21
		c1.212-0.729,2.659-1.095,4.342-1.095c3.327,0,5.368,1.627,6.123,4.88c0.643-1.62,1.624-2.839,2.94-3.655
		c1.318-0.816,2.793-1.225,4.426-1.225c2.115,0,3.721,0.677,4.814,2.032c1.096,1.354,1.643,3.337,1.643,5.947v11.541h-1.818V81.03
		c0-2.115-0.393-3.72-1.178-4.815c-0.786-1.095-1.938-1.642-3.461-1.642c-1.955,0-3.522,0.547-4.703,1.642
		c-1.182,1.095-1.958,2.7-2.329,4.815v11.541h-1.818V81.03c0-2.115-0.393-3.72-1.179-4.815c-0.785-1.095-1.938-1.642-3.46-1.642
		c-1.818,0-3.324,0.461-4.519,1.382c-1.193,0.922-2.031,2.267-2.514,4.036v12.58H122.958z"/>
	<path fill="#1C2838" d="M158.824,67.596v-2.041h1.818v2.041H158.824z M158.824,92.571V73.534h1.818v19.037H158.824z"/>
	<path fill="#1C2838" d="M168.139,92.571V76.243l-0.111-2.709h1.65l0.187,3.822c0.643-1.385,1.626-2.449,2.95-3.191
		c1.323-0.742,2.839-1.113,4.546-1.113c4.552,0,6.828,2.66,6.828,7.979v11.541h-1.818V81.03c0-4.305-1.67-6.457-5.01-6.457
		c-1.844,0-3.421,0.467-4.731,1.401c-1.312,0.934-2.202,2.273-2.672,4.017v12.58H168.139z"/>
	<path fill="#1C2838" d="M198.42,92.96c-2.722,0-4.89-0.915-6.503-2.746c-1.615-1.831-2.422-4.286-2.422-7.366
		c0-2.981,0.816-5.359,2.449-7.134c1.633-1.775,3.815-2.663,6.55-2.663c1.583,0,2.975,0.387,4.175,1.16
		c1.199,0.773,2.071,1.791,2.616,3.052v-3.729h1.818v19.037h-1.818v-3.989c-0.594,1.336-1.476,2.4-2.644,3.191
		C201.472,92.565,200.064,92.96,198.42,92.96z M198.494,91.439c2.14,0,3.807-0.77,5.001-2.31c1.193-1.54,1.79-3.633,1.79-6.281
		c0-2.511-0.615-4.518-1.847-6.021c-1.23-1.503-2.879-2.254-4.944-2.254c-2.165,0-3.896,0.751-5.195,2.254
		c-1.299,1.503-1.948,3.51-1.948,6.021c0,2.61,0.646,4.694,1.939,6.253C194.582,90.66,196.316,91.439,198.494,91.439z"/>
	<path fill="#1C2838" d="M221.947,92.589c-0.1,0-0.244-0.003-0.437-0.009c-0.192-0.006-0.332-0.009-0.418-0.009
		c-0.594-0.024-1.129-0.077-1.604-0.158c-0.477-0.08-0.891-0.179-1.242-0.297c-0.354-0.117-0.666-0.256-0.938-0.417
		c-0.272-0.161-0.495-0.34-0.668-0.538c-0.174-0.198-0.322-0.414-0.445-0.649c-0.124-0.235-0.213-0.481-0.27-0.742
		c-0.055-0.26-0.099-0.535-0.129-0.826c-0.031-0.291-0.047-0.594-0.047-0.909c0-0.315,0-0.64,0-0.974c0-0.235,0-0.414,0-0.538V74.74
		h-3.748v-1.206h3.748v-5.455l1.818-0.538v5.993h4.323v1.206h-4.323v11.838c0,0.458,0,0.804,0,1.039c0,0.235,0.012,0.52,0.037,0.854
		c0.024,0.334,0.056,0.575,0.093,0.724c0.037,0.149,0.093,0.334,0.167,0.557c0.074,0.223,0.16,0.377,0.26,0.464
		c0.099,0.087,0.232,0.192,0.398,0.315c0.168,0.124,0.354,0.208,0.557,0.25c0.205,0.043,0.452,0.09,0.742,0.139
		c0.291,0.05,0.605,0.081,0.947,0.093c0.34,0.013,0.732,0.02,1.178,0.02L221.947,92.589L221.947,92.589z"/>
	<path fill="#1C2838" d="M235.14,92.96c-2.932,0-5.272-0.891-7.023-2.672c-1.75-1.781-2.625-4.162-2.625-7.144
		c0-3.067,0.835-5.517,2.505-7.348s3.902-2.746,6.698-2.746c2.561,0,4.602,0.82,6.123,2.458c1.521,1.639,2.282,3.832,2.282,6.578
		v1.076h-15.753c-0.025,2.511,0.668,4.518,2.078,6.021c1.41,1.503,3.314,2.254,5.715,2.254c1.175,0,2.325-0.191,3.451-0.575
		c1.125-0.383,2.115-0.909,2.969-1.577l0.668,1.28c-0.879,0.73-1.957,1.312-3.238,1.744C237.71,92.744,236.426,92.96,235.14,92.96z
		 M227.458,81.846h14.12c-0.124-2.214-0.808-3.979-2.05-5.297c-1.244-1.317-2.855-1.976-4.834-1.976
		c-2.029,0-3.699,0.659-5.01,1.976C228.373,77.866,227.631,79.632,227.458,81.846z"/>
	<path fill="#1C2838" d="M255.123,92.96c-2.623,0-4.713-0.909-6.271-2.728s-2.338-4.255-2.338-7.311c0-3.006,0.779-5.402,2.338-7.19
		c1.559-1.787,3.648-2.681,6.271-2.681c1.682,0,3.201,0.427,4.555,1.28c1.355,0.854,2.322,1.992,2.904,3.414V64.442h1.818v23.156
		c0,0.371,0.003,0.792,0.01,1.262c0.006,0.47,0.018,0.916,0.037,1.336c0.018,0.421,0.033,0.811,0.046,1.169
		c0.012,0.359,0.019,0.649,0.019,0.872l0.02,0.334h-1.837l-0.093-4.436c-0.532,1.472-1.476,2.645-2.829,3.516
		C258.416,92.524,256.867,92.96,255.123,92.96z M255.123,91.439c2.275,0,4.088-0.773,5.437-2.319
		c1.348-1.546,2.022-3.612,2.022-6.197c0-2.548-0.675-4.577-2.022-6.086c-1.349-1.509-3.161-2.264-5.437-2.264
		c-2.141,0-3.807,0.749-5,2.245c-1.194,1.497-1.791,3.532-1.791,6.104c0,2.623,0.597,4.698,1.791,6.225
		C251.316,90.675,252.982,91.439,255.123,91.439z"/>
	<path fill="#1C2838" d="M294.236,92.979c-3.959,0-7.113-1.215-9.463-3.646c-2.351-2.431-3.525-5.687-3.525-9.769
		c0-4.403,1.199-7.917,3.6-10.539c2.399-2.622,5.615-3.934,9.648-3.934c3.166,0,5.758,0.86,7.774,2.579l-0.816,1.262
		c-1.918-1.497-4.237-2.245-6.958-2.245c-3.414,0-6.136,1.166-8.164,3.498c-2.029,2.332-3.043,5.458-3.043,9.379
		c0,3.587,0.992,6.451,2.979,8.591c1.984,2.14,4.641,3.21,7.969,3.21c2.956,0,5.604-0.773,7.941-2.319l0.649,1.392
		C300.229,92.132,297.365,92.979,294.236,92.979z"/>
	<path fill="#1C2838" d="M316.391,92.96c-2.932,0-5.27-0.894-7.014-2.681c-1.744-1.787-2.616-4.178-2.616-7.171
		c0-3.067,0.872-5.511,2.616-7.329c1.744-1.818,4.082-2.729,7.014-2.729s5.27,0.909,7.014,2.729
		c1.744,1.819,2.616,4.262,2.616,7.329c0,2.994-0.872,5.384-2.616,7.171C321.66,92.067,319.322,92.96,316.391,92.96z
		 M316.391,91.439c2.437,0,4.342-0.748,5.715-2.245c1.373-1.497,2.06-3.525,2.06-6.086c0-2.622-0.687-4.7-2.06-6.234
		s-3.278-2.301-5.715-2.301c-2.438,0-4.342,0.767-5.715,2.301s-2.06,3.612-2.06,6.234c0,2.561,0.687,4.589,2.06,6.086
		C312.049,90.691,313.953,91.439,316.391,91.439z"/>
	<path fill="#1C2838" d="M331.55,92.571V76.243l-0.111-2.709h1.651l0.186,3.822c0.643-1.385,1.626-2.449,2.95-3.191
		c1.323-0.742,2.839-1.113,4.546-1.113c4.552,0,6.828,2.66,6.828,7.979v11.541h-1.818V81.03c0-4.305-1.67-6.457-5.01-6.457
		c-1.844,0-3.421,0.467-4.731,1.401c-1.312,0.934-2.202,2.273-2.672,4.017v12.58H331.55z"/>
	<path fill="#1C2838" d="M362.48,92.96c-2.907,0-5.229-0.878-6.967-2.635c-1.738-1.756-2.606-4.113-2.606-7.069
		c0-3.104,0.884-5.582,2.653-7.431c1.769-1.849,4.138-2.774,7.106-2.774c1.101,0,2.177,0.167,3.229,0.501
		c1.051,0.334,1.898,0.786,2.542,1.354l-0.612,1.336c-1.274-1.113-2.994-1.67-5.158-1.67c-2.4,0-4.317,0.786-5.752,2.355
		c-1.436,1.571-2.152,3.68-2.152,6.327c0,2.486,0.698,4.472,2.097,5.956c1.397,1.484,3.271,2.227,5.622,2.227
		c2.264,0,4.23-0.655,5.9-1.967l0.631,1.243c-0.693,0.681-1.63,1.225-2.811,1.633C365.02,92.756,363.779,92.96,362.48,92.96z"/>
	<path fill="#1C2838" d="M381.518,92.96c-2.932,0-5.272-0.891-7.023-2.672c-1.75-1.781-2.625-4.162-2.625-7.144
		c0-3.067,0.835-5.517,2.505-7.348s3.902-2.746,6.698-2.746c2.561,0,4.602,0.82,6.123,2.458c1.521,1.639,2.282,3.832,2.282,6.578
		v1.076h-15.753c-0.025,2.511,0.668,4.518,2.078,6.021c1.41,1.503,3.314,2.254,5.715,2.254c1.175,0,2.325-0.191,3.451-0.575
		c1.125-0.383,2.115-0.909,2.969-1.577l0.668,1.28c-0.879,0.73-1.957,1.312-3.238,1.744C384.088,92.744,382.804,92.96,381.518,92.96
		z M373.836,81.846h14.12c-0.124-2.214-0.808-3.979-2.05-5.297c-1.244-1.317-2.855-1.976-4.834-1.976
		c-2.029,0-3.699,0.659-5.01,1.976C374.751,77.866,374.009,79.632,373.836,81.846z"/>
	<path fill="#1C2838" d="M394.877,101.663V78.506c0-0.371-0.003-0.792-0.009-1.262c-0.007-0.47-0.017-0.915-0.028-1.336
		c-0.013-0.42-0.028-0.81-0.046-1.169c-0.02-0.358-0.035-0.649-0.047-0.872v-0.334h1.837l0.093,4.583
		c0.531-1.484,1.479-2.684,2.839-3.6c1.36-0.915,2.906-1.373,4.64-1.373c2.622,0,4.713,0.909,6.271,2.728
		c1.559,1.819,2.338,4.255,2.338,7.311c0,3.006-0.778,5.403-2.338,7.19c-1.559,1.788-3.648,2.681-6.271,2.681
		c-1.72,0-3.25-0.387-4.593-1.16s-2.299-1.858-2.866-3.256v13.025L394.877,101.663L394.877,101.663z M404.154,91.532
		c2.14,0,3.807-0.748,5.001-2.245c1.192-1.497,1.79-3.531,1.79-6.104c0-2.622-0.598-4.697-1.79-6.225
		c-1.194-1.527-2.861-2.292-5.001-2.292c-2.252,0-4.059,0.813-5.418,2.44c-1.361,1.627-2.041,3.745-2.041,6.355
		c0,2.523,0.671,4.5,2.013,5.928C400.051,90.817,401.865,91.532,404.154,91.532z"/>
	<path fill="#1C2838" d="M425.529,92.589c-0.101,0-0.244-0.003-0.437-0.009c-0.191-0.006-0.332-0.009-0.418-0.009
		c-0.594-0.024-1.129-0.077-1.604-0.158c-0.477-0.08-0.892-0.179-1.242-0.297c-0.354-0.117-0.666-0.256-0.938-0.417
		c-0.271-0.161-0.495-0.34-0.668-0.538c-0.174-0.198-0.321-0.414-0.444-0.649c-0.124-0.235-0.213-0.481-0.271-0.742
		c-0.055-0.26-0.099-0.535-0.129-0.826c-0.031-0.291-0.047-0.594-0.047-0.909c0-0.315,0-0.64,0-0.974c0-0.235,0-0.414,0-0.538V74.74
		h-3.748v-1.206h3.748v-5.455l1.817-0.538v5.993h4.323v1.206h-4.323v11.838c0,0.458,0,0.804,0,1.039c0,0.235,0.013,0.52,0.037,0.854
		s0.057,0.575,0.094,0.724s0.093,0.334,0.167,0.557c0.073,0.223,0.159,0.377,0.26,0.464c0.099,0.087,0.231,0.192,0.397,0.315
		c0.168,0.124,0.354,0.208,0.558,0.25c0.205,0.043,0.452,0.09,0.742,0.139c0.291,0.05,0.605,0.081,0.946,0.093
		c0.34,0.013,0.732,0.02,1.179,0.02L425.529,92.589L425.529,92.589z"/>
	<path fill="#1C2838" d="M436.143,92.96c-2.399,0-4.596-0.724-6.587-2.171l0.688-1.41c0.012,0.013,0.108,0.078,0.288,0.195
		c0.179,0.118,0.327,0.213,0.445,0.288c0.116,0.074,0.303,0.18,0.557,0.314c0.253,0.136,0.484,0.25,0.695,0.343
		c0.209,0.093,0.473,0.198,0.789,0.315c0.313,0.118,0.62,0.21,0.918,0.278c0.297,0.068,0.634,0.127,1.012,0.176
		c0.377,0.05,0.751,0.074,1.122,0.074c3.352,0,5.027-1.218,5.027-3.655c0-1.014-0.257-1.781-0.77-2.301
		c-0.515-0.521-1.401-0.971-2.663-1.354l-3.822-1.169c-1.497-0.458-2.601-1.042-3.312-1.753c-0.712-0.711-1.067-1.741-1.067-3.089
		c0-1.682,0.618-2.935,1.855-3.757c1.235-0.822,2.938-1.234,5.103-1.234c2.265,0,4.156,0.464,5.679,1.392l-0.595,1.354
		c-1.497-0.816-3.19-1.225-5.084-1.225c-3.414,0-5.134,1.106-5.158,3.321c0,0.978,0.221,1.686,0.658,2.125
		c0.439,0.439,1.31,0.857,2.607,1.252l3.729,1.169c1.607,0.507,2.774,1.126,3.497,1.855c0.726,0.73,1.086,1.757,1.086,3.08
		c0,0.953-0.174,1.791-0.52,2.514c-0.348,0.724-0.826,1.308-1.438,1.753s-1.317,0.776-2.114,0.993
		C437.97,92.852,437.095,92.96,436.143,92.96z"/>
</g>
<linearGradient id="SVGID_2_" gradientUnits="userSpaceOnUse" x1="44.999" y1="1071.501" x2="-336.001" y2="1071.501" gradientTransform="matrix(1 0 0 -1 954 1149.5)">
	<stop  offset="0" style="stop-color:#7BA3D6"/>
	<stop  offset="0.0967" style="stop-color:#769CCD;stop-opacity:0.9033"/>
	<stop  offset="0.2566" style="stop-color:#6789B4;stop-opacity:0.7434"/>
	<stop  offset="0.4601" style="stop-color:#506A8B;stop-opacity:0.5399"/>
	<stop  offset="0.6992" style="stop-color:#2F3E52;stop-opacity:0.3008"/>
	<stop  offset="0.9654" style="stop-color:#06080A;stop-opacity:0.0346"/>
	<stop  offset="1" style="stop-color:#000000;stop-opacity:0"/>
</linearGradient>
<rect x="618" y="40" opacity="0.3" fill="url(#SVGID_2_)" enable-background="new    " width="381" height="76"/>
<g>
	<path fill="#1C2838" d="M625.156,92.571V65.555h14.417v1.596H627.16v10.966h11.354v1.596H627.16v12.858H625.156z"/>
	<path fill="#1C2838" d="M644.77,67.596v-2.041h1.817v2.041H644.77z M644.77,92.571V73.534h1.817v19.037H644.77z"/>
	<path fill="#1C2838" d="M654.083,92.571V76.243l-0.111-2.709h1.651l0.186,3.822c0.644-1.385,1.626-2.449,2.95-3.191
		c1.323-0.742,2.839-1.113,4.546-1.113c4.553,0,6.828,2.66,6.828,7.979v11.541h-1.818V81.03c0-4.305-1.67-6.457-5.01-6.457
		c-1.844,0-3.421,0.467-4.73,1.401c-1.313,0.934-2.202,2.273-2.672,4.017v12.58H654.083z"/>
	<path fill="#1C2838" d="M684.364,92.96c-2.722,0-4.891-0.915-6.503-2.746c-1.615-1.831-2.422-4.286-2.422-7.366
		c0-2.981,0.815-5.359,2.448-7.134c1.634-1.775,3.815-2.663,6.55-2.663c1.584,0,2.976,0.387,4.176,1.16
		c1.199,0.773,2.07,1.791,2.615,3.052v-3.729h1.818v19.037h-1.818v-3.989c-0.594,1.336-1.476,2.4-2.644,3.191
		C687.416,92.565,686.009,92.96,684.364,92.96z M684.438,91.439c2.141,0,3.808-0.77,5.002-2.31c1.192-1.54,1.789-3.633,1.789-6.281
		c0-2.511-0.614-4.518-1.847-6.021c-1.229-1.503-2.879-2.254-4.944-2.254c-2.164,0-3.896,0.751-5.194,2.254s-1.948,3.51-1.948,6.021
		c0,2.61,0.646,4.694,1.939,6.253C680.526,90.66,682.261,91.439,684.438,91.439z"/>
	<path fill="#1C2838" d="M700.711,92.571V64.442h1.818v28.129H700.711z"/>
	<path fill="#1C2838" d="M721.678,92.571V65.555h2.004v25.42h12.637v1.596H721.678z"/>
	<path fill="#1C2838" d="M748.322,92.96c-2.933,0-5.271-0.894-7.014-2.681c-1.744-1.787-2.616-4.178-2.616-7.171
		c0-3.067,0.872-5.511,2.616-7.329c1.743-1.818,4.081-2.729,7.014-2.729c2.932,0,5.27,0.909,7.014,2.729
		c1.744,1.819,2.616,4.262,2.616,7.329c0,2.994-0.872,5.384-2.616,7.171C753.592,92.067,751.254,92.96,748.322,92.96z
		 M748.322,91.439c2.437,0,4.342-0.748,5.715-2.245c1.373-1.497,2.06-3.525,2.06-6.086c0-2.622-0.687-4.7-2.06-6.234
		s-3.278-2.301-5.715-2.301c-2.438,0-4.342,0.767-5.715,2.301s-2.061,3.612-2.061,6.234c0,2.561,0.688,4.589,2.061,6.086
		C743.98,90.691,745.885,91.439,748.322,91.439z"/>
	<path fill="#1C2838" d="M770.05,100.791c-2.326,0-4.483-0.408-6.476-1.225l0.223-1.596c2.104,0.841,4.188,1.262,6.253,1.262
		c2.351,0,4.205-0.702,5.566-2.106c1.359-1.404,2.041-3.627,2.041-6.67v-2.264c-0.569,1.497-1.521,2.65-2.857,3.46
		c-1.336,0.811-2.87,1.215-4.602,1.215c-2.647,0-4.757-0.891-6.327-2.672c-1.571-1.781-2.356-4.168-2.356-7.162
		c0-3.03,0.813-5.452,2.439-7.264c1.627-1.812,3.807-2.718,6.541-2.718c1.633,0,3.09,0.402,4.369,1.206
		c1.28,0.804,2.211,1.855,2.793,3.154l0.186-3.878h1.763l-0.129,3.507v13.415c0,1.769-0.238,3.324-0.716,4.667
		c-0.476,1.342-1.146,2.421-2.013,3.238c-0.866,0.816-1.858,1.425-2.979,1.828C772.65,100.589,771.41,100.791,770.05,100.791z
		 M770.198,91.346c2.274,0,4.088-0.751,5.437-2.254s2.022-3.522,2.022-6.058c0-2.573-0.649-4.626-1.948-6.16
		s-3.037-2.301-5.214-2.301c-2.178,0-3.909,0.767-5.195,2.301c-1.287,1.534-1.93,3.587-1.93,6.16c0,2.536,0.618,4.555,1.854,6.058
		C766.462,90.595,768.12,91.346,770.198,91.346z"/>
	<path fill="#1C2838" d="M794.672,92.96c-2.932,0-5.27-0.894-7.014-2.681c-1.744-1.787-2.616-4.178-2.616-7.171
		c0-3.067,0.872-5.511,2.616-7.329c1.744-1.818,4.082-2.729,7.014-2.729s5.271,0.909,7.014,2.729
		c1.744,1.819,2.616,4.262,2.616,7.329c0,2.994-0.872,5.384-2.616,7.171C799.941,92.067,797.604,92.96,794.672,92.96z
		 M794.672,91.439c2.438,0,4.342-0.748,5.715-2.245c1.373-1.497,2.061-3.525,2.061-6.086c0-2.622-0.688-4.7-2.061-6.234
		s-3.277-2.301-5.715-2.301s-4.342,0.767-5.715,2.301s-2.061,3.612-2.061,6.234c0,2.561,0.688,4.589,2.061,6.086
		C790.33,90.691,792.234,91.439,794.672,91.439z"/>
</g>
<polygon id="underlogo_4_" display="none" opacity="0.5" fill="#34445A" enable-background="new    " points="939.618,538.797 
	598.187,723.645 598.187,125.805 939.618,125.805 "/>
<polyline display="none" opacity="0.5" fill="#34445A" enable-background="new    " points="938.909,118.135 1139.261,118.135 
	940.187,305.771 "/>
<g>
	<g>
		<rect x="1277.624" y="118.573" fill="#1C2939" width="133.59" height="138.644"/>
		<g>
			<path fill="#D5D5D4" d="M1313.571,141.723h23.82c17.148,0,28.461,7.388,28.461,22.507c0,15.122-11.549,22.629-28.699,22.629
				h-15.004v39.178h-8.578V141.723z M1322.149,179.593h14.527c13.338,0,20.602-5.359,20.602-15.358
				c0-10.363-7.621-15.124-20.602-15.124h-14.527V179.593z"/>
		</g>
		<g>
			<polygon fill="#D5D5D4" points="1378.228,226.115 1330.399,226.115 1330.399,189.828 1378.228,189.828 1378.228,198.074 
				1338.646,198.074 1338.646,217.865 1378.228,217.865 			"/>
		</g>
		<g>
			<rect x="1330.399" y="161.792" fill="#D5D5D4" width="47.828" height="8.245"/>
		</g>
	</g>
	<rect x="1277.624" y="257.308" fill="#34445A" width="133.59" height="138.645"/>
	<g>
		<g>
			<path fill="#D5D5D4" d="M1313.571,282.557h23.82c17.148,0,28.461,7.385,28.461,22.508c0,15.121-11.549,22.623-28.699,22.623
				h-15.004v39.18h-8.578V282.557z M1322.149,320.426h14.527c13.338,0,20.602-5.361,20.602-15.359
				c0-10.361-7.621-15.125-20.602-15.125h-14.527V320.426z"/>
		</g>
		<g>
			<polygon fill="#D5D5D4" points="1378.228,366.945 1330.399,366.945 1330.399,330.662 1378.228,330.662 1378.228,338.908 
				1338.646,338.908 1338.646,358.699 1378.228,358.699 			"/>
		</g>
		<g>
			<rect x="1330.399" y="302.625" fill="#D5D5D4" width="47.828" height="8.246"/>
		</g>
	</g>
	<rect x="1277.134" y="399.557" fill="#EEEEEE" width="133.594" height="138.643"/>
	<g>
		<path fill="#34445A" d="M1313.085,422.705h23.816c17.15,0,28.463,7.386,28.463,22.508s-11.551,22.629-28.699,22.629h-15.002
			v39.176h-8.578V422.705z M1321.663,460.576h14.527c13.336,0,20.602-5.361,20.602-15.361c0-10.363-7.621-15.124-20.602-15.124
			h-14.527V460.576z"/>
	</g>
	<g>
		<polygon fill="#34445A" points="1377.741,507.097 1329.911,507.097 1329.911,470.811 1377.741,470.811 1377.741,479.057 
			1338.157,479.057 1338.157,498.85 1377.741,498.85 		"/>
	</g>
	<g>
		<rect x="1329.911" y="442.773" fill="#34445A" width="47.83" height="8.244"/>
	</g>
	<rect x="598.938" y="118.563" fill="#34445A" width="339.954" height="419.028"/>
	<g>
		<g>
			<path fill="#D5D5D5" d="M697.42,199.744h57.229c41.205,0,68.393,17.743,68.393,54.083c0,36.343-27.76,54.37-68.963,54.37h-36.057
				v94.146H697.42V199.744z M718.022,290.742h34.911c32.049,0,49.504-12.878,49.504-36.915c0-24.895-18.313-36.34-49.504-36.34
				h-34.911V290.742z"/>
		</g>
		<g>
			<polygon fill="#D5D5D5" points="851.706,402.072 739.257,402.072 739.257,318.25 851.706,318.25 851.706,338.694 
				757.657,338.694 757.657,381.629 851.706,381.629 			"/>
		</g>
		<g>
			<rect x="739.257" y="248.736" fill="#D5D5D5" width="110.404" height="18.401"/>
		</g>
	</g>
	<g>
		<path fill="#CDD6DF" d="M704.096,435.949h-2.393v7.514h-4.809V423.54h7.314c4.36,0,7.793,1.575,7.793,6.133
			C712.002,434.289,708.261,435.949,704.096,435.949z M703.816,427.422h-2.112v4.701h2.025c1.801,0,3.465-0.535,3.465-2.424
			C707.195,427.789,705.531,427.422,703.816,427.422z"/>
		<path fill="#CDD6DF" d="M725.568,443.462l-4.306-7.907h-1.633v7.907H714.9v-19.923h7.596c3.83,0,7.626,1.464,7.626,6.024
			c0,2.67-1.574,4.582-4.137,5.371l5.209,8.526L725.568,443.462L725.568,443.462z M722.163,427.422H719.6v4.643h2.28
			c1.547,0,3.489-0.393,3.489-2.421C725.37,427.789,723.596,427.422,722.163,427.422z"/>
		<path fill="#CDD6DF" d="M733.556,443.462v-19.923h13.395v4.078h-8.75v3.744h8.273v3.854H738.2v4.137h9.258v4.108L733.556,443.462
			L733.556,443.462z"/>
		<path fill="#CDD6DF" d="M761.157,428.716c-0.813-1.041-2.305-1.718-3.543-1.718s-2.787,0.424-2.787,2.002
			c0,1.322,1.186,1.744,3.066,2.336c2.701,0.872,6.191,2.024,6.191,5.993c0,4.59-3.688,6.644-7.627,6.644
			c-2.84,0-5.711-1.046-7.455-2.871l3.152-3.205c0.957,1.206,2.73,2.106,4.305,2.106c1.465,0,2.762-0.562,2.762-2.169
			c0-1.519-1.521-1.996-4.137-2.84c-2.533-0.815-5.094-2.113-5.094-5.715c0-4.416,3.996-6.246,7.709-6.246
			c2.254,0,4.787,0.844,6.529,2.446L761.157,428.716z"/>
		<path fill="#CDD6DF" d="M767.265,443.462v-19.923h13.393v4.078h-8.748v3.744h8.273v3.854h-8.273v4.137h9.256v4.108
			L767.265,443.462L767.265,443.462z"/>
		<path fill="#CDD6DF" d="M797.007,443.462l-8.021-13.03h-0.086l0.111,13.03h-4.668v-19.923h5.486l7.992,13h0.084l-0.111-13h4.672
			v19.923H797.007z"/>
		<path fill="#CDD6DF" d="M815.097,427.646v15.815h-4.813v-15.815h-5.627v-4.106h16.068v4.106H815.097z"/>
		<path fill="#CDD6DF" d="M822.917,443.462v-19.923h13.395v4.078h-8.75v3.744h8.273v3.854h-8.273v4.137h9.26v4.108L822.917,443.462
			L822.917,443.462z"/>
		<path fill="#CDD6DF" d="M849.677,435.021v8.44h-4.813v-8.44l-7.484-11.481h5.822l4.25,7.374l4.25-7.374h5.629L849.677,435.021z"/>
	</g>
	<g>
		<path fill="#CDD6DF" d="M697.109,469.175v-16.368h9.802v1.814h-7.652v5.146h7.228v1.821h-7.228v5.777h7.979v1.809L697.109,469.175
			L697.109,469.175z"/>
		<path fill="#CDD6DF" d="M710.805,469.175v-16.368h2.279l7.892,11.512l1.214,1.915v-13.422h2.043v16.363h-2.293l-7.689-11.082
			l-1.439-2.249v13.331H710.805L710.805,469.175z"/>
		<path fill="#CDD6DF" d="M736.146,469.422c-1.764,0-3.268-0.34-4.518-1.02c-1.252-0.675-2.192-1.624-2.815-2.845
			c-0.63-1.217-0.939-2.649-0.939-4.301c0-1.678,0.354-3.181,1.063-4.506c0.708-1.326,1.708-2.363,2.995-3.11
			c1.289-0.751,2.76-1.129,4.408-1.129c2.123,0,3.916,0.55,5.385,1.646l-0.867,1.492c-1.293-0.889-2.787-1.326-4.475-1.326
			c-1.242,0-2.344,0.299-3.305,0.891c-0.961,0.59-1.695,1.404-2.209,2.443c-0.516,1.038-0.771,2.207-0.771,3.514
			c0,1.965,0.523,3.525,1.574,4.693c1.049,1.164,2.568,1.747,4.563,1.747c1.359,0,2.549-0.196,3.576-0.586v-4.629h-4.137v-1.836
			h6.271v7.672C740.206,469.026,738.274,469.422,736.146,469.422z"/>
		<path fill="#CDD6DF" d="M746.433,469.175v-16.368h2.152v16.368H746.433z"/>
		<path fill="#CDD6DF" d="M753.185,469.175v-16.368h2.279l7.891,11.512l1.213,1.915v-13.422h2.045v16.363h-2.293l-7.688-11.082
			l-1.439-2.249v13.331H753.185L753.185,469.175z"/>
		<path fill="#CDD6DF" d="M771.306,469.175v-16.368h9.803v1.814h-7.654v5.146h7.225v1.821h-7.225v5.777h7.98v1.809L771.306,469.175
			L771.306,469.175z"/>
		<path fill="#CDD6DF" d="M785.003,469.175v-16.368h9.801v1.814h-7.654v5.146h7.229v1.821h-7.229v5.777h7.982v1.809L785.003,469.175
			L785.003,469.175z"/>
		<path fill="#CDD6DF" d="M798.696,469.175v-16.368h5.238c0.674,0,1.279,0.037,1.814,0.108c0.529,0.072,1.041,0.206,1.531,0.398
			c0.49,0.195,0.896,0.451,1.221,0.771c0.32,0.319,0.58,0.735,0.768,1.254c0.193,0.518,0.287,1.122,0.287,1.822
			c0,1.024-0.26,1.884-0.785,2.573c-0.523,0.69-1.322,1.148-2.393,1.371c0.613,0.194,1.102,0.535,1.457,1.019
			c0.354,0.483,0.719,1.187,1.084,2.107l1.92,4.943h-2.291l-1.803-4.813c-0.256-0.69-0.486-1.196-0.699-1.518
			c-0.215-0.324-0.494-0.559-0.838-0.715c-0.346-0.153-0.82-0.229-1.43-0.229h-2.93v7.272h-2.152V469.175z M800.833,460.094h3.049
			c1.088,0,1.926-0.215,2.523-0.646c0.605-0.432,0.902-1.149,0.902-2.164c0-0.413-0.043-0.77-0.129-1.072s-0.211-0.555-0.369-0.759
			c-0.162-0.204-0.377-0.364-0.639-0.486c-0.266-0.126-0.564-0.212-0.896-0.269c-0.33-0.053-0.721-0.073-1.17-0.073
			c-0.014,0-0.029,0-0.041,0s-0.021,0-0.039,0c-0.016,0-0.033,0-0.045,0h-3.146V460.094L800.833,460.094z"/>
		<path fill="#CDD6DF" d="M814.349,469.175v-16.368h2.146v16.368H814.349z"/>
		<path fill="#CDD6DF" d="M821.095,469.175v-16.368h2.283l7.889,11.512l1.217,1.915v-13.422h2.043v16.363h-2.295l-7.688-11.082
			l-1.441-2.249v13.331H821.095L821.095,469.175z"/>
		<path fill="#CDD6DF" d="M846.437,469.422c-1.758,0-3.266-0.34-4.518-1.02c-1.248-0.675-2.191-1.624-2.816-2.845
			c-0.625-1.217-0.938-2.649-0.938-4.301c0-1.678,0.354-3.181,1.063-4.506c0.709-1.326,1.707-2.363,2.994-3.11
			c1.289-0.751,2.758-1.129,4.41-1.129c2.119,0,3.916,0.55,5.383,1.646l-0.865,1.492c-1.297-0.889-2.789-1.326-4.475-1.326
			c-1.242,0-2.346,0.299-3.307,0.891c-0.957,0.59-1.693,1.404-2.211,2.443c-0.51,1.038-0.768,2.207-0.768,3.514
			c0,1.965,0.525,3.525,1.576,4.693c1.049,1.164,2.568,1.747,4.563,1.747c1.357,0,2.549-0.196,3.574-0.586v-4.629h-4.135v-1.836
			h6.27v7.672C850.501,469.026,848.563,469.422,846.437,469.422z"/>
	</g>
	<rect x="938.278" y="118.57" fill="#D5D5D5" width="339.955" height="419.028"/>
	<g>
		<g>
			<path fill="#34445A" d="M1036.759,199.066h57.23c41.205,0,68.393,17.744,68.393,54.084c0,36.342-27.76,54.37-68.963,54.37
				h-36.057v94.146h-20.604V199.066L1036.759,199.066z M1057.364,290.063h34.91c32.049,0,49.502-12.877,49.502-36.913
				c0-24.895-18.313-36.34-49.502-36.34h-34.91V290.063z"/>
		</g>
		<g>
			<polygon fill="#34445A" points="1191.044,401.395 1078.599,401.395 1078.599,317.57 1191.044,317.57 1191.044,338.015 
				1096.999,338.015 1096.999,380.949 1191.044,380.949 			"/>
		</g>
		<g>
			<rect x="1078.599" y="248.057" fill="#34445A" width="110.404" height="18.4"/>
		</g>
	</g>
	<g>
		<path fill="#34445A" d="M1043.437,435.271h-2.393v7.513h-4.811v-19.924h7.314c4.361,0,7.795,1.577,7.795,6.136
			C1051.343,433.61,1047.603,435.271,1043.437,435.271z M1043.157,426.742h-2.111v4.7h2.025c1.801,0,3.467-0.534,3.467-2.424
			C1046.538,427.109,1044.874,426.742,1043.157,426.742z"/>
		<path fill="#34445A" d="M1064.909,442.783l-4.305-7.908h-1.633v7.908h-4.729v-19.925h7.596c3.828,0,7.625,1.466,7.625,6.025
			c0,2.672-1.57,4.582-4.139,5.371l5.213,8.526h-5.629V442.783z M1061.505,426.742h-2.564v4.643h2.281
			c1.545,0,3.488-0.393,3.488-2.42C1064.71,427.109,1062.937,426.742,1061.505,426.742z"/>
		<path fill="#34445A" d="M1072.897,442.783v-19.925h13.396v4.078h-8.752v3.745h8.271v3.854h-8.271v4.138h9.256v4.107h-13.9V442.783
			z"/>
		<path fill="#34445A" d="M1100.499,428.037c-0.814-1.042-2.307-1.718-3.543-1.718c-1.238,0-2.787,0.423-2.787,2
			c0,1.323,1.184,1.747,3.066,2.335c2.699,0.874,6.191,2.028,6.191,5.995c0,4.59-3.688,6.644-7.627,6.644
			c-2.842,0-5.711-1.044-7.455-2.871l3.152-3.203c0.957,1.205,2.729,2.104,4.305,2.104c1.463,0,2.762-0.559,2.762-2.168
			c0-1.517-1.521-1.996-4.139-2.84c-2.533-0.813-5.094-2.111-5.094-5.715c0-4.416,3.996-6.246,7.713-6.246
			c2.252,0,4.785,0.846,6.527,2.45L1100.499,428.037z"/>
		<path fill="#34445A" d="M1106.604,442.783v-19.925h13.395v4.078h-8.748v3.745h8.273v3.854h-8.273v4.138h9.254v4.107h-13.9V442.783
			z"/>
		<path fill="#34445A" d="M1136.349,442.783l-8.021-13.027h-0.082l0.107,13.027h-4.668v-19.925h5.486l7.994,13h0.082l-0.111-13
			h4.672v19.925H1136.349z"/>
		<path fill="#34445A" d="M1154.44,426.967v15.816h-4.811v-15.816h-5.631v-4.107h16.066v4.107H1154.44z"/>
		<path fill="#34445A" d="M1162.259,442.783v-19.925h13.393v4.078h-8.748v3.745h8.273v3.854h-8.273v4.138h9.26v4.107h-13.904
			V442.783z"/>
		<path fill="#34445A" d="M1189.019,434.342v8.441h-4.811v-8.441l-7.488-11.482h5.826l4.25,7.374l4.248-7.374h5.631
			L1189.019,434.342z"/>
	</g>
	<g>
		<path fill="#34445A" d="M1036.448,468.496v-16.369h9.805v1.813h-7.652v5.146h7.227v1.821h-7.227v5.777h7.979v1.81
			L1036.448,468.496L1036.448,468.496z"/>
		<path fill="#34445A" d="M1050.144,468.496v-16.369h2.283l7.889,11.513l1.213,1.915v-13.422h2.045v16.363h-2.293l-7.688-11.081
			l-1.441-2.251v13.332H1050.144L1050.144,468.496z"/>
		<path fill="#34445A" d="M1075.485,468.742c-1.76,0-3.27-0.34-4.52-1.019c-1.25-0.676-2.188-1.623-2.813-2.844
			c-0.629-1.218-0.941-2.651-0.941-4.304c0-1.676,0.355-3.179,1.066-4.506c0.705-1.325,1.705-2.362,2.992-3.108
			c1.291-0.75,2.76-1.129,4.408-1.129c2.123,0,3.916,0.549,5.383,1.645l-0.865,1.494c-1.293-0.889-2.785-1.328-4.475-1.328
			c-1.242,0-2.344,0.299-3.303,0.892c-0.965,0.592-1.697,1.405-2.213,2.444c-0.514,1.038-0.768,2.207-0.768,3.515
			c0,1.965,0.521,3.524,1.572,4.69c1.049,1.167,2.57,1.75,4.563,1.75c1.357,0,2.551-0.199,3.574-0.588v-4.629h-4.137v-1.836h6.271
			v7.671C1079.548,468.348,1077.614,468.742,1075.485,468.742z"/>
		<path fill="#34445A" d="M1085.774,468.496v-16.369h2.15v16.369H1085.774z"/>
		<path fill="#34445A" d="M1092.526,468.496v-16.369h2.279l7.891,11.513l1.215,1.915v-13.422h2.043v16.363h-2.293l-7.688-11.081
			l-1.438-2.251v13.332H1092.526L1092.526,468.496z"/>
		<path fill="#34445A" d="M1110.644,468.496v-16.369h9.807v1.813h-7.654v5.146h7.225v1.821h-7.225v5.777h7.98v1.81L1110.644,468.496
			L1110.644,468.496z"/>
		<path fill="#34445A" d="M1124.347,468.496v-16.369h9.801v1.813h-7.658v5.146h7.23v1.821h-7.23v5.777h7.98v1.81L1124.347,468.496
			L1124.347,468.496z"/>
		<path fill="#34445A" d="M1138.038,468.496v-16.369h5.238c0.674,0,1.277,0.039,1.813,0.106c0.531,0.074,1.041,0.207,1.533,0.401
			c0.492,0.195,0.896,0.452,1.219,0.77c0.324,0.321,0.58,0.739,0.77,1.254c0.191,0.517,0.285,1.122,0.285,1.822
			c0,1.025-0.26,1.885-0.785,2.573c-0.525,0.691-1.318,1.148-2.391,1.372c0.613,0.194,1.1,0.535,1.455,1.019
			c0.354,0.482,0.719,1.186,1.086,2.107l1.92,4.943h-2.293l-1.801-4.813c-0.256-0.689-0.486-1.195-0.701-1.518
			c-0.215-0.324-0.494-0.558-0.836-0.715c-0.346-0.151-0.822-0.228-1.43-0.228h-2.932v7.271h-2.15V468.496z M1140.175,459.414h3.047
			c1.088,0,1.928-0.213,2.527-0.646c0.602-0.433,0.898-1.151,0.898-2.166c0-0.414-0.043-0.77-0.127-1.071
			c-0.086-0.304-0.213-0.554-0.373-0.76c-0.158-0.206-0.375-0.365-0.637-0.486c-0.262-0.124-0.564-0.213-0.896-0.269
			c-0.33-0.051-0.719-0.074-1.172-0.074c-0.012,0-0.025,0-0.037,0c-0.014,0-0.023,0-0.039,0c-0.02,0-0.035,0-0.043,0h-3.15v5.472
			H1140.175z"/>
		<path fill="#34445A" d="M1153.692,468.496v-16.369h2.146v16.369H1153.692z"/>
		<path fill="#34445A" d="M1160.437,468.496v-16.369h2.283l7.889,11.513l1.215,1.915v-13.422h2.045v16.363h-2.295l-7.689-11.081
			l-1.439-2.251v13.332H1160.437L1160.437,468.496z"/>
		<path fill="#34445A" d="M1185.778,468.742c-1.76,0-3.266-0.34-4.52-1.019c-1.25-0.676-2.189-1.623-2.816-2.844
			c-0.625-1.218-0.938-2.651-0.938-4.304c0-1.676,0.354-3.179,1.063-4.506c0.709-1.325,1.707-2.362,2.996-3.108
			c1.289-0.75,2.756-1.129,4.408-1.129c2.121,0,3.918,0.549,5.383,1.645l-0.865,1.494c-1.297-0.889-2.787-1.328-4.475-1.328
			c-1.242,0-2.344,0.299-3.305,0.892c-0.957,0.592-1.695,1.405-2.211,2.444c-0.51,1.038-0.766,2.207-0.766,3.515
			c0,1.965,0.521,3.524,1.574,4.69c1.047,1.167,2.568,1.75,4.561,1.75c1.357,0,2.549-0.199,3.574-0.588v-4.629h-4.133v-1.836h6.27
			v7.671C1189.839,468.348,1187.905,468.742,1185.778,468.742z"/>
	</g>
	<polygon opacity="0.5" fill="#34445A" enable-background="new    " points="1015.611,179.722 1089.471,118.57 1016.051,118.57 	"/>
	<polygon id="underlogo_2_" opacity="0.5" fill="#34445A" enable-background="new    " points="1016.896,218.75 934.896,263.519 
		934.896,119.262 1016.896,119.262 	"/>
	<rect x="935.218" y="118.57" fill="#34445A" width="80.533" height="100.038"/>
	<g>
		<path fill="#D5D5D5" d="M958.999,150.341h10.381c7.471,0,12.396,3.22,12.396,9.811c0,6.585-5.033,9.854-12.502,9.854h-6.537
			v17.118h-3.738V150.341z M962.737,166.838h6.328c5.813,0,8.977-2.331,8.977-6.688c0-4.519-3.318-6.591-8.977-6.591h-6.328V166.838
			z"/>
	</g>
	<g>
		<g>
			<polygon fill="#D5D5D5" points="991.966,187.063 970.208,187.063 970.208,172.506 991.966,172.506 991.966,175.518 
				973.341,175.518 973.341,183.959 991.966,183.959 			"/>
		</g>
	</g>
	<g>
		<rect x="970.269" y="159.107" fill="#D5D5D5" width="21.697" height="3.009"/>
	</g>
</g>
<g id="Layer_6">
	<text transform="matrix(1 0 0 1 667.9512 -259.0322)" fill="#18222E" font-family="'OpenSans-Extrabold'" font-size="22.0765">pr</text>
	<text transform="matrix(1 0 0 1 696.8403 -259.0322)" fill="#18222E" font-family="'OpenSans-Extrabold'" font-size="22.0765">e</text>
	<text transform="matrix(1 0 0 1 709.1333 -259.0322)" fill="#18222E" font-family="'OpenSans-Extrabold'" font-size="22.0765">se</text>
	<text transform="matrix(1 0 0 1 733.9902 -259.0322)" fill="#18222E" font-family="'OpenSans-Extrabold'" font-size="22.0765">n</text>
	<text transform="matrix(1 0 0 1 752.5996 -259.0322)" fill="#18222E" font-family="'OpenSans-Extrabold'" font-size="22.0765">te</text>
	<text transform="matrix(1 0 0 1 778.0693 -259.0322)" fill="#18222E" font-family="'OpenSans-Extrabold'" font-size="22.0765">y engineering</text>
	<text transform="matrix(1 0 0 1 667.9531 -237.7705)" fill="#18222E" font-family="'Muli'" font-size="18.5643">products limited</text>
	<g>
		<rect x="1119" y="-316" fill="#CD7F48" width="140" height="141"/>
		<path fill="#263344" d="M1124.305-341H1068v106.875V-200h51v-34h92v-107H1124.305z M1166-270h-47v-30h47V-270z"/>
		<rect x="1207" y="-291" fill="#263344" width="52" height="33"/>
		<rect x="1209" y="-234" fill="#263344" width="52" height="32"/>
		<g>
			<rect x="1309.581" y="-201.063" fill="#CD7F48" width="140.118" height="26.272"/>
			<rect x="1309.577" y="-314.907" fill="#CD7F48" width="89.032" height="132.819"/>
		</g>
		<path fill="#34445A" d="M1317.229-341H1259v106.438V-200h52v-34h90v-107H1317.229z M1359-270h-48v-30h48V-270z"/>
		<rect x="1207" y="-236" fill="#263344" width="52" height="34"/>
	</g>
</g>
</svg>
