<?xml version="1.0" encoding="utf-8"?>
<!-- Generator: Adobe Illustrator 16.0.0, SVG Export Plug-In . SVG Version: 6.00 Build 0)  -->
<!DOCTYPE svg PUBLIC "-//W3C//DTD SVG 1.1//EN" "http://www.w3.org/Graphics/SVG/1.1/DTD/svg11.dtd">
<svg version="1.1" id="Layer_1" xmlns="http://www.w3.org/2000/svg" xmlns:xlink="http://www.w3.org/1999/xlink" x="0px" y="0px"
	 width="410.742px" height="213.807px" viewBox="0 0 410.742 213.807" enable-background="new 0 0 410.742 213.807"
	 xml:space="preserve">
<g id="Layer_2" display="none">
	<rect y="0" display="inline" fill="#FFFFFF" width="410.742" height="213.807"/>
</g>
<rect y="0" fill="#FFFFFF" width="410.742" height="213.807"/>
<rect x="66.531" y="65.998" fill="none" width="409.26" height="137.037"/>
<text transform="matrix(1 0 0 1 66.5288 122.3538)" fill="#CD5328" font-family="'PlayfairDisplay-Bold'" font-size="72">V</text>
<g>
	<path fill="#CD5328" d="M131.686,118.86c0.891,2.298,2.109,3.023,3.023,3.07v0.961c-1.898-0.094-4.664-0.141-7.289-0.141
		c-2.977,0-5.719,0.047-7.313,0.141v-0.961c2.297-0.094,3.375-0.445,3.375-1.758c0-0.563-0.188-1.313-0.563-2.273l-2.883-7.875
		h-10.43l-1.289,3.328c-0.914,2.344-1.313,4.056-1.313,5.32c0,2.531,1.641,3.188,4.266,3.258v0.961
		c-2.18-0.094-3.984-0.141-5.977-0.141c-1.406,0-2.719,0.047-3.68,0.141v-0.961c1.406-0.258,2.813-1.5,4.172-5.039l10.922-28.078
		c0.516,0.047,1.078,0.07,1.664,0.07c0.563,0,1.148-0.023,1.664-0.07L131.686,118.86z M114.928,96.149l-4.969,12.914h9.727
		L114.928,96.149z"/>
	<path fill="#CD5328" d="M166.678,89.868c-3.07,0.422-3.609,1.688-3.609,6.327v26.789c-0.352-0.022-0.75-0.022-1.148-0.022
		c-0.422,0-0.844,0-1.313,0.022l-20.813-26.391v18.422c0,5.273,0.422,6.492,4.664,6.914v0.961c-1.242-0.094-3.469-0.141-5.203-0.141
		c-1.5,0-3.164,0.047-4.172,0.141v-0.961c3.07-0.422,3.609-1.688,3.609-6.328V93.993c0-3.492-0.563-3.984-3.609-4.125v-0.961
		c1.008,0.094,2.672,0.141,4.172,0.141c1.523,0,3.023-0.047,4.148-0.141l18.563,22.897V96.782c0-5.273-0.422-6.492-4.664-6.914
		v-0.961c1.242,0.094,3.469,0.141,5.203,0.141c1.5,0,3.164-0.047,4.172-0.141V89.868z"/>
	<path fill="#CD5328" d="M203.17,105.524c0,10.453-7.031,17.367-19.102,17.367c-1.5,0-4.852-0.141-7.008-0.141
		c-2.836,0-5.766,0.047-7.383,0.141v-0.961c3.047-0.141,3.586-0.633,3.586-4.125V93.993c0-3.492-0.563-3.984-3.586-4.125v-0.961
		c1.313,0.069,3.539,0.163,5.789,0.163c0.492,0,1.008-0.022,1.5-0.022c2.297-0.047,5.625-0.141,7.547-0.141
		C197.146,88.907,203.17,94.813,203.17,105.524z M180.904,93.899v24c0,3.353,0.633,4.125,3.609,4.125
		c8.086,0,10.688-5.858,10.688-16.313c0-10.758-3-15.938-10.734-15.938C181.537,89.774,180.904,90.594,180.904,93.899z"/>
	<path fill="#CD5328" d="M233.123,122.891c-3.258-0.141-7.758-0.141-10.992-0.141c-3.211,0-10.406,0-15.633,0.141v-0.961
		c3.047-0.141,3.586-0.633,3.586-4.125V93.993c0-3.492-0.563-3.984-3.586-4.125v-0.961c5.227,0.141,12.422,0.141,15.633,0.141
		c2.93,0,7.078,0,10.031-0.141c-0.234,2.836-0.328,5.719-0.328,7.102c0,1.266,0.047,2.484,0.141,3.258h-1.102
		c-0.961-7.031-3.469-9.258-7.875-9.258h-1.969c-2.789,0-3.305,0.422-3.305,3.422v11.883h1.547c3.844,0,5.203-3.727,5.719-6.328
		h1.102c-0.141,2.039-0.164,3.423-0.164,4.523c0,0.891,0.023,1.594,0.023,2.297c0,1.57,0.047,3.164,0.281,6.82h-1.103
		c-0.491-3.375-2.017-6.353-5.858-6.353h-1.547v12.095c0,3,0.516,3.422,3.305,3.422h2.367c4.289,0,7.242-2.484,8.438-10.22h1.102
		c-0.094,1.031-0.141,2.462-0.141,4.031C232.795,117.032,232.842,120.008,233.123,122.891z"/>
	<path fill="#CD5328" d="M266.592,119c0.914,1.453,1.781,2.272,3.445,2.93v0.961c-2.227-0.094-5.203-0.141-7.5-0.141
		c-1.313,0-3.164,0-6.094,0.141v-0.961c1.781-0.07,2.555-0.328,2.555-0.961c0-0.305-0.188-0.68-0.492-1.195l-6.984-11.272
		c-1.336-2.086-1.944-2.556-3.375-2.672v11.977c0,3.492,0.563,3.984,3.609,4.125v0.961c-1.734-0.094-4.594-0.141-7.266-0.141
		c-3.07,0-5.953,0.047-7.57,0.141v-0.961c3.047-0.141,3.586-0.633,3.586-4.125V93.993c0-3.492-0.563-3.984-3.586-4.125v-0.961
		c1.617,0.094,4.5,0.141,7.57,0.141c2.672,0,5.531-0.047,7.266-0.141v0.961c-3.07,0.141-3.609,0.633-3.609,4.125v10.805
		c2.625-0.164,4.595-1.594,7.125-4.5l2.813-3.422c1.522-1.806,2.203-3.306,2.203-4.453c0-1.594-1.313-2.508-3.517-2.578v-0.938
		c2.345,0.094,4.242,0.141,7.078,0.141c1.898,0,3.375-0.047,4.547-0.141v0.938c-2.086,0.445-4.453,1.57-6.983,4.57l-6,7.147
		L266.592,119z"/>
	<path fill="#CD5328" d="M297.834,122.891c-3.258-0.141-7.758-0.141-10.992-0.141c-3.211,0-10.406,0-15.633,0.141v-0.961
		c3.047-0.141,3.586-0.633,3.586-4.125V93.993c0-3.492-0.563-3.984-3.586-4.125v-0.961c5.227,0.141,12.422,0.141,15.633,0.141
		c2.93,0,7.078,0,10.031-0.141c-0.234,2.836-0.328,5.719-0.328,7.102c0,1.266,0.047,2.484,0.141,3.258h-1.102
		c-0.961-7.031-3.469-9.258-7.875-9.258h-1.969c-2.789,0-3.305,0.422-3.305,3.422v11.883h1.547c3.844,0,5.203-3.727,5.719-6.328
		h1.102c-0.141,2.039-0.164,3.423-0.164,4.523c0,0.891,0.023,1.594,0.023,2.297c0,1.57,0.047,3.164,0.281,6.82h-1.103
		c-0.491-3.375-2.016-6.353-5.858-6.353h-1.547v12.095c0,3,0.516,3.422,3.305,3.422h2.367c4.289,0,7.242-2.484,8.438-10.22h1.102
		c-0.094,1.031-0.141,2.462-0.141,4.031C297.506,117.032,297.553,120.008,297.834,122.891z"/>
	<path fill="#CD5328" d="M342.928,89.868c-3.07,0.141-3.609,0.633-3.609,4.125v23.813c0,3.492,0.563,3.984,3.609,4.125v0.961
		c-1.781-0.094-4.758-0.141-7.547-0.141c-3.07,0-5.953,0.047-7.594,0.141v-0.961c3.281-0.141,3.891-0.633,3.891-4.125V92.821
		l-11.555,30.142h-0.773L306.389,92v23.016c0,5.273,0.422,6.492,4.664,6.914v0.961c-1.242-0.094-3.469-0.141-5.203-0.141
		c-1.5,0-3.164,0.047-4.172,0.141v-0.961c3.07-0.422,3.609-1.688,3.609-6.328V93.993c0-3.492-0.563-3.984-3.609-4.125v-0.961
		c1.008,0.094,2.672,0.141,4.172,0.141c2.789,0,5.508-0.047,7.594-0.141l9.681,23.344l8.858-23.203h3.398
		c2.789,0,5.766-0.047,7.547-0.141V89.868z"/>
	<path fill="#CD5328" d="M357.365,117.524c0,3.75,0.867,4.267,5.133,4.313v1.055c-1.969-0.069-5.32-0.141-8.742-0.141
		c-2.766,0-5.531,0.069-7.617,0.141v-0.961c3.047-0.141,3.586-0.633,3.586-4.125V93.993c0-3.492-0.563-3.984-3.586-4.125v-0.961
		c1.617,0.094,4.594,0.141,7.289,0.141c3.141,0,6.328-0.094,7.547-0.094c8.93,0,13.289,3.891,13.289,9.469
		c0,4.641-3.022,10.734-14.344,10.734h-2.555V117.524z M357.365,93.993v14.202h2.063c5.672,0,6.867-4.358,6.867-9.258
		c0-6.047-1.594-9.069-5.953-9.069C357.881,89.868,357.365,90.688,357.365,93.993z"/>
</g>
<g>
	<path fill="#CD5427" d="M87.292,145.587v-7.745c0-3.126,1.128-5.64,4.716-5.64c3.588,0,4.716,2.514,4.716,5.64v7.745
		c0,2.233-0.537,4.168-2.202,5.092c0.623,0.569,1.332,1.192,2.277,1.321v1.225c-1.278-0.183-2.31-1.042-3.309-2.159
		c-0.44,0.107-0.935,0.172-1.482,0.172C88.334,151.237,87.292,148.691,87.292,145.587z M95.091,145.952v-8.477
		c0-2.19-0.677-3.964-3.083-3.964c-2.406,0-3.083,1.772-3.083,3.964v8.477c0,2.19,0.677,3.975,3.083,3.975
		C94.414,149.927,95.091,148.144,95.091,145.952z"/>
	<path fill="#CD5427" d="M99.474,148.187v-10.107h1.633v10.141c0,1.364,0.623,1.826,1.364,1.826c0.666,0,1.493-0.494,2.138-1.3
		v-10.667h1.611v12.869h-1.611v-1.215c-0.72,1.054-1.751,1.504-2.729,1.504C100.731,151.237,99.474,150.249,99.474,148.187z"/>
	<path fill="#CD5427" d="M113.772,150.948l-0.204-1.559c-0.73,1.278-1.88,1.848-2.718,1.848c-1.246,0-2.546-1.063-2.546-2.856
		c0-1.665,0.075-3.223,5.146-5.307v-0.107c-0.011-3.771-0.795-4.093-1.579-4.093c-0.634,0-1.515,0.247-1.644,2.449v0.074h-1.676
		c0.172-2.245,1.386-3.608,3.266-3.608c2.729,0,3.266,2.233,3.266,4.007v6.188c0,1.516,0.193,2.966,0.193,2.966L113.772,150.948
		L113.772,150.948z M113.45,148.326v-4.533c-2.224,1.536-3.523,2.523-3.523,4.286c0,1.343,0.698,1.814,1.3,1.814
		C112.042,149.895,112.977,149.25,113.45,148.326z"/>
	<path fill="#CD5427" d="M118.123,150.948V132.46h1.611v18.487H118.123z"/>
	<path fill="#CD5427" d="M122.677,135.135v-1.923h1.611v1.923H122.677z M122.677,150.948v-12.869h1.611v12.869H122.677z"/>
	<path fill="#CD5427" d="M127.533,147.907v-8.928h-1.751v-0.901h1.751v-4.565h1.611v4.565h2.063v0.901h-2.063v8.853
		c0,1.3,0.043,2.104,1.096,2.104c0.312,0,0.634-0.021,0.945-0.086v1.106c-0.548,0.14-0.988,0.183-1.396,0.183
		C127.715,151.141,127.533,149.551,127.533,147.907z"/>
	<path fill="#CD5427" d="M133.065,154.159v-1.321c1.751-0.118,2.481-0.58,2.481-1.396c0-0.364-0.032-0.987-0.118-1.524
		l-2.793-11.827h1.74l2.127,11.063l2.084-11.074h1.74l-3.223,13.761c-0.451,1.74-1.794,2.256-4.007,2.32L133.065,154.159
		L133.065,154.159z"/>
	<path fill="#CD5427" d="M145.429,144.846v-0.666c0-2.997,0-6.392,3.513-6.392c2.567,0,3.126,2.063,3.255,4.383
		c0,0.043,0.011,0.075,0.011,0.118h-1.611v-0.098c-0.086-2.353-0.462-3.318-1.654-3.318c-1.687,0-1.901,1.504-1.901,5.307v0.666
		c0,3.867,0.312,5.307,1.901,5.307c1.149,0,1.547-0.967,1.654-3.427v-0.106h1.622v0.074c-0.107,2.492-0.623,4.544-3.276,4.544
		C145.429,151.237,145.429,148.079,145.429,144.846z"/>
	<path fill="#CD5427" d="M154.625,148.187v-10.107h1.633v10.141c0,1.364,0.623,1.826,1.364,1.826c0.666,0,1.493-0.494,2.138-1.3
		v-10.667h1.611v12.869h-1.611v-1.215c-0.72,1.054-1.751,1.504-2.729,1.504C155.881,151.237,154.625,150.249,154.625,148.187z"/>
	<path fill="#CD5427" d="M163.24,147.725l1.235-0.419c0.365,1.117,1.225,2.771,2.524,2.771c1.171,0,1.697-0.795,1.697-1.912
		c0-1.031-1.128-2.225-2.202-3.169l-0.935-0.816c-1.149-1.01-2.148-1.977-2.148-3.319c0-1.977,1.311-3.051,3.233-3.051
		s2.89,1.602,3.298,3.267l-1.429,0.439c-0.172-1.063-0.752-2.546-1.944-2.546c-0.978,0-1.568,0.741-1.568,1.751
		c0,0.936,0.709,1.697,1.611,2.471l1.021,0.882c1.246,1.085,2.546,2.224,2.578,4.061c0,1.955-1.375,3.104-3.276,3.104
		C164.926,151.237,163.702,149.594,163.24,147.725z"/>
	<path fill="#CD5427" d="M172.747,147.907v-8.928h-1.751v-0.901h1.751v-4.565h1.611v4.565h2.063v0.901h-2.063v8.853
		c0,1.3,0.043,2.104,1.096,2.104c0.312,0,0.634-0.021,0.945-0.086v1.106c-0.548,0.14-0.988,0.183-1.396,0.183
		C172.929,151.141,172.747,149.551,172.747,147.907z"/>
	<path fill="#CD5427" d="M178.268,144.846v-0.666c0-2.997,0-6.392,3.405-6.392c3.405,0,3.405,3.395,3.405,6.392v0.666
		c0,3.233,0,6.392-3.405,6.392C178.268,151.238,178.268,148.079,178.268,144.846z M179.879,144.18v0.666
		c0,3.867,0.29,5.307,1.794,5.307c1.504,0,1.794-1.438,1.794-5.307v-0.666c0-3.803-0.226-5.307-1.794-5.307
		C180.083,138.873,179.879,140.377,179.879,144.18z"/>
	<path fill="#CD5427" d="M187.528,150.948v-12.869h1.622v1.191c0.881-1.042,1.944-1.481,2.933-1.481c0.87,0,1.858,0.602,2.224,1.461
		c0.902-1.021,2.073-1.461,2.836-1.461c1.278,0,2.535,0.999,2.535,2.405v10.754h-1.611v-10.421c0-1.128-0.655-1.547-1.396-1.547
		c-0.645,0-1.472,0.397-2.116,1.042v10.926h-1.611v-10.432c0-1.128-0.655-1.536-1.439-1.536c-0.73,0-1.665,0.494-2.363,1.278v10.688
		L187.528,150.948L187.528,150.948z"/>
	<path fill="#CD5427" d="M205.822,144.846v-0.666c0-2.997,0-6.392,3.513-6.392c2.567,0,3.126,2.063,3.255,4.383
		c0,0.043,0.012,0.075,0.012,0.118h-1.611v-0.098c-0.086-2.353-0.463-3.318-1.654-3.318c-1.688,0-1.9,1.504-1.9,5.307v0.666
		c0,3.867,0.312,5.307,1.9,5.307c1.148,0,1.547-0.967,1.654-3.427v-0.106h1.621v0.074c-0.106,2.492-0.622,4.544-3.275,4.544
		C205.822,151.237,205.822,148.079,205.822,144.846z"/>
	<path fill="#CD5427" d="M219.883,150.948l-0.203-1.559c-0.73,1.278-1.881,1.848-2.719,1.848c-1.246,0-2.546-1.063-2.546-2.856
		c0-1.665,0.075-3.223,5.146-5.307v-0.107c-0.011-3.771-0.795-4.093-1.578-4.093c-0.635,0-1.516,0.247-1.645,2.449v0.074h-1.676
		c0.172-2.245,1.386-3.608,3.266-3.608c2.729,0,3.266,2.233,3.266,4.007v6.188c0,1.516,0.193,2.966,0.193,2.966L219.883,150.948
		L219.883,150.948z M219.561,148.326v-4.533c-2.224,1.536-3.522,2.523-3.522,4.286c0,1.343,0.698,1.814,1.3,1.814
		C218.154,149.895,219.088,149.25,219.561,148.326z"/>
	<path fill="#CD5427" d="M223.912,150.948V132.46h1.611v6.832c0.688-1.01,1.601-1.504,2.48-1.504c1.311,0,2.836,0.505,2.836,6.272
		v1.021c0,5.563-1.525,6.154-2.718,6.154c-0.806,0-1.849-0.333-2.601-1.504v1.215H223.912z M229.229,145.093v-1.021
		c0-4.866-0.763-5.093-1.547-5.093c-0.763,0-1.492,0.537-2.158,1.278v8.486c0.634,0.763,1.449,1.3,2.104,1.3
		C228.445,150.045,229.229,149.916,229.229,145.093z"/>
	<path fill="#CD5427" d="M233.418,135.135v-1.923h1.611v1.923H233.418z M233.418,150.948v-12.869h1.611v12.869H233.418z"/>
	<path fill="#CD5427" d="M237.641,150.948v-12.869h1.61v1.214c0.72-1.053,1.751-1.504,2.729-1.504c1.148,0,2.406,0.987,2.406,3.051
		v10.108h-1.634v-10.142c0-1.364-0.623-1.826-1.364-1.826c-0.666,0-1.492,0.494-2.138,1.3v10.667L237.641,150.948L237.641,150.948z"
		/>
	<path fill="#CD5427" d="M246.954,145.018l0.011-1.794c0.032-4.587,1.504-5.436,3.545-5.436c2.331,0,3.244,1.622,3.244,5.092
		c0,0.526,0,0.806-0.021,1.321h-5.155v1.966c0,3.47,0.72,3.984,1.923,3.984c0.827,0,1.688-0.602,1.708-3.062v-0.086h1.504v0.063
		c-0.192,2.214-0.784,4.168-3.19,4.168C247.889,151.237,246.911,149.873,246.954,145.018z M248.586,143.406h3.566v-0.021
		c-0.032-1.966,0.215-4.512-1.568-4.512c-1.986,0-1.998,1.558-1.998,4.501V143.406z"/>
	<path fill="#CD5427" d="M256.718,147.907v-8.928h-1.751v-0.901h1.751v-4.565h1.611v4.565h2.063v0.901h-2.063v8.853
		c0,1.3,0.043,2.104,1.096,2.104c0.312,0,0.634-0.021,0.945-0.086v1.106c-0.548,0.14-0.988,0.183-1.396,0.183
		C256.9,151.141,256.718,149.551,256.718,147.907z"/>
	<path fill="#CD5427" d="M261.756,147.725l1.235-0.419c0.364,1.117,1.225,2.771,2.524,2.771c1.17,0,1.696-0.795,1.696-1.912
		c0-1.031-1.128-2.225-2.202-3.169l-0.935-0.816c-1.149-1.01-2.148-1.977-2.148-3.319c0-1.977,1.312-3.051,3.233-3.051
		s2.89,1.602,3.298,3.267l-1.429,0.439c-0.172-1.063-0.752-2.546-1.944-2.546c-0.978,0-1.567,0.741-1.567,1.751
		c0,0.936,0.709,1.697,1.61,2.471l1.021,0.882c1.246,1.085,2.547,2.224,2.578,4.061c0,1.955-1.375,3.104-3.275,3.104
		C263.443,151.237,262.218,149.594,261.756,147.725z"/>
	<path fill="#CD5427" d="M273.508,147.725l1.235-0.419c0.364,1.117,1.225,2.771,2.524,2.771c1.17,0,1.696-0.795,1.696-1.912
		c0-1.031-1.128-2.225-2.202-3.169l-0.935-0.816c-1.149-1.01-2.148-1.977-2.148-3.319c0-1.977,1.312-3.051,3.233-3.051
		s2.89,1.602,3.298,3.267l-1.429,0.439c-0.172-1.063-0.752-2.546-1.944-2.546c-0.978,0-1.567,0.741-1.567,1.751
		c0,0.936,0.709,1.697,1.61,2.471l1.021,0.882c1.246,1.085,2.547,2.224,2.578,4.061c0,1.955-1.375,3.104-3.275,3.104
		C275.195,151.237,273.971,149.594,273.508,147.725z"/>
	<path fill="#CD5427" d="M282.51,135.135v-1.923h1.611v1.923H282.51z M282.51,150.948v-12.869h1.611v12.869H282.51z"/>
	<path fill="#CD5427" d="M286.732,150.948v-12.869h1.611v1.214c0.719-1.053,1.75-1.504,2.729-1.504c1.147,0,2.405,0.987,2.405,3.051
		v10.108h-1.633v-10.142c0-1.364-0.623-1.826-1.365-1.826c-0.666,0-1.491,0.494-2.137,1.3v10.667L286.732,150.948L286.732,150.948z"
		/>
	<path fill="#CD5427" d="M296.035,144.846v-0.666c0-2.997,0-6.392,3.512-6.392c2.568,0,3.127,2.063,3.256,4.383
		c0,0.043,0.01,0.075,0.01,0.118h-1.61v-0.098c-0.086-2.353-0.461-3.318-1.654-3.318c-1.687,0-1.899,1.504-1.899,5.307v0.666
		c0,3.867,0.311,5.307,1.899,5.307c1.15,0,1.548-0.967,1.654-3.427v-0.106h1.623v0.074c-0.107,2.492-0.623,4.544-3.277,4.544
		C296.035,151.237,296.035,148.079,296.035,144.846z"/>
	<path fill="#CD5427" d="M305.004,145.018l0.012-1.794c0.031-4.587,1.504-5.436,3.545-5.436c2.33,0,3.244,1.622,3.244,5.092
		c0,0.526,0,0.806-0.021,1.321h-5.156v1.966c0,3.47,0.72,3.984,1.922,3.984c0.828,0,1.688-0.602,1.709-3.062v-0.086h1.505v0.063
		c-0.193,2.214-0.785,4.168-3.191,4.168C305.939,151.237,304.961,149.873,305.004,145.018z M306.637,143.406h3.566v-0.021
		c-0.031-1.966,0.215-4.512-1.568-4.512c-1.986,0-1.998,1.558-1.998,4.501V143.406L306.637,143.406z"/>
	<path fill="#CD5427" d="M317.207,150.948v-1.375l4.963-7.487c0.859-1.3,2.063-3.158,2.063-4.802c0-2.171-0.653-3.771-2.448-3.771
		c-2.535,0-2.91,2.116-2.91,4.372h-1.633v-0.247c0.063-3.352,1.396-5.436,4.521-5.436c2.793,0,4.104,2.009,4.104,5.069
		c0,1.665-1.171,3.835-2.084,5.156l-4.65,7.208h6.511v1.311h-8.436V150.948z"/>
	<path fill="#CD5427" d="M327.854,145.587v-7.745c0-3.126,1.063-5.64,4.394-5.64s4.396,2.514,4.396,5.64v7.745
		c0,3.104-0.979,5.649-4.396,5.649S327.854,148.691,327.854,145.587z M335.008,145.952v-8.477c0-2.19-0.613-3.964-2.762-3.964
		s-2.76,1.772-2.76,3.964v8.477c0,2.19,0.611,3.975,2.76,3.975S335.008,148.144,335.008,145.952z"/>
	<path fill="#CD5427" d="M339.1,145.587v-7.745c0-3.126,1.064-5.64,4.396-5.64s4.394,2.514,4.394,5.64v7.745
		c0,3.104-0.978,5.649-4.394,5.649S339.1,148.691,339.1,145.587z M346.254,145.952v-8.477c0-2.19-0.611-3.964-2.76-3.964
		c-2.149,0-2.762,1.772-2.762,3.964v8.477c0,2.19,0.613,3.975,2.762,3.975S346.254,148.144,346.254,145.952z"/>
	<path fill="#CD5427" d="M350.271,146.704v-0.279h1.524c0.063,2.943,0.957,3.502,2.601,3.502c1.504,0,2.385-0.752,2.385-3.91v-3.491
		c-0.654,0.313-1.525,0.483-2.643,0.483c-3.082,0-4.275-2.331-4.275-5.339c0-3.094,1.225-5.468,4.383-5.468
		c2.998,0,4.168,2.052,4.168,5.554v8.229c0,3.04-1.074,5.253-4.168,5.253C351.293,151.237,350.271,149.003,350.271,146.704z
		 M356.781,141.204v-3.33c0-3.577-0.838-4.361-2.535-4.361c-1.848,0-2.75,0.988-2.75,4.146c0,3.071,0.871,4.039,2.643,4.039
		C355.084,141.698,356.309,141.516,356.781,141.204z"/>
</g>
<polygon fill="#CD5427" points="68.604,74.141 44.044,46.742 13.013,56.399 "/>
<polygon fill="#CD5427" points="68.144,71.402 39.86,94.938 48.368,126.304 "/>
<polygon fill="#CD5427" points="66.586,74.492 91.584,47.492 79.085,17.492 "/>
<g>
	<path fill="#32454C" d="M273.757,72.748V62.187c0-4.263,1.509-7.689,6.401-7.689c4.541,0,5.918,3.428,5.918,7.689v1.025h-2.124
		v-1.523c0-3.076-0.864-5.404-3.794-5.404c-3.281,0-4.176,2.328-4.176,5.404v11.559c0,3.076,0.895,5.42,4.176,5.42
		c2.93,0,3.794-2.344,3.794-5.42v-1.729h2.124v1.23c0,4.232-1.26,7.705-5.918,7.705C275.148,80.453,273.757,76.981,273.757,72.748z"
		/>
	<path fill="#32454C" d="M296.287,80.058l-0.279-2.124c-0.996,1.743-2.563,2.521-3.705,2.521c-1.699,0-3.473-1.45-3.473-3.896
		c0-2.271,0.104-4.395,7.018-7.236v-0.146c-0.016-5.142-1.084-5.581-2.154-5.581c-0.862,0-2.063,0.337-2.239,3.34v0.104h-2.285
		c0.233-3.063,1.89-4.922,4.453-4.922c3.722,0,4.453,3.047,4.453,5.464v8.438c0,2.065,0.264,4.043,0.264,4.043h-2.052V80.058z
		 M295.848,76.483v-6.182c-3.033,2.095-4.805,3.442-4.805,5.845c0,1.831,0.951,2.477,1.771,2.477
		C293.928,78.622,295.203,77.743,295.848,76.483z"/>
	<path fill="#32454C" d="M301.779,80.058v-25.21h2.197v9.316c0.938-1.377,2.184-2.052,3.385-2.052c1.787,0,3.867,0.688,3.867,8.556
		v1.392c0,7.588-2.08,8.395-3.707,8.395c-1.099,0-2.521-0.454-3.545-2.052v1.655H301.779z M309.031,72.074v-1.393
		c0-6.636-1.041-6.942-2.109-6.942c-1.041,0-2.037,0.731-2.945,1.742v11.572c0.865,1.04,1.979,1.772,2.871,1.772
		C307.961,78.827,309.031,78.651,309.031,72.074z"/>
	<path fill="#32454C" d="M314.744,58.495v-2.622h2.197v2.622H314.744z M314.744,80.058V62.509h2.197v17.549H314.744z"/>
	<path fill="#32454C" d="M320.5,80.058V62.509h2.197v1.655c0.982-1.437,2.389-2.052,3.721-2.052c1.568,0,3.281,1.349,3.281,4.16
		v13.784h-2.227V66.229c0-1.859-0.851-2.49-1.859-2.49c-0.908,0-2.037,0.675-2.916,1.772v14.546L320.5,80.058L320.5,80.058z"/>
	<path fill="#32454C" d="M333.201,71.972l0.014-2.446c0.045-6.255,2.051-7.411,4.834-7.411c3.18,0,4.424,2.212,4.424,6.942
		c0,0.718,0,1.1-0.029,1.802h-7.03v2.682c0,4.73,0.981,5.435,2.623,5.435c1.127,0,2.299-0.82,2.328-4.175v-0.117h2.051v0.088
		c-0.265,3.019-1.067,5.685-4.351,5.685C334.475,80.453,333.143,78.593,333.201,71.972z M335.428,69.774h4.863v-0.028
		c-0.045-2.682,0.293-6.152-2.139-6.152c-2.711,0-2.726,2.124-2.726,6.138L335.428,69.774L335.428,69.774z"/>
	<path fill="#32454C" d="M346.516,75.912V63.74h-2.387v-1.23h2.387v-6.226h2.197v6.226h2.813v1.229h-2.813v12.07
		c0,1.772,0.059,2.871,1.494,2.871c0.426,0,0.865-0.029,1.289-0.117v1.509c-0.746,0.19-1.348,0.249-1.904,0.249
		C346.766,80.321,346.516,78.153,346.516,75.912z"/>
	<path fill="#32454C" d="M354.354,80.058V62.509h2.197v2.476c0.586-1.978,2.373-2.725,3.691-2.754h0.043v2.212
		c0,0-0.205-0.059-0.381-0.059c-1.684,0-3.354,0.513-3.354,2.578v13.096H354.354L354.354,80.058z"/>
	<path fill="#32454C" d="M362.395,84.438v-1.802c2.39-0.161,3.385-0.791,3.385-1.904c0-0.498-0.045-1.348-0.161-2.08l-3.81-16.128
		h2.373l2.9,15.088l2.842-15.103h2.373l-4.395,18.765c-0.615,2.373-2.445,3.076-5.463,3.164H362.395z"/>
</g>
</svg>
