<?xml version="1.0" encoding="utf-8"?>
<!-- Generator: Adobe Illustrator 16.0.0, SVG Export Plug-In . SVG Version: 6.00 Build 0)  -->
<!DOCTYPE svg PUBLIC "-//W3C//DTD SVG 1.1//EN" "http://www.w3.org/Graphics/SVG/1.1/DTD/svg11.dtd">
<svg version="1.1" xmlns="http://www.w3.org/2000/svg" xmlns:xlink="http://www.w3.org/1999/xlink" x="0px" y="0px"
	 width="814.424px" height="335.893px" viewBox="0 0 814.424 335.893" enable-background="new 0 0 814.424 335.893"
	 xml:space="preserve">
<g id="Layer_3" display="none">
	<rect x="1.758" y="2.901" display="inline" fill="#E2E3CE" width="905.555" height="369.197"/>
</g>
<g id="Layer_1">
	<rect x="1.735" fill="#E2E3CE" width="519.296" height="335.893"/>
	<rect x="91.928" y="130.458" fill="none" width="482.5" height="161.562"/>
	<g enable-background="new    ">
		<path fill="#CE5428" d="M149.454,136.799v1.7c-2.445,0.953-5.471,3.73-7.751,10.071l-17.946,48.494
			c-0.912-0.04-1.948-0.082-2.942-0.082c-1.036,0-2.031,0.042-2.943,0.082l-21.636-53.136c-1.617-4.063-3.689-5.347-5.346-5.43v-1.7
			c3.398,0.166,8.248,0.249,12.931,0.249c5.223,0,10.113-0.083,12.891-0.249v1.7c-3.938,0.166-5.969,0.705-5.969,3.15
			c0,0.953,0.332,2.28,0.995,3.979l15.004,38.008l10.445-28.185c1.616-4.394,2.362-7.751,2.362-10.279
			c0-4.725-2.611-6.548-7.129-6.673v-1.7c3.813,0.166,7.046,0.249,10.57,0.249C145.476,137.048,147.755,136.965,149.454,136.799z"/>
	</g>
	<g>
		<path fill="#CE5428" d="M168.742,192.779c1.051,2.711,2.487,3.565,3.564,3.62v1.133c-2.238-0.11-5.499-0.165-8.594-0.165
			c-3.51,0-6.742,0.055-8.622,0.165v-1.133c2.708-0.111,3.979-0.525,3.979-2.072c0-0.664-0.222-1.548-0.664-2.68l-3.399-9.285
			h-12.297l-1.52,3.923c-1.078,2.764-1.548,4.784-1.548,6.273c0,2.984,1.935,3.758,5.03,3.841v1.133
			c-2.571-0.11-4.698-0.165-7.047-0.165c-1.657,0-3.206,0.055-4.339,0.165v-1.133c1.658-0.304,3.316-1.768,4.919-5.941
			l12.876-33.102c0.608,0.054,1.271,0.083,1.962,0.083c0.664,0,1.353-0.028,1.961-0.083L168.742,192.779z M148.986,166.004
			l-5.859,15.225h11.468L148.986,166.004z"/>
		<path fill="#CE5428" d="M209.997,158.6c-3.62,0.498-4.256,1.99-4.256,7.458v31.584c-0.415-0.026-0.884-0.026-1.353-0.026
			c-0.497,0-0.995,0-1.548,0.026l-24.537-31.114v21.719c0,6.217,0.498,7.654,5.499,8.151v1.133
			c-1.464-0.111-4.089-0.166-6.134-0.166c-1.768,0-3.73,0.055-4.919,0.166v-1.133c3.62-0.497,4.255-1.989,4.255-7.461v-25.475
			c0-4.117-0.664-4.697-4.255-4.863v-1.133c1.188,0.111,3.151,0.165,4.919,0.165c1.796,0,3.563-0.054,4.89-0.165l21.885,26.994
			v-17.71c0-6.217-0.497-7.653-5.498-8.151v-1.133c1.463,0.111,4.089,0.165,6.133,0.165c1.769,0,3.731-0.054,4.919-0.165V158.6z"/>
		<path fill="#CE5428" d="M253.019,177.057c0,12.324-8.29,20.476-22.521,20.476c-1.768,0-5.72-0.165-8.261-0.165
			c-3.344,0-6.798,0.055-8.705,0.165v-1.133c3.593-0.166,4.229-0.746,4.229-4.862v-28.074c0-4.117-0.664-4.697-4.229-4.863v-1.133
			c1.549,0.08,4.173,0.191,6.826,0.191c0.58,0,1.188-0.026,1.768-0.026c2.708-0.054,6.631-0.165,8.898-0.165
			C245.917,157.467,253.019,164.429,253.019,177.057z M226.768,163.351v28.296c0,3.953,0.746,4.862,4.255,4.862
			c9.533,0,12.601-6.905,12.601-19.232c0-12.683-3.537-18.791-12.655-18.791C227.514,158.488,226.768,159.456,226.768,163.351z"/>
		<path fill="#CE5428" d="M288.333,197.532c-3.841-0.165-9.146-0.165-12.959-0.165c-3.786,0-12.269,0-18.43,0.165v-1.133
			c3.592-0.166,4.228-0.746,4.228-4.862v-28.074c0-4.117-0.664-4.697-4.228-4.863v-1.133c6.162,0.165,14.645,0.165,18.43,0.165
			c3.454,0,8.345,0,11.826-0.165c-0.276,3.343-0.387,6.742-0.387,8.372c0,1.492,0.055,2.929,0.166,3.841h-1.298
			c-1.132-8.289-4.09-10.915-9.284-10.915h-2.321c-3.288,0-3.896,0.498-3.896,4.034v14.009h1.824c4.531,0,6.134-4.393,6.742-7.46
			h1.299c-0.166,2.404-0.194,4.037-0.194,5.333c0,1.05,0.028,1.879,0.028,2.708c0,1.852,0.055,3.73,0.332,8.042h-1.301
			c-0.578-3.98-2.378-7.491-6.906-7.491h-1.824v14.261c0,3.536,0.608,4.034,3.896,4.034h2.791c5.056,0,8.538-2.93,9.947-12.051
			h1.299c-0.111,1.214-0.166,2.904-0.166,4.753C287.946,190.626,288,194.134,288.333,197.532z"/>
		<path fill="#CE5428" d="M327.791,192.945c1.078,1.712,2.101,2.679,4.062,3.454v1.133c-2.625-0.11-6.135-0.165-8.843-0.165
			c-1.547,0-3.729,0-7.184,0.165v-1.133c2.1-0.083,3.012-0.387,3.012-1.133c0-0.359-0.221-0.801-0.58-1.409l-8.234-13.29
			c-1.575-2.458-2.292-3.013-3.979-3.149v14.121c0,4.116,0.665,4.697,4.255,4.863v1.132c-2.044-0.108-5.416-0.165-8.565-0.165
			c-3.62,0-7.018,0.057-8.925,0.165v-1.132c3.592-0.166,4.228-0.747,4.228-4.863v-28.076c0-4.117-0.664-4.697-4.228-4.863v-1.133
			c1.907,0.111,5.306,0.165,8.925,0.165c3.15,0,6.521-0.054,8.565-0.165v1.133c-3.62,0.166-4.255,0.746-4.255,4.863v12.739
			c3.095-0.194,5.419-1.879,8.401-5.306l3.317-4.034c1.794-2.129,2.597-3.898,2.597-5.25c0-1.879-1.548-2.957-4.146-3.04v-1.104
			c2.764,0.111,5.001,0.165,8.345,0.165c2.238,0,3.979-0.054,5.361-0.165v1.104c-2.46,0.526-5.25,1.852-8.234,5.388l-7.073,8.425
			L327.791,192.945z"/>
		<path fill="#CE5428" d="M364.624,197.532c-3.841-0.165-9.146-0.165-12.959-0.165c-3.786,0-12.268,0-18.431,0.165v-1.133
			c3.593-0.166,4.228-0.746,4.228-4.862v-28.074c0-4.117-0.664-4.697-4.228-4.863v-1.133c6.163,0.165,14.645,0.165,18.431,0.165
			c3.454,0,8.345,0,11.827-0.165c-0.277,3.343-0.387,6.742-0.387,8.372c0,1.492,0.054,2.929,0.166,3.841h-1.299
			c-1.133-8.289-4.089-10.915-9.284-10.915h-2.321c-3.288,0-3.896,0.498-3.896,4.034v14.009h1.824c4.532,0,6.134-4.393,6.742-7.46
			h1.299c-0.166,2.404-0.193,4.037-0.193,5.333c0,1.05,0.028,1.879,0.028,2.708c0,1.852,0.055,3.73,0.331,8.042h-1.302
			c-0.577-3.98-2.375-7.491-6.905-7.491h-1.824v14.261c0,3.536,0.608,4.034,3.896,4.034h2.791c5.057,0,8.539-2.93,9.948-12.051
			h1.298c-0.11,1.214-0.166,2.904-0.166,4.753C364.237,190.626,364.292,194.134,364.624,197.532z"/>
		<path fill="#CE5428" d="M417.788,158.6c-3.621,0.166-4.256,0.746-4.256,4.863v28.074c0,4.117,0.664,4.698,4.256,4.864v1.132
			c-2.101-0.11-5.61-0.165-8.898-0.165c-3.62,0-7.018,0.055-8.952,0.165v-1.132c3.869-0.166,4.587-0.747,4.587-4.864v-29.457
			l-13.622,35.537h-0.913l-15.281-36.504v27.135c0,6.218,0.498,7.654,5.499,8.151v1.133c-1.465-0.11-4.089-0.165-6.134-0.165
			c-1.768,0-3.73,0.055-4.918,0.165v-1.133c3.62-0.497,4.256-1.99,4.256-7.461v-25.476c0-4.117-0.664-4.697-4.256-4.863v-1.133
			c1.188,0.111,3.15,0.165,4.918,0.165c3.289,0,6.494-0.054,8.953-0.165l11.414,27.521l10.443-27.356h4.006
			c3.288,0,6.798-0.054,8.898-0.165V158.6z"/>
		<path fill="#CE5428" d="M434.809,191.204c0,4.422,1.023,5.032,6.052,5.086v1.243c-2.321-0.08-6.272-0.165-10.308-0.165
			c-3.26,0-6.521,0.08-8.979,0.165v-1.132c3.591-0.166,4.227-0.747,4.227-4.864v-28.074c0-4.117-0.664-4.697-4.227-4.863v-1.133
			c1.905,0.111,5.415,0.165,8.592,0.165c3.703,0,7.461-0.11,8.897-0.11c10.528,0,15.667,4.586,15.667,11.163
			c0,5.471-3.562,12.655-16.909,12.655h-3.013V191.204z M434.809,163.463v16.743h2.431c6.688,0,8.097-5.137,8.097-10.915
			c0-7.129-1.879-10.691-7.019-10.691C435.416,158.6,434.809,159.566,434.809,163.463z"/>
	</g>
	<g>
		<path fill="#CE5528" d="M116.404,224.289v-9.131c0-3.686,1.33-6.648,5.56-6.648c4.231,0,5.561,2.963,5.561,6.648v9.131
			c0,2.633-0.633,4.914-2.596,6.004c0.734,0.67,1.57,1.404,2.684,1.557v1.445c-1.506-0.215-2.723-1.229-3.9-2.545
			c-0.519,0.125-1.103,0.201-1.748,0.201C117.633,230.951,116.404,227.949,116.404,224.289z M125.598,224.721v-9.994
			c0-2.582-0.798-4.674-3.635-4.674c-2.836,0-3.634,2.09-3.634,4.674v9.994c0,2.582,0.798,4.686,3.634,4.686
			C124.8,229.406,125.598,227.305,125.598,224.721z"/>
		<path fill="#CE5528" d="M130.767,227.354v-11.914h1.924v11.955c0,1.609,0.735,2.154,1.609,2.154c0.784,0,1.76-0.582,2.52-1.533
			v-12.576h1.9v15.174h-1.9v-1.434c-0.849,1.242-2.065,1.773-3.217,1.773C132.249,230.951,130.767,229.787,130.767,227.354z"/>
		<path fill="#CE5528" d="M147.623,230.611l-0.24-1.84c-0.861,1.508-2.216,2.18-3.204,2.18c-1.47,0-3.002-1.254-3.002-3.367
			c0-1.963,0.088-3.801,6.066-6.256v-0.127c-0.013-4.445-0.937-4.826-1.861-4.826c-0.748,0-1.787,0.291-1.938,2.889v0.086h-1.977
			c0.204-2.646,1.634-4.254,3.851-4.254c3.217,0,3.85,2.633,3.85,4.723v7.297c0,1.787,0.228,3.498,0.228,3.498L147.623,230.611
			L147.623,230.611z M147.243,227.52v-5.344c-2.622,1.809-4.153,2.973-4.153,5.051c0,1.584,0.823,2.141,1.533,2.141
			C145.583,229.369,146.686,228.607,147.243,227.52z"/>
		<path fill="#CE5528" d="M152.752,230.611v-21.797h1.9v21.795h-1.9V230.611z"/>
		<path fill="#CE5528" d="M158.121,211.969v-2.27h1.899v2.27H158.121z M158.121,230.611v-15.172h1.899v15.172H158.121z"/>
		<path fill="#CE5528" d="M163.847,227.025V216.5h-2.064v-1.063h2.064v-5.383h1.899v5.383h2.432v1.063h-2.432v10.436
			c0,1.533,0.051,2.48,1.292,2.48c0.368,0,0.748-0.023,1.114-0.1v1.303c-0.646,0.166-1.165,0.215-1.646,0.215
			C164.061,230.838,163.847,228.963,163.847,227.025z"/>
		<path fill="#CE5528" d="M170.368,234.396v-1.559c2.064-0.139,2.925-0.684,2.925-1.646c0-0.428-0.038-1.162-0.139-1.795
			l-3.293-13.943h2.052l2.508,13.041l2.457-13.055h2.052l-3.8,16.225c-0.531,2.051-2.115,2.658-4.724,2.734L170.368,234.396
			L170.368,234.396z"/>
		<path fill="#CE5528" d="M184.945,223.416v-0.785c0-3.533,0-7.535,4.141-7.535c3.026,0,3.685,2.432,3.837,5.166
			c0,0.051,0.013,0.09,0.013,0.141h-1.899v-0.117c-0.102-2.773-0.545-3.91-1.95-3.91c-1.989,0-2.241,1.773-2.241,6.256v0.785
			c0,4.559,0.368,6.256,2.241,6.256c1.354,0,1.824-1.139,1.95-4.039v-0.127h1.912v0.09c-0.127,2.938-0.734,5.355-3.862,5.355
			C184.945,230.951,184.945,227.227,184.945,223.416z"/>
		<path fill="#CE5528" d="M195.787,227.354v-11.914h1.925v11.955c0,1.609,0.734,2.154,1.608,2.154c0.785,0,1.76-0.582,2.52-1.533
			v-12.576h1.9v15.174h-1.9v-1.434c-0.848,1.242-2.064,1.773-3.218,1.773C197.268,230.951,195.787,229.787,195.787,227.354z"/>
		<path fill="#CE5528" d="M205.944,226.809l1.456-0.492c0.43,1.318,1.444,3.268,2.976,3.268c1.381,0,2-0.938,2-2.254
			c0-1.217-1.33-2.623-2.595-3.736l-1.103-0.963c-1.354-1.191-2.532-2.33-2.532-3.914c0-2.33,1.546-3.596,3.812-3.596
			c2.265,0,3.407,1.889,3.887,3.852l-1.684,0.518c-0.203-1.252-0.886-3.002-2.292-3.002c-1.153,0-1.849,0.875-1.849,2.064
			c0,1.104,0.836,2.002,1.899,2.912l1.204,1.043c1.47,1.277,3.002,2.619,3.04,4.787c0,2.305-1.621,3.66-3.862,3.66
			C207.931,230.951,206.488,229.014,205.944,226.809z"/>
		<path fill="#CE5528" d="M217.152,227.025V216.5h-2.064v-1.063h2.064v-5.383h1.899v5.383h2.433v1.063h-2.433v10.436
			c0,1.533,0.051,2.48,1.292,2.48c0.368,0,0.748-0.023,1.114-0.1v1.303c-0.646,0.166-1.164,0.215-1.646,0.215
			C217.367,230.838,217.152,228.963,217.152,227.025z"/>
		<path fill="#CE5528" d="M223.66,223.416v-0.785c0-3.533,0-7.535,4.015-7.535s4.015,4.002,4.015,7.535v0.785
			c0,3.811,0,7.535-4.015,7.535S223.66,227.227,223.66,223.416z M225.56,222.631v0.785c0,4.559,0.341,6.256,2.115,6.256
			c1.773,0,2.115-1.693,2.115-6.256v-0.785c0-4.482-0.266-6.256-2.115-6.256C225.8,216.375,225.56,218.148,225.56,222.631z"/>
		<path fill="#CE5528" d="M234.578,230.611v-15.172h1.912v1.402c1.039-1.229,2.292-1.746,3.458-1.746
			c1.026,0,2.191,0.709,2.623,1.725c1.063-1.205,2.443-1.725,3.343-1.725c1.507,0,2.989,1.18,2.989,2.836v12.68h-1.899v-12.287
			c0-1.33-0.772-1.824-1.646-1.824c-0.76,0-1.735,0.469-2.495,1.229v12.883h-1.899v-12.301c0-1.33-0.772-1.811-1.697-1.811
			c-0.861,0-1.963,0.584-2.786,1.508v12.6L234.578,230.611L234.578,230.611z"/>
		<path fill="#CE5528" d="M256.146,223.416v-0.785c0-3.533,0-7.535,4.142-7.535c3.026,0,3.685,2.432,3.837,5.166
			c0,0.051,0.014,0.09,0.014,0.141h-1.898v-0.117c-0.102-2.773-0.546-3.91-1.95-3.91c-1.991,0-2.24,1.773-2.24,6.256v0.785
			c0,4.559,0.368,6.256,2.24,6.256c1.353,0,1.824-1.139,1.95-4.039v-0.127h1.91v0.09c-0.124,2.938-0.732,5.355-3.86,5.355
			C256.146,230.951,256.146,227.227,256.146,223.416z"/>
		<path fill="#CE5528" d="M272.722,230.611l-0.239-1.84c-0.86,1.508-2.217,2.18-3.205,2.18c-1.469,0-3.001-1.254-3.001-3.367
			c0-1.963,0.089-3.801,6.066-6.256v-0.127c-0.012-4.445-0.938-4.826-1.86-4.826c-0.749,0-1.787,0.291-1.939,2.889v0.086h-1.976
			c0.204-2.646,1.634-4.254,3.851-4.254c3.218,0,3.85,2.633,3.85,4.723v7.297c0,1.787,0.228,3.498,0.228,3.498L272.722,230.611
			L272.722,230.611z M272.343,227.52v-5.344c-2.621,1.809-4.151,2.973-4.151,5.051c0,1.584,0.822,2.141,1.532,2.141
			C270.685,229.369,271.786,228.607,272.343,227.52z"/>
		<path fill="#CE5528" d="M277.474,230.611v-21.797h1.899v8.055c0.81-1.191,1.887-1.773,2.923-1.773
			c1.546,0,3.343,0.594,3.343,7.395v1.203c0,6.559-1.797,7.254-3.205,7.254c-0.951,0-2.18-0.393-3.067-1.773v1.434h-1.894V230.611z
			 M283.741,223.709v-1.205c0-5.736-0.899-6.004-1.823-6.004c-0.899,0-1.759,0.633-2.544,1.506v10.004
			c0.748,0.9,1.708,1.533,2.481,1.533C282.817,229.545,283.741,229.395,283.741,223.709z"/>
		<path fill="#CE5528" d="M288.68,211.969v-2.27h1.899v2.27H288.68z M288.68,230.611v-15.172h1.899v15.172H288.68z"/>
		<path fill="#CE5528" d="M293.658,230.611v-15.172h1.899v1.43c0.849-1.24,2.064-1.773,3.218-1.773c1.353,0,2.837,1.164,2.837,3.598
			v11.918h-1.928v-11.957c0-1.609-0.734-2.154-1.607-2.154c-0.785,0-1.759,0.584-2.521,1.531v12.576L293.658,230.611
			L293.658,230.611z"/>
		<path fill="#CE5528" d="M304.639,223.619l0.013-2.115c0.038-5.408,1.772-6.408,4.18-6.408c2.748,0,3.825,1.912,3.825,6.004
			c0,0.619,0,0.949-0.026,1.557h-6.077v2.316c0,4.092,0.849,4.697,2.267,4.697c0.976,0,1.991-0.709,2.014-3.609v-0.102h1.773v0.074
			c-0.226,2.609-0.923,4.912-3.76,4.912C305.741,230.951,304.588,229.344,304.639,223.619z M306.563,221.719h4.205v-0.025
			c-0.039-2.318,0.253-5.318-1.85-5.318c-2.341,0-2.354,1.836-2.354,5.305V221.719z"/>
		<path fill="#CE5528" d="M316.149,227.025V216.5h-2.064v-1.063h2.064v-5.383h1.9v5.383h2.433v1.063h-2.433v10.436
			c0,1.533,0.051,2.48,1.292,2.48c0.367,0,0.747-0.023,1.114-0.1v1.303c-0.646,0.166-1.165,0.215-1.645,0.215
			C316.365,230.838,316.149,228.963,316.149,227.025z"/>
		<path fill="#CE5528" d="M322.09,226.809l1.456-0.492c0.43,1.318,1.444,3.268,2.976,3.268c1.38,0,2-0.938,2-2.254
			c0-1.217-1.33-2.623-2.597-3.736l-1.103-0.963c-1.354-1.191-2.532-2.33-2.532-3.914c0-2.33,1.547-3.596,3.812-3.596
			c2.265,0,3.407,1.889,3.889,3.852l-1.686,0.518c-0.202-1.252-0.886-3.002-2.292-3.002c-1.152,0-1.846,0.875-1.846,2.064
			c0,1.104,0.836,2.002,1.898,2.912l1.204,1.043c1.469,1.277,3.002,2.619,3.039,4.787c0,2.305-1.621,3.66-3.861,3.66
			C324.079,230.951,322.634,229.014,322.09,226.809z"/>
		<path fill="#CE5528" d="M335.945,226.809l1.456-0.492c0.43,1.318,1.444,3.268,2.976,3.268c1.38,0,1.999-0.938,1.999-2.254
			c0-1.217-1.33-2.623-2.596-3.736l-1.102-0.963c-1.355-1.191-2.533-2.33-2.533-3.914c0-2.33,1.547-3.596,3.813-3.596
			c2.264,0,3.406,1.889,3.887,3.852l-1.685,0.518c-0.202-1.252-0.887-3.002-2.292-3.002c-1.153,0-1.846,0.875-1.846,2.064
			c0,1.104,0.835,2.002,1.897,2.912l1.204,1.043c1.47,1.277,3.002,2.619,3.04,4.787c0,2.305-1.622,3.66-3.861,3.66
			C337.934,230.951,336.49,229.014,335.945,226.809z"/>
		<path fill="#CE5528" d="M346.557,211.969v-2.27h1.899v2.27H346.557z M346.557,230.611v-15.172h1.899v15.172H346.557z"/>
		<path fill="#CE5528" d="M351.536,230.611v-15.172h1.898v1.43c0.849-1.24,2.063-1.773,3.218-1.773c1.352,0,2.834,1.164,2.834,3.598
			v11.918h-1.925v-11.957c0-1.609-0.734-2.154-1.609-2.154c-0.785,0-1.757,0.584-2.519,1.531v12.576L351.536,230.611
			L351.536,230.611z"/>
		<path fill="#CE5528" d="M362.503,223.416v-0.785c0-3.533,0-7.535,4.141-7.535c3.027,0,3.686,2.432,3.837,5.166
			c0,0.051,0.012,0.09,0.012,0.141h-1.898v-0.117c-0.101-2.773-0.543-3.91-1.951-3.91c-1.99,0-2.238,1.773-2.238,6.256v0.785
			c0,4.559,0.367,6.256,2.238,6.256c1.356,0,1.827-1.139,1.951-4.039v-0.127h1.914v0.09c-0.127,2.938-0.734,5.355-3.865,5.355
			C362.503,230.951,362.503,227.227,362.503,223.416z"/>
		<path fill="#CE5528" d="M373.076,223.619l0.015-2.115c0.037-5.408,1.773-6.408,4.179-6.408c2.747,0,3.824,1.912,3.824,6.004
			c0,0.619,0,0.949-0.023,1.557h-6.079v2.316c0,4.092,0.849,4.697,2.266,4.697c0.976,0,1.991-0.709,2.015-3.609v-0.102h1.774v0.074
			c-0.228,2.609-0.926,4.912-3.762,4.912C374.179,230.951,373.026,229.344,373.076,223.619z M375.001,221.719h4.206v-0.025
			c-0.038-2.318,0.253-5.318-1.85-5.318c-2.342,0-2.356,1.836-2.356,5.305V221.719L375.001,221.719z"/>
		<path fill="#CE5528" d="M387.463,230.611v-1.623l5.852-8.826c1.013-1.533,2.432-3.723,2.432-5.66c0-2.561-0.769-4.447-2.886-4.447
			c-2.989,0-3.431,2.496-3.431,5.154h-1.925v-0.291c0.074-3.951,1.646-6.408,5.331-6.408c3.293,0,4.839,2.369,4.839,5.977
			c0,1.961-1.382,4.52-2.457,6.078l-5.483,8.498h7.677v1.545h-9.946v0.004H387.463z"/>
		<path fill="#CE5528" d="M400.016,224.289v-9.131c0-3.686,1.254-6.648,5.181-6.648c3.928,0,5.184,2.963,5.184,6.648v9.131
			c0,3.66-1.155,6.66-5.184,6.66S400.016,227.949,400.016,224.289z M408.45,224.721v-9.994c0-2.582-0.724-4.674-3.256-4.674
			c-2.533,0-3.254,2.09-3.254,4.674v9.994c0,2.582,0.721,4.686,3.254,4.686C407.727,229.406,408.45,227.305,408.45,224.721z"/>
		<path fill="#CE5528" d="M413.274,224.289v-9.131c0-3.686,1.255-6.648,5.183-6.648s5.182,2.963,5.182,6.648v9.131
			c0,3.66-1.154,6.66-5.182,6.66C414.431,230.949,413.274,227.949,413.274,224.289z M421.708,224.721v-9.994
			c0-2.582-0.72-4.674-3.253-4.674s-3.256,2.09-3.256,4.674v9.994c0,2.582,0.723,4.686,3.256,4.686S421.708,227.305,421.708,224.721
			z"/>
		<path fill="#CE5528" d="M426.446,225.607v-0.33h1.795c0.073,3.471,1.129,4.129,3.067,4.129c1.773,0,2.812-0.887,2.812-4.609
			v-4.115c-0.771,0.367-1.798,0.568-3.115,0.568c-3.634,0-5.041-2.748-5.041-6.293c0-3.648,1.444-6.447,5.168-6.447
			c3.534,0,4.914,2.418,4.914,6.549v9.699c0,3.584-1.268,6.193-4.914,6.193C427.65,230.951,426.446,228.318,426.446,225.607z
			 M434.12,219.123v-3.926c0-4.217-0.988-5.143-2.988-5.143c-2.179,0-3.243,1.166-3.243,4.889c0,3.621,1.028,4.762,3.116,4.762
			C432.119,219.705,433.563,219.49,434.12,219.123z"/>
	</g>
	<polygon fill="#CE5528" points="94.372,140.058 65.417,107.756 28.832,119.141 	"/>
	<polygon fill="#CE5528" points="93.829,136.828 60.483,164.576 70.515,201.557 	"/>
	<polygon fill="#CE5528" points="91.992,140.472 121.464,108.641 106.729,73.271 	"/>
	<g>
		<path fill="#33464D" d="M336.238,138.416v-12.452c0-5.025,1.779-9.064,7.547-9.064c5.354,0,6.977,4.042,6.977,9.064v1.209h-2.504
			v-1.796c0-3.626-1.019-6.371-4.473-6.371c-3.868,0-4.923,2.744-4.923,6.371v13.628c0,3.627,1.055,6.39,4.923,6.39
			c3.454,0,4.473-2.763,4.473-6.39v-2.039h2.504v1.45c0,4.988-1.485,9.084-6.977,9.084
			C337.878,147.5,336.238,143.405,336.238,138.416z"/>
		<path fill="#33464D" d="M362.8,147.034l-0.329-2.504c-1.175,2.055-3.021,2.973-4.368,2.973c-2.003,0-4.094-1.709-4.094-4.594
			c0-2.678,0.122-5.181,8.274-8.531v-0.173c-0.019-6.062-1.279-6.579-2.541-6.579c-1.015,0-2.431,0.397-2.639,3.937v0.124h-2.694
			c0.273-3.611,2.229-5.803,5.25-5.803c4.388,0,5.249,3.592,5.249,6.442v9.947c0,2.435,0.312,4.767,0.312,4.767h-2.419v-0.006H362.8
			z M362.283,142.818v-7.288c-3.576,2.47-5.666,4.059-5.666,6.891c0,2.159,1.122,2.921,2.09,2.921
			C360.019,145.341,361.522,144.305,362.283,142.818z"/>
		<path fill="#33464D" d="M369.275,147.034v-29.722h2.591v10.983c1.104-1.623,2.574-2.419,3.99-2.419
			c2.106,0,4.56,0.812,4.56,10.088v1.641c0,8.945-2.454,9.897-4.371,9.897c-1.297,0-2.972-0.535-4.179-2.42v1.952H369.275z
			 M377.825,137.622v-1.643c0-7.824-1.227-8.184-2.487-8.184c-1.226,0-2.401,0.861-3.471,2.052v13.643
			c1.019,1.226,2.333,2.09,3.385,2.09C376.563,145.583,377.825,145.375,377.825,137.622z"/>
		<path fill="#33464D" d="M384.561,121.613v-3.092h2.59v3.092H384.561z M384.561,147.034v-20.689h2.59v20.689H384.561z"/>
		<path fill="#33464D" d="M391.346,147.034v-20.689h2.59v1.951c1.159-1.694,2.816-2.419,4.387-2.419
			c1.849,0,3.868,1.591,3.868,4.904v16.251h-2.625v-16.302c0-2.191-1.003-2.936-2.192-2.936c-1.071,0-2.402,0.797-3.438,2.09v17.149
			L391.346,147.034L391.346,147.034z"/>
		<path fill="#33464D" d="M406.32,137.501l0.016-2.884c0.053-7.374,2.418-8.736,5.699-8.736c3.75,0,5.216,2.608,5.216,8.184
			c0,0.846,0,1.297-0.034,2.124h-8.288v3.162c0,5.576,1.156,6.407,3.093,6.407c1.329,0,2.71-0.966,2.745-4.922v-0.138h2.417v0.104
			c-0.313,3.56-1.256,6.703-5.13,6.703C407.822,147.5,406.251,145.307,406.32,137.501z M408.944,134.909h5.735v-0.032
			c-0.054-3.163,0.345-7.253-2.522-7.253c-3.196,0-3.214,2.504-3.214,7.236L408.944,134.909L408.944,134.909z"/>
		<path fill="#33464D" d="M422.019,142.146v-14.351h-2.815v-1.451h2.815v-7.339h2.589v7.339h3.316v1.45h-3.316v14.229
			c0,2.089,0.069,3.385,1.762,3.385c0.501,0,1.021-0.035,1.52-0.138v1.78c-0.879,0.224-1.589,0.292-2.245,0.292
			C422.313,147.343,422.019,144.788,422.019,142.146z"/>
		<path fill="#33464D" d="M431.258,147.034v-20.689h2.59v2.919c0.692-2.332,2.799-3.212,4.353-3.248h0.051v2.608
			c0,0-0.241-0.068-0.449-0.068c-1.985,0-3.954,0.604-3.954,3.04v15.439H431.258L431.258,147.034z"/>
		<path fill="#33464D" d="M440.737,152.198v-2.125c2.819-0.189,3.991-0.933,3.991-2.245c0-0.587-0.053-1.589-0.189-2.453
			l-4.491-19.013h2.797l3.42,17.787l3.35-17.805h2.798l-5.181,22.123c-0.726,2.797-2.883,3.626-6.441,3.73H440.737z"/>
	</g>
</g>
<g id="Layer_2">
	<rect x="521.031" fill="#31444B" width="293.393" height="335.893"/>
	<rect x="-46.238" y="1046.473" fill="#E2E3CE" width="327.553" height="369.197"/>
	<g>
		<g>
			<path fill="#CD5328" d="M234.289,1223.425v3.324c-4.784,1.865-10.703,7.297-15.161,19.7l-35.105,94.857
				c-1.784-0.081-3.812-0.163-5.757-0.163c-2.025,0-3.973,0.082-5.756,0.163l-42.32-103.938c-3.163-7.945-7.217-10.458-10.459-10.62
				v-3.324c6.648,0.323,16.133,0.486,25.294,0.486c10.216,0,19.783-0.163,25.215-0.486v3.324
				c-7.702,0.324-11.675,1.378-11.675,6.161c0,1.865,0.648,4.459,1.946,7.783l29.35,74.345l20.43-55.13
				c3.163-8.593,4.622-15.16,4.622-20.105c0-9.244-5.107-12.811-13.945-13.054v-3.324c7.459,0.323,13.783,0.486,20.674,0.486
				C226.506,1223.911,230.965,1223.748,234.289,1223.425z"/>
		</g>
		<polygon fill="#CF5427" points="126.606,1229.799 69.967,1166.613 -1.596,1188.882 		"/>
		<polygon fill="#CF5427" points="125.544,1223.481 60.318,1277.758 79.938,1350.092 		"/>
		<polygon fill="#CF5427" points="121.951,1230.607 179.6,1168.341 150.775,1099.158 		"/>
	</g>
	<g>
		<g>
			<path fill="#CD5328" d="M772.893,161.097v2.978c-4.284,1.67-9.586,6.535-13.579,17.646l-31.444,84.965
				c-1.598-0.072-3.413-0.146-5.157-0.146c-1.814,0-3.559,0.074-5.155,0.146l-37.906-93.098c-2.832-7.117-6.465-9.368-9.368-9.513
				v-2.978c5.955,0.29,14.45,0.436,22.657,0.436c9.149,0,17.719-0.146,22.584-0.436v2.978c-6.897,0.29-10.457,1.234-10.457,5.519
				c0,1.671,0.582,3.994,1.743,6.971l26.288,66.592l18.299-49.381c2.833-7.697,4.143-13.579,4.143-18.008
				c0-8.28-4.577-11.475-12.493-11.692v-2.978c6.681,0.29,12.345,0.436,18.52,0.436
				C765.921,161.532,769.915,161.386,772.893,161.097z"/>
		</g>
		<polygon fill="#CF5427" points="676.439,166.806 625.708,110.21 561.609,130.156 		"/>
		<polygon fill="#CF5427" points="675.488,161.147 617.066,209.764 634.639,274.555 		"/>
		<polygon fill="#CF5427" points="672.27,167.53 723.907,111.757 698.09,49.79 		"/>
	</g>
</g>
<g id="Layer_5">
</g>
<g id="Layer_4">
	<g>
		<rect x="2.279" y="335.893" fill="#374424" width="406" height="32"/>
		<rect x="0.3" y="335.822" fill="#DCDDC9" width="408.485" height="245.092"/>
		<rect x="277.651" y="335.822" fill="#D05528" width="131.134" height="245.092"/>
		<polygon fill="#31444B" points="408.787,335.822 408.785,430.53 0.3,372.031 0.301,335.822 		"/>
		<g>
			<path fill="#CD5328" d="M92.422,442.805v0.839c-1.207,0.472-2.702,1.844-3.828,4.977l-8.865,23.955
				c-0.45-0.021-0.963-0.041-1.454-0.041c-0.512,0-1.003,0.021-1.454,0.041l-10.688-26.248c-0.798-2.006-1.822-2.642-2.641-2.684
				v-0.839c1.678,0.083,4.074,0.124,6.388,0.124c2.58,0,4.996-0.041,6.367-0.124v0.839c-1.945,0.083-2.948,0.349-2.948,1.558
				c0,0.471,0.164,1.126,0.492,1.966l7.411,18.774l5.16-13.923c0.799-2.17,1.167-3.83,1.167-5.078c0-2.333-1.29-3.234-3.521-3.297
				v-0.839c1.884,0.083,3.481,0.124,5.222,0.124C90.458,442.929,91.583,442.888,92.422,442.805L92.422,442.805z"/>
			<path fill="#CD5328" d="M92.192,457.231l-2.893,7.52h5.663L92.192,457.231L92.192,457.231z M101.951,470.457
				c0.52,1.338,1.229,1.761,1.762,1.787v0.562c-1.106-0.056-2.716-0.082-4.246-0.082c-1.733,0-3.331,0.026-4.259,0.082v-0.562
				c1.338-0.053,1.966-0.26,1.966-1.021c0-0.329-0.11-0.766-0.327-1.324l-1.68-4.586h-6.074l-0.75,1.938
				c-0.532,1.366-0.765,2.361-0.765,3.098c0,1.475,0.956,1.856,2.484,1.896v0.562c-1.269-0.056-2.32-0.082-3.48-0.082
				c-0.819,0-1.584,0.026-2.143,0.082v-0.562c0.818-0.15,1.638-0.871,2.43-2.935l6.36-16.352c0.301,0.028,0.628,0.042,0.97,0.042
				c0.327,0,0.668-0.014,0.969-0.042L101.951,470.457L101.951,470.457z"/>
			<path fill="#CD5328" d="M122.33,453.573c-1.789,0.244-2.102,0.983-2.102,3.684v15.603c-0.205-0.012-0.437-0.012-0.668-0.012
				c-0.246,0-0.491,0-0.765,0.012l-12.121-15.368v10.729c0,3.07,0.246,3.779,2.716,4.023v0.562c-0.723-0.056-2.02-0.082-3.03-0.082
				c-0.873,0-1.843,0.026-2.43,0.082v-0.562c1.787-0.244,2.102-0.98,2.102-3.684v-12.586c0-2.032-0.328-2.319-2.102-2.401v-0.56
				c0.587,0.054,1.557,0.081,2.43,0.081c0.887,0,1.76-0.027,2.416-0.081l10.811,13.337v-8.75c0-3.073-0.246-3.783-2.716-4.027v-0.56
				c0.724,0.054,2.02,0.081,3.03,0.081c0.875,0,1.843-0.027,2.43-0.081V453.573L122.33,453.573z"/>
			<path fill="#CD5328" d="M130.615,455.922v13.977c0,1.95,0.369,2.402,2.103,2.402c4.708,0,6.224-3.413,6.224-9.5
				c0-6.266-1.747-9.281-6.251-9.281C130.984,453.52,130.615,453.995,130.615,455.922L130.615,455.922z M143.582,462.691
				c0,6.087-4.095,10.114-11.124,10.114c-0.874,0-2.826-0.082-4.082-0.082c-1.65,0-3.357,0.026-4.298,0.082v-0.562
				c1.774-0.08,2.088-0.366,2.088-2.401v-13.868c0-2.032-0.328-2.319-2.088-2.401v-0.56c0.764,0.042,2.061,0.095,3.371,0.095
				c0.287,0,0.587-0.014,0.873-0.014c1.338-0.027,3.277-0.081,4.396-0.081C140.074,453.014,143.582,456.454,143.582,462.691
				L143.582,462.691z"/>
			<path fill="#CD5328" d="M161.026,472.806c-1.897-0.082-4.518-0.082-6.402-0.082c-1.87,0-6.06,0-9.104,0.082v-0.562
				c1.774-0.08,2.088-0.366,2.088-2.401v-13.868c0-2.032-0.328-2.319-2.088-2.401v-0.56c3.044,0.081,7.234,0.081,9.104,0.081
				c1.706,0,4.122,0,5.842-0.081c-0.136,1.652-0.191,3.33-0.191,4.135c0,0.738,0.027,1.447,0.082,1.897h-0.642
				c-0.559-4.093-2.021-5.391-4.586-5.391h-1.147c-1.624,0-1.924,0.245-1.924,1.991v6.921h0.9c2.239,0,3.031-2.168,3.331-3.685
				h0.643c-0.083,1.188-0.096,1.992-0.096,2.636c0,0.517,0.014,0.927,0.014,1.336c0,0.915,0.027,1.844,0.164,3.972h-0.642
				c-0.287-1.966-1.174-3.697-3.413-3.697h-0.9v7.042c0,1.746,0.3,1.993,1.924,1.993h1.378c2.498,0,4.218-1.446,4.915-5.951h0.64
				c-0.053,0.601-0.08,1.435-0.08,2.348C160.836,469.394,160.862,471.125,161.026,472.806L161.026,472.806z"/>
			<path fill="#CD5328" d="M180.518,470.54c0.532,0.845,1.038,1.324,2.007,1.704v0.562c-1.297-0.056-3.032-0.082-4.369-0.082
				c-0.763,0-1.842,0-3.549,0.082v-0.562c1.039-0.04,1.488-0.188,1.488-0.558c0-0.178-0.11-0.396-0.287-0.697l-4.067-6.566
				c-0.779-1.214-1.134-1.486-1.967-1.554v6.974c0,2.035,0.328,2.321,2.104,2.401v0.562c-1.011-0.056-2.676-0.082-4.231-0.082
				c-1.788,0-3.468,0.026-4.409,0.082v-0.562c1.772-0.08,2.088-0.366,2.088-2.401v-13.868c0-2.032-0.329-2.319-2.088-2.401v-0.56
				c0.941,0.054,2.621,0.081,4.409,0.081c1.555,0,3.22-0.027,4.231-0.081v0.56c-1.79,0.082-2.104,0.369-2.104,2.401v6.294
				c1.529-0.097,2.677-0.931,4.15-2.62l1.639-1.995c0.886-1.049,1.282-1.924,1.282-2.592c0-0.93-0.763-1.461-2.047-1.503v-0.545
				c1.365,0.054,2.47,0.081,4.122,0.081c1.106,0,1.967-0.027,2.648-0.081v0.545c-1.215,0.259-2.593,0.915-4.066,2.662l-3.496,4.163
				L180.518,470.54L180.518,470.54z"/>
			<path fill="#CD5328" d="M198.712,472.806c-1.897-0.082-4.519-0.082-6.401-0.082c-1.871,0-6.062,0-9.104,0.082v-0.562
				c1.773-0.08,2.088-0.366,2.088-2.401v-13.868c0-2.032-0.328-2.319-2.088-2.401v-0.56c3.042,0.081,7.233,0.081,9.104,0.081
				c1.705,0,4.122,0,5.842-0.081c-0.138,1.652-0.192,3.33-0.192,4.135c0,0.738,0.027,1.447,0.081,1.897h-0.64
				c-0.561-4.093-2.021-5.391-4.586-5.391h-1.146c-1.625,0-1.927,0.245-1.927,1.991v6.921h0.901c2.24,0,3.03-2.168,3.33-3.685h0.643
				c-0.082,1.188-0.096,1.992-0.096,2.636c0,0.517,0.014,0.927,0.014,1.336c0,0.915,0.027,1.844,0.163,3.972h-0.642
				c-0.287-1.966-1.173-3.697-3.413-3.697h-0.901v7.042c0,1.746,0.302,1.993,1.927,1.993h1.377c2.497,0,4.217-1.446,4.914-5.951
				h0.641c-0.053,0.601-0.081,1.435-0.081,2.348C198.521,469.394,198.549,471.125,198.712,472.806L198.712,472.806z"/>
			<g>
				<defs>
					<rect id="SVGID_1_" x="32.806" y="411.456" width="210.386" height="63.315"/>
				</defs>
				<clipPath id="SVGID_2_">
					<use xlink:href="#SVGID_1_"  overflow="visible"/>
				</clipPath>
				<path clip-path="url(#SVGID_2_)" fill="#CD5328" d="M224.974,453.573c-1.789,0.082-2.103,0.369-2.103,2.401v13.868
					c0,2.035,0.329,2.321,2.103,2.401v0.562c-1.037-0.056-2.77-0.082-4.395-0.082c-1.788,0-3.466,0.026-4.423,0.082v-0.562
					c1.911-0.08,2.267-0.366,2.267-2.401v-14.55l-6.73,17.555h-0.451l-7.548-18.032v13.405c0,3.07,0.246,3.779,2.717,4.023v0.562
					c-0.723-0.056-2.02-0.082-3.03-0.082c-0.875,0-1.844,0.026-2.429,0.082v-0.562c1.788-0.244,2.101-0.98,2.101-3.684v-12.586
					c0-2.032-0.328-2.319-2.101-2.401v-0.56c0.585,0.054,1.555,0.081,2.429,0.081c1.624,0,3.206-0.027,4.421-0.081l5.639,13.597
					l5.157-13.516h1.98c1.625,0,3.358-0.027,4.395-0.081V453.573L224.974,453.573z"/>
				<path clip-path="url(#SVGID_2_)" fill="#CD5328" d="M233.382,455.975v8.271h1.201c3.304,0,4-2.537,4-5.39
					c0-3.521-0.928-5.282-3.467-5.282C233.682,453.573,233.382,454.051,233.382,455.975L233.382,455.975z M233.382,469.68
					c0,2.185,0.504,2.484,2.989,2.512v0.614c-1.146-0.042-3.098-0.082-5.091-0.082c-1.61,0-3.221,0.04-4.436,0.082v-0.562
					c1.772-0.08,2.088-0.366,2.088-2.401v-13.868c0-2.032-0.328-2.319-2.088-2.401v-0.56c0.941,0.054,2.674,0.081,4.245,0.081
					c1.827,0,3.685-0.055,4.395-0.055c5.199,0,7.739,2.268,7.739,5.514c0,2.705-1.761,6.253-8.354,6.253h-1.488V469.68
					L233.382,469.68z"/>
				<polygon clip-path="url(#SVGID_2_)" fill="#CF5427" points="65.212,444.415 50.909,428.459 32.836,434.082 65.212,444.415 				
					"/>
				<polygon clip-path="url(#SVGID_2_)" fill="#CF5427" points="64.944,442.819 48.473,456.526 53.427,474.792 64.944,442.819 				
					"/>
				<polygon clip-path="url(#SVGID_2_)" fill="#CF5427" points="64.036,444.619 78.595,428.895 71.316,411.424 64.036,444.619 				
					"/>
			</g>
			<path fill="#32454C" d="M184.691,443.604v-6.15c0-2.483,0.877-4.479,3.728-4.479c2.645,0,3.447,1.995,3.447,4.479v0.598h-1.238
				v-0.888c0-1.792-0.503-3.149-2.209-3.149c-1.91,0-2.432,1.357-2.432,3.149v6.729c0,1.793,0.522,3.157,2.432,3.157
				c1.706,0,2.209-1.364,2.209-3.157v-1.005h1.238v0.716c0,2.465-0.735,4.487-3.447,4.487
				C185.5,448.091,184.691,446.068,184.691,443.604L184.691,443.604z"/>
			<path fill="#32454C" d="M197.555,445.779v-3.602c-1.766,1.222-2.798,2.005-2.798,3.405c0,1.066,0.554,1.441,1.032,1.441
				C196.437,447.024,197.18,446.514,197.555,445.779L197.555,445.779z M197.811,447.86l-0.162-1.237
				c-0.58,1.017-1.493,1.468-2.157,1.468c-0.99,0-2.022-0.845-2.022-2.269c0-1.324,0.06-2.559,4.086-4.214v-0.086
				c-0.009-2.995-0.631-3.25-1.254-3.25c-0.502,0-1.203,0.195-1.305,1.943v0.06h-1.331c0.136-1.781,1.101-2.867,2.594-2.867
				c2.167,0,2.592,1.777,2.592,3.184v4.914c0,1.203,0.153,2.354,0.153,2.354H197.811L197.811,447.86z"/>
			<path fill="#32454C" d="M205.233,443.211v-0.812c0-3.864-0.605-4.042-1.229-4.042c-0.605,0-1.185,0.426-1.715,1.015v6.739
				c0.504,0.606,1.153,1.031,1.673,1.031C204.61,447.143,205.233,447.042,205.233,443.211L205.233,443.211z M201.011,447.86v-14.682
				h1.278v5.426c0.547-0.803,1.272-1.196,1.972-1.196c1.04,0,2.251,0.402,2.251,4.982v0.812c0,4.42-1.212,4.889-2.159,4.889
				c-0.638,0-1.465-0.267-2.064-1.194v0.964H201.011L201.011,447.86z"/>
			<path fill="#32454C" d="M208.56,447.86V437.64h1.279v10.221H208.56L208.56,447.86z M208.56,435.303v-1.528h1.279v1.528H208.56
				L208.56,435.303z"/>
			<path fill="#32454C" d="M211.913,447.86V437.64h1.279v0.965c0.572-0.836,1.391-1.196,2.166-1.196
				c0.913,0,1.912,0.787,1.912,2.424v8.028h-1.297v-8.054c0-1.083-0.495-1.449-1.083-1.449c-0.529,0-1.186,0.392-1.697,1.032v8.471
				H211.913L211.913,447.86z"/>
			<path fill="#32454C" d="M220.605,441.871h2.833v-0.018c-0.025-1.56,0.171-3.581-1.246-3.581c-1.578,0-1.586,1.236-1.586,3.573
				V441.871L220.605,441.871z M219.309,443.15l0.008-1.424c0.026-3.644,1.195-4.318,2.815-4.318c1.85,0,2.577,1.289,2.577,4.046
				c0,0.417,0,0.639-0.018,1.05h-4.094v1.56c0,2.756,0.57,3.165,1.526,3.165c0.658,0,1.34-0.478,1.356-2.431v-0.069h1.196v0.052
				c-0.156,1.756-0.624,3.311-2.536,3.311C220.051,448.091,219.275,447.007,219.309,443.15L219.309,443.15z"/>
			<path fill="#32454C" d="M227.063,445.447v-7.09h-1.391v-0.718h1.391v-3.626h1.279v3.626h1.638v0.718h-1.638v7.028
				c0,1.032,0.034,1.673,0.871,1.673c0.248,0,0.503-0.017,0.75-0.069v0.88c-0.435,0.11-0.784,0.146-1.108,0.146
				C227.208,448.015,227.063,446.751,227.063,445.447L227.063,445.447z"/>
			<path fill="#32454C" d="M231.626,447.86V437.64h1.281v1.441c0.34-1.151,1.382-1.586,2.15-1.604h0.025v1.288
				c0,0-0.12-0.033-0.224-0.033c-0.979,0-1.952,0.3-1.952,1.502v7.626H231.626L231.626,447.86z"/>
			<path fill="#32454C" d="M236.31,450.41v-1.049c1.392-0.094,1.971-0.46,1.971-1.108c0-0.29-0.026-0.786-0.092-1.211l-2.219-9.394
				h1.383l1.688,8.788l1.655-8.797h1.383l-2.56,10.928c-0.358,1.383-1.425,1.794-3.183,1.843H236.31L236.31,450.41z"/>
		</g>
		<polygon fill="#C1C1B5" points="277.652,580.914 277.651,505.153 0.3,537.726 0.3,580.914 		"/>
		<g>
			<path fill="#D05528" d="M75.862,488.633v-4.662c0-1.88,0.679-3.393,2.839-3.393c2.158,0,2.837,1.513,2.837,3.393v4.662
				c0,1.345-0.324,2.506-1.325,3.063c0.374,0.34,0.801,0.716,1.37,0.796v0.735c-0.769-0.109-1.39-0.627-1.991-1.3
				c-0.265,0.064-0.562,0.103-0.891,0.103C76.49,492.03,75.862,490.5,75.862,488.633z M80.555,488.852v-5.101
				c0-1.317-0.407-2.384-1.854-2.384c-1.448,0-1.856,1.066-1.856,2.384v5.101c0,1.317,0.408,2.39,1.856,2.39
				C80.148,491.241,80.555,490.169,80.555,488.852z"/>
			<path fill="#D05528" d="M83.199,490.195v-6.08h0.982v6.102c0,0.818,0.375,1.096,0.822,1.096c0.4,0,0.898-0.296,1.286-0.78v-6.417
				h0.97v7.741h-0.97v-0.73c-0.433,0.633-1.054,0.904-1.643,0.904C83.956,492.03,83.199,491.437,83.199,490.195z"/>
			<path fill="#D05528" d="M91.81,491.856l-0.123-0.938c-0.439,0.769-1.131,1.111-1.635,1.111c-0.75,0-1.532-0.638-1.532-1.72
				c0-1.002,0.045-1.938,3.096-3.19v-0.065c-0.006-2.27-0.479-2.465-0.95-2.465c-0.381,0-0.911,0.151-0.989,1.476v0.047h-1.008
				c0.103-1.354,0.833-2.173,1.965-2.173c1.642,0,1.965,1.346,1.965,2.408v3.725c0,0.913,0.116,1.784,0.116,1.784H91.81z
				 M91.615,490.279v-2.729c-1.338,0.925-2.12,1.52-2.12,2.58c0,0.811,0.42,1.093,0.782,1.093
				C90.768,491.224,91.331,490.837,91.615,490.279z"/>
			<path fill="#D05528" d="M94.433,491.856v-11.122h0.97v11.122H94.433z"/>
			<path fill="#D05528" d="M97.176,482.342v-1.155h0.97v1.155H97.176z M97.176,491.856v-7.741h0.97v7.741H97.176z"/>
			<path fill="#D05528" d="M100.1,490.028v-5.373h-1.054v-0.54h1.054v-2.748h0.969v2.748h1.242v0.54h-1.242v5.328
				c0,0.782,0.026,1.267,0.66,1.267c0.188,0,0.382-0.014,0.569-0.053v0.666c-0.33,0.084-0.595,0.111-0.84,0.111
				C100.21,491.975,100.1,491.017,100.1,490.028z"/>
			<path fill="#D05528" d="M103.433,493.789v-0.795c1.053-0.071,1.493-0.349,1.493-0.84c0-0.221-0.019-0.594-0.071-0.918
				l-1.68-7.116h1.047l1.279,6.657l1.254-6.662h1.046l-1.938,8.279c-0.272,1.046-1.08,1.356-2.412,1.395H103.433z"/>
			<path fill="#D05528" d="M110.881,488.187v-0.402c0-1.803,0-3.845,2.114-3.845c1.544,0,1.881,1.242,1.958,2.637
				c0,0.026,0.007,0.044,0.007,0.071h-0.969v-0.06c-0.051-1.416-0.278-1.998-0.996-1.998c-1.015,0-1.145,0.907-1.145,3.194v0.402
				c0,2.326,0.188,3.191,1.145,3.191c0.692,0,0.931-0.583,0.996-2.061v-0.064h0.976v0.045c-0.064,1.497-0.375,2.732-1.971,2.732
				C110.881,492.03,110.881,490.131,110.881,488.187z"/>
			<path fill="#D05528" d="M116.42,490.195v-6.08h0.982v6.102c0,0.818,0.374,1.096,0.821,1.096c0.4,0,0.898-0.296,1.286-0.78v-6.417
				h0.969v7.741h-0.969v-0.73c-0.433,0.633-1.054,0.904-1.642,0.904C117.175,492.03,116.42,491.437,116.42,490.195z"/>
			<path fill="#D05528" d="M121.609,489.918l0.744-0.252c0.219,0.671,0.737,1.667,1.519,1.667c0.705,0,1.021-0.479,1.021-1.149
				c0-0.62-0.679-1.339-1.325-1.908l-0.563-0.491c-0.692-0.608-1.293-1.188-1.293-1.997c0-1.188,0.789-1.835,1.946-1.835
				s1.739,0.963,1.984,1.965l-0.859,0.266c-0.104-0.642-0.453-1.532-1.17-1.532c-0.588,0-0.943,0.444-0.943,1.054
				c0,0.562,0.426,1.02,0.97,1.487l0.614,0.528c0.749,0.653,1.532,1.338,1.551,2.444c0,1.175-0.828,1.866-1.972,1.866
				C122.624,492.03,121.887,491.044,121.609,489.918z"/>
			<path fill="#D05528" d="M127.335,490.028v-5.373h-1.054v-0.54h1.054v-2.748h0.969v2.748h1.242v0.54h-1.242v5.328
				c0,0.782,0.026,1.267,0.66,1.267c0.188,0,0.381-0.014,0.568-0.053v0.666c-0.33,0.084-0.595,0.111-0.84,0.111
				C127.444,491.975,127.335,491.017,127.335,490.028z"/>
			<path fill="#D05528" d="M130.661,488.187v-0.402c0-1.803,0-3.845,2.049-3.845c2.049,0,2.049,2.042,2.049,3.845v0.402
				c0,1.944,0,3.844-2.049,3.844C130.661,492.03,130.661,490.131,130.661,488.187z M131.63,487.784v0.402
				c0,2.326,0.175,3.191,1.08,3.191s1.08-0.865,1.08-3.191v-0.402c0-2.287-0.136-3.194-1.08-3.194
				C131.753,484.59,131.63,485.497,131.63,487.784z"/>
			<path fill="#D05528" d="M136.239,491.856v-7.741h0.976v0.715c0.53-0.627,1.17-0.891,1.765-0.891c0.524,0,1.119,0.361,1.338,0.878
				c0.543-0.614,1.248-0.878,1.707-0.878c0.77,0,1.526,0.601,1.526,1.448v6.469h-0.97v-6.271c0-0.676-0.394-0.931-0.841-0.931
				c-0.388,0-0.885,0.239-1.273,0.63v6.571h-0.969v-6.275c0-0.68-0.395-0.926-0.866-0.926c-0.44,0-1.002,0.299-1.423,0.771v6.431
				H136.239z"/>
			<path fill="#D05528" d="M147.258,488.187v-0.402c0-1.803,0-3.845,2.113-3.845c1.545,0,1.88,1.242,1.959,2.637
				c0,0.026,0.006,0.044,0.006,0.071h-0.969v-0.06c-0.052-1.416-0.278-1.998-0.996-1.998c-1.015,0-1.144,0.907-1.144,3.194v0.402
				c0,2.326,0.188,3.191,1.144,3.191c0.691,0,0.931-0.583,0.996-2.061v-0.064h0.976v0.045c-0.064,1.497-0.375,2.732-1.972,2.732
				C147.258,492.03,147.258,490.131,147.258,488.187z"/>
			<path fill="#D05528" d="M155.725,491.856l-0.123-0.938c-0.439,0.769-1.13,1.111-1.635,1.111c-0.75,0-1.532-0.638-1.532-1.72
				c0-1.002,0.046-1.938,3.097-3.19v-0.065c-0.007-2.27-0.479-2.465-0.95-2.465c-0.382,0-0.911,0.151-0.989,1.476v0.047h-1.008
				c0.104-1.354,0.833-2.173,1.965-2.173c1.642,0,1.965,1.346,1.965,2.408v3.725c0,0.913,0.116,1.784,0.116,1.784H155.725z
				 M155.531,490.279v-2.729c-1.339,0.925-2.12,1.52-2.12,2.58c0,0.811,0.419,1.093,0.781,1.093
				C154.684,491.224,155.247,490.837,155.531,490.279z"/>
			<path fill="#D05528" d="M158.154,491.856v-11.122h0.97v4.109c0.413-0.608,0.962-0.904,1.493-0.904
				c0.789,0,1.707,0.302,1.707,3.774v0.614c0,3.349-0.917,3.702-1.636,3.702c-0.484,0-1.111-0.2-1.563-0.904v0.73H158.154z
				 M161.353,488.334v-0.614c0-2.929-0.458-3.064-0.93-3.064c-0.459,0-0.898,0.325-1.298,0.771v5.106
				c0.381,0.458,0.873,0.78,1.266,0.78C160.883,491.313,161.353,491.236,161.353,488.334z"/>
			<path fill="#D05528" d="M163.88,482.342v-1.155h0.969v1.155H163.88z M163.88,491.856v-7.741h0.969v7.741H163.88z"/>
			<path fill="#D05528" d="M166.423,491.856v-7.741h0.97v0.729c0.434-0.635,1.055-0.904,1.643-0.904
				c0.691,0,1.448,0.595,1.448,1.835v6.082H169.5v-6.103c0-0.821-0.375-1.099-0.82-1.099c-0.4,0-0.9,0.299-1.287,0.783v6.418
				H166.423z"/>
			<path fill="#D05528" d="M172.034,488.289l0.007-1.08c0.018-2.761,0.904-3.27,2.132-3.27c1.402,0,1.952,0.976,1.952,3.062
				c0,0.319,0,0.485-0.012,0.795h-3.103v1.186c0,2.086,0.432,2.396,1.155,2.396c0.5,0,1.017-0.361,1.029-1.841v-0.053h0.904v0.04
				c-0.115,1.33-0.47,2.506-1.917,2.506C172.597,492.03,172.008,491.21,172.034,488.289z M173.016,487.32h2.145v-0.015
				c-0.018-1.183,0.13-2.716-0.943-2.716c-1.196,0-1.202,0.94-1.202,2.71V487.32z"/>
			<path fill="#D05528" d="M177.916,490.028v-5.373h-1.055v-0.54h1.055v-2.748h0.969v2.748h1.242v0.54h-1.242v5.328
				c0,0.782,0.027,1.267,0.659,1.267c0.188,0,0.382-0.014,0.569-0.053v0.666c-0.33,0.084-0.596,0.111-0.84,0.111
				C178.024,491.975,177.916,491.017,177.916,490.028z"/>
			<path fill="#D05528" d="M180.95,489.918l0.743-0.252c0.22,0.671,0.737,1.667,1.519,1.667c0.705,0,1.021-0.479,1.021-1.149
				c0-0.62-0.679-1.339-1.324-1.908l-0.565-0.491c-0.691-0.608-1.291-1.188-1.291-1.997c0-1.188,0.789-1.835,1.944-1.835
				c1.158,0,1.74,0.963,1.986,1.965l-0.86,0.266c-0.104-0.642-0.452-1.532-1.17-1.532c-0.588,0-0.943,0.444-0.943,1.054
				c0,0.562,0.425,1.02,0.969,1.487l0.614,0.528c0.749,0.653,1.532,1.338,1.551,2.444c0,1.175-0.827,1.866-1.972,1.866
				C181.963,492.03,181.228,491.044,180.95,489.918z"/>
			<path fill="#D05528" d="M188.03,489.918l0.742-0.252c0.22,0.671,0.738,1.667,1.519,1.667c0.707,0,1.023-0.479,1.023-1.149
				c0-0.62-0.68-1.339-1.325-1.908l-0.563-0.491c-0.692-0.608-1.292-1.188-1.292-1.997c0-1.188,0.787-1.835,1.944-1.835
				c1.159,0,1.739,0.963,1.986,1.965l-0.86,0.266c-0.103-0.642-0.453-1.532-1.17-1.532c-0.587,0-0.945,0.444-0.945,1.054
				c0,0.562,0.428,1.02,0.971,1.487l0.613,0.528c0.75,0.653,1.533,1.338,1.551,2.444c0,1.175-0.827,1.866-1.971,1.866
				C189.043,492.03,188.308,491.044,188.03,489.918z"/>
			<path fill="#D05528" d="M193.451,482.342v-1.155h0.971v1.155H193.451z M193.451,491.856v-7.741h0.971v7.741H193.451z"/>
			<path fill="#D05528" d="M195.993,491.856v-7.741h0.97v0.729c0.434-0.635,1.054-0.904,1.643-0.904
				c0.691,0,1.448,0.595,1.448,1.835v6.082h-0.983v-6.103c0-0.821-0.375-1.099-0.822-1.099c-0.399,0-0.898,0.299-1.285,0.783v6.418
				H195.993z"/>
			<path fill="#D05528" d="M201.596,488.187v-0.402c0-1.803,0-3.845,2.116-3.845c1.545,0,1.881,1.242,1.959,2.637
				c0,0.026,0.005,0.044,0.005,0.071h-0.969v-0.06c-0.052-1.416-0.277-1.998-0.996-1.998c-1.016,0-1.144,0.907-1.144,3.194v0.402
				c0,2.326,0.187,3.191,1.144,3.191c0.692,0,0.931-0.583,0.996-2.061v-0.064h0.977v0.045c-0.065,1.497-0.375,2.732-1.973,2.732
				C201.596,492.03,201.596,490.131,201.596,488.187z"/>
			<path fill="#D05528" d="M207,488.289l0.005-1.08c0.02-2.761,0.906-3.27,2.134-3.27c1.402,0,1.952,0.976,1.952,3.062
				c0,0.319,0,0.485-0.012,0.795h-3.103v1.186c0,2.086,0.433,2.396,1.157,2.396c0.498,0,1.015-0.361,1.027-1.841v-0.053h0.906v0.04
				c-0.117,1.33-0.473,2.506-1.92,2.506C207.563,492.03,206.974,491.21,207,488.289z M207.983,487.32h2.145v-0.015
				c-0.019-1.183,0.13-2.716-0.942-2.716c-1.197,0-1.203,0.94-1.203,2.71V487.32z"/>
			<path fill="#D05528" d="M214.351,491.856v-0.828l2.985-4.503c0.518-0.782,1.242-1.902,1.242-2.89
				c0-1.307-0.395-2.269-1.474-2.269c-1.526,0-1.752,1.272-1.752,2.63h-0.983v-0.148c0.039-2.018,0.841-3.271,2.722-3.271
				c1.68,0,2.469,1.208,2.469,3.053c0,1.001-0.704,2.304-1.253,3.102l-2.8,4.335h3.917v0.789H214.351z"/>
			<path fill="#D05528" d="M220.763,488.633v-4.662c0-1.88,0.64-3.393,2.644-3.393c2.005,0,2.645,1.513,2.645,3.393v4.662
				c0,1.867-0.59,3.397-2.645,3.397C221.351,492.03,220.763,490.5,220.763,488.633z M225.068,488.852v-5.101
				c0-1.317-0.369-2.384-1.662-2.384s-1.661,1.066-1.661,2.384v5.101c0,1.317,0.368,2.39,1.661,2.39
				S225.068,490.169,225.068,488.852z"/>
			<path fill="#D05528" d="M227.538,488.633v-4.662c0-1.88,0.64-3.393,2.644-3.393c2.005,0,2.645,1.513,2.645,3.393v4.662
				c0,1.867-0.589,3.397-2.645,3.397C228.126,492.03,227.538,490.5,227.538,488.633z M231.844,488.852v-5.101
				c0-1.317-0.37-2.384-1.663-2.384s-1.661,1.066-1.661,2.384v5.101c0,1.317,0.368,2.39,1.661,2.39S231.844,490.169,231.844,488.852
				z"/>
			<path fill="#D05528" d="M234.267,489.304v-0.169h0.919c0.038,1.773,0.575,2.106,1.563,2.106c0.905,0,1.436-0.451,1.436-2.353
				v-2.1c-0.394,0.189-0.918,0.292-1.591,0.292c-1.854,0-2.572-1.404-2.572-3.215c0-1.861,0.737-3.288,2.638-3.288
				c1.804,0,2.507,1.235,2.507,3.342v4.951c0,1.83-0.646,3.159-2.507,3.159C234.882,492.03,234.267,490.686,234.267,489.304z
				 M238.185,485.994v-2.004c0-2.15-0.505-2.623-1.526-2.623c-1.113,0-1.655,0.593-1.655,2.493c0,1.85,0.523,2.432,1.589,2.432
				C237.163,486.292,237.9,486.183,238.185,485.994z"/>
		</g>
		<g>
			<path fill="#DCDDC9" d="M290.233,539.081v0.781c-2.571,0-2.518-3.511-2.518-5.467s-0.053-5.473,2.518-5.473v0.779
				c-1.56,0-1.619,2.317-1.619,4.445C288.614,536.369,288.555,539.081,290.233,539.081z"/>
			<path fill="#DCDDC9" d="M290.913,536.588v-4.526c0-1.673,0.591-2.891,2.293-2.891c1.625,0,2.187,1.229,2.187,2.494v0.154h-0.839
				c-0.036-1.62-0.525-1.927-1.43-1.927c-0.828,0-1.313,0.413-1.313,2.15v1.92c0.361-0.171,0.839-0.265,1.454-0.265
				c1.696,0,2.352,1.282,2.352,2.937c0,1.702-0.674,3.008-2.411,3.008C291.557,539.643,290.913,538.515,290.913,536.588z
				 M291.811,534.691v1.831c0,1.968,0.461,2.4,1.395,2.4c1.016,0,1.513-0.544,1.513-2.281c0-1.69-0.479-2.223-1.454-2.223
				C292.745,534.419,292.071,534.52,291.811,534.691z"/>
			<path fill="#DCDDC9" d="M297.431,539.483v-8.734c-0.349,0.236-0.869,0.466-1.135,0.526v-0.852
				c0.361-0.131,1.058-0.502,1.424-1.11h0.608v10.17H297.431z"/>
			<path fill="#DCDDC9" d="M299.594,537.148v-0.153h0.839c0.036,1.619,0.549,1.928,1.489,1.928c0.863,0,1.372-0.415,1.372-2.152
				c0-1.282-0.349-2.204-1.513-2.299v-0.762c1.141-0.047,1.513-0.58,1.513-2.009c0-1.359-0.479-1.809-1.365-1.809
				c-0.898,0-1.43,0.531-1.495,1.955h-0.845v-0.146c0-1.295,0.597-2.53,2.358-2.53c1.643,0,2.246,1.224,2.246,2.535
				c0,1.377-0.626,2.175-1.389,2.399c0.603,0.242,1.389,0.828,1.389,2.647c0,1.673-0.609,2.89-2.353,2.89
				C300.174,539.643,299.594,538.414,299.594,537.148z"/>
			<path fill="#DCDDC9" d="M304.896,539.862v-0.781c1.678,0,1.619-2.712,1.619-4.934c0-2.128-0.059-4.445-1.619-4.445v-0.779
				c2.57,0,2.518,3.517,2.518,5.473S307.466,539.862,304.896,539.862z"/>
			<path fill="#DCDDC9" d="M310.409,539.483v-0.756l2.73-4.12c0.473-0.714,1.135-1.737,1.135-2.642c0-1.193-0.36-2.073-1.347-2.073
				c-1.395,0-1.602,1.164-1.602,2.404h-0.898v-0.136c0.036-1.844,0.769-2.99,2.488-2.99c1.537,0,2.258,1.104,2.258,2.79
				c0,0.916-0.644,2.108-1.146,2.837l-2.559,3.965h3.581v0.721H310.409z"/>
			<path fill="#DCDDC9" d="M317.607,534.105c-0.762-0.225-1.389-1.022-1.389-2.399c0-1.418,0.656-2.535,2.352-2.535
				c1.696,0,2.353,1.117,2.353,2.535c0,1.377-0.626,2.175-1.389,2.399c0.602,0.242,1.389,0.828,1.389,2.647
				c0,1.673-0.609,2.89-2.353,2.89c-1.743,0-2.352-1.217-2.352-2.89C316.219,534.934,317.004,534.348,317.607,534.105z
				 M318.57,533.71c1.094-0.065,1.454-0.603,1.454-2.009c0-1.359-0.479-1.809-1.454-1.809s-1.454,0.449-1.454,1.809
				C317.117,533.107,317.477,533.645,318.57,533.71z M318.57,534.479c-1.117,0.124-1.454,1.034-1.454,2.292
				c0,1.737,0.508,2.152,1.454,2.152c0.946,0,1.454-0.415,1.454-2.152C320.024,535.513,319.688,534.603,318.57,534.479z"/>
			<path fill="#DCDDC9" d="M322.247,536.588v-4.526c0-1.673,0.591-2.891,2.292-2.891c1.626,0,2.187,1.229,2.187,2.494v0.154h-0.839
				c-0.035-1.62-0.526-1.927-1.43-1.927c-0.828,0-1.312,0.413-1.312,2.15v1.92c0.36-0.171,0.839-0.265,1.453-0.265
				c1.697,0,2.353,1.282,2.353,2.937c0,1.702-0.673,3.008-2.412,3.008C322.891,539.643,322.247,538.515,322.247,536.588z
				 M323.145,534.691v1.831c0,1.968,0.461,2.4,1.394,2.4c1.017,0,1.514-0.544,1.514-2.281c0-1.69-0.479-2.223-1.455-2.223
				C324.078,534.419,323.405,534.52,323.145,534.691z"/>
			<path fill="#DCDDC9" d="M328.079,536.837v-0.68h1.85v0.68H328.079z"/>
			<path fill="#DCDDC9" d="M331.909,539.483v-8.734c-0.349,0.236-0.869,0.466-1.134,0.526v-0.852c0.36-0.131,1.058-0.502,1.424-1.11
				h0.608v10.17H331.909z"/>
			<path fill="#DCDDC9" d="M334.326,537.148v-0.153h0.839c0.036,1.619,0.526,1.928,1.431,1.928c0.827,0,1.312-0.415,1.312-2.152
				v-1.92c-0.36,0.172-0.838,0.266-1.454,0.266c-1.696,0-2.353-1.282-2.353-2.938c0-1.701,0.674-3.008,2.412-3.008
				c1.649,0,2.293,1.129,2.293,3.055v4.527c0,1.673-0.591,2.89-2.293,2.89C334.888,539.643,334.326,538.414,334.326,537.148z
				 M337.907,534.123v-1.831c0-1.968-0.461-2.399-1.395-2.399c-1.017,0-1.513,0.543-1.513,2.28c0,1.69,0.479,2.223,1.454,2.223
				C336.974,534.396,337.647,534.296,337.907,534.123z"/>
			<path fill="#DCDDC9" d="M340.295,539.483l1.938-9.366h-2.854v-0.804h3.818v0.448c-0.863,4.45-1.099,5.271-1.968,9.722H340.295z"
				/>
			<path fill="#DCDDC9" d="M343.853,537.148v-0.153h0.839c0.035,1.619,0.549,1.928,1.489,1.928c0.863,0,1.371-0.415,1.371-2.152
				c0-1.282-0.349-2.204-1.513-2.299v-0.762c1.141-0.047,1.513-0.58,1.513-2.009c0-1.359-0.479-1.809-1.365-1.809
				c-0.898,0-1.431,0.531-1.495,1.955h-0.845v-0.146c0-1.295,0.597-2.53,2.358-2.53c1.643,0,2.246,1.224,2.246,2.535
				c0,1.377-0.626,2.175-1.389,2.399c0.603,0.242,1.389,0.828,1.389,2.647c0,1.673-0.608,2.89-2.352,2.89
				C344.432,539.643,343.853,538.414,343.853,537.148z"/>
		</g>
		<g>
			<path fill="#DCDDC9" d="M287.119,546.632h1.324l0.827,4.964l0.827-4.964h1.324l-1.479,6.619h-1.334L287.119,546.632z"/>
			<path fill="#DCDDC9" d="M294.846,547.287v-3.297h1.324v9.261h-1.324v-0.6c-0.306,0.315-0.724,0.693-1.324,0.693
				c-1.33,0-1.655-1.737-1.655-3.079c0-1.73-0.021-3.726,1.634-3.726C294.126,546.54,294.499,546.921,294.846,547.287z
				 M293.853,552.258c0.34,0,0.697-0.089,0.993-0.207v-4.164c-0.244-0.145-0.626-0.263-0.993-0.263
				c-0.777,0-0.662,1.186-0.662,1.979C293.191,550.512,293.051,552.258,293.853,552.258z"/>
			<path fill="#DCDDC9" d="M298.702,549.079l1.655-2.447h1.324l-1.485,2.31l1.485,4.31h-1.324l-0.993-3.201l-0.662,0.884v2.317
				h-1.324v-9.268h1.324V549.079z"/>
			<path fill="#DCDDC9" d="M304.011,552.258c0.662,0,0.662-0.662,0.662-1.324h1.324c0,1.454-0.511,2.411-1.986,2.411
				c-1.793,0-1.985-1.613-1.985-3.403c0-1.788,0.191-3.401,1.985-3.401c1.516,0,1.986,0.904,1.986,2.408h-1.324
				c0-0.62-0.05-1.38-0.662-1.38c-0.794,0-0.662,1.537-0.662,2.373C303.35,550.774,303.201,552.258,304.011,552.258z"/>
			<path fill="#DCDDC9" d="M310.459,548.617v2.979c0,0.676,0.042,1.185,0.172,1.655h-1.318l-0.178-0.993
				c-0.263,0.522-0.558,1.087-1.323,1.087c-0.766,0-1.324-0.785-1.324-1.558c0-1.722,1.371-2.192,2.647-2.694v-0.476
				c0-0.585-0.108-1.055-0.661-1.055c-0.543,0-0.662,0.476-0.662,1.055h-1.324c0.016-1.25,0.729-2.077,1.986-2.077
				C309.731,546.54,310.459,547.389,310.459,548.617z M307.812,551.437c0,0.497,0.186,0.821,0.662,0.821
				c0.322,0,0.523-0.298,0.661-0.484v-1.832C308.614,550.292,307.812,550.636,307.812,551.437z"/>
			<path fill="#DCDDC9" d="M314.227,553.345c-0.605,0-1.019-0.378-1.323-0.693v0.6h-1.324v-9.261h1.324v3.297
				c0.356-0.374,0.691-0.747,1.344-0.747c1.618,0,1.634,1.933,1.634,3.641v0.085C315.881,551.611,315.55,553.345,314.227,553.345z
				 M314.562,548.995c0-0.676-0.066-1.371-0.667-1.371c-0.368,0-0.75,0.118-0.992,0.263v4.164c0.293,0.118,0.65,0.207,0.992,0.207
				c0.594,0,0.671-0.96,0.671-1.83c0-0.3-0.009-0.591-0.009-0.824C314.558,549.419,314.562,549.208,314.562,548.995z"/>
			<path fill="#DCDDC9" d="M318.346,544.314v1.324h-1.324v-1.324H318.346z M318.346,546.632v6.619h-1.324v-6.619H318.346z"/>
			<path fill="#DCDDC9" d="M322.633,546.54c0.584,0,0.952,0.491,0.952,1.069v5.642h-1.324v-4.965c0-0.42-0.068-0.662-0.497-0.662
				c-0.372,0-0.612,0.207-0.828,0.387v5.24h-1.324v-6.619h1.324v0.715C321.401,546.921,321.841,546.54,322.633,546.54z"/>
			<path fill="#DCDDC9" d="M326.605,552.258c0.667,0,0.667-0.655,0.667-1.324h1.319c0,1.524-0.55,2.411-1.992,2.411
				c-1.806,0-1.98-1.682-1.98-3.557c0-1.797,0.257-3.248,1.986-3.248c1.726,0,1.986,1.451,1.986,3.248v0.153h-2.648v0.331
				C325.943,551.037,325.86,552.258,326.605,552.258z M326.605,547.624c-0.683,0-0.662,0.973-0.662,1.655h1.324
				C327.267,548.591,327.282,547.624,326.605,547.624z"/>
			<path fill="#DCDDC9" d="M331.218,553.345c-1.064,0-1.49-0.558-1.499-1.604v-4.116h-0.662v-0.992h0.662v-2.317h1.324v2.317h0.993
				v0.992h-0.993v3.863c0,0.473,0.071,0.771,0.546,0.771c0.125,0,0.327-0.029,0.446-0.051v1.075
				C331.705,553.324,331.54,553.345,331.218,553.345z"/>
			<path fill="#DCDDC9" d="M334.521,547.624c-0.42,0-0.662,0.24-0.662,0.662c0,0.26,0.187,0.449,0.331,0.56l1.324,0.991
				c0.523,0.42,0.993,0.922,0.993,1.759c0,1.158-0.813,1.749-1.986,1.749c-1.164,0-1.764-0.807-1.986-1.749l0.993-0.331
				c0.151,0.42,0.435,0.993,0.993,0.993c0.42,0,0.662-0.237,0.662-0.662c0-0.359-0.145-0.593-0.331-0.766l-1.324-0.993
				c-0.502-0.345-0.993-0.765-0.993-1.551c0-1.157,0.813-1.746,1.986-1.746c1.185,0,1.764,0.807,1.986,1.746l-0.993,0.331
				C335.354,548.197,335.09,547.624,334.521,547.624z"/>
			<path fill="#DCDDC9" d="M343.405,551.74c-0.672,0-1.179-0.253-1.423-0.662c-0.145,0.325-0.414,0.662-0.884,0.662
				c-1.131,0-1.696-0.957-1.696-2.074c0-1.262,0.378-2.605,1.573-2.605c0.465,0,0.713,0.279,0.734,0.703v-0.656h1.324v2.938
				c0,0.325,0.02,0.611,0.351,0.611c0.522,0,0.6-0.813,0.6-1.377c0-1.975-0.657-3.165-2.596-3.165c-1.82,0-2.647,1.314-2.647,3.165
				c0,2.287,0.714,3.641,2.968,3.641c0.533,0,1.112-0.151,1.531-0.284l0.486,1.014c-0.61,0.139-1.283,0.264-2.017,0.264
				c-3.041,0-4.292-1.566-4.292-4.634c0-2.539,1.453-4.158,3.971-4.158c2.591,0,3.92,1.566,3.92,4.158
				C345.308,550.65,344.725,551.74,343.405,551.74z M341.709,550.449v-2.086c-0.021-0.145-0.093-0.264-0.279-0.264
				c-0.713,0-0.703,0.842-0.703,1.566c0,0.509,0.124,0.99,0.6,0.99C341.548,550.656,341.688,550.604,341.709,550.449z"/>
			<path fill="#DCDDC9" d="M349.343,546.54c0.067,0,0.113,0.009,0.212,0.021v1.463c-0.198-0.077-0.475-0.145-0.735-0.145
				c-0.546,0-0.918,0.356-0.918,0.904v4.468h-1.324v-6.619h1.324v0.884C348.138,547.058,348.66,546.54,349.343,546.54z"/>
			<path fill="#DCDDC9" d="M349.928,550.934v-1.985c0-1.469,0.497-2.408,1.986-2.408c1.489,0,1.985,0.939,1.985,2.408v1.985
				c0,1.469-0.497,2.411-1.985,2.411C350.425,553.345,349.928,552.402,349.928,550.934z M351.252,548.948v1.985
				c0,0.662,0,1.324,0.662,1.324s0.662-0.662,0.662-1.324v-1.985c0-0.662,0-1.324-0.662-1.324S351.252,548.286,351.252,548.948z"/>
			<path fill="#DCDDC9" d="M356.68,546.54c0.76,0,1.123,0.311,1.427,0.78c0.217-0.405,0.594-0.78,1.221-0.78v1.084
				c-0.379,0-0.642,0.145-0.828,0.331c0.089,0.26,0.166,0.606,0.166,0.993c0,1.356-0.635,2.399-1.986,2.399
				c-0.145,0-0.29-0.014-0.42-0.036l-0.248-0.04c-0.063,0.111-0.181,0.263-0.181,0.422c0,0.482,1.277,0.432,1.748,0.493
				c0.889,0.118,1.748,0.387,1.748,1.396c0,1.234-1.103,1.648-2.317,1.648c-0.987,0-2.648-0.009-2.648-0.973
				c0-0.744,0.476-1.209,0.993-1.469c-0.305-0.082-0.662-0.269-0.662-0.578c0-0.497,0.429-0.981,0.662-1.277
				c-0.408-0.484-0.662-1.157-0.662-1.985C354.694,547.595,355.367,546.54,356.68,546.54z M358.169,553.762
				c0-0.056-0.006-0.112-0.021-0.169c-0.047-0.26-0.393-0.431-1.04-0.508l-1.091-0.13c-0.249,0.183-0.486,0.576-0.486,0.993
				c0,0.394,1.072,0.307,1.479,0.307C357.481,554.255,358.169,554.223,358.169,553.762z M356.68,547.459
				c-0.683,0-0.827,0.807-0.827,1.489c0,0.677,0.155,1.406,0.827,1.406c0.677,0,0.828-0.729,0.828-1.406
				C357.508,548.266,357.352,547.459,356.68,547.459z"/>
			<path fill="#DCDDC9" d="M361.677,552.258c0.666,0,0.666-0.655,0.666-1.324h1.319c0,1.524-0.549,2.411-1.991,2.411
				c-1.805,0-1.979-1.682-1.979-3.557c0-1.797,0.257-3.248,1.986-3.248c1.725,0,1.985,1.451,1.985,3.248v0.153h-2.647v0.331
				C361.015,551.037,360.932,552.258,361.677,552.258z M361.677,547.624c-0.683,0-0.662,0.973-0.662,1.655h1.324
				C362.339,548.591,362.354,547.624,361.677,547.624z"/>
			<path fill="#DCDDC9" d="M367.285,546.54c0.068,0,0.114,0.009,0.213,0.021v1.463c-0.198-0.077-0.476-0.145-0.736-0.145
				c-0.547,0-0.919,0.356-0.919,0.904v4.468h-1.324v-6.619h1.324v0.884C366.08,547.058,366.602,546.54,367.285,546.54z"/>
			<path fill="#DCDDC9" d="M369.706,547.624c-0.42,0-0.662,0.24-0.662,0.662c0,0.26,0.187,0.449,0.331,0.56l1.324,0.991
				c0.523,0.42,0.993,0.922,0.993,1.759c0,1.158-0.813,1.749-1.985,1.749c-1.165,0-1.764-0.807-1.986-1.749l0.993-0.331
				c0.151,0.42,0.435,0.993,0.993,0.993c0.419,0,0.662-0.237,0.662-0.662c0-0.359-0.145-0.593-0.331-0.766l-1.324-0.993
				c-0.502-0.345-0.993-0.765-0.993-1.551c0-1.157,0.813-1.746,1.986-1.746c1.185,0,1.764,0.807,1.985,1.746l-0.993,0.331
				C370.539,548.197,370.274,547.624,369.706,547.624z"/>
			<path fill="#DCDDC9" d="M373.594,551.927v1.324h-1.324v-1.324H373.594z"/>
			<path fill="#DCDDC9" d="M376.392,552.258c0.662,0,0.662-0.662,0.662-1.324h1.324c0,1.454-0.512,2.411-1.986,2.411
				c-1.795,0-1.985-1.613-1.985-3.403c0-1.788,0.19-3.401,1.985-3.401c1.515,0,1.986,0.904,1.986,2.408h-1.324
				c0-0.62-0.052-1.38-0.662-1.38c-0.798,0-0.662,1.537-0.662,2.373C375.73,550.774,375.58,552.258,376.392,552.258z"/>
			<path fill="#DCDDC9" d="M379.066,550.934v-1.985c0-1.469,0.497-2.408,1.986-2.408s1.986,0.939,1.986,2.408v1.985
				c0,1.469-0.497,2.411-1.986,2.411S379.066,552.402,379.066,550.934z M380.39,548.948v1.985c0,0.662,0,1.324,0.662,1.324
				s0.662-0.662,0.662-1.324v-1.985c0-0.662,0-1.324-0.662-1.324S380.39,548.286,380.39,548.948z"/>
			<path fill="#DCDDC9" d="M388.094,548.07v5.181h-1.324v-4.805c0-0.376,0.037-0.822-0.331-0.822c-0.422,0-0.753,0.223-0.993,0.42
				v5.207h-1.324v-6.619h1.324v0.75c0.357-0.426,0.869-0.842,1.65-0.842c0.657,0,0.899,0.293,0.997,0.871
				c0.389-0.505,0.833-0.871,1.655-0.871c1.02,0,0.993,0.878,0.993,1.897v4.813h-1.324v-4.829c0-0.369,0.033-0.798-0.331-0.798
				C388.652,547.624,388.337,547.873,388.094,548.07z"/>
		</g>
		<g>
			<path fill="#DCDDC9" d="M288.079,519.617l0.792-0.229c0.124,1.069,0.608,2.122,1.814,2.122c0.928,0,1.448-0.538,1.448-1.473
				c0-0.862-0.626-1.602-1.365-2.382l-1.589-1.672c-0.597-0.633-1.076-1.271-1.076-2.033c0-1.348,0.987-2.192,2.34-2.192
				c1.341,0,2.151,0.78,2.417,2.204l0.018,0.095l-0.756,0.236l-0.012-0.083c-0.148-0.951-0.698-1.73-1.667-1.73
				c-0.863,0-1.472,0.437-1.472,1.353c0,0.573,0.343,1.087,0.833,1.62l1.495,1.624c0.798,0.875,1.69,1.715,1.69,2.885
				c0,1.5-1.04,2.269-2.405,2.269C289.096,522.229,288.292,521.019,288.079,519.617z"/>
			<path fill="#DCDDC9" d="M295.206,522.07v-9.45h-1.979v-0.721h4.875v0.721h-1.997v9.45H295.206z"/>
			<path fill="#DCDDC9" d="M298.758,522.07v-10.171h3.546v0.721h-2.648v3.854h1.891v0.68h-1.891v4.196h2.648v0.721H298.758z"/>
			<path fill="#DCDDC9" d="M304.987,522.07l-2.187-10.171h0.969l1.803,9.106l1.726-9.106h0.969l-2.104,10.171H304.987z"/>
			<path fill="#DCDDC9" d="M309.266,522.07v-10.171h3.546v0.721h-2.648v3.854h1.892v0.68h-1.892v4.196h2.648v0.721H309.266z"/>
			<path fill="#DCDDC9" d="M317.468,522.07l-2.187-10.171h0.969l1.803,9.106l1.725-9.106h0.97l-2.104,10.171H317.468z"/>
			<path fill="#DCDDC9" d="M321.871,522.07h-0.904c0.952-4.717,1.058-5.449,2.009-10.171h1.17l2.009,10.171h-0.911l-0.508-2.646
				h-2.347L321.871,522.07z M322.498,518.826h2.127l-1.07-5.993L322.498,518.826z"/>
			<path fill="#DCDDC9" d="M327.32,522.07v-10.171h0.691l3.221,8.056v-8.056h0.763v10.171h-0.674l-3.227-7.884v7.884H327.32z"/>
			<path fill="#DCDDC9" d="M333.72,522.07v-10.171h2.287c1.974,0,2.594,1.347,2.594,3.032v4.137c0,1.644-0.573,3.002-2.594,3.002
				H333.72z M334.619,521.35h1.389c1.324,0,1.697-0.946,1.697-2.081v-4.538c0-1.171-0.373-2.11-1.697-2.11h-1.389V521.35z"/>
			<path fill="#DCDDC9" d="M340.168,522.07v-10.171h3.546v0.721h-2.647v3.854h1.891v0.68h-1.891v4.196h2.647v0.721H340.168z"/>
			<path fill="#DCDDC9" d="M344.937,522.07v-10.171h0.898v5.348l2.712-5.348h0.928l-2.104,4.196l2.583,5.975h-0.952l-2.175-5.372
				l-0.993,1.784v3.588H344.937z"/>
			<path fill="#DCDDC9" d="M350.906,522.07v-10.171h3.546v0.721h-2.648v3.854h1.892v0.68h-1.892v4.196h2.648v0.721H350.906z"/>
			<path fill="#DCDDC9" d="M355.675,522.07v-10.171h1.105l1.962,8.782c0.804-3.842,1.206-4.94,1.962-8.782h1.105v10.171h-0.797
				v-8.138l-1.879,8.138h-0.78l-1.879-8.132v8.132H355.675z"/>
			<path fill="#DCDDC9" d="M363.536,522.07v-10.171h2.488c1.814,0,2.406,1.271,2.406,2.737c0,1.446-0.473,2.912-2.412,2.912h-1.583
				v4.521H363.536z M364.434,516.829l1.69,0.005c1.027,0.006,1.406-0.709,1.406-2.18c0-1.413-0.467-2.034-1.406-2.034h-1.69V516.829
				z"/>
		</g>
	</g>
</g>
<g id="Layer_6">
	<rect x="408.788" y="335.823" fill="#31444B" width="408.484" height="245.092"/>
	
		<rect x="423.162" y="361.345" fill="none" stroke="#486066" stroke-width="0.5" stroke-miterlimit="10" width="379.739" height="1.58"/>
	<path fill="none" stroke="#486066" stroke-width="0.5" stroke-miterlimit="10" d="M592.398,369.621c0,0.458-0.418,0.83-0.926,0.83
		H424.089c-0.515,0-0.928-0.372-0.928-0.83l0,0c0-0.461,0.413-0.837,0.928-0.837h167.383
		C591.98,368.784,592.398,369.16,592.398,369.621L592.398,369.621z"/>
	<path fill="none" stroke="#486066" stroke-width="0.5" stroke-miterlimit="10" d="M691.246,369.621c0,0.458-0.182,0.83-0.408,0.83
		h-73.385c-0.225,0-0.408-0.372-0.408-0.83l0,0c0-0.461,0.184-0.837,0.408-0.837h73.385
		C691.064,368.784,691.246,369.16,691.246,369.621L691.246,369.621z"/>
	
		<rect x="423.162" y="372.534" fill="none" stroke="#486066" stroke-width="0.5" stroke-miterlimit="10" width="163.672" height="81.591"/>
	
		<rect x="718.959" y="372.534" fill="none" stroke="#486066" stroke-width="0.5" stroke-miterlimit="10" width="83.926" height="81.591"/>
	
		<rect x="620.682" y="372.534" fill="none" stroke="#486066" stroke-width="0.5" stroke-miterlimit="10" width="66.305" height="18.734"/>
	<polygon fill="none" stroke="#486066" stroke-width="0.5" stroke-miterlimit="10" points="698.588,415.827 609.078,415.827 
		620.682,391.269 686.986,391.269 	"/>
	
		<rect x="423.162" y="352.595" fill="none" stroke="#486066" stroke-width="0.5" stroke-miterlimit="10" width="379.739" height="1.578"/>
	<path fill="none" stroke="#486066" stroke-width="0.5" stroke-miterlimit="10" d="M602.602,352.37c0,0-6.422-1.155-7.707,4.616
		c-1.285,5.77-8.996,4.23-8.996,4.23"/>
	<path fill="none" stroke="#486066" stroke-width="0.5" stroke-miterlimit="10" d="M700.992,352.37c0,0-6.42-1.155-7.703,4.616
		c-1.287,5.77-8.998,4.23-8.998,4.23"/>
	<path fill="none" stroke="#486066" stroke-width="0.5" stroke-miterlimit="10" d="M606.318,352.37c0,0,6.422-1.155,7.709,4.616
		c1.283,5.77,8.996,4.23,8.996,4.23"/>
	
		<line fill="none" stroke="#486066" stroke-width="0.5" stroke-miterlimit="10" x1="589.613" y1="415.827" x2="717.123" y2="415.827"/>
	<path fill="none" stroke="#486066" stroke-width="0.5" stroke-miterlimit="10" d="M589.611,416.959c0,0,6.422-1.156,7.707,4.618
		c1.285,5.765,8.994,4.229,8.994,4.229"/>
	<path fill="none" stroke="#486066" stroke-width="0.5" stroke-miterlimit="10" d="M717.703,416.959c0,0-6.422-1.156-7.707,4.618
		c-1.285,5.765-8.994,4.229-8.994,4.229"/>
	
		<line fill="none" stroke="#486066" stroke-width="0.5" stroke-miterlimit="10" x1="606.758" y1="425.98" x2="700.908" y2="425.98"/>
	
		<rect x="600.279" y="425.98" fill="none" stroke="#486066" stroke-width="0.5" stroke-miterlimit="10" width="105.717" height="2.75"/>
	
		<rect x="600.279" y="428.73" fill="none" stroke="#486066" stroke-width="0.5" stroke-miterlimit="10" width="14.406" height="25.395"/>
	
		<rect x="691.678" y="428.73" fill="none" stroke="#486066" stroke-width="0.5" stroke-miterlimit="10" width="14.402" height="25.395"/>
	
		<rect x="603.125" y="431.234" fill="none" stroke="#486066" stroke-width="0.5" stroke-miterlimit="10" width="8.734" height="20.812"/>
	
		<rect x="694.459" y="431.234" fill="none" stroke="#486066" stroke-width="0.5" stroke-miterlimit="10" width="8.736" height="20.812"/>
	<path fill="none" stroke="#486066" stroke-width="0.5" stroke-miterlimit="10" d="M614.686,443.721c0,0,40.48-19.566,76.561,0"/>
	
		<rect x="423.162" y="492.606" fill="none" stroke="#486066" stroke-width="0.5" stroke-miterlimit="10" width="379.739" height="1.575"/>
	
		<rect x="600.279" y="483.268" fill="none" stroke="#486066" stroke-width="0.5" stroke-miterlimit="10" width="105.717" height="9.316"/>
	
		<rect x="600.279" y="483.268" fill="none" stroke="#486066" stroke-width="0.5" stroke-miterlimit="10" width="105.717" height="2.497"/>
	<path fill="none" stroke="#486066" stroke-width="0.5" stroke-miterlimit="10" d="M617.93,492.011c0,0.458-0.416,0.831-0.928,0.831
		h-12.1c-0.514,0-0.93-0.373-0.93-0.831l0,0c0-0.462,0.416-0.833,0.93-0.833h12.1C617.514,491.178,617.93,491.549,617.93,492.011
		L617.93,492.011z"/>
	<path fill="none" stroke="#486066" stroke-width="0.5" stroke-miterlimit="10" d="M631.855,492.011c0,0.458-0.418,0.831-0.93,0.831
		h-12.102c-0.514,0-0.928-0.373-0.928-0.831l0,0c0-0.462,0.414-0.833,0.928-0.833h12.102
		C631.438,491.178,631.855,491.549,631.855,492.011L631.855,492.011z"/>
	<path fill="none" stroke="#486066" stroke-width="0.5" stroke-miterlimit="10" d="M648.514,492.011
		c0,0.458-0.418,0.831-0.928,0.831H635.48c-0.51,0-0.924-0.373-0.924-0.831l0,0c0-0.462,0.414-0.833,0.924-0.833h12.105
		C648.096,491.178,648.514,491.549,648.514,492.011L648.514,492.011z"/>
	<path fill="none" stroke="#486066" stroke-width="0.5" stroke-miterlimit="10" d="M689.389,492.011
		c0,0.458-0.416,0.831-0.926,0.831h-12.104c-0.512,0-0.928-0.373-0.928-0.831l0,0c0-0.462,0.416-0.833,0.928-0.833h12.104
		C688.973,491.178,689.389,491.549,689.389,492.011L689.389,492.011z"/>
	<path fill="none" stroke="#486066" stroke-width="0.5" stroke-miterlimit="10" d="M703.311,492.011
		c0,0.458-0.412,0.831-0.926,0.831h-12.1c-0.512,0-0.928-0.373-0.928-0.831l0,0c0-0.462,0.416-0.833,0.928-0.833h12.1
		C702.898,491.178,703.311,491.549,703.311,492.011L703.311,492.011z"/>
	
		<rect x="604.902" y="487.844" fill="none" stroke="#486066" stroke-width="0.5" stroke-miterlimit="10" width="97.482" height="6.244"/>
	<path fill="none" stroke="#486066" stroke-width="0.5" stroke-miterlimit="10" d="M428.261,389.186c0,0,32.928-18.734,74.649,0
		v62.86h-74.649V389.186z"/>
	<path fill="none" stroke="#486066" stroke-width="0.5" stroke-miterlimit="10" d="M509.018,389.186c0,0,32.926-18.734,74.65,0
		v62.86h-74.65V389.186z"/>
	<path fill="none" stroke="#486066" stroke-width="0.5" stroke-miterlimit="10" d="M723.699,389.186c0,0,32.93-18.734,74.652,0
		v62.86h-74.652V389.186z"/>
	<path fill="none" stroke="#486066" stroke-width="0.5" stroke-miterlimit="10" d="M432.433,391.269v54.533h28.747v-59.946
		C461.18,385.855,452.371,385.022,432.433,391.269z"/>
	<path fill="none" stroke="#486066" stroke-width="0.5" stroke-miterlimit="10" d="M513.191,391.269v54.533h28.746v-59.946
		C541.938,385.855,533.127,385.022,513.191,391.269z"/>
	<path fill="none" stroke="#486066" stroke-width="0.5" stroke-miterlimit="10" d="M728.539,391.269v54.533h28.748v-59.946
		C757.287,385.855,748.479,385.022,728.539,391.269z"/>
	<path fill="none" stroke="#486066" stroke-width="0.5" stroke-miterlimit="10" d="M793.953,391.269v54.533h-28.75v-59.946
		C765.203,385.855,774.014,385.022,793.953,391.269z"/>
	<path fill="none" stroke="#486066" stroke-width="0.5" stroke-miterlimit="10" d="M579.066,391.269v54.533h-28.748v-59.946
		C550.318,385.855,559.129,385.022,579.066,391.269z"/>
	<path fill="none" stroke="#486066" stroke-width="0.5" stroke-miterlimit="10" d="M500.168,391.269v54.533H471.42v-59.946
		C471.42,385.855,480.229,385.022,500.168,391.269z"/>
	
		<rect x="432.433" y="406.877" fill="none" stroke="#486066" stroke-width="0.5" stroke-miterlimit="10" width="28.747" height="2.083"/>
	
		<rect x="432.433" y="429.795" fill="none" stroke="#486066" stroke-width="0.5" stroke-miterlimit="10" width="28.747" height="2.083"/>
	
		<rect x="470.955" y="406.877" fill="none" stroke="#486066" stroke-width="0.5" stroke-miterlimit="10" width="28.746" height="2.083"/>
	
		<rect x="470.955" y="429.795" fill="none" stroke="#486066" stroke-width="0.5" stroke-miterlimit="10" width="28.746" height="2.083"/>
	
		<rect x="512.727" y="406.877" fill="none" stroke="#486066" stroke-width="0.5" stroke-miterlimit="10" width="28.746" height="2.083"/>
	
		<rect x="512.727" y="429.795" fill="none" stroke="#486066" stroke-width="0.5" stroke-miterlimit="10" width="28.746" height="2.083"/>
	
		<rect x="550.318" y="406.877" fill="none" stroke="#486066" stroke-width="0.5" stroke-miterlimit="10" width="28.748" height="2.083"/>
	
		<rect x="550.318" y="429.795" fill="none" stroke="#486066" stroke-width="0.5" stroke-miterlimit="10" width="28.748" height="2.083"/>
	
		<rect x="728.076" y="406.877" fill="none" stroke="#486066" stroke-width="0.5" stroke-miterlimit="10" width="28.746" height="2.083"/>
	
		<rect x="728.076" y="429.795" fill="none" stroke="#486066" stroke-width="0.5" stroke-miterlimit="10" width="28.746" height="2.083"/>
	
		<rect x="765.668" y="406.877" fill="none" stroke="#486066" stroke-width="0.5" stroke-miterlimit="10" width="28.75" height="2.083"/>
	
		<rect x="765.668" y="429.795" fill="none" stroke="#486066" stroke-width="0.5" stroke-miterlimit="10" width="28.75" height="2.083"/>
	
		<rect x="428.261" y="498.671" fill="none" stroke="#486066" stroke-width="0.5" stroke-miterlimit="10" width="74.649" height="11.653"/>
	
		<rect x="508.088" y="498.671" fill="none" stroke="#486066" stroke-width="0.5" stroke-miterlimit="10" width="74.65" height="11.653"/>
	
		<rect x="723.904" y="498.671" fill="none" stroke="#486066" stroke-width="0.5" stroke-miterlimit="10" width="74.65" height="11.653"/>
	
		<rect x="432.667" y="502.834" fill="none" stroke="#486066" stroke-width="0.5" stroke-miterlimit="10" width="65.839" height="3.33"/>
	
		<rect x="512.494" y="502.834" fill="none" stroke="#486066" stroke-width="0.5" stroke-miterlimit="10" width="65.84" height="3.33"/>
	
		<rect x="728.771" y="502.834" fill="none" stroke="#486066" stroke-width="0.5" stroke-miterlimit="10" width="65.84" height="3.33"/>
	
		<ellipse fill="none" stroke="#486066" stroke-width="0.5" stroke-miterlimit="10" cx="463.507" cy="442.447" rx="1.392" ry="1.251"/>
	
		<ellipse fill="none" stroke="#486066" stroke-width="0.5" stroke-miterlimit="10" cx="468.148" cy="442.447" rx="1.391" ry="1.251"/>
	<path fill="none" stroke="#486066" stroke-width="0.5" stroke-miterlimit="10" d="M545.191,442.447
		c0,0.691-0.625,1.251-1.395,1.251c-0.766,0-1.391-0.56-1.391-1.251c0-0.688,0.625-1.25,1.391-1.25
		C544.566,441.197,545.191,441.759,545.191,442.447z"/>
	
		<ellipse fill="none" stroke="#486066" stroke-width="0.5" stroke-miterlimit="10" cx="548.439" cy="442.447" rx="1.391" ry="1.251"/>
	<path fill="none" stroke="#486066" stroke-width="0.5" stroke-miterlimit="10" d="M760.541,442.447
		c0,0.691-0.627,1.251-1.391,1.251c-0.771,0-1.393-0.56-1.393-1.251c0-0.688,0.621-1.25,1.393-1.25
		C759.914,441.197,760.541,441.759,760.541,442.447z"/>
	
		<ellipse fill="none" stroke="#486066" stroke-width="0.5" stroke-miterlimit="10" cx="763.789" cy="442.447" rx="1.393" ry="1.251"/>
	
		<line fill="none" stroke="#486066" stroke-width="0.5" stroke-miterlimit="10" x1="466.754" y1="380.88" x2="466.754" y2="452.046"/>
	
		<line fill="none" stroke="#486066" stroke-width="0.5" stroke-miterlimit="10" x1="546.117" y1="380.88" x2="546.117" y2="452.046"/>
	
		<line fill="none" stroke="#486066" stroke-width="0.5" stroke-miterlimit="10" x1="761.295" y1="380.88" x2="761.295" y2="452.046"/>
	
		<rect x="600.279" y="496.171" fill="none" stroke="#486066" stroke-width="0.5" stroke-miterlimit="10" width="105.801" height="2.5"/>
	<path fill="none" stroke="#486066" stroke-width="0.5" stroke-miterlimit="10" d="M616.525,502.423c0,1.61-1.451,2.914-3.244,2.914
		c-1.791,0-3.242-1.304-3.242-2.914c0-1.606,1.451-2.912,3.242-2.912C615.074,499.511,616.525,500.816,616.525,502.423z"/>
	
		<rect x="612.807" y="500.759" fill="none" stroke="#486066" stroke-width="0.5" stroke-miterlimit="10" width="1.393" height="3.332"/>
	<path fill="none" stroke="#486066" stroke-width="0.5" stroke-miterlimit="10" d="M624.418,502.423c0,1.61-1.453,2.914-3.246,2.914
		s-3.246-1.304-3.246-2.914c0-1.606,1.453-2.912,3.246-2.912S624.418,500.816,624.418,502.423z"/>
	
		<rect x="620.697" y="500.759" fill="none" stroke="#486066" stroke-width="0.5" stroke-miterlimit="10" width="1.393" height="3.332"/>
	<path fill="none" stroke="#486066" stroke-width="0.5" stroke-miterlimit="10" d="M640.197,502.423c0,1.61-1.453,2.914-3.244,2.914
		c-1.793,0-3.248-1.304-3.248-2.914c0-1.606,1.455-2.912,3.248-2.912C638.744,499.511,640.197,500.816,640.197,502.423z"/>
	
		<rect x="636.479" y="500.759" fill="none" stroke="#486066" stroke-width="0.5" stroke-miterlimit="10" width="1.391" height="3.332"/>
	<path fill="none" stroke="#486066" stroke-width="0.5" stroke-miterlimit="10" d="M646.695,502.423c0,1.61-1.451,2.914-3.248,2.914
		c-1.791,0-3.242-1.304-3.242-2.914c0-1.606,1.451-2.912,3.242-2.912C645.244,499.511,646.695,500.816,646.695,502.423z"/>
	
		<rect x="642.975" y="500.759" fill="none" stroke="#486066" stroke-width="0.5" stroke-miterlimit="10" width="1.395" height="3.332"/>
	<path fill="none" stroke="#486066" stroke-width="0.5" stroke-miterlimit="10" d="M662.941,502.423c0,1.61-1.455,2.914-3.248,2.914
		c-1.791,0-3.244-1.304-3.244-2.914c0-1.606,1.453-2.912,3.244-2.912C661.486,499.511,662.941,500.816,662.941,502.423z"/>
	
		<rect x="659.219" y="500.759" fill="none" stroke="#486066" stroke-width="0.5" stroke-miterlimit="10" width="1.393" height="3.332"/>
	<path fill="none" stroke="#486066" stroke-width="0.5" stroke-miterlimit="10" d="M673.15,502.423c0,1.61-1.455,2.914-3.244,2.914
		c-1.797,0-3.248-1.304-3.248-2.914c0-1.606,1.451-2.912,3.248-2.912C671.695,499.511,673.15,500.816,673.15,502.423z"/>
	
		<rect x="669.432" y="500.759" fill="none" stroke="#486066" stroke-width="0.5" stroke-miterlimit="10" width="1.389" height="3.332"/>
	<path fill="none" stroke="#486066" stroke-width="0.5" stroke-miterlimit="10" d="M689.857,502.423c0,1.61-1.451,2.914-3.244,2.914
		c-1.791,0-3.246-1.304-3.246-2.914c0-1.606,1.455-2.912,3.246-2.912C688.406,499.511,689.857,500.816,689.857,502.423z"/>
	
		<rect x="686.139" y="500.759" fill="none" stroke="#486066" stroke-width="0.5" stroke-miterlimit="10" width="1.391" height="3.332"/>
	<path fill="none" stroke="#486066" stroke-width="0.5" stroke-miterlimit="10" d="M697.748,502.423c0,1.61-1.453,2.914-3.246,2.914
		c-1.791,0-3.244-1.304-3.244-2.914c0-1.606,1.453-2.912,3.244-2.912C696.295,499.511,697.748,500.816,697.748,502.423z"/>
	
		<rect x="694.027" y="500.759" fill="none" stroke="#486066" stroke-width="0.5" stroke-miterlimit="10" width="1.393" height="3.332"/>
	
		<rect x="604.902" y="500.754" fill="none" stroke="#486066" stroke-width="0.5" stroke-miterlimit="10" width="1.43" height="3.33"/>
	
		<rect x="701.9" y="500.754" fill="none" stroke="#486066" stroke-width="0.5" stroke-miterlimit="10" width="1.432" height="3.33"/>
	
		<rect x="600.279" y="499.814" fill="none" stroke="#486066" stroke-width="0.5" stroke-miterlimit="10" width="105.801" height="6.867"/>
	<path fill="none" stroke="#486066" stroke-width="0.5" stroke-miterlimit="10" d="M652.967,534.47c0,2.76-2.492,4.997-5.568,4.997
		h-25.316c-3.074,0-5.563-2.237-5.563-4.997v-8.324c0-2.76,2.488-4.997,5.563-4.997h25.316c3.076,0,5.568,2.237,5.568,4.997V534.47z
		"/>
	<path fill="none" stroke="#486066" stroke-width="0.5" stroke-miterlimit="10" d="M694.008,534.47c0,2.76-2.494,4.997-5.564,4.997
		h-5.631c-3.072,0-5.563-2.237-5.563-4.997v-8.324c0-2.76,2.49-4.997,5.563-4.997h5.631c3.07,0,5.564,2.237,5.564,4.997V534.47z"/>
	
		<rect x="428.261" y="514.071" fill="none" stroke="#486066" stroke-width="0.5" stroke-miterlimit="10" width="37.325" height="38.717"/>
	
		<rect x="432.433" y="518.234" fill="none" stroke="#486066" stroke-width="0.5" stroke-miterlimit="10" width="28.747" height="30.806"/>
	
		<rect x="466.32" y="514.071" fill="none" stroke="#486066" stroke-width="0.5" stroke-miterlimit="10" width="37.324" height="38.717"/>
	
		<rect x="470.492" y="518.234" fill="none" stroke="#486066" stroke-width="0.5" stroke-miterlimit="10" width="28.746" height="30.806"/>
	
		<rect x="508.088" y="514.071" fill="none" stroke="#486066" stroke-width="0.5" stroke-miterlimit="10" width="37.324" height="38.717"/>
	
		<rect x="512.262" y="518.234" fill="none" stroke="#486066" stroke-width="0.5" stroke-miterlimit="10" width="28.748" height="30.806"/>
	
		<rect x="546.146" y="514.071" fill="none" stroke="#486066" stroke-width="0.5" stroke-miterlimit="10" width="37.328" height="38.717"/>
	
		<rect x="550.318" y="518.234" fill="none" stroke="#486066" stroke-width="0.5" stroke-miterlimit="10" width="28.748" height="30.806"/>
	
		<rect x="723.904" y="514.071" fill="none" stroke="#486066" stroke-width="0.5" stroke-miterlimit="10" width="37.322" height="38.717"/>
	
		<rect x="728.076" y="518.234" fill="none" stroke="#486066" stroke-width="0.5" stroke-miterlimit="10" width="28.746" height="30.806"/>
	
		<rect x="761.961" y="514.071" fill="none" stroke="#486066" stroke-width="0.5" stroke-miterlimit="10" width="37.324" height="38.717"/>
	
		<rect x="766.131" y="518.234" fill="none" stroke="#486066" stroke-width="0.5" stroke-miterlimit="10" width="28.75" height="30.806"/>
	
		<ellipse fill="none" stroke="#486066" stroke-width="0.5" stroke-miterlimit="10" cx="466.059" cy="504.32" rx="0.695" ry="0.621"/>
	
		<ellipse fill="none" stroke="#486066" stroke-width="0.5" stroke-miterlimit="10" cx="546.351" cy="504.32" rx="0.696" ry="0.621"/>
	<path fill="none" stroke="#486066" stroke-width="0.5" stroke-miterlimit="10" d="M761.932,504.32c0,0.344-0.311,0.621-0.697,0.621
		c-0.383,0-0.691-0.277-0.691-0.621c0-0.345,0.309-0.627,0.691-0.627C761.621,503.693,761.932,503.976,761.932,504.32z"/>
	
		<ellipse fill="none" stroke="#486066" stroke-width="0.5" stroke-miterlimit="10" cx="463.737" cy="519.736" rx="0.694" ry="0.624"/>
	
		<ellipse fill="none" stroke="#486066" stroke-width="0.5" stroke-miterlimit="10" cx="468.377" cy="519.736" rx="0.695" ry="0.624"/>
	
		<ellipse fill="none" stroke="#486066" stroke-width="0.5" stroke-miterlimit="10" cx="544.028" cy="519.736" rx="0.696" ry="0.624"/>
	
		<ellipse fill="none" stroke="#486066" stroke-width="0.5" stroke-miterlimit="10" cx="548.671" cy="519.736" rx="0.696" ry="0.624"/>
	
		<ellipse fill="none" stroke="#486066" stroke-width="0.5" stroke-miterlimit="10" cx="758.916" cy="519.736" rx="0.695" ry="0.624"/>
	
		<ellipse fill="none" stroke="#486066" stroke-width="0.5" stroke-miterlimit="10" cx="763.557" cy="519.736" rx="0.695" ry="0.624"/>
	
		<rect x="590.082" y="510.324" fill="none" stroke="#486066" stroke-width="0.5" stroke-miterlimit="10" width="8.361" height="44.543"/>
	
		<rect x="708.893" y="510.324" fill="none" stroke="#486066" stroke-width="0.5" stroke-miterlimit="10" width="8.363" height="44.543"/>
	<polyline fill="none" stroke="#486066" stroke-width="0.5" stroke-miterlimit="10" points="423.162,494.182 423.162,557.366 
		586.834,557.366 586.834,494.088 	"/>
	<polyline fill="none" stroke="#486066" stroke-width="0.5" stroke-miterlimit="10" points="718.959,494.182 718.959,557.366 
		802.9,557.366 802.9,494.182 	"/>
	
		<rect x="603.125" y="510.324" fill="none" stroke="#486066" stroke-width="0.5" stroke-miterlimit="10" width="102.955" height="47.042"/>
	
		<rect x="603.125" y="510.324" fill="none" stroke="#486066" stroke-width="0.5" stroke-miterlimit="10" width="63.516" height="40.38"/>
	
		<rect x="666.641" y="510.324" fill="none" stroke="#486066" stroke-width="0.5" stroke-miterlimit="10" width="38.984" height="40.38"/>
	<path fill="none" stroke="#486066" stroke-width="0.5" stroke-miterlimit="10" d="M660.596,511.157
		c0,0.459-0.416,0.835-0.928,0.835H608.42c-0.512,0-0.928-0.376-0.928-0.835l0,0c0-0.457,0.416-0.833,0.928-0.833h51.248
		C660.18,510.324,660.596,510.7,660.596,511.157L660.596,511.157z"/>
	<path fill="none" stroke="#486066" stroke-width="0.5" stroke-miterlimit="10" d="M701.438,511.157c0,0.459-0.25,0.835-0.553,0.835
		h-30.459c-0.307,0-0.551-0.376-0.551-0.835l0,0c0-0.457,0.244-0.833,0.551-0.833h30.459
		C701.188,510.324,701.438,510.7,701.438,511.157L701.438,511.157z"/>
	
		<rect x="607.492" y="511.157" fill="none" stroke="#486066" stroke-width="0.5" stroke-miterlimit="10" width="1.586" height="9.194"/>
	
		<rect x="659.008" y="511.157" fill="none" stroke="#486066" stroke-width="0.5" stroke-miterlimit="10" width="1.588" height="9.194"/>
	
		<rect x="669.686" y="511.157" fill="none" stroke="#486066" stroke-width="0.5" stroke-miterlimit="10" width="1.586" height="9.194"/>
	
		<rect x="698.461" y="511.157" fill="none" stroke="#486066" stroke-width="0.5" stroke-miterlimit="10" width="1.584" height="9.194"/>
	
		<line fill="none" stroke="#486066" stroke-width="0.5" stroke-miterlimit="10" x1="603.125" y1="552.788" x2="706.08" y2="552.788"/>
	
		<rect x="610.016" y="550.347" fill="none" stroke="#486066" stroke-width="0.5" stroke-miterlimit="10" width="2.326" height="2.088"/>
	
		<rect x="695.414" y="550.347" fill="none" stroke="#486066" stroke-width="0.5" stroke-miterlimit="10" width="2.324" height="2.088"/>
	
		<line fill="none" stroke="#486066" stroke-width="0.5" stroke-miterlimit="10" x1="586.834" y1="504.938" x2="600.279" y2="504.938"/>
	
		<line fill="none" stroke="#486066" stroke-width="0.5" stroke-miterlimit="10" x1="586.834" y1="505.772" x2="600.279" y2="505.772"/>
	
		<line fill="none" stroke="#486066" stroke-width="0.5" stroke-miterlimit="10" x1="706.111" y1="504.938" x2="719.559" y2="504.938"/>
	
		<line fill="none" stroke="#486066" stroke-width="0.5" stroke-miterlimit="10" x1="706.111" y1="505.772" x2="719.559" y2="505.772"/>
	
		<rect x="586.834" y="557.366" fill="none" stroke="#486066" stroke-width="0.5" stroke-miterlimit="10" width="16.291" height="7.075"/>
	
		<rect x="705.182" y="557.366" fill="none" stroke="#486066" stroke-width="0.5" stroke-miterlimit="10" width="16.295" height="7.075"/>
	
		<rect x="606.332" y="557.366" fill="none" stroke="#486066" stroke-width="0.5" stroke-miterlimit="10" width="4.848" height="7.075"/>
	
		<rect x="696.369" y="557.366" fill="none" stroke="#486066" stroke-width="0.5" stroke-miterlimit="10" width="4.85" height="7.075"/>
	
		<rect x="423.162" y="352.595" fill="none" stroke="#486066" stroke-width="0.5" stroke-miterlimit="10" width="379.739" height="211.847"/>
	
		<line fill="none" stroke="#486066" stroke-width="0.5" stroke-miterlimit="10" x1="423.162" y1="557.222" x2="802.9" y2="557.222"/>
	<g>
		<defs>
			<rect id="SVGID_3_" x="423.162" y="352.595" width="379.739" height="211.847"/>
		</defs>
		<clipPath id="SVGID_4_">
			<use xlink:href="#SVGID_3_"  overflow="visible"/>
		</clipPath>
		<path clip-path="url(#SVGID_4_)" fill="none" stroke="#486066" stroke-width="0.5" stroke-miterlimit="10" d="M883.401,369.621
			c0,0.458-0.418,0.83-0.93,0.83H715.09c-0.512,0-0.928-0.372-0.928-0.83l0,0c0-0.461,0.416-0.837,0.928-0.837h167.382
			C882.983,368.784,883.401,369.16,883.401,369.621L883.401,369.621z"/>
		<use xlink:href="#SVGID_3_"  overflow="visible" fill="none" stroke="#486066" stroke-width="0.5" stroke-miterlimit="10"/>
	</g>
</g>
</svg>
