<?xml version="1.0" encoding="utf-8"?>
<!-- Generator: Adobe Illustrator 16.0.0, SVG Export Plug-In . SVG Version: 6.00 Build 0)  -->
<!DOCTYPE svg PUBLIC "-//W3C//DTD SVG 1.1//EN" "http://www.w3.org/Graphics/SVG/1.1/DTD/svg11.dtd">
<svg version="1.1" id="Layer_1" xmlns="http://www.w3.org/2000/svg" xmlns:xlink="http://www.w3.org/1999/xlink" x="0px" y="0px"
	 width="45px" height="38px" viewBox="0 0 45 38" enable-background="new 0 0 45 38" xml:space="preserve">
<rect y="8" fill="#D97A56" width="45" height="9"/>
<g>
	<path fill="#D97A56" d="M30,13H14c-2.206,0-4-1.794-4-4V4c0-2.206,1.794-4,4-4h16c2.206,0,4,1.794,4,4v5C34,11.206,32.206,13,30,13
		z M14,2c-1.103,0-2,0.897-2,2v5c0,1.103,0.897,2,2,2h16c1.103,0,2-0.897,2-2V4c0-1.103-0.897-2-2-2H14z"/>
</g>
<g>
	<path fill="#D97A56" d="M26.965,19c-0.349,5.237-3.432,5.67-4.465,5.67s-4.116-0.433-4.465-5.67H0v19h45V19H26.965z"/>
	<path fill="#D97A56" d="M22.707,22.67c1.937,0,2.484-2.112,2.624-3.67h-5.248C20.223,20.558,20.771,22.67,22.707,22.67z"/>
</g>
</svg>
